<?xml version="1.0" encoding="UTF-8"?>
<!--Generator: Apple Native CoreSVG 123-->
<!DOCTYPE svg
PUBLIC "-//W3C//DTD SVG 1.1//EN"
       "http://www.w3.org/Graphics/SVG/1.1/DTD/svg11.dtd">
<svg version="1.1" xmlns="http://www.w3.org/2000/svg" xmlns:xlink="http://www.w3.org/1999/xlink" width="3300" height="2200">
 <!--glyph: "uni100644.medium", point size: 100.000000, font version: "Version 15.0d7e11", template writer version: "5"-->
 <g id="Notes">
  <rect height="2200" id="artboard" style="fill:white;opacity:1" width="3300" x="0" y="0"/>
  <line id="" style="fill:none;stroke:black;opacity:1;stroke-width:0.5;" x1="263" x2="3036" y1="292" y2="292"/>
  <text style="stroke:none;fill:black;font-family:-apple-system,&quot;SF Pro Display&quot;,&quot;SF Pro Text&quot;,Helvetica,sans-serif;font-weight:bold;" transform="matrix(1 0 0 1 263 322)">Weight/Scale Variations</text>
  <text style="stroke:none;fill:black;font-family:-apple-system,&quot;SF Pro Display&quot;,&quot;SF Pro Text&quot;,Helvetica,sans-serif;text-anchor:middle;" transform="matrix(1 0 0 1 559.711 322)">Ultralight</text>
  <text style="stroke:none;fill:black;font-family:-apple-system,&quot;SF Pro Display&quot;,&quot;SF Pro Text&quot;,Helvetica,sans-serif;text-anchor:middle;" transform="matrix(1 0 0 1 856.422 322)">Thin</text>
  <text style="stroke:none;fill:black;font-family:-apple-system,&quot;SF Pro Display&quot;,&quot;SF Pro Text&quot;,Helvetica,sans-serif;text-anchor:middle;" transform="matrix(1 0 0 1 1153.13 322)">Light</text>
  <text style="stroke:none;fill:black;font-family:-apple-system,&quot;SF Pro Display&quot;,&quot;SF Pro Text&quot;,Helvetica,sans-serif;text-anchor:middle;" transform="matrix(1 0 0 1 1449.84 322)">Regular</text>
  <text style="stroke:none;fill:black;font-family:-apple-system,&quot;SF Pro Display&quot;,&quot;SF Pro Text&quot;,Helvetica,sans-serif;text-anchor:middle;" transform="matrix(1 0 0 1 1746.56 322)">Medium</text>
  <text style="stroke:none;fill:black;font-family:-apple-system,&quot;SF Pro Display&quot;,&quot;SF Pro Text&quot;,Helvetica,sans-serif;text-anchor:middle;" transform="matrix(1 0 0 1 2043.27 322)">Semibold</text>
  <text style="stroke:none;fill:black;font-family:-apple-system,&quot;SF Pro Display&quot;,&quot;SF Pro Text&quot;,Helvetica,sans-serif;text-anchor:middle;" transform="matrix(1 0 0 1 2339.98 322)">Bold</text>
  <text style="stroke:none;fill:black;font-family:-apple-system,&quot;SF Pro Display&quot;,&quot;SF Pro Text&quot;,Helvetica,sans-serif;text-anchor:middle;" transform="matrix(1 0 0 1 2636.69 322)">Heavy</text>
  <text style="stroke:none;fill:black;font-family:-apple-system,&quot;SF Pro Display&quot;,&quot;SF Pro Text&quot;,Helvetica,sans-serif;text-anchor:middle;" transform="matrix(1 0 0 1 2933.4 322)">Black</text>
  <line id="" style="fill:none;stroke:black;opacity:1;stroke-width:0.5;" x1="263" x2="3036" y1="1903" y2="1903"/>
  <g id="" transform="matrix(1 0 0 1 263 1933)">
   <path d="M 9.24805 0.830078 C 13.5547 0.830078 17.1387 -2.74414 17.1387 -7.05078 C 17.1387 -11.3574 13.5449 -14.9316 9.23828 -14.9316 C 4.94141 -14.9316 1.36719 -11.3574 1.36719 -7.05078 C 1.36719 -2.74414 4.95117 0.830078 9.24805 0.830078 Z M 9.24805 -0.654297 C 5.70312 -0.654297 2.87109 -3.49609 2.87109 -7.05078 C 2.87109 -10.6055 5.69336 -13.4473 9.23828 -13.4473 C 12.793 -13.4473 15.6348 -10.6055 15.6445 -7.05078 C 15.6543 -3.49609 12.8027 -0.654297 9.24805 -0.654297 Z M 9.22852 -3.42773 C 9.69727 -3.42773 9.9707 -3.74023 9.9707 -4.25781 L 9.9707 -6.31836 L 12.1973 -6.31836 C 12.6953 -6.31836 13.0371 -6.57227 13.0371 -7.04102 C 13.0371 -7.51953 12.7148 -7.7832 12.1973 -7.7832 L 9.9707 -7.7832 L 9.9707 -10.0098 C 9.9707 -10.5273 9.69727 -10.8496 9.22852 -10.8496 C 8.75977 -10.8496 8.50586 -10.5078 8.50586 -10.0098 L 8.50586 -7.7832 L 6.29883 -7.7832 C 5.78125 -7.7832 5.44922 -7.51953 5.44922 -7.04102 C 5.44922 -6.57227 5.80078 -6.31836 6.29883 -6.31836 L 8.50586 -6.31836 L 8.50586 -4.25781 C 8.50586 -3.75977 8.75977 -3.42773 9.22852 -3.42773 Z"/>
  </g>
  <g id="" transform="matrix(1 0 0 1 281.506 1933)">
   <path d="M 11.709 2.91016 C 17.1582 2.91016 21.6699 -1.60156 21.6699 -7.05078 C 21.6699 -12.4902 17.1484 -17.0117 11.6992 -17.0117 C 6.25977 -17.0117 1.74805 -12.4902 1.74805 -7.05078 C 1.74805 -1.60156 6.26953 2.91016 11.709 2.91016 Z M 11.709 1.25 C 7.09961 1.25 3.41797 -2.44141 3.41797 -7.05078 C 3.41797 -11.6504 7.08984 -15.3516 11.6992 -15.3516 C 16.3086 -15.3516 20 -11.6504 20.0098 -7.05078 C 20.0195 -2.44141 16.3184 1.25 11.709 1.25 Z M 11.6895 -2.41211 C 12.207 -2.41211 12.5195 -2.77344 12.5195 -3.33984 L 12.5195 -6.23047 L 15.5762 -6.23047 C 16.123 -6.23047 16.5039 -6.51367 16.5039 -7.03125 C 16.5039 -7.55859 16.1426 -7.86133 15.5762 -7.86133 L 12.5195 -7.86133 L 12.5195 -10.9277 C 12.5195 -11.5039 12.207 -11.8555 11.6895 -11.8555 C 11.1719 -11.8555 10.8789 -11.4844 10.8789 -10.9277 L 10.8789 -7.86133 L 7.83203 -7.86133 C 7.26562 -7.86133 6.89453 -7.55859 6.89453 -7.03125 C 6.89453 -6.51367 7.28516 -6.23047 7.83203 -6.23047 L 10.8789 -6.23047 L 10.8789 -3.33984 C 10.8789 -2.79297 11.1719 -2.41211 11.6895 -2.41211 Z"/>
  </g>
  <g id="" transform="matrix(1 0 0 1 304.924 1933)">
   <path d="M 14.9707 5.67383 C 21.9336 5.67383 27.6953 -0.078125 27.6953 -7.04102 C 27.6953 -14.0039 21.9238 -19.7559 14.9609 -19.7559 C 8.00781 -19.7559 2.25586 -14.0039 2.25586 -7.04102 C 2.25586 -0.078125 8.01758 5.67383 14.9707 5.67383 Z M 14.9707 3.85742 C 8.93555 3.85742 4.08203 -1.00586 4.08203 -7.04102 C 4.08203 -13.0762 8.92578 -17.9395 14.9609 -17.9395 C 21.0059 -17.9395 25.8594 -13.0762 25.8691 -7.04102 C 25.8789 -1.00586 21.0156 3.85742 14.9707 3.85742 Z M 14.9512 -1.06445 C 15.5176 -1.06445 15.8691 -1.45508 15.8691 -2.06055 L 15.8691 -6.13281 L 20.1074 -6.13281 C 20.6934 -6.13281 21.1133 -6.46484 21.1133 -7.02148 C 21.1133 -7.59766 20.7227 -7.93945 20.1074 -7.93945 L 15.8691 -7.93945 L 15.8691 -12.1875 C 15.8691 -12.8027 15.5176 -13.1934 14.9512 -13.1934 C 14.3848 -13.1934 14.0625 -12.7832 14.0625 -12.1875 L 14.0625 -7.93945 L 9.83398 -7.93945 C 9.21875 -7.93945 8.80859 -7.59766 8.80859 -7.02148 C 8.80859 -6.46484 9.23828 -6.13281 9.83398 -6.13281 L 14.0625 -6.13281 L 14.0625 -2.06055 C 14.0625 -1.47461 14.3848 -1.06445 14.9512 -1.06445 Z"/>
  </g>
  <text style="stroke:none;fill:black;font-family:-apple-system,&quot;SF Pro Display&quot;,&quot;SF Pro Text&quot;,Helvetica,sans-serif;font-weight:bold;" transform="matrix(1 0 0 1 263 1953)">Design Variations</text>
  <text style="stroke:none;fill:black;font-family:-apple-system,&quot;SF Pro Display&quot;,&quot;SF Pro Text&quot;,Helvetica,sans-serif;" transform="matrix(1 0 0 1 263 1971)">Symbols are supported in up to nine weights and three scales.</text>
  <text style="stroke:none;fill:black;font-family:-apple-system,&quot;SF Pro Display&quot;,&quot;SF Pro Text&quot;,Helvetica,sans-serif;" transform="matrix(1 0 0 1 263 1989)">For optimal layout with text and other symbols, vertically align</text>
  <text style="stroke:none;fill:black;font-family:-apple-system,&quot;SF Pro Display&quot;,&quot;SF Pro Text&quot;,Helvetica,sans-serif;" transform="matrix(1 0 0 1 263 2007)">symbols with the adjacent text.</text>
  <rect height="14" id="" style="fill:#00AEEF;stroke:none;opacity:0.4;" width="3" x="776" y="1919"/>
  <g id="" transform="matrix(1 0 0 1 779 1933)">
   <path d="M 10.5273 0 L 12.373 0 L 7.17773 -14.0918 L 5.43945 -14.0918 L 0.244141 0 L 2.08984 0 L 3.50586 -4.0332 L 9.11133 -4.0332 Z M 6.2793 -11.9531 L 6.33789 -11.9531 L 8.59375 -5.52734 L 4.02344 -5.52734 Z"/>
  </g>
  <rect height="14" id="" style="fill:#00AEEF;stroke:none;opacity:0.4;" width="3" x="791.617" y="1919"/>
  <text style="stroke:none;fill:black;font-family:-apple-system,&quot;SF Pro Display&quot;,&quot;SF Pro Text&quot;,Helvetica,sans-serif;font-weight:bold;" transform="matrix(1 0 0 1 776 1953)">Margins</text>
  <text style="stroke:none;fill:black;font-family:-apple-system,&quot;SF Pro Display&quot;,&quot;SF Pro Text&quot;,Helvetica,sans-serif;" transform="matrix(1 0 0 1 776 1971)">Leading and trailing margins on the left and right side of each symbol</text>
  <text style="stroke:none;fill:black;font-family:-apple-system,&quot;SF Pro Display&quot;,&quot;SF Pro Text&quot;,Helvetica,sans-serif;" transform="matrix(1 0 0 1 776 1989)">can be adjusted by modifying the width of the blue rectangles.</text>
  <text style="stroke:none;fill:black;font-family:-apple-system,&quot;SF Pro Display&quot;,&quot;SF Pro Text&quot;,Helvetica,sans-serif;" transform="matrix(1 0 0 1 776 2007)">Modifications are automatically applied proportionally to all</text>
  <text style="stroke:none;fill:black;font-family:-apple-system,&quot;SF Pro Display&quot;,&quot;SF Pro Text&quot;,Helvetica,sans-serif;" transform="matrix(1 0 0 1 776 2025)">scales and weights.</text>
  <g id="" transform="matrix(1 0 0 1 1289 1933)">
   <path d="M 2.83203 3.11523 L 4.375 4.6582 C 5.22461 5.48828 6.19141 5.41992 7.06055 4.46289 L 17.2754 -6.66016 C 17.7051 -6.36719 18.0957 -6.37695 18.5645 -6.47461 L 19.6094 -6.68945 L 20.3027 -5.99609 L 20.2539 -5.47852 C 20.1855 -4.95117 20.3516 -4.53125 20.8496 -4.0332 L 21.6602 -3.22266 C 22.168 -2.71484 22.8223 -2.68555 23.3008 -3.16406 L 26.5527 -6.41602 C 27.0312 -6.89453 27.0117 -7.54883 26.5039 -8.05664 L 25.6836 -8.87695 C 25.1855 -9.375 24.7754 -9.55078 24.2383 -9.47266 L 23.7109 -9.41406 L 23.0566 -10.0781 L 23.3398 -11.2207 C 23.4863 -11.7871 23.3398 -12.2559 22.7148 -12.8613 L 20.3027 -15.2539 C 16.7578 -18.7793 12.2266 -18.6719 9.11133 -15.5371 C 8.69141 -15.1074 8.64258 -14.5215 8.91602 -14.0918 C 9.15039 -13.7207 9.62891 -13.4961 10.2734 -13.6621 C 11.7871 -14.043 13.3008 -13.9258 14.7852 -12.9199 L 14.1602 -11.3379 C 13.9258 -10.752 13.9453 -10.2734 14.1797 -9.83398 L 3.01758 0.439453 C 2.08008 1.30859 1.97266 2.25586 2.83203 3.11523 Z M 10.6738 -15.1465 C 13.3398 -17.1387 16.6504 -16.8262 19.0527 -14.4141 L 21.6797 -11.8066 C 21.9141 -11.5723 21.9434 -11.3867 21.8848 -11.0938 L 21.5039 -9.53125 L 23.0762 -7.95898 L 24.043 -8.04688 C 24.3262 -8.07617 24.4141 -8.05664 24.6387 -7.83203 L 25.2637 -7.20703 L 22.5098 -4.46289 L 21.8848 -5.07812 C 21.6602 -5.30273 21.6406 -5.40039 21.6699 -5.68359 L 21.7578 -6.64062 L 20.1953 -8.20312 L 18.5742 -7.89062 C 18.291 -7.83203 18.1445 -7.83203 17.9102 -8.07617 L 15.7324 -10.2539 C 15.5078 -10.4883 15.4785 -10.625 15.6055 -10.9473 L 16.5527 -13.2227 C 14.9512 -14.7559 12.8418 -15.6055 10.8008 -14.9512 C 10.7129 -14.9219 10.6445 -14.9414 10.6152 -14.9805 C 10.5859 -15.0293 10.5859 -15.0781 10.6738 -15.1465 Z M 4.10156 2.41211 C 3.61328 1.91406 3.78906 1.61133 4.12109 1.30859 L 15.0781 -8.80859 L 16.3086 -7.57812 L 6.15234 3.34961 C 5.84961 3.68164 5.46875 3.7793 5.06836 3.37891 Z"/>
  </g>
  <text style="stroke:none;fill:black;font-family:-apple-system,&quot;SF Pro Display&quot;,&quot;SF Pro Text&quot;,Helvetica,sans-serif;font-weight:bold;" transform="matrix(1 0 0 1 1289 1953)">Exporting</text>
  <text style="stroke:none;fill:black;font-family:-apple-system,&quot;SF Pro Display&quot;,&quot;SF Pro Text&quot;,Helvetica,sans-serif;" transform="matrix(1 0 0 1 1289 1971)">Symbols should be outlined when exporting to ensure the</text>
  <text style="stroke:none;fill:black;font-family:-apple-system,&quot;SF Pro Display&quot;,&quot;SF Pro Text&quot;,Helvetica,sans-serif;" transform="matrix(1 0 0 1 1289 1989)">design is preserved when submitting to Xcode.</text>
  <text id="template-version" style="stroke:none;fill:black;font-family:-apple-system,&quot;SF Pro Display&quot;,&quot;SF Pro Text&quot;,Helvetica,sans-serif;text-anchor:end;" transform="matrix(1 0 0 1 3036 1933)">Template v.1.0</text>
  <text style="stroke:none;fill:black;font-family:-apple-system,&quot;SF Pro Display&quot;,&quot;SF Pro Text&quot;,Helvetica,sans-serif;text-anchor:end;" transform="matrix(1 0 0 1 3036 1951)">Generated from hammer</text>
  <text style="stroke:none;fill:black;font-family:-apple-system,&quot;SF Pro Display&quot;,&quot;SF Pro Text&quot;,Helvetica,sans-serif;text-anchor:end;" transform="matrix(1 0 0 1 3036 1969)">Typeset at 100 points</text>
  <text style="stroke:none;fill:black;font-family:-apple-system,&quot;SF Pro Display&quot;,&quot;SF Pro Text&quot;,Helvetica,sans-serif;" transform="matrix(1 0 0 1 263 726)">Small</text>
  <text style="stroke:none;fill:black;font-family:-apple-system,&quot;SF Pro Display&quot;,&quot;SF Pro Text&quot;,Helvetica,sans-serif;" transform="matrix(1 0 0 1 263 1156)">Medium</text>
  <text style="stroke:none;fill:black;font-family:-apple-system,&quot;SF Pro Display&quot;,&quot;SF Pro Text&quot;,Helvetica,sans-serif;" transform="matrix(1 0 0 1 263 1586)">Large</text>
 </g>
 <g id="Guides">
  <g id="H-reference" style="fill:#27AAE1;stroke:none;" transform="matrix(1 0 0 1 339 696)">
   <path d="M 54.9316 0 L 57.666 0 L 30.5664 -70.459 L 28.0762 -70.459 L 0.976562 0 L 3.66211 0 L 12.9395 -24.4629 L 45.7031 -24.4629 Z M 29.1992 -67.0898 L 29.4434 -67.0898 L 44.8242 -26.709 L 13.8184 -26.709 Z"/>
  </g>
  <line id="Baseline-S" style="fill:none;stroke:#27AAE1;opacity:1;stroke-width:0.577;" x1="263" x2="3036" y1="696" y2="696"/>
  <line id="Capline-S" style="fill:none;stroke:#27AAE1;opacity:1;stroke-width:0.577;" x1="263" x2="3036" y1="625.541" y2="625.541"/>
  <g id="H-reference" style="fill:#27AAE1;stroke:none;" transform="matrix(1 0 0 1 339 1126)">
   <path d="M 54.9316 0 L 57.666 0 L 30.5664 -70.459 L 28.0762 -70.459 L 0.976562 0 L 3.66211 0 L 12.9395 -24.4629 L 45.7031 -24.4629 Z M 29.1992 -67.0898 L 29.4434 -67.0898 L 44.8242 -26.709 L 13.8184 -26.709 Z"/>
  </g>
  <line id="Baseline-M" style="fill:none;stroke:#27AAE1;opacity:1;stroke-width:0.577;" x1="263" x2="3036" y1="1126" y2="1126"/>
  <line id="Capline-M" style="fill:none;stroke:#27AAE1;opacity:1;stroke-width:0.577;" x1="263" x2="3036" y1="1055.54" y2="1055.54"/>
  <g id="H-reference" style="fill:#27AAE1;stroke:none;" transform="matrix(1 0 0 1 339 1556)">
   <path d="M 54.9316 0 L 57.666 0 L 30.5664 -70.459 L 28.0762 -70.459 L 0.976562 0 L 3.66211 0 L 12.9395 -24.4629 L 45.7031 -24.4629 Z M 29.1992 -67.0898 L 29.4434 -67.0898 L 44.8242 -26.709 L 13.8184 -26.709 Z"/>
  </g>
  <line id="Baseline-L" style="fill:none;stroke:#27AAE1;opacity:1;stroke-width:0.577;" x1="263" x2="3036" y1="1556" y2="1556"/>
  <line id="Capline-L" style="fill:none;stroke:#27AAE1;opacity:1;stroke-width:0.577;" x1="263" x2="3036" y1="1485.54" y2="1485.54"/>
  <rect height="119.336" id="left-margin" style="fill:#00AEEF;stroke:none;opacity:0.4;" width="11.2325" x="1376.99" y="1030.79"/>
  <rect height="119.336" id="right-margin" style="fill:#00AEEF;stroke:none;opacity:0.4;" width="11.2099" x="1511.49" y="1030.79"/>
 </g>
 <g id="Symbols">
  <g id="Black-L" transform="matrix(1 0 0 1 2835.4 1556)">
   <path d="M 19.2383 28.8574 L 32.5195 42.0898 C 39.2578 48.7793 46.5332 48.1934 53.418 40.625 L 113.965 -26.2207 C 116.357 -25.3906 118.945 -25.3418 122.119 -25.9277 L 127.246 -26.8066 L 130.127 -23.9258 L 129.834 -21.582 C 129.346 -17.4316 131.152 -13.8184 134.961 -9.96094 L 140.039 -4.83398 C 144.971 0.244141 151.953 0.390625 156.836 -4.49219 L 177.979 -25.6348 C 182.812 -30.4688 182.666 -37.4512 177.588 -42.3828 L 172.461 -47.4609 C 168.506 -51.3672 164.795 -53.3203 160.693 -52.6367 L 158.301 -52.2949 L 155.811 -54.7852 L 157.129 -60.6445 C 158.35 -65.6738 156.25 -70.166 151.367 -75.0488 L 134.668 -91.6992 C 110.498 -115.869 78.5645 -115.967 57.0312 -94.6289 C 51.3184 -89.0137 52.5879 -82.2266 56.4453 -78.0273 C 59.1309 -75.0977 63.1836 -73.3887 67.2852 -74.4629 C 77.0996 -77.1484 84.0332 -76.2695 90.2344 -71.8262 L 87.5488 -65.2832 C 85.6934 -60.5957 85.6934 -56.3965 87.4512 -52.6367 L 20.6543 7.91016 C 12.9883 14.8438 12.4512 22.168 19.2383 28.8574 Z M 79.248 -90.0879 C 92.334 -95.9473 107.959 -93.1641 120.361 -80.7617 L 138.33 -62.9395 C 140.039 -61.2305 139.99 -60.1562 139.746 -58.3496 L 138.184 -49.0234 L 150.928 -36.1816 L 157.617 -36.1328 C 158.447 -36.1328 158.691 -36.084 159.229 -35.5469 L 160.938 -33.8379 L 149.316 -22.168 L 147.607 -23.9258 C 147.07 -24.4141 147.021 -24.6582 147.021 -25.5371 L 147.021 -30.6152 L 133.545 -44.0918 L 124.072 -42.8711 C 122.266 -42.5781 121.289 -42.3828 119.58 -44.1406 L 106.836 -56.8848 C 105.127 -58.6426 104.785 -59.9121 105.469 -61.5723 L 111.523 -74.6582 C 102.295 -84.1309 91.4551 -89.1602 79.5898 -89.0137 C 79.0039 -89.0137 78.8574 -89.2578 78.8574 -89.4531 C 78.8574 -89.7461 78.9551 -89.9414 79.248 -90.0879 Z M 35.2051 20.459 C 34.1309 19.3848 34.4727 18.5059 35.2539 17.7734 L 98.2422 -40.2344 L 100.83 -37.7441 L 101.66 -36.9141 L 43.457 25.9766 C 42.7246 26.7578 41.6016 26.8555 40.7227 25.9766 Z"/>
  </g>
  <g id="Heavy-L" transform="matrix(1 0 0 1 2539.81 1556)">
   <path d="M 18.9941 28.9551 L 31.4941 41.4062 C 37.8906 47.7539 44.7754 47.168 51.2695 39.9902 L 113.135 -28.0273 C 115.576 -26.9531 118.164 -26.9043 121.436 -27.4902 L 126.953 -28.5645 L 130.273 -25.1953 L 130.029 -22.7051 C 129.492 -18.6523 131.104 -15.2832 134.766 -11.5723 L 139.893 -6.39648 C 144.336 -1.85547 150.586 -1.66016 154.98 -6.05469 L 176.123 -27.1973 C 180.469 -31.543 180.273 -37.793 175.732 -42.2363 L 170.557 -47.3633 C 166.748 -51.123 163.33 -52.832 159.326 -52.1973 L 156.787 -51.8555 L 153.76 -54.8828 L 155.273 -61.084 C 156.396 -65.7227 154.59 -69.873 150 -74.4629 L 133.447 -90.9668 C 109.717 -114.6 78.5645 -114.6 57.4219 -93.5547 C 52.4414 -88.6719 53.3203 -82.666 56.6895 -78.8574 C 59.082 -76.0742 62.8418 -74.4629 66.8457 -75.5371 C 76.7578 -78.1738 84.5215 -77.2949 91.4551 -72.3145 L 88.4277 -64.7461 C 86.6211 -60.3027 86.6699 -56.3965 88.4277 -52.832 L 20.3125 9.08203 C 13.0859 15.6738 12.5488 22.5586 18.9941 28.9551 Z M 76.3672 -89.502 C 90.5762 -97.3633 107.666 -94.6777 120.898 -81.4941 L 138.672 -63.8672 C 140.332 -62.1582 140.381 -61.0352 140.039 -59.2285 L 138.232 -49.7559 L 150.293 -37.5977 L 156.787 -37.7441 C 157.861 -37.7441 158.252 -37.6953 159.082 -36.9141 L 161.426 -34.5215 L 148.145 -21.2402 L 145.752 -23.6328 C 144.971 -24.4141 144.873 -24.8047 144.971 -25.9277 L 145.117 -31.1523 L 132.52 -43.75 L 122.852 -42.2852 C 121.045 -41.9922 120.068 -41.8457 118.359 -43.5547 L 105.273 -56.6895 C 103.564 -58.3984 103.271 -59.6191 104.004 -61.3281 L 110.059 -74.9023 C 100.684 -84.375 89.0625 -89.4043 76.9043 -88.3301 C 76.2695 -88.3301 76.0742 -88.4766 75.9766 -88.7695 C 75.8789 -89.0625 75.9766 -89.3066 76.3672 -89.502 Z M 32.8613 21.582 C 31.2012 19.9707 31.7871 18.8477 32.9102 17.7734 L 97.8516 -42.041 L 101.465 -38.5254 L 102.49 -37.4512 L 42.4805 27.3438 C 41.4551 28.4668 40.0391 28.8086 38.6719 27.4414 Z"/>
  </g>
  <g id="Bold-L" transform="matrix(1 0 0 1 2244.35 1556)">
   <path d="M 18.7012 29.0527 L 30.3223 40.625 C 36.3281 46.582 42.8223 45.9961 48.877 39.3555 L 112.207 -30.0781 C 114.746 -28.6621 117.383 -28.6133 120.654 -29.248 L 126.611 -30.5176 L 130.469 -26.6113 L 130.176 -23.9746 C 129.639 -20.0684 131.055 -16.9434 134.521 -13.3789 L 139.746 -8.1543 C 143.652 -4.19922 149.072 -4.00391 152.881 -7.8125 L 174.023 -28.9551 C 177.832 -32.7637 177.637 -38.1348 173.682 -42.041 L 168.408 -47.2656 C 164.844 -50.8301 161.67 -52.3438 157.764 -51.709 L 155.078 -51.3184 L 151.465 -54.9805 L 153.125 -61.5234 C 154.199 -65.8203 152.783 -69.5312 148.389 -73.8281 L 132.08 -90.0879 C 108.838 -113.232 78.5156 -113.086 57.8125 -92.3828 C 53.7109 -88.2812 54.1992 -83.1543 56.9824 -79.7852 C 59.0332 -77.1973 62.4023 -75.7324 66.3086 -76.7578 C 76.3672 -79.2969 85.0098 -78.4668 92.8711 -72.8516 L 89.4043 -64.1113 C 87.6953 -59.9609 87.793 -56.3477 89.502 -53.0762 L 19.9219 10.4492 C 13.2324 16.5527 12.5977 22.998 18.7012 29.0527 Z M 73.0957 -88.8672 C 88.5254 -98.9746 107.422 -96.3379 121.533 -82.2754 L 139.014 -64.8438 C 140.674 -63.2324 140.771 -62.0117 140.381 -60.2051 L 138.33 -50.5859 L 149.658 -39.209 L 155.859 -39.502 C 157.275 -39.5996 157.812 -39.5508 158.887 -38.4277 L 162.012 -35.3516 L 146.875 -20.166 L 143.701 -23.291 C 142.627 -24.3652 142.529 -24.9023 142.676 -26.3184 L 143.018 -31.7383 L 131.348 -43.4082 L 121.484 -41.6504 C 119.727 -41.3086 118.652 -41.2109 116.992 -42.9199 L 103.467 -56.4453 C 101.855 -58.1543 101.562 -59.2773 102.295 -61.084 L 108.398 -75.1465 C 98.877 -84.6191 86.4258 -89.6973 73.8281 -87.5977 C 73.2422 -87.5 72.9004 -87.6465 72.7539 -87.9395 C 72.6074 -88.2324 72.6562 -88.5742 73.0957 -88.8672 Z M 30.1758 22.8516 C 27.9297 20.6055 28.8086 19.1895 30.3223 17.7734 L 97.4121 -44.0918 L 102.441 -39.1113 L 103.467 -38.0859 L 41.4062 28.9062 C 40.0391 30.4199 38.2812 30.957 36.377 29.0527 Z"/>
  </g>
  <g id="Semibold-L" transform="matrix(1 0 0 1 1948.49 1556)">
   <path d="M 18.5059 29.1016 L 29.541 40.0879 C 35.2539 45.752 41.4551 45.2148 47.2168 38.8672 L 111.621 -31.4941 C 114.258 -29.8828 116.846 -29.834 120.117 -30.4688 L 126.367 -31.8359 L 130.615 -27.5879 L 130.322 -24.8535 C 129.785 -20.9961 131.006 -18.0664 134.375 -14.6484 L 139.648 -9.375 C 143.213 -5.81055 147.998 -5.61523 151.416 -9.0332 L 172.607 -30.1758 C 176.025 -33.5938 175.83 -38.3789 172.266 -41.9434 L 166.943 -47.2168 C 163.477 -50.6348 160.547 -51.9531 156.689 -51.3184 L 153.906 -50.9766 L 149.902 -55.0293 L 151.66 -61.8164 C 152.686 -65.8691 151.465 -69.2871 147.314 -73.3887 L 131.104 -89.502 C 108.252 -112.256 78.5156 -112.061 58.1055 -91.5527 C 54.541 -87.9883 54.7852 -83.4473 57.1777 -80.3711 C 58.9844 -77.9785 62.1582 -76.6113 65.9668 -77.5879 C 76.0742 -80.0781 85.4004 -79.248 93.7988 -73.1934 L 90.0391 -63.7207 C 88.4277 -59.7168 88.5742 -56.3477 90.2832 -53.2715 L 19.6777 11.377 C 13.3301 17.1875 12.6953 23.291 18.5059 29.1016 Z M 70.8984 -88.4277 C 87.1582 -100.098 107.178 -97.5098 121.924 -82.8125 L 139.258 -65.5762 C 140.918 -63.916 141.016 -62.6953 140.625 -60.8887 L 138.428 -51.123 L 149.17 -40.332 L 155.225 -40.7227 C 156.836 -40.8691 157.471 -40.8203 158.74 -39.502 L 162.402 -35.8887 L 145.947 -19.4336 L 142.334 -23.0957 C 141.016 -24.3652 140.918 -25 141.113 -26.6113 L 141.553 -32.1289 L 130.566 -43.1152 L 120.557 -41.2109 C 118.75 -40.8203 117.725 -40.8203 116.064 -42.4805 L 102.295 -56.2988 C 100.635 -57.959 100.391 -59.0332 101.172 -60.9375 L 107.275 -75.293 C 97.6074 -84.8145 84.5703 -89.8926 71.7285 -87.0605 C 71.1426 -86.9141 70.752 -87.0117 70.5078 -87.4023 C 70.3125 -87.6953 70.4102 -88.0859 70.8984 -88.4277 Z M 28.3203 23.7305 C 25.6836 21.0449 26.7578 19.4336 28.5156 17.7734 L 97.1191 -45.5078 L 103.418 -39.209 L 104.102 -38.5254 L 40.6738 29.9805 C 39.0625 31.7383 37.0605 32.4219 34.7656 30.1758 Z"/>
  </g>
  <g id="Medium-L" transform="matrix(1 0 0 1 1652.44 1556)">
   <path d="M 18.3105 29.1504 L 28.9062 39.6973 C 34.4727 45.166 40.4297 44.6289 45.9961 38.5254 L 111.182 -32.6172 C 113.916 -30.7617 116.504 -30.7129 119.727 -31.3965 L 126.172 -32.8613 L 130.713 -28.3691 L 130.42 -25.5371 C 129.883 -21.7285 130.957 -18.9453 134.277 -15.5762 L 139.551 -10.3027 C 142.822 -6.98242 147.217 -6.83594 150.342 -9.96094 L 171.484 -31.1035 C 174.658 -34.2285 174.463 -38.5742 171.191 -41.8457 L 165.869 -47.168 C 162.5 -50.4883 159.668 -51.709 155.908 -51.0742 L 153.027 -50.7324 L 148.682 -55.0781 L 150.537 -62.0605 C 151.562 -65.918 150.537 -69.0918 146.484 -73.0957 L 130.42 -89.0625 C 107.764 -111.523 78.4668 -111.279 58.3496 -90.9668 C 55.2246 -87.793 55.2246 -83.6914 57.3242 -80.8594 C 58.9844 -78.5645 61.9141 -77.2461 65.7227 -78.2227 C 75.8789 -80.7129 85.6445 -79.8828 94.5312 -73.4863 L 90.5273 -63.3789 C 89.0137 -59.5215 89.1602 -56.3477 90.8203 -53.418 L 19.4824 12.0605 C 13.4277 17.627 12.7441 23.5352 18.3105 29.1504 Z M 69.1895 -88.1348 C 86.084 -100.928 107.031 -98.3887 122.266 -83.2031 L 139.453 -66.1133 C 141.064 -64.502 141.26 -63.2324 140.82 -61.377 L 138.477 -51.5625 L 148.828 -41.1621 L 154.785 -41.6504 C 156.494 -41.8457 157.227 -41.748 158.643 -40.2832 L 162.695 -36.2793 L 145.264 -18.8965 L 141.26 -22.9004 C 139.795 -24.3652 139.697 -25.0488 139.893 -26.8066 L 140.43 -32.4219 L 129.932 -42.9199 L 119.824 -40.8691 C 118.066 -40.4785 116.992 -40.4785 115.332 -42.1387 L 101.367 -56.2012 C 99.7559 -57.8125 99.5117 -58.8867 100.293 -60.791 L 106.445 -75.4395 C 96.6797 -84.9609 83.2031 -90.0391 70.166 -86.6699 C 69.5312 -86.5234 69.0918 -86.5723 68.8477 -86.9629 C 68.6035 -87.3047 68.6523 -87.6953 69.1895 -88.1348 Z M 26.9531 24.3652 C 23.9746 21.3867 25.1953 19.5801 27.1484 17.7734 L 96.9238 -46.5332 L 104.639 -38.8672 L 40.1367 30.7617 C 38.3301 32.7148 36.1328 33.5938 33.5938 31.0059 Z"/>
  </g>
  <g id="Regular-L" transform="matrix(1 0 0 1 1356.58 1556)">
   <path d="M 18.1152 29.1992 L 28.125 39.1602 C 33.3984 44.3848 39.1113 43.7988 44.3359 38.0371 L 110.645 -34.082 C 113.477 -31.8848 116.064 -31.8848 119.189 -32.6172 L 125.928 -34.1797 L 130.859 -29.2969 L 130.518 -26.3672 C 129.98 -22.7051 130.908 -20.0684 134.131 -16.8457 L 139.453 -11.5234 C 142.383 -8.59375 146.143 -8.39844 148.877 -11.1328 L 170.068 -32.2754 C 172.852 -35.0098 172.656 -38.8184 169.775 -41.6992 L 164.404 -47.0703 C 161.182 -50.293 158.545 -51.3184 154.834 -50.7324 L 151.855 -50.3906 L 147.119 -55.127 L 149.072 -62.4023 C 150.049 -65.9668 149.268 -68.8965 145.41 -72.6562 L 129.443 -88.4766 C 107.178 -110.596 78.4668 -110.254 58.6426 -90.1367 C 56.0547 -87.5 55.8105 -84.0332 57.5195 -81.4941 C 58.9355 -79.2969 61.6699 -78.0762 65.3809 -79.0527 C 75.6348 -81.4941 85.9863 -80.6641 95.459 -73.8281 L 91.2109 -62.9883 C 89.7461 -59.3262 89.9414 -56.3477 91.6016 -53.6133 L 19.2383 12.9883 C 13.5254 18.2617 12.793 23.8281 18.1152 29.1992 Z M 66.9922 -87.6953 C 84.7168 -102.051 106.836 -99.5117 122.656 -83.7402 L 139.697 -66.7969 C 141.309 -65.1855 141.504 -63.8672 141.064 -62.0605 L 138.525 -52.0996 L 148.389 -42.2363 L 154.15 -42.8711 C 156.055 -43.1152 156.885 -43.0176 158.545 -41.3574 L 163.086 -36.8164 L 144.385 -18.1641 L 139.844 -22.7051 C 138.232 -24.3164 138.086 -25.1465 138.33 -27.0996 L 138.965 -32.8125 L 129.15 -42.6758 L 118.896 -40.4297 C 117.139 -39.9902 116.064 -40.0879 114.404 -41.6992 L 100.146 -56.0059 C 98.584 -57.666 98.3398 -58.6426 99.1211 -60.6445 L 105.322 -75.5859 C 95.4102 -85.1562 81.3477 -90.2344 68.0664 -86.1328 C 67.4316 -85.9375 66.9434 -85.9863 66.6504 -86.4258 C 66.3574 -86.7676 66.4062 -87.207 66.9922 -87.6953 Z M 25.1465 25.2441 C 21.7285 21.8262 23.1445 19.8242 25.3418 17.8223 L 96.6309 -47.9492 L 105.273 -39.3066 L 39.4043 31.8359 C 37.3535 34.0332 34.9609 35.0586 32.0312 32.0801 Z"/>
  </g>
  <g id="Light-L" transform="matrix(1 0 0 1 1060.9 1556)">
   <path d="M 17.9199 27.6367 L 27.9785 37.6465 C 32.959 42.627 37.8906 41.9922 42.7246 36.7188 L 109.473 -35.9863 C 112.5 -33.3496 115.137 -33.2031 118.359 -34.082 L 125.098 -35.9375 L 130.615 -30.4688 L 130.322 -28.0762 C 129.59 -24.0723 130.42 -21.5332 133.643 -18.2617 L 139.062 -12.793 C 141.504 -10.3516 144.678 -10.2051 146.924 -12.4512 L 168.359 -33.8379 C 170.654 -36.084 170.459 -39.2578 168.066 -41.6992 L 162.549 -47.168 C 159.326 -50.3906 156.738 -51.2695 152.734 -50.5371 L 150.293 -50.1465 L 144.922 -55.6152 L 147.07 -62.6953 C 148.096 -66.1133 147.461 -68.9941 143.799 -72.5098 L 127.344 -88.8184 C 105.908 -110.107 77.9297 -110.254 58.3984 -90.332 C 56.0059 -87.8906 55.8105 -84.8145 57.5195 -82.5195 C 58.8379 -80.6641 61.0352 -79.7852 64.0625 -80.5176 C 74.9512 -83.0078 86.2305 -82.0801 95.5566 -74.8047 L 90.918 -62.9883 C 89.5996 -59.6191 89.8438 -56.8359 91.6992 -54.1016 L 18.8477 12.8906 C 13.623 17.6758 12.8418 22.5586 17.9199 27.6367 Z M 64.4043 -87.9395 C 82.9102 -104.346 106.055 -101.221 122.266 -85.0098 L 139.404 -67.9199 C 141.162 -66.2109 141.357 -64.7949 140.869 -63.0371 L 138.184 -53.2715 L 147.705 -43.75 L 152.783 -44.4824 C 154.883 -44.8242 156.055 -44.6777 157.959 -42.7734 L 163.184 -37.5488 L 143.213 -17.627 L 138.037 -22.8516 C 136.133 -24.7559 135.938 -25.9277 136.328 -28.0273 L 137.061 -33.0566 L 127.539 -42.627 L 117.627 -40.0879 C 115.869 -39.5996 114.648 -39.7949 112.891 -41.5527 L 98.291 -56.1523 C 96.582 -57.9102 96.2891 -59.082 97.0215 -60.9863 L 103.32 -76.2695 C 93.9941 -85.3516 79.3457 -89.9902 65.918 -86.0352 C 65.1855 -85.8398 64.502 -85.791 64.0625 -86.3281 C 63.7207 -86.8164 63.7695 -87.4023 64.4043 -87.9395 Z M 23.291 24.4629 C 19.6289 20.752 21.3867 18.75 23.7305 16.6016 L 95.7031 -49.707 L 105.322 -40.0879 L 38.916 31.7871 C 36.7676 34.1309 34.4727 35.6445 31.0547 32.2266 Z"/>
  </g>
  <g id="Thin-L" transform="matrix(1 0 0 1 765.553 1556)">
   <path d="M 17.6758 25.5859 L 27.7344 35.6445 C 32.4219 40.2832 36.377 39.502 40.5273 34.9121 L 108.057 -38.5254 C 111.279 -35.3027 113.965 -34.9609 117.236 -36.0352 L 123.975 -38.2812 L 130.371 -31.9824 L 130.029 -30.3223 C 129.053 -25.8789 129.736 -23.4375 132.959 -20.1172 L 138.525 -14.4531 C 140.332 -12.6465 142.725 -12.5488 144.336 -14.1602 L 166.113 -35.8398 C 167.773 -37.4512 167.578 -39.8438 165.771 -41.6504 L 160.107 -47.3145 C 156.885 -50.5371 154.395 -51.2207 149.902 -50.2441 L 148.291 -49.9023 L 141.992 -56.25 L 144.336 -63.0859 C 145.459 -66.3574 145.068 -69.0918 141.699 -72.3633 L 124.561 -89.2578 C 104.199 -109.424 77.1484 -110.303 58.1543 -90.625 C 56.0059 -88.3789 55.8105 -85.8398 57.5195 -83.8867 C 58.6914 -82.4707 60.2051 -82.0312 62.3535 -82.5195 C 74.1211 -85.0098 86.5234 -83.9355 95.6543 -76.123 L 90.5762 -62.9883 C 89.4531 -60.1074 89.6973 -57.5684 91.9434 -54.7852 L 18.3594 12.793 C 13.7695 16.9434 12.9395 20.8496 17.6758 25.5859 Z M 60.9863 -88.3301 C 80.5176 -107.422 104.98 -103.418 121.729 -86.6699 L 139.062 -69.4336 C 141.016 -67.5781 141.162 -66.0156 140.625 -64.3066 L 137.695 -54.7852 L 146.777 -45.752 L 151.025 -46.6309 C 153.32 -47.0703 154.932 -46.9238 157.178 -44.6777 L 163.281 -38.5254 L 141.699 -16.9434 L 135.596 -23.0469 C 133.35 -25.293 133.105 -26.9531 133.643 -29.248 L 134.473 -33.3984 L 125.391 -42.5781 L 115.918 -39.6484 C 114.209 -39.1113 112.744 -39.4043 110.889 -41.3086 L 95.8008 -56.3477 C 93.8965 -58.252 93.6035 -59.7168 94.2871 -61.4258 L 100.684 -77.1484 C 92.0898 -85.6445 76.709 -89.6484 63.0859 -85.8887 C 62.207 -85.6445 61.3281 -85.5469 60.7422 -86.2793 C 60.2051 -86.8652 60.2539 -87.6465 60.9863 -88.3301 Z M 20.8984 23.4375 C 16.8457 19.3848 19.043 17.2852 21.582 14.9902 L 94.4824 -52.0996 L 105.42 -41.1621 L 38.2812 31.7383 C 35.9863 34.2773 33.8379 36.4258 29.834 32.4219 Z"/>
  </g>
  <g id="Ultralight-L" transform="matrix(1 0 0 1 469.526 1556)">
   <path d="M 17.5293 24.5605 L 27.5879 34.6191 C 32.1289 39.1113 35.5469 38.2812 39.4531 34.0332 L 107.324 -39.8926 L 107.666 -39.502 C 110.889 -36.3281 113.477 -35.8887 116.65 -37.0605 L 123.389 -39.4531 L 130.225 -32.7637 L 129.883 -31.4941 C 128.76 -26.8066 129.395 -24.4141 132.617 -21.0938 L 138.281 -15.332 C 139.746 -13.8184 141.699 -13.7207 142.969 -15.0391 L 164.941 -36.9141 C 166.309 -38.1836 166.064 -40.1367 164.6 -41.6016 L 158.887 -47.3633 C 155.664 -50.5859 153.174 -51.1719 148.486 -50.0977 L 147.217 -49.7559 L 140.479 -56.5918 L 142.969 -63.2812 C 144.092 -66.4551 143.848 -69.1406 140.625 -72.3145 L 123.145 -89.502 C 103.32 -109.082 76.7578 -110.303 58.0078 -90.7227 C 55.957 -88.623 55.8105 -86.3281 57.5195 -84.5703 C 58.5938 -83.3984 59.8145 -83.2031 61.5234 -83.5449 C 73.6816 -86.0352 86.6699 -84.8633 95.7031 -76.7578 L 90.3809 -63.0371 C 89.3555 -60.3516 89.5996 -57.959 92.041 -55.1758 L 18.1152 12.6953 C 13.8672 16.6016 12.9883 19.9707 17.5293 24.5605 Z M 59.2285 -88.5254 C 79.248 -108.984 104.443 -104.59 121.484 -87.5488 L 138.867 -70.2148 C 140.918 -68.2617 141.113 -66.6016 140.527 -64.9414 L 137.5 -55.6152 L 146.289 -46.7773 L 150.098 -47.7051 C 152.49 -48.1934 154.395 -48.0469 156.787 -45.6055 L 163.379 -39.0625 L 140.918 -16.6016 L 134.326 -23.1934 C 131.934 -25.5859 131.689 -27.4902 132.275 -29.8828 L 133.203 -33.5938 L 124.268 -42.5781 L 115.039 -39.4043 C 113.379 -38.8184 111.816 -39.209 109.814 -41.1621 L 109.131 -41.8457 L 109.18 -41.8945 L 94.043 -57.0312 L 94.043 -56.9824 C 92.4805 -58.7402 92.2852 -60.1562 92.8223 -61.6699 L 99.3164 -77.6367 C 91.1133 -85.7422 75.3418 -89.4531 61.6211 -85.8398 C 60.6934 -85.5469 59.668 -85.4004 58.9844 -86.2305 C 58.3984 -86.9141 58.4961 -87.7441 59.2285 -88.5254 Z M 19.6777 22.9492 C 15.3809 18.6523 17.8223 16.5527 20.459 14.209 L 93.8477 -53.3203 L 105.469 -41.748 L 37.9883 31.6895 C 35.5957 34.3262 33.5449 36.8164 29.1992 32.4707 Z"/>
  </g>
  <g id="Black-M" transform="matrix(1 0 0 1 2856.5 1126)">
   <path d="M 15.1367 13.5254 L 26.5137 24.8535 C 32.0312 30.3223 37.793 29.834 43.4082 23.6328 L 88.8184 -26.7578 C 90.625 -26.2695 92.6758 -26.2207 95.1172 -26.6602 L 98.584 -27.2949 L 100.488 -25.3906 L 100.293 -24.0723 C 99.8047 -20.459 101.416 -17.3828 104.541 -14.209 L 108.496 -10.2051 C 112.695 -5.85938 118.799 -5.76172 122.998 -9.96094 L 139.551 -26.5137 C 143.701 -30.6152 143.555 -36.7188 139.209 -40.9668 L 135.254 -44.873 C 131.885 -48.1445 128.76 -49.8535 125.244 -49.2188 L 123.926 -48.9746 L 122.314 -50.5371 L 123.242 -54.541 C 124.268 -58.8379 122.363 -62.793 118.359 -66.7969 L 104.932 -80.2246 C 86.0352 -99.1211 60.5957 -99.6094 43.5547 -82.8125 C 38.2324 -77.5879 39.7461 -71.5332 43.4082 -67.8711 C 45.8008 -65.4785 49.1211 -64.209 52.0996 -64.9902 C 59.9121 -67.1387 64.6484 -66.3574 68.2617 -63.4766 L 66.5527 -59.2773 C 65.0391 -55.4199 64.9902 -51.9043 66.4551 -48.6816 L 16.2598 -3.4668 C 9.96094 2.19727 9.57031 8.00781 15.1367 13.5254 Z M 63.9648 -78.6621 C 72.998 -81.5918 83.5449 -79.0039 92.334 -70.2637 L 106.641 -56.1035 C 108.057 -54.6387 107.959 -53.8574 107.764 -52.4902 L 106.787 -45.5566 L 117.383 -34.8633 L 122.559 -34.668 C 122.9 -34.5703 123.096 -34.5703 123.34 -34.375 L 124.072 -33.5938 L 116.65 -26.123 L 115.82 -26.9531 C 115.674 -27.0996 115.625 -27.2949 115.625 -27.7344 L 115.479 -31.1035 L 104.053 -42.5293 L 97.1191 -41.748 C 95.752 -41.5527 94.9219 -41.3574 93.457 -42.7734 L 83.8867 -52.3438 C 82.4707 -53.8086 82.1289 -55.0293 82.6172 -56.1035 L 87.3047 -65.8691 C 80.6641 -72.9004 72.998 -76.5625 64.209 -77.7832 C 63.6719 -77.832 63.623 -78.0273 63.623 -78.2227 C 63.623 -78.4668 63.7695 -78.6133 63.9648 -78.6621 Z M 29.541 6.00586 C 29.248 5.76172 29.3457 5.41992 29.5898 5.17578 L 76.123 -37.6465 L 77.1973 -36.6699 L 77.6367 -36.2305 L 34.7168 10.3516 C 34.5215 10.5469 34.082 10.5957 33.8379 10.3516 Z"/>
  </g>
  <g id="Heavy-M" transform="matrix(1 0 0 1 2560.74 1126)">
   <path d="M 14.8926 14.0137 L 25.4395 24.4629 C 30.6152 29.6387 36.1816 29.1992 41.5039 23.3398 L 88.1836 -28.2715 C 90.0391 -27.5879 92.0898 -27.5391 94.5801 -28.0273 L 98.4375 -28.7598 L 100.732 -26.4648 L 100.537 -24.8535 C 100.049 -21.4844 101.514 -18.6523 104.492 -15.625 L 108.447 -11.6211 C 112.256 -7.71484 117.676 -7.56836 121.484 -11.3281 L 137.939 -27.832 C 141.65 -31.543 141.553 -36.9629 137.646 -40.7715 L 133.643 -44.7754 C 130.518 -47.8516 127.588 -49.3164 124.316 -48.7793 L 122.656 -48.4863 L 120.654 -50.4883 L 121.729 -54.9316 C 122.656 -58.8379 121.045 -62.4023 117.236 -66.2109 L 104.102 -79.2969 C 85.498 -97.9004 60.7422 -98.1445 44.043 -81.5918 C 39.4531 -77.0996 40.5273 -71.7773 43.6523 -68.5059 C 45.8008 -66.2109 48.877 -64.9902 51.9043 -65.7715 C 59.668 -67.8711 65.0879 -67.1387 69.6289 -63.7207 L 67.5781 -58.6426 C 66.1133 -55.0293 66.1133 -51.7578 67.5293 -48.7793 L 16.0156 -2.14844 C 10.0586 3.22266 9.61914 8.78906 14.8926 14.0137 Z M 61.4258 -77.9785 C 71.5332 -82.5195 83.4961 -80.1758 93.0176 -70.7031 L 107.031 -56.7871 C 108.447 -55.4199 108.35 -54.5898 108.154 -53.1738 L 106.982 -46.0449 L 116.895 -36.0352 L 121.973 -35.9863 C 122.607 -35.9375 122.852 -35.9375 123.291 -35.498 L 124.609 -34.1797 L 115.674 -25.1953 L 114.307 -26.5625 C 113.916 -27.002 113.867 -27.2461 113.916 -27.8809 L 113.916 -31.5918 L 103.32 -42.1875 L 96.0938 -41.2109 C 94.7266 -40.9668 93.9453 -40.8203 92.5293 -42.2363 L 82.666 -52.0996 C 81.2988 -53.4668 81.0059 -54.541 81.543 -55.7617 L 86.2305 -65.918 C 79.2969 -73.0957 70.9473 -76.9043 61.7676 -77.0508 C 61.2793 -77.0996 61.1816 -77.2461 61.1328 -77.4414 C 61.1328 -77.6855 61.2305 -77.832 61.4258 -77.9785 Z M 27.3926 7.4707 C 26.6113 6.68945 26.9043 6.05469 27.4414 5.51758 L 75.9766 -39.1602 L 77.832 -37.3535 L 78.5645 -36.6211 L 33.7891 11.8652 C 33.252 12.4023 32.5195 12.5488 31.8359 11.8652 Z"/>
  </g>
  <g id="Bold-M" transform="matrix(1 0 0 1 2265.1 1126)">
   <path d="M 14.6484 14.5508 L 24.2188 24.0723 C 29.1016 28.9062 34.375 28.4668 39.3555 22.998 L 87.5 -29.9805 C 89.4043 -29.1016 91.4551 -29.0527 93.9941 -29.4922 L 98.3398 -30.3711 L 101.025 -27.6855 L 100.781 -25.7324 C 100.391 -22.6074 101.562 -20.0195 104.395 -17.1875 L 108.398 -13.1836 C 111.768 -9.7168 116.455 -9.61914 119.775 -12.8906 L 136.133 -29.2969 C 139.453 -32.5684 139.307 -37.2559 135.889 -40.625 L 131.836 -44.6289 C 128.906 -47.5098 126.318 -48.7793 123.242 -48.291 L 121.24 -47.998 L 118.799 -50.4395 L 119.971 -55.3223 C 120.85 -58.8867 119.531 -62.0117 115.967 -65.5273 L 103.223 -78.2715 C 84.9121 -96.5332 60.8887 -96.4844 44.5801 -80.2246 C 40.8691 -76.5625 41.4551 -72.0703 43.9941 -69.1895 C 45.752 -67.041 48.6328 -65.8203 51.709 -66.6504 C 59.4238 -68.6523 65.5762 -68.0176 71.0938 -64.0137 L 68.7012 -58.0078 C 67.334 -54.5898 67.3828 -51.6113 68.7012 -48.9258 L 15.6738 -0.634766 C 10.1562 4.3457 9.7168 9.66797 14.6484 14.5508 Z M 58.6426 -77.1973 C 69.873 -83.6426 83.3984 -81.543 93.7988 -71.1914 L 107.52 -57.5684 C 108.838 -56.25 108.838 -55.3711 108.594 -53.9551 L 107.178 -46.6309 L 116.357 -37.3047 L 121.387 -37.4512 C 122.266 -37.5 122.559 -37.4512 123.242 -36.7676 L 125.195 -34.8145 L 114.6 -24.2188 L 112.646 -26.1719 C 112.012 -26.8066 111.914 -27.1484 111.963 -28.0762 L 112.158 -32.1777 L 102.539 -41.7969 L 94.9707 -40.5762 C 93.6035 -40.332 92.8223 -40.2344 91.5039 -41.6016 L 81.2988 -51.8066 C 79.9805 -53.125 79.7363 -54.0527 80.3223 -55.4199 L 85.0586 -65.9668 C 77.7344 -73.3398 68.6035 -77.2949 59.082 -76.2695 C 58.5938 -76.2207 58.4473 -76.3672 58.3496 -76.5625 C 58.3008 -76.8066 58.3496 -77.002 58.6426 -77.1973 Z M 25 9.0332 C 23.6328 7.66602 24.1699 6.73828 25.0977 5.85938 L 75.7812 -40.8203 L 78.8086 -37.8906 L 79.5898 -37.0605 L 32.7637 13.5254 C 31.8848 14.4531 30.7129 14.7461 29.5898 13.623 Z"/>
  </g>
  <g id="Semibold-M" transform="matrix(1 0 0 1 1969.12 1126)">
   <path d="M 14.4531 14.9414 L 23.3887 23.7793 C 28.0273 28.3691 33.1055 27.9785 37.8906 22.7539 L 87.0605 -31.1523 C 89.0625 -30.127 91.0645 -30.0781 93.5547 -30.5664 L 98.2422 -31.4941 L 101.172 -28.5156 L 100.977 -26.3184 C 100.586 -23.3887 101.66 -20.9961 104.346 -18.2617 L 108.35 -14.2578 C 111.426 -11.1328 115.625 -10.9863 118.555 -13.9648 L 134.912 -30.3223 C 137.891 -33.252 137.744 -37.4512 134.668 -40.4785 L 130.615 -44.5312 C 127.832 -47.2656 125.439 -48.3887 122.461 -47.9492 L 120.264 -47.6562 L 117.529 -50.4395 L 118.799 -55.6152 C 119.58 -58.8867 118.506 -61.7188 115.088 -65.0879 L 102.588 -77.5391 C 84.4727 -95.5566 60.9375 -95.3613 44.9219 -79.2969 C 41.7969 -76.1719 42.0898 -72.2656 44.1895 -69.6777 C 45.752 -67.627 48.4375 -66.4551 51.6113 -67.2852 C 59.2285 -69.2383 65.918 -68.6035 72.1191 -64.2578 L 69.4824 -57.5195 C 68.1641 -54.2969 68.2129 -51.5137 69.5312 -49.0234 L 15.4785 0.390625 C 10.2539 5.17578 9.76562 10.2539 14.4531 14.9414 Z M 56.7383 -76.6602 C 68.7012 -84.375 83.3496 -82.4707 94.3359 -71.5332 L 107.861 -58.1055 C 109.082 -56.8359 109.18 -55.957 108.887 -54.541 L 107.275 -46.9727 L 116.016 -38.2324 L 120.947 -38.4766 C 122.021 -38.5254 122.412 -38.4766 123.242 -37.6465 L 125.586 -35.2539 L 113.867 -23.4863 L 111.475 -25.8789 C 110.645 -26.709 110.547 -27.0996 110.645 -28.1738 L 110.938 -32.5195 L 101.953 -41.5039 L 94.2383 -40.1855 C 92.8223 -39.8926 92.041 -39.8438 90.7715 -41.1133 L 80.3223 -51.6113 C 79.1016 -52.8809 78.9062 -53.7109 79.4922 -55.1758 L 84.2285 -66.0156 C 76.6602 -73.4863 66.9922 -77.5391 57.2266 -75.7324 C 56.7871 -75.6348 56.543 -75.7324 56.4453 -75.9766 C 56.3477 -76.1719 56.3965 -76.416 56.7383 -76.6602 Z M 23.3887 10.1562 C 21.6309 8.34961 22.2656 7.22656 23.4375 6.10352 L 75.6348 -41.9922 L 79.6875 -37.9883 L 80.3223 -37.3535 L 32.0312 14.6973 C 30.9082 15.918 29.4922 16.2598 28.0273 14.7949 Z"/>
  </g>
  <g id="Medium-M" transform="matrix(1 0 0 1 1672.97 1126)">
   <path d="M 14.3555 15.2344 L 22.7539 23.5352 C 27.1973 27.9785 32.1777 27.5879 36.7676 22.5586 L 86.7676 -32.0801 C 88.8184 -30.8594 90.7715 -30.8594 93.2617 -31.3477 L 98.1445 -32.3242 L 101.318 -29.1504 L 101.074 -26.8066 C 100.732 -23.9746 101.709 -21.7285 104.297 -19.0918 L 108.35 -15.0391 C 111.182 -12.207 114.941 -12.0605 117.676 -14.7949 L 133.984 -31.0547 C 136.719 -33.7891 136.572 -37.5977 133.74 -40.3809 L 129.639 -44.4336 C 127.002 -47.0703 124.756 -48.1445 121.924 -47.7051 L 119.531 -47.4121 L 116.553 -50.3906 L 117.871 -55.8105 C 118.652 -58.9355 117.725 -61.5234 114.453 -64.7461 L 102.148 -77.002 C 84.1797 -94.873 61.0352 -94.4824 45.2148 -78.6133 C 42.5293 -75.9277 42.5781 -72.4121 44.3848 -70.0195 C 45.752 -68.0664 48.291 -66.8945 51.5137 -67.7246 C 59.1309 -69.6777 66.1621 -69.043 72.9004 -64.4043 L 70.0684 -57.1777 C 68.7988 -54.0527 68.8965 -51.4648 70.1172 -49.0723 L 15.2832 1.17188 C 10.3027 5.76172 9.81445 10.6934 14.3555 15.2344 Z M 55.2734 -76.2695 C 67.8223 -84.9609 83.3008 -83.2031 94.7266 -71.7773 L 108.105 -58.4961 C 109.277 -57.2754 109.424 -56.3477 109.131 -54.9316 L 107.422 -47.2656 L 115.723 -38.916 L 120.605 -39.2578 C 121.875 -39.3066 122.266 -39.2578 123.193 -38.2812 L 125.928 -35.5957 L 113.281 -22.998 L 110.596 -25.6836 C 109.619 -26.6602 109.57 -27.0508 109.668 -28.2715 L 110.01 -32.8125 L 101.562 -41.3086 L 93.6523 -39.8438 C 92.2363 -39.5996 91.5039 -39.5508 90.2344 -40.8203 L 79.6387 -51.4648 C 78.418 -52.6855 78.2227 -53.4668 78.8574 -54.9805 L 83.5938 -66.0645 C 75.8301 -73.6328 65.7715 -77.7344 55.8105 -75.293 C 55.3711 -75.1953 55.127 -75.293 54.9805 -75.5371 C 54.8828 -75.7324 54.8828 -75.9766 55.2734 -76.2695 Z M 22.1191 10.9863 C 20.0684 8.88672 20.8008 7.56836 22.2168 6.29883 L 75.5371 -42.9199 L 80.8105 -37.5977 L 80.8594 -37.5977 L 31.4941 15.5762 C 30.2246 16.9922 28.5645 17.3828 26.8555 15.6738 Z"/>
  </g>
  <g id="Regular-M" transform="matrix(1 0 0 1 1376.99 1126)">
   <path d="M 14.1602 15.5762 L 21.875 23.291 C 26.123 27.4414 30.957 27.0996 35.3027 22.3145 L 86.377 -33.3008 C 88.5254 -31.8359 90.4785 -31.8848 92.8223 -32.373 L 98.0469 -33.4473 L 101.514 -29.9805 L 101.27 -27.3926 C 100.928 -24.7559 101.758 -22.6562 104.248 -20.166 L 108.301 -16.1133 C 110.84 -13.5742 114.111 -13.4277 116.504 -15.8203 L 132.764 -32.0801 C 135.156 -34.4727 135.059 -37.7441 132.52 -40.2832 L 128.418 -44.3848 C 125.928 -46.875 123.877 -47.7539 121.191 -47.3633 L 118.555 -47.0703 L 115.283 -50.3906 L 116.699 -56.1035 C 117.432 -58.9355 116.699 -61.2793 113.574 -64.3066 L 101.514 -76.2695 C 83.7891 -93.8965 61.1328 -93.3594 45.5566 -77.6855 C 43.457 -75.5371 43.2129 -72.6074 44.5801 -70.459 C 45.752 -68.6035 48.1445 -67.4805 51.3672 -68.3105 C 58.9355 -70.2148 66.5039 -69.6289 73.9258 -64.5996 L 70.8008 -56.6895 C 69.6289 -53.7598 69.7266 -51.3672 70.8984 -49.1699 L 15.0879 2.19727 C 10.4004 6.54297 9.86328 11.2793 14.1602 15.5762 Z M 53.3691 -75.7324 C 66.6992 -85.6934 83.252 -84.1309 95.2637 -72.0703 L 108.398 -59.0332 C 109.57 -57.8613 109.717 -56.9336 109.424 -55.4688 L 107.52 -47.6562 L 115.381 -39.7949 L 120.215 -40.2344 C 121.631 -40.3809 122.07 -40.2832 123.193 -39.1602 L 126.318 -36.0352 L 112.549 -22.3145 L 109.424 -25.3906 C 108.301 -26.5137 108.203 -27.002 108.35 -28.418 L 108.789 -33.2031 L 100.977 -41.0156 L 92.8711 -39.4531 C 91.4551 -39.1602 90.7227 -39.1602 89.5508 -40.3809 L 78.6621 -51.2695 C 77.5391 -52.4414 77.3926 -53.125 78.0273 -54.7363 L 82.7637 -66.1133 C 74.7559 -73.7793 64.209 -78.0273 54.0039 -74.7559 C 53.5645 -74.6094 53.2227 -74.707 53.0762 -74.9023 C 52.9297 -75.1465 52.9297 -75.3906 53.3691 -75.7324 Z M 20.5078 12.0605 C 18.0664 9.57031 18.9453 8.05664 20.6055 6.54297 L 75.3906 -44.043 L 81.543 -37.8906 L 30.7617 16.748 C 29.248 18.4082 27.3438 18.8965 25.3418 16.8945 Z"/>
  </g>
  <g id="Light-M" transform="matrix(1 0 0 1 1081.19 1126)">
   <path d="M 13.9648 14.209 L 21.7285 21.9238 C 25.7324 25.8789 29.8828 25.4395 33.8379 21.1426 L 85.3516 -34.9609 C 87.5977 -33.1055 89.6484 -33.0566 92.0898 -33.6914 L 97.3145 -35.0098 L 101.318 -31.0059 L 101.074 -28.9062 C 100.586 -25.9766 101.27 -23.9746 103.76 -21.4355 L 107.959 -17.2852 C 110.01 -15.1367 112.793 -15.0391 114.746 -16.9922 L 131.25 -33.4473 C 133.252 -35.4004 133.057 -38.1836 131.006 -40.2344 L 126.807 -44.4336 C 124.316 -46.9238 122.266 -47.7051 119.287 -47.168 L 117.188 -46.875 L 113.281 -50.8301 L 114.844 -56.3477 C 115.625 -59.082 115.088 -61.3281 112.158 -64.209 L 99.6094 -76.6113 C 82.6172 -93.457 60.6445 -93.3594 45.3613 -77.832 C 43.4082 -75.8789 43.2129 -73.291 44.5801 -71.4355 C 45.6543 -69.8242 47.5586 -68.9941 50.2441 -69.6777 C 58.3984 -71.582 66.6992 -70.8984 74.0234 -65.4785 L 70.5566 -56.7383 C 69.4824 -54.0039 69.6777 -51.7578 70.9961 -49.6094 L 14.7461 2.09961 C 10.498 6.00586 9.91211 10.1074 13.9648 14.209 Z M 51.0254 -75.9766 C 65.0391 -87.7441 82.5195 -85.5957 94.9219 -73.2422 L 108.154 -60.0586 C 109.473 -58.7891 109.619 -57.7148 109.229 -56.3477 L 107.227 -48.6816 L 114.746 -41.1621 L 118.994 -41.6992 C 120.557 -41.8945 121.289 -41.7969 122.656 -40.4297 L 126.416 -36.7188 L 111.523 -21.8262 L 107.764 -25.5371 C 106.445 -26.9043 106.299 -27.6855 106.543 -29.248 L 107.08 -33.4473 L 99.5605 -41.0156 L 91.748 -39.1602 C 90.3809 -38.8184 89.4531 -38.916 88.1836 -40.1855 L 77.002 -51.416 C 75.7324 -52.6855 75.5371 -53.5156 76.123 -55.0293 L 80.957 -66.748 C 73.4863 -73.9746 62.4023 -77.7832 52.0508 -74.6582 C 51.5137 -74.5117 51.0742 -74.5117 50.7812 -74.8535 C 50.5371 -75.1953 50.5859 -75.5859 51.0254 -75.9766 Z M 18.8965 11.377 C 16.1621 8.64258 17.334 7.08008 19.0918 5.46875 L 74.5605 -45.6543 L 81.5918 -38.623 L 30.3711 16.6992 C 28.7598 18.5059 26.9531 19.4336 24.5117 16.9922 Z"/>
  </g>
  <g id="Thin-M" transform="matrix(1 0 0 1 785.695 1126)">
   <path d="M 13.7695 12.3535 L 21.5332 20.1172 C 25.2441 23.8281 28.5156 23.2422 31.8848 19.5312 L 84.0332 -37.2559 C 86.377 -34.8633 88.4766 -34.6191 91.0645 -35.4492 L 96.3379 -37.1094 L 101.074 -32.373 L 100.83 -30.957 C 100.098 -27.5879 100.684 -25.6836 103.174 -23.1445 L 107.471 -18.7988 C 108.984 -17.2363 111.035 -17.1387 112.402 -18.5059 L 129.199 -35.2539 C 130.664 -36.6699 130.469 -38.6719 128.955 -40.1855 L 124.609 -44.5801 C 122.119 -47.0703 120.166 -47.6074 116.797 -46.9238 L 115.332 -46.6309 L 110.645 -51.3672 L 112.451 -56.7383 C 113.281 -59.2773 112.939 -61.4258 110.254 -64.0625 L 97.1191 -77.002 C 81.1035 -92.8711 59.9609 -93.4082 45.1172 -78.0762 C 43.4082 -76.3184 43.2617 -74.2188 44.5801 -72.6562 C 45.5078 -71.4355 46.8262 -71.0449 48.6816 -71.4355 C 57.6172 -73.3887 66.9922 -72.5586 74.1211 -66.6016 L 70.2637 -56.7383 C 69.3359 -54.3945 69.5312 -52.3438 71.1914 -50.2441 L 14.3555 2.00195 C 10.6445 5.37109 10.0098 8.59375 13.7695 12.3535 Z M 47.998 -76.3184 C 62.8906 -90.4785 81.5918 -87.5977 94.4336 -74.7559 L 107.861 -61.4258 C 109.326 -60.0098 109.473 -58.7891 109.033 -57.4707 L 106.836 -50.0488 L 113.916 -42.9688 L 117.432 -43.6035 C 119.141 -43.8965 120.312 -43.7988 121.973 -42.1387 L 126.514 -37.5977 L 110.156 -21.1914 L 105.615 -25.7812 C 103.955 -27.4414 103.76 -28.6133 104.15 -30.3223 L 104.785 -33.7402 L 97.6074 -40.9668 L 90.1855 -38.7695 C 88.8672 -38.3301 87.793 -38.5254 86.3281 -39.9902 L 74.7559 -51.5625 C 73.3398 -53.0273 73.0957 -54.0527 73.6328 -55.4688 L 78.5645 -67.5293 C 71.7773 -74.2188 60.0098 -77.4902 49.5117 -74.5117 C 48.877 -74.3652 48.1934 -74.2676 47.8027 -74.8047 C 47.4121 -75.2441 47.4609 -75.7812 47.998 -76.3184 Z M 16.6992 10.4492 C 13.623 7.37305 15.2344 5.81055 17.1875 4.05273 L 73.4863 -47.8027 L 81.6406 -39.5996 L 29.7852 16.6992 C 28.0273 18.6035 26.3672 20.1172 23.3887 17.1387 Z"/>
  </g>
  <g id="Ultralight-M" transform="matrix(1 0 0 1 489.618 1126)">
   <path d="M 13.623 11.4258 L 21.4355 19.1895 C 24.9512 22.7539 27.7832 22.1191 30.9082 18.7012 L 83.3496 -38.4277 L 83.5449 -38.2812 C 86.0352 -35.791 88.0859 -35.4492 90.5762 -36.3281 L 95.8008 -38.1348 L 100.928 -33.0566 L 100.684 -31.9824 C 99.8535 -28.418 100.391 -26.5625 102.881 -23.9746 L 107.227 -19.5312 C 108.447 -18.2617 110.107 -18.2129 111.182 -19.2871 L 128.174 -36.2305 C 129.346 -37.3047 129.15 -38.9648 127.93 -40.1855 L 123.486 -44.6289 C 120.996 -47.1191 119.092 -47.6074 115.479 -46.7773 L 114.404 -46.5332 L 109.326 -51.6602 L 111.182 -56.8848 C 112.061 -59.375 111.816 -61.5234 109.277 -63.9648 L 95.8496 -77.2461 C 80.3223 -92.5781 59.6191 -93.4082 44.9707 -78.2227 C 43.3594 -76.5137 43.2617 -74.707 44.5312 -73.291 C 45.4102 -72.2656 46.4355 -72.0703 47.9004 -72.3633 C 57.2266 -74.2676 67.1387 -73.3887 74.1699 -67.2363 L 70.1172 -56.7871 C 69.2871 -54.6387 69.4824 -52.7344 71.2891 -50.5859 L 14.1113 1.95312 C 10.6934 5.0293 10.0098 7.8125 13.623 11.4258 Z M 46.4355 -76.4648 C 61.7676 -91.8945 81.1035 -88.623 94.1895 -75.5371 L 107.666 -62.1094 C 109.229 -60.5957 109.375 -59.375 108.936 -58.0566 L 106.592 -50.7812 L 113.525 -43.8965 L 116.602 -44.5801 C 118.408 -44.9219 119.775 -44.8242 121.631 -43.0176 L 126.562 -38.0371 L 109.424 -20.8984 L 104.492 -25.8789 C 102.637 -27.6855 102.49 -29.0527 102.93 -30.8594 L 103.613 -33.8867 L 96.6309 -40.918 L 89.4043 -38.5254 C 88.1348 -38.0859 86.9141 -38.3789 85.4492 -39.8438 L 73.6328 -51.6602 C 72.1191 -53.1738 71.875 -54.3457 72.3633 -55.6641 L 77.3438 -67.9688 C 70.8984 -74.3652 58.7891 -77.2949 48.1934 -74.4629 C 47.5098 -74.2676 46.7285 -74.1211 46.2402 -74.7559 C 45.8008 -75.293 45.8496 -75.9277 46.4355 -76.4648 Z M 15.625 10.0098 C 12.3535 6.73828 14.1602 5.12695 16.1621 3.32031 L 72.9492 -48.877 L 81.6895 -40.0879 L 29.4922 16.6504 C 27.6855 18.6523 26.0742 20.5078 22.8027 17.2363 Z"/>
  </g>
  <g id="Black-S" transform="matrix(1 0 0 1 2873.22 696)">
   <path d="M 11.8652 3.02734 L 20.7031 11.8164 C 25 16.1133 29.4922 15.7227 33.8867 10.8887 L 69.5312 -28.7109 C 70.9473 -28.2715 72.5586 -28.2715 74.5117 -28.6133 L 77.2461 -29.1016 L 78.7598 -27.5879 L 78.6133 -26.5137 C 78.2227 -23.7305 79.4922 -21.3379 81.9336 -18.8477 L 85.0098 -15.7227 C 88.2812 -12.3535 93.0176 -12.2559 96.2891 -15.5273 L 109.229 -28.4668 C 112.451 -31.6895 112.354 -36.4258 108.984 -39.6973 L 105.859 -42.7734 C 103.271 -45.3125 100.83 -46.6309 98.0957 -46.1426 L 97.0215 -45.9473 L 95.752 -47.2168 L 96.4844 -50.3906 C 97.2656 -53.7109 95.8008 -56.7871 92.6758 -59.9121 L 82.1777 -70.4102 C 67.3828 -85.2051 47.5098 -85.5469 34.1797 -72.4121 C 30.0781 -68.3594 31.2012 -63.6719 34.0332 -60.8398 C 35.8887 -58.9844 38.4766 -57.959 40.8203 -58.5938 C 46.9238 -60.2539 50.6836 -59.668 53.6133 -57.373 L 52.2461 -54.0039 C 51.0254 -51.0254 50.9766 -48.2422 52.1484 -45.752 L 12.7441 -10.2539 C 7.8125 -5.81055 7.51953 -1.26953 11.8652 3.02734 Z M 49.9512 -69.1895 C 57.1289 -71.582 65.4785 -69.5801 72.4121 -62.6953 L 83.5938 -51.6113 C 84.7168 -50.4883 84.6191 -49.8535 84.4727 -48.7793 L 83.6914 -43.3594 L 91.9434 -35.0098 L 95.9961 -34.8633 C 96.2891 -34.8145 96.4355 -34.8145 96.6309 -34.6191 L 97.2656 -33.9844 L 91.3574 -28.0273 L 90.6738 -28.7109 C 90.5273 -28.8574 90.4785 -29.0039 90.4785 -29.3457 L 90.3809 -32.0312 L 81.4941 -40.918 L 76.0254 -40.2832 C 74.9512 -40.1367 74.3164 -39.9902 73.1934 -41.1133 L 65.6738 -48.6328 C 64.5508 -49.7559 64.3066 -50.6836 64.6973 -51.5625 L 68.3594 -59.2285 C 63.1348 -64.7461 57.0801 -67.627 50.1465 -68.5059 C 49.7559 -68.5547 49.707 -68.7012 49.707 -68.8477 C 49.707 -69.043 49.8047 -69.1406 49.9512 -69.1895 Z M 22.998 -2.7832 C 22.7539 -3.02734 22.8516 -3.32031 23.0469 -3.51562 L 59.668 -37.207 L 60.498 -36.377 L 60.8887 -36.0352 L 27.1484 0.585938 C 26.9531 0.78125 26.6113 0.830078 26.3672 0.585938 Z"/>
  </g>
  <g id="Heavy-S" transform="matrix(1 0 0 1 2577.14 696)">
   <path d="M 11.6699 3.56445 L 19.873 11.6699 C 23.9746 15.7715 28.3691 15.4297 32.5684 10.791 L 69.1895 -29.6875 C 70.6543 -29.1504 72.2168 -29.1504 74.1699 -29.4922 L 77.1973 -30.0293 L 78.9551 -28.3203 L 78.8086 -26.9531 C 78.4668 -24.3652 79.5898 -22.168 81.8848 -19.7754 L 85.0098 -16.6504 C 87.9883 -13.5742 92.2852 -13.4766 95.3125 -16.4551 L 108.154 -29.3457 C 111.133 -32.2754 111.035 -36.5723 107.91 -39.5996 L 104.785 -42.6758 C 102.344 -45.0684 100.098 -46.2402 97.5586 -45.8496 L 96.1914 -45.6055 L 94.6777 -47.1191 L 95.459 -50.6348 C 96.1914 -53.7109 94.9219 -56.4941 91.9434 -59.4727 L 81.7383 -69.6777 C 67.0898 -84.3262 47.6562 -84.4238 34.5215 -71.4844 C 31.0059 -67.9688 31.7871 -63.7695 34.2285 -61.2305 C 35.8887 -59.4238 38.3301 -58.3984 40.8203 -59.0332 C 46.7773 -60.6445 50.9766 -60.1074 54.5898 -57.4707 L 53.0273 -53.5645 C 51.8555 -50.6836 51.8555 -48.1445 52.9297 -45.8008 L 12.5488 -9.22852 C 7.86133 -4.98047 7.51953 -0.537109 11.6699 3.56445 Z M 48.291 -68.6523 C 56.1523 -72.1191 65.4785 -70.3613 72.9492 -62.8906 L 83.9355 -52.0508 C 84.9609 -50.9766 84.9121 -50.3418 84.7656 -49.2188 L 83.8379 -43.6035 L 91.6504 -35.7422 L 95.7031 -35.6934 C 96.1426 -35.6934 96.2891 -35.6934 96.6309 -35.3516 L 97.6562 -34.375 L 90.7227 -27.3926 L 89.6973 -28.418 C 89.4043 -28.7109 89.3555 -28.8574 89.3555 -29.3945 L 89.3555 -32.373 L 81.1035 -40.6738 L 75.3906 -39.8926 C 74.2676 -39.7461 73.6816 -39.5996 72.6074 -40.6738 L 64.8926 -48.4375 C 63.8184 -49.5117 63.623 -50.293 64.0625 -51.2695 L 67.7246 -59.2285 C 62.207 -64.8926 55.6641 -67.9199 48.4863 -67.9688 C 48.1445 -67.9688 48.0469 -68.1152 48.0469 -68.2617 C 47.998 -68.457 48.0957 -68.5547 48.291 -68.6523 Z M 21.5332 -1.61133 C 20.8984 -2.24609 21.1426 -2.73438 21.582 -3.17383 L 59.6191 -38.1836 L 61.084 -36.7676 L 61.5723 -36.2305 L 26.4648 1.75781 C 26.0254 2.19727 25.4395 2.24609 24.9023 1.75781 Z"/>
  </g>
  <g id="Bold-S" transform="matrix(1 0 0 1 2281.14 696)">
   <path d="M 11.5234 4.15039 L 18.9453 11.5234 C 22.8027 15.3809 27.0996 15.0391 31.1035 10.6934 L 68.7988 -30.7617 C 70.3125 -30.127 71.875 -30.127 73.7793 -30.4688 L 77.1973 -31.1035 L 79.1992 -29.1016 L 79.0039 -27.4414 C 78.7109 -25.0488 79.6875 -23.0469 81.8848 -20.8496 L 85.0098 -17.7246 C 87.7441 -14.9414 91.5039 -14.8438 94.1895 -17.4805 L 106.982 -30.2734 C 109.619 -32.959 109.521 -36.7188 106.738 -39.4531 L 103.613 -42.5781 C 101.367 -44.8242 99.3164 -45.8496 96.9727 -45.5078 L 95.2637 -45.2637 L 93.5059 -47.0703 L 94.3848 -50.9277 C 95.0684 -53.7109 93.9941 -56.2012 91.1621 -58.9844 L 81.2988 -68.8477 C 66.7969 -83.3008 47.8027 -83.1543 34.9609 -70.4102 C 32.0312 -67.5293 32.5195 -63.916 34.4727 -61.6211 C 35.8887 -59.8633 38.2324 -58.8379 40.8203 -59.5703 C 46.6797 -61.1328 51.3184 -60.6445 55.7617 -57.5684 L 53.9062 -53.0273 C 52.832 -50.3418 52.832 -47.9492 53.8574 -45.8496 L 12.3535 -8.05664 C 7.95898 -4.05273 7.56836 0.244141 11.5234 4.15039 Z M 46.4355 -68.0176 C 55.0781 -72.6562 65.5273 -71.1914 73.584 -63.1348 L 84.3262 -52.4902 C 85.3027 -51.5137 85.3027 -50.8301 85.1074 -49.707 L 84.0332 -43.8965 L 91.3086 -36.5723 L 95.3613 -36.6699 C 96.0449 -36.6699 96.1914 -36.6211 96.6797 -36.1816 L 98.0957 -34.7656 L 89.9902 -26.6602 L 88.5742 -28.0762 C 88.1348 -28.5645 88.0859 -28.7109 88.1348 -29.3945 L 88.2324 -32.7637 L 80.6641 -40.332 L 74.6582 -39.502 C 73.584 -39.3066 72.998 -39.209 71.9727 -40.2344 L 64.0625 -48.1934 C 63.0859 -49.1699 62.8906 -49.8535 63.3301 -50.9766 L 67.041 -59.1797 C 61.1328 -65.0391 54.1016 -68.2617 46.6797 -67.3828 C 46.3379 -67.334 46.1914 -67.4805 46.1914 -67.5781 C 46.1426 -67.7734 46.1914 -67.8711 46.4355 -68.0176 Z M 19.9219 -0.341797 C 18.8965 -1.36719 19.1895 -2.09961 19.9219 -2.73438 L 59.5703 -39.3066 L 61.8652 -37.0117 L 62.3535 -36.5234 L 25.7324 3.02734 C 25.0488 3.75977 24.1211 3.85742 23.291 3.07617 Z"/>
  </g>
  <g id="Semibold-S" transform="matrix(1 0 0 1 1984.89 696)">
   <path d="M 11.377 4.54102 L 18.3105 11.4258 C 22.0215 15.1367 26.2695 14.7949 30.127 10.5957 L 68.6035 -31.543 C 70.0684 -30.8105 71.6309 -30.8105 73.5352 -31.1523 L 77.1973 -31.7871 L 79.3457 -29.6387 L 79.1504 -27.7832 C 78.9062 -25.5371 79.7852 -23.6816 81.8848 -21.5332 L 85.0098 -18.457 C 87.5488 -15.8691 90.9668 -15.7715 93.457 -18.2129 L 106.152 -30.957 C 108.594 -33.3984 108.496 -36.8164 105.957 -39.3555 L 102.832 -42.4805 C 100.684 -44.6289 98.7793 -45.5566 96.582 -45.2637 L 94.6289 -45.0195 L 92.6758 -46.9727 L 93.6035 -51.123 C 94.2383 -53.7109 93.3105 -55.957 90.625 -58.6426 L 80.957 -68.2617 C 66.5527 -82.6172 47.9004 -82.2754 35.2539 -69.6777 C 32.7637 -67.1875 33.0078 -64.0137 34.6191 -61.9141 C 35.8887 -60.2051 38.1348 -59.1797 40.8203 -59.9121 C 46.582 -61.4258 51.5625 -60.9863 56.543 -57.666 L 54.541 -52.6855 C 53.4668 -50.0488 53.5156 -47.8516 54.4434 -45.8984 L 12.207 -7.27539 C 8.00781 -3.41797 7.61719 0.78125 11.377 4.54102 Z M 45.166 -67.5781 C 54.3457 -73.0469 65.5273 -71.7773 74.0234 -63.2812 L 84.5703 -52.832 C 85.498 -51.9043 85.5957 -51.2207 85.3516 -50.0488 L 84.1797 -44.0918 L 91.0645 -37.1582 L 95.1172 -37.3047 C 95.9473 -37.3535 96.1426 -37.3047 96.7285 -36.7188 L 98.3887 -35.0586 L 89.502 -26.1719 L 87.8418 -27.8809 C 87.2559 -28.418 87.207 -28.6133 87.2559 -29.4434 L 87.4512 -33.0566 L 80.3223 -40.1367 L 74.1699 -39.209 C 73.0469 -39.0137 72.5098 -38.916 71.5332 -39.8926 L 63.4766 -47.998 C 62.5488 -48.9746 62.4023 -49.5605 62.8906 -50.7324 L 66.5527 -59.1797 C 60.4492 -65.1855 53.0273 -68.457 45.4102 -66.9434 C 45.0684 -66.8945 44.9707 -67.041 44.9219 -67.1387 C 44.873 -67.2852 44.873 -67.4316 45.166 -67.5781 Z M 18.7988 0.585938 C 17.4805 -0.732422 17.8711 -1.61133 18.7988 -2.44141 L 59.5215 -40.0391 L 62.6465 -36.9141 L 62.8906 -36.6699 L 25.1953 3.95508 C 24.3652 4.83398 23.1934 4.98047 22.168 3.95508 Z"/>
  </g>
  <g id="Medium-S" transform="matrix(1 0 0 1 1688.55 696)">
   <path d="M 11.2793 4.83398 L 17.8223 11.377 C 21.4355 14.8926 25.5859 14.6484 29.3457 10.5469 L 68.4082 -32.1289 C 69.9219 -31.2988 71.4844 -31.3477 73.3398 -31.6406 L 77.1973 -32.3242 L 79.4434 -30.0781 L 79.2969 -28.0273 C 79.0527 -25.9277 79.834 -24.1211 81.8848 -22.0703 L 85.0098 -18.9941 C 87.4023 -16.6016 90.5762 -16.4551 92.8711 -18.75 L 105.566 -31.4453 C 107.861 -33.7402 107.764 -36.9141 105.371 -39.3066 L 102.197 -42.4316 C 100.146 -44.4824 98.3398 -45.3613 96.2402 -45.0684 L 94.1895 -44.8242 L 92.041 -46.9727 L 93.0664 -51.2695 C 93.6523 -53.7109 92.8223 -55.8105 90.2344 -58.3984 L 80.7617 -67.8223 C 66.4062 -82.1289 47.998 -81.6406 35.498 -69.0918 C 33.3008 -66.9434 33.3496 -64.0625 34.7656 -62.1094 C 35.8887 -60.4492 38.0371 -59.4238 40.8203 -60.1562 C 46.5332 -61.6699 51.7578 -61.2305 57.1289 -57.7148 L 54.9805 -52.3926 C 53.9551 -49.9023 54.0039 -47.8027 54.9316 -45.9473 L 12.1094 -6.64062 C 8.05664 -2.92969 7.66602 1.2207 11.2793 4.83398 Z M 44.1895 -67.2363 C 53.7598 -73.3887 65.5762 -72.2168 74.3652 -63.3789 L 84.7656 -53.0762 C 85.6934 -52.1484 85.791 -51.4648 85.5469 -50.3418 L 84.2773 -44.2383 L 90.918 -37.5977 L 94.9707 -37.793 C 95.8984 -37.8418 96.0449 -37.793 96.7285 -37.1582 L 98.584 -35.2539 L 89.1602 -25.8301 L 87.2559 -27.6855 C 86.6211 -28.3691 86.5723 -28.5156 86.6211 -29.4434 L 86.8652 -33.252 L 80.127 -39.9902 L 73.7793 -38.9648 C 72.7051 -38.7695 72.168 -38.7207 71.2402 -39.6484 L 63.0371 -47.9004 C 62.1094 -48.8281 62.0117 -49.3164 62.5 -50.5859 L 66.1621 -59.1309 C 59.9121 -65.2344 52.1973 -68.6523 44.4824 -66.6504 C 44.1406 -66.6016 43.9941 -66.6992 43.9453 -66.7969 C 43.8965 -66.9434 43.8965 -67.0898 44.1895 -67.2363 Z M 17.9688 1.26953 C 16.4551 -0.244141 16.8945 -1.26953 17.9199 -2.24609 L 59.4727 -40.625 L 63.3301 -36.8164 L 24.8047 4.63867 C 23.8281 5.66406 22.5098 5.81055 21.3379 4.63867 Z"/>
  </g>
  <g id="Regular-S" transform="matrix(1 0 0 1 1392.32 696)">
   <path d="M 11.1816 5.27344 L 17.2363 11.2793 C 20.6543 14.6484 24.7559 14.4043 28.3691 10.4492 L 68.2129 -32.9102 C 69.7754 -31.9824 71.2891 -32.0312 73.0957 -32.3242 L 77.1973 -33.0566 L 79.6387 -30.6152 L 79.4434 -28.3691 C 79.248 -26.416 79.9316 -24.7559 81.8848 -22.8027 L 85.0098 -19.7266 C 87.207 -17.5293 90.0391 -17.3828 92.1387 -19.4824 L 104.736 -32.0801 C 106.836 -34.1797 106.738 -37.0117 104.541 -39.209 L 101.416 -42.334 C 99.4629 -44.2871 97.8027 -45.0684 95.8496 -44.8242 L 93.5547 -44.5801 L 91.2598 -46.875 L 92.2852 -51.4648 C 92.8711 -53.7109 92.1875 -55.5664 89.6973 -58.0566 L 80.4199 -67.2363 C 66.2109 -81.4453 48.1445 -80.7617 35.791 -68.4082 C 34.0332 -66.6504 33.8379 -64.1602 34.9121 -62.4023 C 35.8887 -60.791 37.9395 -59.7656 40.8203 -60.498 C 46.4355 -61.9629 52.002 -61.5723 57.8613 -57.8125 L 55.5664 -52.0508 C 54.6387 -49.6582 54.6875 -47.7051 55.5176 -45.9473 L 11.9629 -5.85938 C 8.10547 -2.29492 7.66602 1.75781 11.1816 5.27344 Z M 42.9199 -66.8457 C 53.0273 -73.7793 65.5762 -72.8027 74.8047 -63.5742 L 85.0098 -53.3691 C 85.8887 -52.5391 86.0352 -51.8555 85.791 -50.6836 L 84.375 -44.4336 L 90.6738 -38.1348 L 94.7266 -38.4766 C 95.8008 -38.5254 95.9961 -38.4766 96.7773 -37.6953 L 98.9258 -35.5469 L 88.6719 -25.3418 L 86.5234 -27.4414 C 85.7422 -28.2227 85.6934 -28.418 85.7422 -29.4922 L 86.084 -33.5449 L 79.834 -39.7949 L 73.3398 -38.6719 C 72.2168 -38.4766 71.6797 -38.4277 70.8008 -39.3066 L 62.4512 -47.7051 C 61.6211 -48.6328 61.4746 -49.0234 62.0117 -50.3418 L 65.7227 -59.1309 C 59.1797 -65.3809 51.1719 -68.8477 43.2129 -66.2598 C 42.9199 -66.1621 42.7246 -66.2109 42.6758 -66.3574 C 42.627 -66.4551 42.627 -66.6504 42.9199 -66.8457 Z M 16.8457 2.14844 C 15.0391 0.341797 15.5762 -0.830078 16.8457 -1.95312 L 59.4727 -41.3574 L 63.8184 -36.9629 L 24.3164 5.51758 C 23.1934 6.73828 21.6309 6.93359 20.2637 5.51758 Z"/>
  </g>
  <g id="Light-S" transform="matrix(1 0 0 1 1096.42 696)">
   <path d="M 11.0352 4.00391 L 17.0898 10.0586 C 20.3125 13.2324 23.8281 12.9395 27.0508 9.375 L 67.2363 -34.375 C 68.9453 -33.1055 70.5078 -33.1055 72.4121 -33.4961 L 76.5137 -34.4727 L 79.4434 -31.543 L 79.248 -29.6875 C 78.9551 -27.4902 79.541 -25.9277 81.4941 -23.9258 L 84.7168 -20.7031 C 86.4746 -18.8965 88.8672 -18.7988 90.5762 -20.5078 L 103.418 -33.3008 C 105.127 -35.0098 104.98 -37.3535 103.223 -39.1602 L 99.9512 -42.4316 C 97.998 -44.3848 96.3867 -45.0195 94.1895 -44.6777 L 92.334 -44.4336 L 89.502 -47.2656 L 90.6738 -51.709 C 91.2598 -53.8574 90.7715 -55.6641 88.4277 -57.959 L 78.7598 -67.5293 C 65.1855 -81.0059 47.6562 -80.7617 35.5957 -68.5547 C 34.0332 -66.9434 33.8379 -64.7949 34.9121 -63.2324 C 35.791 -61.8652 37.4512 -61.084 39.7949 -61.7188 C 45.9473 -63.1836 52.1973 -62.6953 57.959 -58.5938 L 55.3711 -52.0508 C 54.4922 -49.8535 54.5898 -47.998 55.5664 -46.3379 L 11.6699 -5.95703 C 8.20312 -2.73438 7.71484 0.732422 11.0352 4.00391 Z M 40.8691 -67.041 C 51.5625 -75.5859 64.9414 -74.1211 74.5117 -64.5508 L 84.8145 -54.2969 C 85.791 -53.3203 85.9375 -52.5391 85.6445 -51.416 L 84.1309 -45.3613 L 90.1367 -39.3555 L 93.7012 -39.7461 C 94.8242 -39.8438 95.3125 -39.7949 96.2891 -38.8184 L 98.9746 -36.1328 L 87.7441 -24.9023 L 85.0586 -27.5879 C 84.082 -28.5645 83.9844 -29.0527 84.1797 -30.2246 L 84.5215 -33.7402 L 78.5156 -39.7461 L 72.3145 -38.4277 C 71.1914 -38.1836 70.5566 -38.1836 69.5801 -39.1602 L 60.9375 -47.8516 C 60.0098 -48.8281 59.8633 -49.4141 60.3516 -50.6348 L 64.1113 -59.668 C 58.0566 -65.5273 49.5605 -68.6523 41.5039 -66.1621 C 41.1133 -66.0645 40.8203 -66.0645 40.6738 -66.3086 C 40.5273 -66.5039 40.5273 -66.7969 40.8691 -67.041 Z M 15.3809 1.5625 C 13.3789 -0.488281 14.209 -1.70898 15.5273 -2.92969 L 58.7402 -42.7734 L 63.8672 -37.6465 L 23.9258 5.46875 C 22.7051 6.83594 21.2402 7.37305 19.4824 5.61523 Z"/>
  </g>
  <g id="Thin-S" transform="matrix(1 0 0 1 800.807 696)">
   <path d="M 10.791 2.39258 L 16.8945 8.49609 C 19.873 11.4258 22.6074 10.9863 25.3418 7.95898 L 66.0645 -36.377 C 67.9688 -34.6191 69.5801 -34.4727 71.5332 -35.0586 L 75.6348 -36.2793 L 79.248 -32.7148 L 79.0527 -31.4941 C 78.5156 -28.9062 79.0039 -27.3926 80.957 -25.4395 L 84.2773 -22.0703 C 85.5957 -20.7031 87.3047 -20.6543 88.4766 -21.8262 L 101.611 -34.9121 C 102.832 -36.1328 102.686 -37.8418 101.416 -39.1602 L 98.0469 -42.5293 C 96.0938 -44.4824 94.5312 -44.9707 91.9434 -44.4336 L 90.7227 -44.2383 L 87.207 -47.7539 L 88.5254 -52.002 C 89.209 -54.0527 88.8672 -55.7617 86.7188 -57.8613 L 76.5625 -67.8711 C 63.8184 -80.5176 47.0703 -80.8105 35.4004 -68.75 C 33.9844 -67.334 33.8867 -65.5762 34.9121 -64.3066 C 35.6445 -63.2812 36.8164 -62.8906 38.4277 -63.2812 C 45.2637 -64.7461 52.4414 -64.1602 58.0566 -59.6191 L 55.0781 -52.0996 C 54.3457 -50.1465 54.4922 -48.5352 55.7129 -46.875 L 11.3281 -6.05469 C 8.30078 -3.27148 7.8125 -0.585938 10.791 2.39258 Z M 38.1836 -67.334 C 49.6582 -78.0273 64.1113 -75.8789 74.0723 -65.918 L 84.5215 -55.4688 C 85.6445 -54.3945 85.791 -53.5156 85.4492 -52.4414 L 83.7402 -46.582 L 89.4043 -40.918 L 92.2852 -41.4062 C 93.6035 -41.6504 94.4336 -41.5527 95.7031 -40.332 L 99.0723 -36.9141 L 86.5234 -24.3652 L 83.1543 -27.7832 C 81.8848 -29.0039 81.7871 -29.834 82.0312 -31.1523 L 82.5195 -33.9844 L 76.8555 -39.7461 L 70.9473 -38.0859 C 69.9219 -37.7441 69.0918 -37.8906 67.9688 -39.0137 L 58.9844 -47.998 C 57.9102 -49.0723 57.7148 -49.9023 58.1543 -50.9766 L 62.0117 -60.4004 C 56.543 -65.7227 47.4609 -68.4082 39.2578 -66.0645 C 38.7695 -65.918 38.2812 -65.8691 37.9883 -66.2598 C 37.7441 -66.5527 37.7441 -66.9434 38.1836 -67.334 Z M 13.4766 0.732422 C 11.1328 -1.61133 12.3535 -2.83203 13.8184 -4.19922 L 57.7637 -44.6777 L 63.9648 -38.4766 L 23.4375 5.46875 C 22.1191 6.93359 20.752 8.00781 18.5059 5.76172 Z"/>
  </g>
  <g id="Ultralight-S" transform="matrix(1 0 0 1 504.633 696)">
   <path d="M 10.6934 1.5625 L 16.7969 7.66602 C 19.6289 10.4492 21.9727 10.0098 24.4629 7.22656 L 65.4785 -37.4023 L 65.5273 -37.4023 C 67.4805 -35.4004 69.0918 -35.2051 71.0938 -35.8398 L 75.1953 -37.2559 L 79.1016 -33.3496 L 78.9062 -32.4219 C 78.3203 -29.6875 78.7109 -28.1738 80.6641 -26.1719 L 84.082 -22.7539 C 85.1074 -21.6797 86.4746 -21.6309 87.4512 -22.5586 L 100.684 -35.7422 C 101.66 -36.6699 101.514 -38.0859 100.488 -39.1113 L 97.0215 -42.5781 C 95.0684 -44.5312 93.5547 -44.9219 90.8203 -44.3359 L 89.8926 -44.1406 L 85.9863 -48.0469 L 87.4512 -52.1484 C 88.1348 -54.1504 87.8906 -55.8105 85.8887 -57.7637 L 75.4395 -68.0664 C 63.1348 -80.2246 46.7773 -80.8105 35.2539 -68.8477 C 33.9844 -67.5293 33.8867 -66.0156 34.9121 -64.8438 C 35.5957 -64.0625 36.4746 -63.8184 37.7441 -64.0625 C 44.9219 -65.5762 52.5391 -64.8926 58.0566 -60.1562 L 54.9316 -52.0996 C 54.2969 -50.3418 54.4434 -48.8281 55.8105 -47.168 L 11.1328 -6.10352 C 8.34961 -3.61328 7.86133 -1.31836 10.6934 1.5625 Z M 36.7676 -67.4805 C 48.6816 -79.248 63.6719 -76.8066 73.877 -66.6016 L 84.375 -56.1035 C 85.5957 -54.9316 85.6934 -54.0039 85.3516 -52.9785 L 83.5938 -47.2168 L 89.0137 -41.748 L 91.5527 -42.2852 C 92.9688 -42.5781 93.9941 -42.4805 95.3613 -41.0645 L 99.1211 -37.3047 L 85.9375 -24.0723 L 82.1289 -27.8809 C 80.7617 -29.248 80.6152 -30.2734 80.957 -31.6895 L 81.4941 -34.1309 L 75.9766 -39.6973 L 70.2637 -37.8906 C 69.2383 -37.5488 68.3105 -37.7441 67.1875 -38.8672 L 57.959 -48.0957 C 56.8359 -49.2188 56.6406 -50.1465 57.0312 -51.1719 L 60.9375 -60.7422 C 55.7617 -65.8203 46.3867 -68.2617 38.0859 -65.9668 C 37.5488 -65.8203 37.0117 -65.7715 36.6211 -66.2109 C 36.2793 -66.6016 36.3281 -67.0898 36.7676 -67.4805 Z M 12.5 0.341797 C 10.0098 -2.14844 11.377 -3.41797 12.9395 -4.83398 L 57.2754 -45.6055 L 64.0137 -38.916 L 23.1934 5.41992 C 21.7773 6.98242 20.5078 8.34961 18.0176 5.85938 Z"/>
  </g>
 </g>
</svg>
