<?xml version="1.0" encoding="UTF-8"?>
<!--Generator: Apple Native CoreSVG 123-->
<!DOCTYPE svg
PUBLIC "-//W3C//DTD SVG 1.1//EN"
       "http://www.w3.org/Graphics/SVG/1.1/DTD/svg11.dtd">
<svg version="1.1" xmlns="http://www.w3.org/2000/svg" xmlns:xlink="http://www.w3.org/1999/xlink" width="3300" height="2200">
 <!--glyph: "uni1003B2.medium", point size: 100.000000, font version: "Version 15.0d7e11", template writer version: "5"-->
 <g id="Notes">
  <rect height="2200" id="artboard" style="fill:white;opacity:1" width="3300" x="0" y="0"/>
  <line id="" style="fill:none;stroke:black;opacity:1;stroke-width:0.5;" x1="263" x2="3036" y1="292" y2="292"/>
  <text style="stroke:none;fill:black;font-family:-apple-system,&quot;SF Pro Display&quot;,&quot;SF Pro Text&quot;,Helvetica,sans-serif;font-weight:bold;" transform="matrix(1 0 0 1 263 322)">Weight/Scale Variations</text>
  <text style="stroke:none;fill:black;font-family:-apple-system,&quot;SF Pro Display&quot;,&quot;SF Pro Text&quot;,Helvetica,sans-serif;text-anchor:middle;" transform="matrix(1 0 0 1 559.711 322)">Ultralight</text>
  <text style="stroke:none;fill:black;font-family:-apple-system,&quot;SF Pro Display&quot;,&quot;SF Pro Text&quot;,Helvetica,sans-serif;text-anchor:middle;" transform="matrix(1 0 0 1 856.422 322)">Thin</text>
  <text style="stroke:none;fill:black;font-family:-apple-system,&quot;SF Pro Display&quot;,&quot;SF Pro Text&quot;,Helvetica,sans-serif;text-anchor:middle;" transform="matrix(1 0 0 1 1153.13 322)">Light</text>
  <text style="stroke:none;fill:black;font-family:-apple-system,&quot;SF Pro Display&quot;,&quot;SF Pro Text&quot;,Helvetica,sans-serif;text-anchor:middle;" transform="matrix(1 0 0 1 1449.84 322)">Regular</text>
  <text style="stroke:none;fill:black;font-family:-apple-system,&quot;SF Pro Display&quot;,&quot;SF Pro Text&quot;,Helvetica,sans-serif;text-anchor:middle;" transform="matrix(1 0 0 1 1746.56 322)">Medium</text>
  <text style="stroke:none;fill:black;font-family:-apple-system,&quot;SF Pro Display&quot;,&quot;SF Pro Text&quot;,Helvetica,sans-serif;text-anchor:middle;" transform="matrix(1 0 0 1 2043.27 322)">Semibold</text>
  <text style="stroke:none;fill:black;font-family:-apple-system,&quot;SF Pro Display&quot;,&quot;SF Pro Text&quot;,Helvetica,sans-serif;text-anchor:middle;" transform="matrix(1 0 0 1 2339.98 322)">Bold</text>
  <text style="stroke:none;fill:black;font-family:-apple-system,&quot;SF Pro Display&quot;,&quot;SF Pro Text&quot;,Helvetica,sans-serif;text-anchor:middle;" transform="matrix(1 0 0 1 2636.69 322)">Heavy</text>
  <text style="stroke:none;fill:black;font-family:-apple-system,&quot;SF Pro Display&quot;,&quot;SF Pro Text&quot;,Helvetica,sans-serif;text-anchor:middle;" transform="matrix(1 0 0 1 2933.4 322)">Black</text>
  <line id="" style="fill:none;stroke:black;opacity:1;stroke-width:0.5;" x1="263" x2="3036" y1="1903" y2="1903"/>
  <g id="" transform="matrix(1 0 0 1 263 1933)">
   <path d="M 9.24805 0.830078 C 13.5547 0.830078 17.1387 -2.74414 17.1387 -7.05078 C 17.1387 -11.3574 13.5449 -14.9316 9.23828 -14.9316 C 4.94141 -14.9316 1.36719 -11.3574 1.36719 -7.05078 C 1.36719 -2.74414 4.95117 0.830078 9.24805 0.830078 Z M 9.24805 -0.654297 C 5.70312 -0.654297 2.87109 -3.49609 2.87109 -7.05078 C 2.87109 -10.6055 5.69336 -13.4473 9.23828 -13.4473 C 12.793 -13.4473 15.6348 -10.6055 15.6445 -7.05078 C 15.6543 -3.49609 12.8027 -0.654297 9.24805 -0.654297 Z M 9.22852 -3.42773 C 9.69727 -3.42773 9.9707 -3.74023 9.9707 -4.25781 L 9.9707 -6.31836 L 12.1973 -6.31836 C 12.6953 -6.31836 13.0371 -6.57227 13.0371 -7.04102 C 13.0371 -7.51953 12.7148 -7.7832 12.1973 -7.7832 L 9.9707 -7.7832 L 9.9707 -10.0098 C 9.9707 -10.5273 9.69727 -10.8496 9.22852 -10.8496 C 8.75977 -10.8496 8.50586 -10.5078 8.50586 -10.0098 L 8.50586 -7.7832 L 6.29883 -7.7832 C 5.78125 -7.7832 5.44922 -7.51953 5.44922 -7.04102 C 5.44922 -6.57227 5.80078 -6.31836 6.29883 -6.31836 L 8.50586 -6.31836 L 8.50586 -4.25781 C 8.50586 -3.75977 8.75977 -3.42773 9.22852 -3.42773 Z"/>
  </g>
  <g id="" transform="matrix(1 0 0 1 281.506 1933)">
   <path d="M 11.709 2.91016 C 17.1582 2.91016 21.6699 -1.60156 21.6699 -7.05078 C 21.6699 -12.4902 17.1484 -17.0117 11.6992 -17.0117 C 6.25977 -17.0117 1.74805 -12.4902 1.74805 -7.05078 C 1.74805 -1.60156 6.26953 2.91016 11.709 2.91016 Z M 11.709 1.25 C 7.09961 1.25 3.41797 -2.44141 3.41797 -7.05078 C 3.41797 -11.6504 7.08984 -15.3516 11.6992 -15.3516 C 16.3086 -15.3516 20 -11.6504 20.0098 -7.05078 C 20.0195 -2.44141 16.3184 1.25 11.709 1.25 Z M 11.6895 -2.41211 C 12.207 -2.41211 12.5195 -2.77344 12.5195 -3.33984 L 12.5195 -6.23047 L 15.5762 -6.23047 C 16.123 -6.23047 16.5039 -6.51367 16.5039 -7.03125 C 16.5039 -7.55859 16.1426 -7.86133 15.5762 -7.86133 L 12.5195 -7.86133 L 12.5195 -10.9277 C 12.5195 -11.5039 12.207 -11.8555 11.6895 -11.8555 C 11.1719 -11.8555 10.8789 -11.4844 10.8789 -10.9277 L 10.8789 -7.86133 L 7.83203 -7.86133 C 7.26562 -7.86133 6.89453 -7.55859 6.89453 -7.03125 C 6.89453 -6.51367 7.28516 -6.23047 7.83203 -6.23047 L 10.8789 -6.23047 L 10.8789 -3.33984 C 10.8789 -2.79297 11.1719 -2.41211 11.6895 -2.41211 Z"/>
  </g>
  <g id="" transform="matrix(1 0 0 1 304.924 1933)">
   <path d="M 14.9707 5.67383 C 21.9336 5.67383 27.6953 -0.078125 27.6953 -7.04102 C 27.6953 -14.0039 21.9238 -19.7559 14.9609 -19.7559 C 8.00781 -19.7559 2.25586 -14.0039 2.25586 -7.04102 C 2.25586 -0.078125 8.01758 5.67383 14.9707 5.67383 Z M 14.9707 3.85742 C 8.93555 3.85742 4.08203 -1.00586 4.08203 -7.04102 C 4.08203 -13.0762 8.92578 -17.9395 14.9609 -17.9395 C 21.0059 -17.9395 25.8594 -13.0762 25.8691 -7.04102 C 25.8789 -1.00586 21.0156 3.85742 14.9707 3.85742 Z M 14.9512 -1.06445 C 15.5176 -1.06445 15.8691 -1.45508 15.8691 -2.06055 L 15.8691 -6.13281 L 20.1074 -6.13281 C 20.6934 -6.13281 21.1133 -6.46484 21.1133 -7.02148 C 21.1133 -7.59766 20.7227 -7.93945 20.1074 -7.93945 L 15.8691 -7.93945 L 15.8691 -12.1875 C 15.8691 -12.8027 15.5176 -13.1934 14.9512 -13.1934 C 14.3848 -13.1934 14.0625 -12.7832 14.0625 -12.1875 L 14.0625 -7.93945 L 9.83398 -7.93945 C 9.21875 -7.93945 8.80859 -7.59766 8.80859 -7.02148 C 8.80859 -6.46484 9.23828 -6.13281 9.83398 -6.13281 L 14.0625 -6.13281 L 14.0625 -2.06055 C 14.0625 -1.47461 14.3848 -1.06445 14.9512 -1.06445 Z"/>
  </g>
  <text style="stroke:none;fill:black;font-family:-apple-system,&quot;SF Pro Display&quot;,&quot;SF Pro Text&quot;,Helvetica,sans-serif;font-weight:bold;" transform="matrix(1 0 0 1 263 1953)">Design Variations</text>
  <text style="stroke:none;fill:black;font-family:-apple-system,&quot;SF Pro Display&quot;,&quot;SF Pro Text&quot;,Helvetica,sans-serif;" transform="matrix(1 0 0 1 263 1971)">Symbols are supported in up to nine weights and three scales.</text>
  <text style="stroke:none;fill:black;font-family:-apple-system,&quot;SF Pro Display&quot;,&quot;SF Pro Text&quot;,Helvetica,sans-serif;" transform="matrix(1 0 0 1 263 1989)">For optimal layout with text and other symbols, vertically align</text>
  <text style="stroke:none;fill:black;font-family:-apple-system,&quot;SF Pro Display&quot;,&quot;SF Pro Text&quot;,Helvetica,sans-serif;" transform="matrix(1 0 0 1 263 2007)">symbols with the adjacent text.</text>
  <rect height="14" id="" style="fill:#00AEEF;stroke:none;opacity:0.4;" width="3" x="776" y="1919"/>
  <g id="" transform="matrix(1 0 0 1 779 1933)">
   <path d="M 10.5273 0 L 12.373 0 L 7.17773 -14.0918 L 5.43945 -14.0918 L 0.244141 0 L 2.08984 0 L 3.50586 -4.0332 L 9.11133 -4.0332 Z M 6.2793 -11.9531 L 6.33789 -11.9531 L 8.59375 -5.52734 L 4.02344 -5.52734 Z"/>
  </g>
  <rect height="14" id="" style="fill:#00AEEF;stroke:none;opacity:0.4;" width="3" x="791.617" y="1919"/>
  <text style="stroke:none;fill:black;font-family:-apple-system,&quot;SF Pro Display&quot;,&quot;SF Pro Text&quot;,Helvetica,sans-serif;font-weight:bold;" transform="matrix(1 0 0 1 776 1953)">Margins</text>
  <text style="stroke:none;fill:black;font-family:-apple-system,&quot;SF Pro Display&quot;,&quot;SF Pro Text&quot;,Helvetica,sans-serif;" transform="matrix(1 0 0 1 776 1971)">Leading and trailing margins on the left and right side of each symbol</text>
  <text style="stroke:none;fill:black;font-family:-apple-system,&quot;SF Pro Display&quot;,&quot;SF Pro Text&quot;,Helvetica,sans-serif;" transform="matrix(1 0 0 1 776 1989)">can be adjusted by modifying the width of the blue rectangles.</text>
  <text style="stroke:none;fill:black;font-family:-apple-system,&quot;SF Pro Display&quot;,&quot;SF Pro Text&quot;,Helvetica,sans-serif;" transform="matrix(1 0 0 1 776 2007)">Modifications are automatically applied proportionally to all</text>
  <text style="stroke:none;fill:black;font-family:-apple-system,&quot;SF Pro Display&quot;,&quot;SF Pro Text&quot;,Helvetica,sans-serif;" transform="matrix(1 0 0 1 776 2025)">scales and weights.</text>
  <g id="" transform="matrix(1 0 0 1 1289 1933)">
   <path d="M 2.83203 3.11523 L 4.375 4.6582 C 5.22461 5.48828 6.19141 5.41992 7.06055 4.46289 L 17.2754 -6.66016 C 17.7051 -6.36719 18.0957 -6.37695 18.5645 -6.47461 L 19.6094 -6.68945 L 20.3027 -5.99609 L 20.2539 -5.47852 C 20.1855 -4.95117 20.3516 -4.53125 20.8496 -4.0332 L 21.6602 -3.22266 C 22.168 -2.71484 22.8223 -2.68555 23.3008 -3.16406 L 26.5527 -6.41602 C 27.0312 -6.89453 27.0117 -7.54883 26.5039 -8.05664 L 25.6836 -8.87695 C 25.1855 -9.375 24.7754 -9.55078 24.2383 -9.47266 L 23.7109 -9.41406 L 23.0566 -10.0781 L 23.3398 -11.2207 C 23.4863 -11.7871 23.3398 -12.2559 22.7148 -12.8613 L 20.3027 -15.2539 C 16.7578 -18.7793 12.2266 -18.6719 9.11133 -15.5371 C 8.69141 -15.1074 8.64258 -14.5215 8.91602 -14.0918 C 9.15039 -13.7207 9.62891 -13.4961 10.2734 -13.6621 C 11.7871 -14.043 13.3008 -13.9258 14.7852 -12.9199 L 14.1602 -11.3379 C 13.9258 -10.752 13.9453 -10.2734 14.1797 -9.83398 L 3.01758 0.439453 C 2.08008 1.30859 1.97266 2.25586 2.83203 3.11523 Z M 10.6738 -15.1465 C 13.3398 -17.1387 16.6504 -16.8262 19.0527 -14.4141 L 21.6797 -11.8066 C 21.9141 -11.5723 21.9434 -11.3867 21.8848 -11.0938 L 21.5039 -9.53125 L 23.0762 -7.95898 L 24.043 -8.04688 C 24.3262 -8.07617 24.4141 -8.05664 24.6387 -7.83203 L 25.2637 -7.20703 L 22.5098 -4.46289 L 21.8848 -5.07812 C 21.6602 -5.30273 21.6406 -5.40039 21.6699 -5.68359 L 21.7578 -6.64062 L 20.1953 -8.20312 L 18.5742 -7.89062 C 18.291 -7.83203 18.1445 -7.83203 17.9102 -8.07617 L 15.7324 -10.2539 C 15.5078 -10.4883 15.4785 -10.625 15.6055 -10.9473 L 16.5527 -13.2227 C 14.9512 -14.7559 12.8418 -15.6055 10.8008 -14.9512 C 10.7129 -14.9219 10.6445 -14.9414 10.6152 -14.9805 C 10.5859 -15.0293 10.5859 -15.0781 10.6738 -15.1465 Z M 4.10156 2.41211 C 3.61328 1.91406 3.78906 1.61133 4.12109 1.30859 L 15.0781 -8.80859 L 16.3086 -7.57812 L 6.15234 3.34961 C 5.84961 3.68164 5.46875 3.7793 5.06836 3.37891 Z"/>
  </g>
  <text style="stroke:none;fill:black;font-family:-apple-system,&quot;SF Pro Display&quot;,&quot;SF Pro Text&quot;,Helvetica,sans-serif;font-weight:bold;" transform="matrix(1 0 0 1 1289 1953)">Exporting</text>
  <text style="stroke:none;fill:black;font-family:-apple-system,&quot;SF Pro Display&quot;,&quot;SF Pro Text&quot;,Helvetica,sans-serif;" transform="matrix(1 0 0 1 1289 1971)">Symbols should be outlined when exporting to ensure the</text>
  <text style="stroke:none;fill:black;font-family:-apple-system,&quot;SF Pro Display&quot;,&quot;SF Pro Text&quot;,Helvetica,sans-serif;" transform="matrix(1 0 0 1 1289 1989)">design is preserved when submitting to Xcode.</text>
  <text id="template-version" style="stroke:none;fill:black;font-family:-apple-system,&quot;SF Pro Display&quot;,&quot;SF Pro Text&quot;,Helvetica,sans-serif;text-anchor:end;" transform="matrix(1 0 0 1 3036 1933)">Template v.1.0</text>
  <text style="stroke:none;fill:black;font-family:-apple-system,&quot;SF Pro Display&quot;,&quot;SF Pro Text&quot;,Helvetica,sans-serif;text-anchor:end;" transform="matrix(1 0 0 1 3036 1951)">Generated from tv</text>
  <text style="stroke:none;fill:black;font-family:-apple-system,&quot;SF Pro Display&quot;,&quot;SF Pro Text&quot;,Helvetica,sans-serif;text-anchor:end;" transform="matrix(1 0 0 1 3036 1969)">Typeset at 100 points</text>
  <text style="stroke:none;fill:black;font-family:-apple-system,&quot;SF Pro Display&quot;,&quot;SF Pro Text&quot;,Helvetica,sans-serif;" transform="matrix(1 0 0 1 263 726)">Small</text>
  <text style="stroke:none;fill:black;font-family:-apple-system,&quot;SF Pro Display&quot;,&quot;SF Pro Text&quot;,Helvetica,sans-serif;" transform="matrix(1 0 0 1 263 1156)">Medium</text>
  <text style="stroke:none;fill:black;font-family:-apple-system,&quot;SF Pro Display&quot;,&quot;SF Pro Text&quot;,Helvetica,sans-serif;" transform="matrix(1 0 0 1 263 1586)">Large</text>
 </g>
 <g id="Guides">
  <g id="H-reference" style="fill:#27AAE1;stroke:none;" transform="matrix(1 0 0 1 339 696)">
   <path d="M 54.9316 0 L 57.666 0 L 30.5664 -70.459 L 28.0762 -70.459 L 0.976562 0 L 3.66211 0 L 12.9395 -24.4629 L 45.7031 -24.4629 Z M 29.1992 -67.0898 L 29.4434 -67.0898 L 44.8242 -26.709 L 13.8184 -26.709 Z"/>
  </g>
  <line id="Baseline-S" style="fill:none;stroke:#27AAE1;opacity:1;stroke-width:0.577;" x1="263" x2="3036" y1="696" y2="696"/>
  <line id="Capline-S" style="fill:none;stroke:#27AAE1;opacity:1;stroke-width:0.577;" x1="263" x2="3036" y1="625.541" y2="625.541"/>
  <g id="H-reference" style="fill:#27AAE1;stroke:none;" transform="matrix(1 0 0 1 339 1126)">
   <path d="M 54.9316 0 L 57.666 0 L 30.5664 -70.459 L 28.0762 -70.459 L 0.976562 0 L 3.66211 0 L 12.9395 -24.4629 L 45.7031 -24.4629 Z M 29.1992 -67.0898 L 29.4434 -67.0898 L 44.8242 -26.709 L 13.8184 -26.709 Z"/>
  </g>
  <line id="Baseline-M" style="fill:none;stroke:#27AAE1;opacity:1;stroke-width:0.577;" x1="263" x2="3036" y1="1126" y2="1126"/>
  <line id="Capline-M" style="fill:none;stroke:#27AAE1;opacity:1;stroke-width:0.577;" x1="263" x2="3036" y1="1055.54" y2="1055.54"/>
  <g id="H-reference" style="fill:#27AAE1;stroke:none;" transform="matrix(1 0 0 1 339 1556)">
   <path d="M 54.9316 0 L 57.666 0 L 30.5664 -70.459 L 28.0762 -70.459 L 0.976562 0 L 3.66211 0 L 12.9395 -24.4629 L 45.7031 -24.4629 Z M 29.1992 -67.0898 L 29.4434 -67.0898 L 44.8242 -26.709 L 13.8184 -26.709 Z"/>
  </g>
  <line id="Baseline-L" style="fill:none;stroke:#27AAE1;opacity:1;stroke-width:0.577;" x1="263" x2="3036" y1="1556" y2="1556"/>
  <line id="Capline-L" style="fill:none;stroke:#27AAE1;opacity:1;stroke-width:0.577;" x1="263" x2="3036" y1="1485.54" y2="1485.54"/>
  <rect height="119.336" id="left-margin" style="fill:#00AEEF;stroke:none;opacity:0.4;" width="12.4512" x="1372.96" y="1030.79"/>
  <rect height="119.336" id="right-margin" style="fill:#00AEEF;stroke:none;opacity:0.4;" width="12.4512" x="1514.27" y="1030.79"/>
 </g>
 <g id="Symbols">
  <g id="Black-L" transform="matrix(1 0 0 1 2831.42 1556)">
   <path d="M 37.6953 8.54492 L 166.211 8.54492 C 180.029 8.54492 187.891 0.78125 187.891 -13.0859 L 187.891 -81.1035 C 187.891 -95.0195 180.029 -102.783 166.211 -102.783 L 37.6953 -102.783 C 23.877 -102.783 16.0645 -95.0195 16.0645 -81.1035 L 16.0645 -13.0859 C 16.0645 0.78125 23.877 8.54492 37.6953 8.54492 Z M 40.1855 -10.4004 C 36.6699 -10.4004 35.0098 -11.8164 35.0098 -15.5762 L 35.0098 -78.6133 C 35.0098 -82.4219 36.6699 -83.7891 40.1855 -83.7891 L 163.721 -83.7891 C 167.236 -83.7891 168.896 -82.4219 168.896 -78.6133 L 168.896 -15.5762 C 168.896 -11.8164 167.236 -10.4004 163.721 -10.4004 Z M 147.705 25.1953 C 147.705 21.2891 144.385 17.8223 140.283 17.8223 L 63.623 17.8223 C 59.5215 17.8223 56.25 21.2891 56.25 25.1953 C 56.25 29.1016 59.5215 32.5684 63.623 32.5684 L 140.283 32.5684 C 144.385 32.5684 147.705 29.1016 147.705 25.1953 Z"/>
  </g>
  <g id="Heavy-L" transform="matrix(1 0 0 1 2535.61 1556)">
   <path d="M 36.1816 7.66602 L 165.967 7.66602 C 178.906 7.66602 186.084 0.585938 186.084 -12.4512 L 186.084 -81.543 C 186.084 -94.5801 178.906 -101.66 165.967 -101.66 L 36.1816 -101.66 C 23.2422 -101.66 16.0645 -94.5801 16.0645 -81.543 L 16.0645 -12.4512 C 16.0645 0.585938 23.2422 7.66602 36.1816 7.66602 Z M 38.1348 -8.83789 C 34.375 -8.83789 32.5684 -10.4004 32.5684 -14.4043 L 32.5684 -79.5898 C 32.5684 -83.6426 34.375 -85.1562 38.1348 -85.1562 L 164.014 -85.1562 C 167.773 -85.1562 169.58 -83.6426 169.58 -79.5898 L 169.58 -14.4043 C 169.58 -10.4004 167.773 -8.83789 164.014 -8.83789 Z M 146.729 24.6582 C 146.729 20.9473 143.652 17.7246 139.795 17.7246 L 62.3047 17.7246 C 58.4473 17.7246 55.3711 20.9473 55.3711 24.6582 C 55.3711 28.3691 58.4473 31.5918 62.3047 31.5918 L 139.795 31.5918 C 143.652 31.5918 146.729 28.3691 146.729 24.6582 Z"/>
  </g>
  <g id="Bold-L" transform="matrix(1 0 0 1 2239.9 1556)">
   <path d="M 34.5215 6.68945 L 165.625 6.68945 C 177.588 6.68945 184.082 0.341797 184.082 -11.7676 L 184.082 -82.0312 C 184.082 -94.1406 177.588 -100.488 165.625 -100.488 L 34.5215 -100.488 C 22.5586 -100.488 16.0645 -94.1406 16.0645 -82.0312 L 16.0645 -11.7676 C 16.0645 0.341797 22.5586 6.68945 34.5215 6.68945 Z M 35.8398 -7.12891 C 31.7871 -7.12891 29.8828 -8.83789 29.8828 -13.0859 L 29.8828 -80.7129 C 29.8828 -84.9609 31.7871 -86.6699 35.8398 -86.6699 L 164.307 -86.6699 C 168.359 -86.6699 170.264 -84.9609 170.264 -80.7129 L 170.264 -13.0859 C 170.264 -8.83789 168.359 -7.12891 164.307 -7.12891 Z M 145.654 24.0723 C 145.654 20.6055 142.773 17.627 139.209 17.627 L 60.791 17.627 C 57.2266 17.627 54.3945 20.6055 54.3945 24.0723 C 54.3945 27.5391 57.2266 30.5176 60.791 30.5176 L 139.209 30.5176 C 142.773 30.5176 145.654 27.5391 145.654 24.0723 Z"/>
  </g>
  <g id="Semibold-L" transform="matrix(1 0 0 1 1943.88 1556)">
   <path d="M 33.3496 6.00586 L 165.43 6.00586 C 176.709 6.00586 182.715 0.195312 182.715 -11.2793 L 182.715 -82.3242 C 182.715 -93.8477 176.709 -99.6582 165.43 -99.6582 L 33.3496 -99.6582 C 22.0215 -99.6582 16.0645 -93.8477 16.0645 -82.3242 L 16.0645 -11.2793 C 16.0645 0.195312 22.0215 6.00586 33.3496 6.00586 Z M 34.2773 -5.95703 C 29.9805 -5.95703 27.9785 -7.76367 27.9785 -12.207 L 27.9785 -81.4453 C 27.9785 -85.8887 29.9805 -87.6953 34.2773 -87.6953 L 164.502 -87.6953 C 168.799 -87.6953 170.752 -85.8887 170.752 -81.4453 L 170.752 -12.207 C 170.752 -7.76367 168.799 -5.95703 164.502 -5.95703 Z M 144.873 23.6328 C 144.873 20.3125 142.188 17.5781 138.818 17.5781 L 59.7656 17.5781 C 56.3965 17.5781 53.7109 20.3125 53.7109 23.6328 C 53.7109 27.002 56.3965 29.7363 59.7656 29.7363 L 138.818 29.7363 C 142.188 29.7363 144.873 27.002 144.873 23.6328 Z"/>
  </g>
  <g id="Medium-L" transform="matrix(1 0 0 1 1647.7 1556)">
   <path d="M 32.4707 5.46875 L 165.234 5.46875 C 176.074 5.46875 181.641 0.0488281 181.641 -10.9375 L 181.641 -82.6172 C 181.641 -93.6035 176.074 -99.0234 165.234 -99.0234 L 32.4707 -99.0234 C 21.6797 -99.0234 16.0645 -93.6035 16.0645 -82.6172 L 16.0645 -10.9375 C 16.0645 0.0488281 21.6797 5.46875 32.4707 5.46875 Z M 33.0566 -5.0293 C 28.6133 -5.0293 26.5625 -6.93359 26.5625 -11.5234 L 26.5625 -82.0312 C 26.5625 -86.6211 28.6133 -88.4766 33.0566 -88.4766 L 164.648 -88.4766 C 169.092 -88.4766 171.143 -86.6211 171.143 -82.0312 L 171.143 -11.5234 C 171.143 -6.93359 169.092 -5.0293 164.648 -5.0293 Z M 144.336 23.3398 C 144.336 20.1172 141.748 17.4805 138.525 17.4805 L 58.9844 17.4805 C 55.7617 17.4805 53.2227 20.1172 53.2227 23.3398 C 53.2227 26.5625 55.7617 29.1992 58.9844 29.1992 L 138.525 29.1992 C 141.748 29.1992 144.336 26.5625 144.336 23.3398 Z"/>
  </g>
  <g id="Regular-L" transform="matrix(1 0 0 1 1351.68 1556)">
   <path d="M 31.3477 4.78516 L 165.039 4.78516 C 175.195 4.78516 180.273 -0.0976562 180.273 -10.4492 L 180.273 -82.9102 C 180.273 -93.2617 175.195 -98.1934 165.039 -98.1934 L 31.3477 -98.1934 C 21.1914 -98.1934 16.0645 -93.2617 16.0645 -82.9102 L 16.0645 -10.4492 C 16.0645 -0.0976562 21.1914 4.78516 31.3477 4.78516 Z M 31.4941 -3.85742 C 26.8555 -3.85742 24.707 -5.85938 24.707 -10.6445 L 24.707 -82.7637 C 24.707 -87.5 26.8555 -89.5508 31.4941 -89.5508 L 164.844 -89.5508 C 169.531 -89.5508 171.631 -87.5 171.631 -82.7637 L 171.631 -10.6445 C 171.631 -5.85938 169.531 -3.85742 164.844 -3.85742 Z M 143.555 22.9492 C 143.555 19.873 141.162 17.4316 138.135 17.4316 L 57.959 17.4316 C 54.9316 17.4316 52.5391 19.873 52.5391 22.9492 C 52.5391 26.0254 54.9316 28.418 57.959 28.418 L 138.135 28.418 C 141.162 28.418 143.555 26.0254 143.555 22.9492 Z"/>
  </g>
  <g id="Light-L" transform="matrix(1 0 0 1 1056.33 1556)">
   <path d="M 30.0781 3.4668 L 163.525 3.4668 C 172.803 3.4668 177.539 -1.12305 177.539 -10.5469 L 177.539 -83.3008 C 177.539 -92.7734 172.803 -97.3145 163.525 -97.3145 L 30.0781 -97.3145 C 20.752 -97.3145 16.0645 -92.7734 16.0645 -83.3008 L 16.0645 -10.5469 C 16.0645 -1.12305 20.752 3.4668 30.0781 3.4668 Z M 30.2734 -3.17383 C 25.1465 -3.17383 22.7051 -5.46875 22.7051 -10.6934 L 22.7051 -83.1543 C 22.7051 -88.3789 25.1465 -90.7227 30.2734 -90.7227 L 163.33 -90.7227 C 168.457 -90.7227 170.898 -88.3789 170.898 -83.1543 L 170.898 -10.6934 C 170.898 -5.46875 168.457 -3.17383 163.33 -3.17383 Z M 141.65 22.5098 C 141.65 19.6777 139.551 17.5293 136.768 17.5293 L 56.4453 17.5293 C 53.6621 17.5293 51.5625 19.6777 51.5625 22.5098 C 51.5625 25.293 53.6621 27.4414 56.4453 27.4414 L 136.768 27.4414 C 139.551 27.4414 141.65 25.293 141.65 22.5098 Z"/>
  </g>
  <g id="Thin-L" transform="matrix(1 0 0 1 761.452 1556)">
   <path d="M 28.418 1.70898 L 161.523 1.70898 C 169.678 1.70898 173.877 -2.44141 173.877 -10.6445 L 173.877 -83.8379 C 173.877 -92.0898 169.678 -96.1914 161.523 -96.1914 L 28.418 -96.1914 C 20.2148 -96.1914 16.0645 -92.0898 16.0645 -83.8379 L 16.0645 -10.6445 C 16.0645 -2.44141 20.2148 1.70898 28.418 1.70898 Z M 28.6621 -2.24609 C 22.8516 -2.24609 19.9707 -4.98047 19.9707 -10.791 L 19.9707 -83.6914 C 19.9707 -89.502 22.8516 -92.2852 28.6621 -92.2852 L 161.279 -92.2852 C 167.041 -92.2852 169.922 -89.502 169.922 -83.6914 L 169.922 -10.791 C 169.922 -4.98047 167.041 -2.24609 161.279 -2.24609 Z M 139.062 21.9238 C 139.062 19.4824 137.354 17.6758 134.912 17.6758 L 54.3945 17.6758 C 51.9531 17.6758 50.2441 19.4824 50.2441 21.9238 C 50.2441 24.3164 51.9531 26.123 54.3945 26.123 L 134.912 26.123 C 137.354 26.123 139.062 24.3164 139.062 21.9238 Z"/>
  </g>
  <g id="Ultralight-L" transform="matrix(1 0 0 1 465.693 1556)">
   <path d="M 27.5391 0.830078 L 160.498 0.830078 C 168.066 0.830078 171.973 -3.125 171.973 -10.6934 L 171.973 -84.1309 C 171.973 -91.6992 168.066 -95.6055 160.498 -95.6055 L 27.5391 -95.6055 C 19.9707 -95.6055 16.0645 -91.6992 16.0645 -84.1309 L 16.0645 -10.6934 C 16.0645 -3.125 19.9707 0.830078 27.5391 0.830078 Z M 27.7832 -1.75781 C 21.6797 -1.75781 18.6035 -4.73633 18.6035 -10.8398 L 18.6035 -83.9844 C 18.6035 -90.0879 21.6797 -93.0664 27.7832 -93.0664 L 160.254 -93.0664 C 166.357 -93.0664 169.434 -90.0879 169.434 -83.9844 L 169.434 -10.8398 C 169.434 -4.73633 166.357 -1.75781 160.254 -1.75781 Z M 137.744 21.582 C 137.744 19.3848 136.23 17.7734 133.984 17.7734 L 53.3691 17.7734 C 51.123 17.7734 49.6094 19.3848 49.6094 21.582 C 49.6094 23.8281 51.123 25.4395 53.3691 25.4395 L 133.984 25.4395 C 136.23 25.4395 137.744 23.8281 137.744 21.582 Z"/>
  </g>
  <g id="Black-M" transform="matrix(1 0 0 1 2853.91 1126)">
   <path d="M 30.5664 -0.830078 L 128.418 -0.830078 C 139.795 -0.830078 146.533 -7.56836 146.533 -18.9453 L 146.533 -70.459 C 146.533 -81.8359 139.795 -88.5742 128.418 -88.5742 L 30.5664 -88.5742 C 19.1895 -88.5742 12.4512 -81.8359 12.4512 -70.459 L 12.4512 -18.9453 C 12.4512 -7.56836 19.1895 -0.830078 30.5664 -0.830078 Z M 33.252 -17.7246 C 30.6641 -17.7246 29.3457 -18.75 29.3457 -21.6309 L 29.3457 -67.7734 C 29.3457 -70.6055 30.6641 -71.6797 33.252 -71.6797 L 125.732 -71.6797 C 128.32 -71.6797 129.639 -70.6055 129.639 -67.7734 L 129.639 -21.6309 C 129.639 -18.75 128.32 -17.7246 125.732 -17.7246 Z M 114.746 12.0605 C 114.746 8.93555 112.061 6.05469 108.691 6.05469 L 50.293 6.05469 C 46.9238 6.05469 44.2383 8.93555 44.2383 12.0605 C 44.2383 15.1855 46.9238 18.0664 50.293 18.0664 L 108.691 18.0664 C 112.061 18.0664 114.746 15.1855 114.746 12.0605 Z"/>
  </g>
  <g id="Heavy-M" transform="matrix(1 0 0 1 2557.81 1126)">
   <path d="M 29.248 -1.41602 L 128.467 -1.41602 C 139.16 -1.41602 145.312 -7.51953 145.312 -18.2617 L 145.312 -70.8008 C 145.312 -81.543 139.16 -87.5977 128.467 -87.5977 L 29.248 -87.5977 C 18.5547 -87.5977 12.4512 -81.543 12.4512 -70.8008 L 12.4512 -18.2617 C 12.4512 -7.51953 18.5547 -1.41602 29.248 -1.41602 Z M 31.3477 -16.2109 C 28.5645 -16.2109 27.1973 -17.334 27.1973 -20.3125 L 27.1973 -68.7012 C 27.1973 -71.7285 28.5645 -72.8516 31.3477 -72.8516 L 126.416 -72.8516 C 129.199 -72.8516 130.518 -71.7285 130.518 -68.7012 L 130.518 -20.3125 C 130.518 -17.334 129.199 -16.2109 126.416 -16.2109 Z M 114.209 11.6211 C 114.209 8.64258 111.67 5.95703 108.496 5.95703 L 49.2188 5.95703 C 46.0449 5.95703 43.5547 8.64258 43.5547 11.6211 C 43.5547 14.5996 46.0449 17.2852 49.2188 17.2852 L 108.496 17.2852 C 111.67 17.2852 114.209 14.5996 114.209 11.6211 Z"/>
  </g>
  <g id="Bold-M" transform="matrix(1 0 0 1 2261.8 1126)">
   <path d="M 27.7832 -2.14844 L 128.564 -2.14844 C 138.477 -2.14844 143.896 -7.51953 143.896 -17.4805 L 143.896 -71.1914 C 143.896 -81.1523 138.477 -86.5234 128.564 -86.5234 L 27.7832 -86.5234 C 17.9199 -86.5234 12.4512 -81.1523 12.4512 -71.1914 L 12.4512 -17.4805 C 12.4512 -7.51953 17.9199 -2.14844 27.7832 -2.14844 Z M 29.1992 -14.502 C 26.2207 -14.502 24.8047 -15.7227 24.8047 -18.8477 L 24.8047 -69.7754 C 24.8047 -72.9492 26.2207 -74.1699 29.1992 -74.1699 L 127.148 -74.1699 C 130.127 -74.1699 131.543 -72.9492 131.543 -69.7754 L 131.543 -18.8477 C 131.543 -15.7227 130.127 -14.502 127.148 -14.502 Z M 113.574 11.084 C 113.574 8.25195 111.182 5.81055 108.252 5.81055 L 48.0469 5.81055 C 45.1172 5.81055 42.7734 8.25195 42.7734 11.084 C 42.7734 13.916 45.1172 16.4062 48.0469 16.4062 L 108.252 16.4062 C 111.182 16.4062 113.574 13.916 113.574 11.084 Z"/>
  </g>
  <g id="Semibold-M" transform="matrix(1 0 0 1 1965.56 1126)">
   <path d="M 26.7578 -2.63672 L 128.662 -2.63672 C 137.988 -2.63672 142.969 -7.4707 142.969 -16.9434 L 142.969 -71.4844 C 142.969 -80.9082 137.988 -85.791 128.662 -85.791 L 26.7578 -85.791 C 17.4316 -85.791 12.4512 -80.9082 12.4512 -71.4844 L 12.4512 -16.9434 C 12.4512 -7.4707 17.4316 -2.63672 26.7578 -2.63672 Z M 27.7344 -13.3301 C 24.6094 -13.3301 23.1934 -14.5996 23.1934 -17.8711 L 23.1934 -70.5566 C 23.1934 -73.7793 24.6094 -75.0488 27.7344 -75.0488 L 127.686 -75.0488 C 130.811 -75.0488 132.227 -73.7793 132.227 -70.5566 L 132.227 -17.8711 C 132.227 -14.5996 130.811 -13.3301 127.686 -13.3301 Z M 113.135 10.7422 C 113.135 8.00781 110.889 5.71289 108.105 5.71289 L 47.2168 5.71289 C 44.4336 5.71289 42.2363 8.00781 42.2363 10.7422 C 42.2363 13.4766 44.4336 15.7715 47.2168 15.7715 L 108.105 15.7715 C 110.889 15.7715 113.135 13.4766 113.135 10.7422 Z"/>
  </g>
  <g id="Medium-M" transform="matrix(1 0 0 1 1669.21 1126)">
   <path d="M 25.9766 -2.97852 L 128.711 -2.97852 C 137.598 -2.97852 142.236 -7.4707 142.236 -16.5039 L 142.236 -71.6797 C 142.236 -80.7617 137.598 -85.2539 128.711 -85.2539 L 25.9766 -85.2539 C 17.0898 -85.2539 12.4512 -80.7617 12.4512 -71.6797 L 12.4512 -16.5039 C 12.4512 -7.4707 17.0898 -2.97852 25.9766 -2.97852 Z M 26.6113 -12.4512 C 23.3887 -12.4512 21.9238 -13.7695 21.9238 -17.0898 L 21.9238 -71.0938 C 21.9238 -74.4141 23.3887 -75.7324 26.6113 -75.7324 L 128.125 -75.7324 C 131.299 -75.7324 132.764 -74.4141 132.764 -71.0938 L 132.764 -17.0898 C 132.764 -13.7695 131.299 -12.4512 128.125 -12.4512 Z M 112.793 10.4492 C 112.793 7.8125 110.645 5.61523 108.008 5.61523 L 46.582 5.61523 C 43.9453 5.61523 41.7969 7.8125 41.7969 10.4492 C 41.7969 13.0859 43.9453 15.2832 46.582 15.2832 L 108.008 15.2832 C 110.645 15.2832 112.793 13.0859 112.793 10.4492 Z"/>
  </g>
  <g id="Regular-M" transform="matrix(1 0 0 1 1372.96 1126)">
   <path d="M 25 -3.4668 L 128.76 -3.4668 C 137.109 -3.4668 141.309 -7.4707 141.309 -16.0156 L 141.309 -71.9727 C 141.309 -80.5176 137.109 -84.5215 128.76 -84.5215 L 25 -84.5215 C 16.6504 -84.5215 12.4512 -80.5176 12.4512 -71.9727 L 12.4512 -16.0156 C 12.4512 -7.4707 16.6504 -3.4668 25 -3.4668 Z M 25.1465 -11.3281 C 21.7773 -11.3281 20.3125 -12.6953 20.3125 -16.1133 L 20.3125 -71.8262 C 20.3125 -75.293 21.7773 -76.6602 25.1465 -76.6602 L 128.613 -76.6602 C 131.982 -76.6602 133.447 -75.293 133.447 -71.8262 L 133.447 -16.1133 C 133.447 -12.6953 131.982 -11.3281 128.613 -11.3281 Z M 112.354 10.1074 C 112.354 7.56836 110.352 5.51758 107.861 5.51758 L 45.8008 5.51758 C 43.3105 5.51758 41.2598 7.56836 41.2598 10.1074 C 41.2598 12.6465 43.3105 14.6973 45.8008 14.6973 L 107.861 14.6973 C 110.352 14.6973 112.354 12.6465 112.354 10.1074 Z"/>
  </g>
  <g id="Light-M" transform="matrix(1 0 0 1 1077.5 1126)">
   <path d="M 23.877 -4.63867 L 127.393 -4.63867 C 135.01 -4.63867 138.818 -8.34961 138.818 -16.0645 L 138.818 -72.3145 C 138.818 -80.0293 135.01 -83.7402 127.393 -83.7402 L 23.877 -83.7402 C 16.2598 -83.7402 12.4512 -80.0293 12.4512 -72.3145 L 12.4512 -16.0645 C 12.4512 -8.34961 16.2598 -4.63867 23.877 -4.63867 Z M 24.0234 -10.6934 C 20.2637 -10.6934 18.5059 -12.3535 18.5059 -16.1621 L 18.5059 -72.2168 C 18.5059 -76.0254 20.2637 -77.6855 24.0234 -77.6855 L 127.246 -77.6855 C 131.006 -77.6855 132.764 -76.0254 132.764 -72.2168 L 132.764 -16.1621 C 132.764 -12.3535 131.006 -10.6934 127.246 -10.6934 Z M 110.645 9.7168 C 110.645 7.42188 108.887 5.61523 106.592 5.61523 L 44.4336 5.61523 C 42.1387 5.61523 40.3809 7.42188 40.3809 9.7168 C 40.3809 12.0117 42.1387 13.7695 44.4336 13.7695 L 106.592 13.7695 C 108.887 13.7695 110.645 12.0117 110.645 9.7168 Z"/>
  </g>
  <g id="Thin-M" transform="matrix(1 0 0 1 782.423 1126)">
   <path d="M 22.3633 -6.20117 L 125.586 -6.20117 C 132.178 -6.20117 135.547 -9.52148 135.547 -16.1621 L 135.547 -72.8027 C 135.547 -79.4434 132.178 -82.7148 125.586 -82.7148 L 22.3633 -82.7148 C 15.7715 -82.7148 12.4512 -79.4434 12.4512 -72.8027 L 12.4512 -16.1621 C 12.4512 -9.52148 15.7715 -6.20117 22.3633 -6.20117 Z M 22.5586 -9.86328 C 18.2129 -9.86328 16.0645 -11.9141 16.0645 -16.2598 L 16.0645 -72.6562 C 16.0645 -77.0508 18.2129 -79.1016 22.5586 -79.1016 L 125.439 -79.1016 C 129.785 -79.1016 131.885 -77.0508 131.885 -72.6562 L 131.885 -16.2598 C 131.885 -11.9141 129.785 -9.86328 125.439 -9.86328 Z M 108.35 9.17969 C 108.35 7.22656 106.934 5.76172 104.98 5.76172 L 42.5781 5.76172 C 40.625 5.76172 39.2578 7.22656 39.2578 9.17969 C 39.2578 11.1328 40.625 12.5977 42.5781 12.5977 L 104.98 12.5977 C 106.934 12.5977 108.35 11.1328 108.35 9.17969 Z"/>
  </g>
  <g id="Ultralight-M" transform="matrix(1 0 0 1 486.567 1126)">
   <path d="M 21.6309 -7.03125 L 124.707 -7.03125 C 130.762 -7.03125 133.838 -10.1074 133.838 -16.2109 L 133.838 -73.0469 C 133.838 -79.1016 130.762 -82.2266 124.707 -82.2266 L 21.6309 -82.2266 C 15.5273 -82.2266 12.4512 -79.1016 12.4512 -73.0469 L 12.4512 -16.2109 C 12.4512 -10.1074 15.5273 -7.03125 21.6309 -7.03125 Z M 21.7773 -9.42383 C 17.1875 -9.42383 14.8438 -11.6699 14.8438 -16.3086 L 14.8438 -72.9004 C 14.8438 -77.5391 17.1875 -79.834 21.7773 -79.834 L 124.512 -79.834 C 129.15 -79.834 131.445 -77.5391 131.445 -72.9004 L 131.445 -16.3086 C 131.445 -11.6699 129.15 -9.42383 124.512 -9.42383 Z M 107.129 8.88672 C 107.129 7.12891 105.908 5.81055 104.102 5.81055 L 41.6504 5.81055 C 39.8926 5.81055 38.623 7.12891 38.623 8.88672 C 38.623 10.6934 39.8926 12.0117 41.6504 12.0117 L 104.102 12.0117 C 105.908 12.0117 107.129 10.6934 107.129 8.88672 Z"/>
  </g>
  <g id="Black-S" transform="matrix(1 0 0 1 2871.14 696)">
   <path d="M 23.877 -8.30078 L 100.635 -8.30078 C 109.521 -8.30078 114.746 -13.5254 114.746 -22.4121 L 114.746 -62.8418 C 114.746 -71.7285 109.521 -76.9531 100.635 -76.9531 L 23.877 -76.9531 C 14.9902 -76.9531 9.76562 -71.7285 9.76562 -62.8418 L 9.76562 -22.4121 C 9.76562 -13.5254 14.9902 -8.30078 23.877 -8.30078 Z M 25.9277 -21.3867 C 23.877 -21.3867 22.8516 -22.2168 22.8516 -24.4629 L 22.8516 -60.791 C 22.8516 -63.0371 23.877 -63.8672 25.9277 -63.8672 L 98.584 -63.8672 C 100.635 -63.8672 101.66 -63.0371 101.66 -60.791 L 101.66 -24.4629 C 101.66 -22.2168 100.635 -21.3867 98.584 -21.3867 Z M 89.8926 1.80664 C 89.8926 -0.634766 87.793 -2.88086 85.1562 -2.88086 L 39.3555 -2.88086 C 36.7188 -2.88086 34.6191 -0.634766 34.6191 1.80664 C 34.6191 4.24805 36.7188 6.49414 39.3555 6.49414 L 85.1562 6.49414 C 87.793 6.49414 89.8926 4.24805 89.8926 1.80664 Z"/>
  </g>
  <g id="Heavy-S" transform="matrix(1 0 0 1 2574.77 696)">
   <path d="M 22.998 -8.64258 L 100.83 -8.64258 C 109.277 -8.64258 114.062 -13.4277 114.062 -21.875 L 114.062 -63.0859 C 114.062 -71.5332 109.277 -76.3184 100.83 -76.3184 L 22.998 -76.3184 C 14.5508 -76.3184 9.76562 -71.5332 9.76562 -63.0859 L 9.76562 -21.875 C 9.76562 -13.4277 14.5508 -8.64258 22.998 -8.64258 Z M 24.5605 -20.3125 C 22.4609 -20.3125 21.4355 -21.1426 21.4355 -23.4863 L 21.4355 -61.4746 C 21.4355 -63.7695 22.4609 -64.6484 24.5605 -64.6484 L 99.2676 -64.6484 C 101.416 -64.6484 102.441 -63.7695 102.441 -61.4746 L 102.441 -23.4863 C 102.441 -21.1426 101.416 -20.3125 99.2676 -20.3125 Z M 89.6484 1.51367 C 89.6484 -0.878906 87.6465 -2.97852 85.1562 -2.97852 L 38.6719 -2.97852 C 36.1816 -2.97852 34.1797 -0.878906 34.1797 1.51367 C 34.1797 3.85742 36.1816 5.95703 38.6719 5.95703 L 85.1562 5.95703 C 87.6465 5.95703 89.6484 3.85742 89.6484 1.51367 Z"/>
  </g>
  <g id="Bold-S" transform="matrix(1 0 0 1 2278.43 696)">
   <path d="M 22.0215 -9.0332 L 101.074 -9.0332 C 108.984 -9.0332 113.33 -13.2812 113.33 -21.2891 L 113.33 -63.3301 C 113.33 -71.3379 108.984 -75.5859 101.074 -75.5859 L 22.0215 -75.5859 C 14.1113 -75.5859 9.76562 -71.3379 9.76562 -63.3301 L 9.76562 -21.2891 C 9.76562 -13.2812 14.1113 -9.0332 22.0215 -9.0332 Z M 23.0957 -19.0918 C 20.8496 -19.0918 19.8242 -19.9707 19.8242 -22.3633 L 19.8242 -62.2559 C 19.8242 -64.6484 20.8496 -65.5273 23.0957 -65.5273 L 100 -65.5273 C 102.246 -65.5273 103.271 -64.6484 103.271 -62.2559 L 103.271 -22.3633 C 103.271 -19.9707 102.246 -19.0918 100 -19.0918 Z M 89.4043 1.12305 C 89.4043 -1.12305 87.5 -3.125 85.1562 -3.125 L 37.9395 -3.125 C 35.5957 -3.125 33.6914 -1.12305 33.6914 1.12305 C 33.6914 3.41797 35.5957 5.41992 37.9395 5.41992 L 85.1562 5.41992 C 87.5 5.41992 89.4043 3.41797 89.4043 1.12305 Z"/>
  </g>
  <g id="Semibold-S" transform="matrix(1 0 0 1 1981.96 696)">
   <path d="M 21.3379 -9.27734 L 101.27 -9.27734 C 108.789 -9.27734 112.842 -13.1836 112.842 -20.8496 L 112.842 -63.5254 C 112.842 -71.1914 108.789 -75.0977 101.27 -75.0977 L 21.3379 -75.0977 C 13.7695 -75.0977 9.76562 -71.1914 9.76562 -63.5254 L 9.76562 -20.8496 C 9.76562 -13.1836 13.7695 -9.27734 21.3379 -9.27734 Z M 22.0703 -18.2617 C 19.7754 -18.2617 18.75 -19.1406 18.75 -21.582 L 18.75 -62.793 C 18.75 -65.2344 19.7754 -66.1133 22.0703 -66.1133 L 100.537 -66.1133 C 102.832 -66.1133 103.857 -65.2344 103.857 -62.793 L 103.857 -21.582 C 103.857 -19.1406 102.832 -18.2617 100.537 -18.2617 Z M 89.209 0.878906 C 89.209 -1.31836 87.3535 -3.22266 85.1074 -3.22266 L 37.4512 -3.22266 C 35.2051 -3.22266 33.3496 -1.31836 33.3496 0.878906 C 33.3496 3.125 35.2051 4.98047 37.4512 4.98047 L 85.1074 4.98047 C 87.3535 4.98047 89.209 3.125 89.209 0.878906 Z"/>
  </g>
  <g id="Medium-S" transform="matrix(1 0 0 1 1685.45 696)">
   <path d="M 20.8008 -9.47266 L 101.367 -9.47266 C 108.643 -9.47266 112.451 -13.1348 112.451 -20.5566 L 112.451 -63.6719 C 112.451 -71.0449 108.643 -74.707 101.367 -74.707 L 20.8008 -74.707 C 13.5254 -74.707 9.76562 -71.0449 9.76562 -63.6719 L 9.76562 -20.5566 C 9.76562 -13.1348 13.5254 -9.47266 20.8008 -9.47266 Z M 21.2402 -17.627 C 18.8965 -17.627 17.8711 -18.5547 17.8711 -20.9961 L 17.8711 -63.1836 C 17.8711 -65.6738 18.8965 -66.5527 21.2402 -66.5527 L 100.928 -66.5527 C 103.271 -66.5527 104.297 -65.6738 104.297 -63.1836 L 104.297 -20.9961 C 104.297 -18.5547 103.271 -17.627 100.928 -17.627 Z M 89.0625 0.732422 C 89.0625 -1.46484 87.3047 -3.27148 85.1074 -3.27148 L 37.0605 -3.27148 C 34.9121 -3.27148 33.1055 -1.46484 33.1055 0.732422 C 33.1055 2.88086 34.9121 4.6875 37.0605 4.6875 L 85.1074 4.6875 C 87.3047 4.6875 89.0625 2.88086 89.0625 0.732422 Z"/>
  </g>
  <g id="Regular-S" transform="matrix(1 0 0 1 1389 696)">
   <path d="M 20.1172 -9.76562 L 101.562 -9.76562 C 108.447 -9.76562 111.914 -13.0371 111.914 -20.1172 L 111.914 -63.8184 C 111.914 -70.9473 108.447 -74.2188 101.562 -74.2188 L 20.1172 -74.2188 C 13.2324 -74.2188 9.76562 -70.9473 9.76562 -63.8184 L 9.76562 -20.1172 C 9.76562 -13.0371 13.2324 -9.76562 20.1172 -9.76562 Z M 20.2148 -16.7969 C 17.8223 -16.7969 16.7969 -17.7246 16.7969 -20.2148 L 16.7969 -63.7207 C 16.7969 -66.2109 17.8223 -67.1387 20.2148 -67.1387 L 101.465 -67.1387 C 103.857 -67.1387 104.883 -66.2109 104.883 -63.7207 L 104.883 -20.2148 C 104.883 -17.7246 103.857 -16.7969 101.465 -16.7969 Z M 88.8672 0.488281 C 88.8672 -1.61133 87.1582 -3.36914 85.1074 -3.36914 L 36.5723 -3.36914 C 34.4727 -3.36914 32.7637 -1.61133 32.7637 0.488281 C 32.7637 2.58789 34.4727 4.29688 36.5723 4.29688 L 85.1074 4.29688 C 87.1582 4.29688 88.8672 2.58789 88.8672 0.488281 Z"/>
  </g>
  <g id="Light-S" transform="matrix(1 0 0 1 1093.39 696)">
   <path d="M 19.1406 -10.791 L 100.342 -10.791 C 106.592 -10.791 109.717 -13.8184 109.717 -20.166 L 109.717 -64.1602 C 109.717 -70.5078 106.592 -73.5352 100.342 -73.5352 L 19.1406 -73.5352 C 12.8906 -73.5352 9.76562 -70.5078 9.76562 -64.1602 L 9.76562 -20.166 C 9.76562 -13.8184 12.8906 -10.791 19.1406 -10.791 Z M 19.2383 -16.2598 C 16.4551 -16.2598 15.1855 -17.4316 15.1855 -20.2637 L 15.1855 -64.0625 C 15.1855 -66.8945 16.4551 -68.1152 19.2383 -68.1152 L 100.244 -68.1152 C 103.027 -68.1152 104.297 -66.8945 104.297 -64.0625 L 104.297 -20.2637 C 104.297 -17.4316 103.027 -16.2598 100.244 -16.2598 Z M 87.3535 0.146484 C 87.3535 -1.75781 85.8887 -3.27148 84.0332 -3.27148 L 35.3516 -3.27148 C 33.4961 -3.27148 31.9824 -1.75781 31.9824 0.146484 C 31.9824 2.00195 33.4961 3.51562 35.3516 3.51562 L 84.0332 3.51562 C 85.8887 3.51562 87.3535 2.00195 87.3535 0.146484 Z"/>
  </g>
  <g id="Thin-S" transform="matrix(1 0 0 1 798.121 696)">
   <path d="M 17.8223 -12.207 L 98.7793 -12.207 C 104.102 -12.207 106.836 -14.8438 106.836 -20.2637 L 106.836 -64.5508 C 106.836 -69.9707 104.102 -72.6562 98.7793 -72.6562 L 17.8223 -72.6562 C 12.5 -72.6562 9.76562 -69.9707 9.76562 -64.5508 L 9.76562 -20.2637 C 9.76562 -14.8438 12.5 -12.207 17.8223 -12.207 Z M 17.9688 -15.5273 C 14.6484 -15.5273 13.0859 -17.041 13.0859 -20.3613 L 13.0859 -64.4531 C 13.0859 -67.7734 14.6484 -69.3359 17.9688 -69.3359 L 98.6328 -69.3359 C 101.904 -69.3359 103.516 -67.7734 103.516 -64.4531 L 103.516 -20.3613 C 103.516 -17.041 101.904 -15.5273 98.6328 -15.5273 Z M 85.3027 -0.341797 C 85.3027 -1.95312 84.1309 -3.17383 82.5684 -3.17383 L 33.7402 -3.17383 C 32.1289 -3.17383 30.957 -1.95312 30.957 -0.341797 C 30.957 1.26953 32.1289 2.49023 33.7402 2.49023 L 82.5684 2.49023 C 84.1309 2.49023 85.3027 1.26953 85.3027 -0.341797 Z"/>
  </g>
  <g id="Ultralight-S" transform="matrix(1 0 0 1 502.167 696)">
   <path d="M 17.1387 -12.9395 L 97.9492 -12.9395 C 102.832 -12.9395 105.322 -15.3809 105.322 -20.3125 L 105.322 -64.7949 C 105.322 -69.6777 102.832 -72.168 97.9492 -72.168 L 17.1387 -72.168 C 12.2559 -72.168 9.76562 -69.6777 9.76562 -64.7949 L 9.76562 -20.3125 C 9.76562 -15.3809 12.2559 -12.9395 17.1387 -12.9395 Z M 17.2852 -15.1367 C 13.7207 -15.1367 11.9629 -16.8457 11.9629 -20.4102 L 11.9629 -64.6973 C 11.9629 -68.2617 13.7207 -69.9707 17.2852 -69.9707 L 97.8027 -69.9707 C 101.367 -69.9707 103.125 -68.2617 103.125 -64.6973 L 103.125 -20.4102 C 103.125 -16.8457 101.367 -15.1367 97.8027 -15.1367 Z M 84.2773 -0.585938 C 84.2773 -2.05078 83.252 -3.07617 81.8359 -3.07617 L 32.9102 -3.07617 C 31.4453 -3.07617 30.4199 -2.05078 30.4199 -0.585938 C 30.4199 0.878906 31.4453 1.95312 32.9102 1.95312 L 81.8359 1.95312 C 83.252 1.95312 84.2773 0.878906 84.2773 -0.585938 Z"/>
  </g>
 </g>
</svg>
