<?xml version="1.0" encoding="UTF-8"?>
<!--Generator: Apple Native CoreSVG 123-->
<!DOCTYPE svg
PUBLIC "-//W3C//DTD SVG 1.1//EN"
       "http://www.w3.org/Graphics/SVG/1.1/DTD/svg11.dtd">
<svg version="1.1" xmlns="http://www.w3.org/2000/svg" xmlns:xlink="http://www.w3.org/1999/xlink" width="3300" height="2200">
 <!--glyph: "uni100395.medium", point size: 100.000000, font version: "Version 15.0d7e11", template writer version: "5"-->
 <g id="Notes">
  <rect height="2200" id="artboard" style="fill:white;opacity:1" width="3300" x="0" y="0"/>
  <line id="" style="fill:none;stroke:black;opacity:1;stroke-width:0.5;" x1="263" x2="3036" y1="292" y2="292"/>
  <text style="stroke:none;fill:black;font-family:-apple-system,&quot;SF Pro Display&quot;,&quot;SF Pro Text&quot;,Helvetica,sans-serif;font-weight:bold;" transform="matrix(1 0 0 1 263 322)">Weight/Scale Variations</text>
  <text style="stroke:none;fill:black;font-family:-apple-system,&quot;SF Pro Display&quot;,&quot;SF Pro Text&quot;,Helvetica,sans-serif;text-anchor:middle;" transform="matrix(1 0 0 1 559.711 322)">Ultralight</text>
  <text style="stroke:none;fill:black;font-family:-apple-system,&quot;SF Pro Display&quot;,&quot;SF Pro Text&quot;,Helvetica,sans-serif;text-anchor:middle;" transform="matrix(1 0 0 1 856.422 322)">Thin</text>
  <text style="stroke:none;fill:black;font-family:-apple-system,&quot;SF Pro Display&quot;,&quot;SF Pro Text&quot;,Helvetica,sans-serif;text-anchor:middle;" transform="matrix(1 0 0 1 1153.13 322)">Light</text>
  <text style="stroke:none;fill:black;font-family:-apple-system,&quot;SF Pro Display&quot;,&quot;SF Pro Text&quot;,Helvetica,sans-serif;text-anchor:middle;" transform="matrix(1 0 0 1 1449.84 322)">Regular</text>
  <text style="stroke:none;fill:black;font-family:-apple-system,&quot;SF Pro Display&quot;,&quot;SF Pro Text&quot;,Helvetica,sans-serif;text-anchor:middle;" transform="matrix(1 0 0 1 1746.56 322)">Medium</text>
  <text style="stroke:none;fill:black;font-family:-apple-system,&quot;SF Pro Display&quot;,&quot;SF Pro Text&quot;,Helvetica,sans-serif;text-anchor:middle;" transform="matrix(1 0 0 1 2043.27 322)">Semibold</text>
  <text style="stroke:none;fill:black;font-family:-apple-system,&quot;SF Pro Display&quot;,&quot;SF Pro Text&quot;,Helvetica,sans-serif;text-anchor:middle;" transform="matrix(1 0 0 1 2339.98 322)">Bold</text>
  <text style="stroke:none;fill:black;font-family:-apple-system,&quot;SF Pro Display&quot;,&quot;SF Pro Text&quot;,Helvetica,sans-serif;text-anchor:middle;" transform="matrix(1 0 0 1 2636.69 322)">Heavy</text>
  <text style="stroke:none;fill:black;font-family:-apple-system,&quot;SF Pro Display&quot;,&quot;SF Pro Text&quot;,Helvetica,sans-serif;text-anchor:middle;" transform="matrix(1 0 0 1 2933.4 322)">Black</text>
  <line id="" style="fill:none;stroke:black;opacity:1;stroke-width:0.5;" x1="263" x2="3036" y1="1903" y2="1903"/>
  <g id="" transform="matrix(1 0 0 1 263 1933)">
   <path d="M 9.24805 0.830078 C 13.5547 0.830078 17.1387 -2.74414 17.1387 -7.05078 C 17.1387 -11.3574 13.5449 -14.9316 9.23828 -14.9316 C 4.94141 -14.9316 1.36719 -11.3574 1.36719 -7.05078 C 1.36719 -2.74414 4.95117 0.830078 9.24805 0.830078 Z M 9.24805 -0.654297 C 5.70312 -0.654297 2.87109 -3.49609 2.87109 -7.05078 C 2.87109 -10.6055 5.69336 -13.4473 9.23828 -13.4473 C 12.793 -13.4473 15.6348 -10.6055 15.6445 -7.05078 C 15.6543 -3.49609 12.8027 -0.654297 9.24805 -0.654297 Z M 9.22852 -3.42773 C 9.69727 -3.42773 9.9707 -3.74023 9.9707 -4.25781 L 9.9707 -6.31836 L 12.1973 -6.31836 C 12.6953 -6.31836 13.0371 -6.57227 13.0371 -7.04102 C 13.0371 -7.51953 12.7148 -7.7832 12.1973 -7.7832 L 9.9707 -7.7832 L 9.9707 -10.0098 C 9.9707 -10.5273 9.69727 -10.8496 9.22852 -10.8496 C 8.75977 -10.8496 8.50586 -10.5078 8.50586 -10.0098 L 8.50586 -7.7832 L 6.29883 -7.7832 C 5.78125 -7.7832 5.44922 -7.51953 5.44922 -7.04102 C 5.44922 -6.57227 5.80078 -6.31836 6.29883 -6.31836 L 8.50586 -6.31836 L 8.50586 -4.25781 C 8.50586 -3.75977 8.75977 -3.42773 9.22852 -3.42773 Z"/>
  </g>
  <g id="" transform="matrix(1 0 0 1 281.506 1933)">
   <path d="M 11.709 2.91016 C 17.1582 2.91016 21.6699 -1.60156 21.6699 -7.05078 C 21.6699 -12.4902 17.1484 -17.0117 11.6992 -17.0117 C 6.25977 -17.0117 1.74805 -12.4902 1.74805 -7.05078 C 1.74805 -1.60156 6.26953 2.91016 11.709 2.91016 Z M 11.709 1.25 C 7.09961 1.25 3.41797 -2.44141 3.41797 -7.05078 C 3.41797 -11.6504 7.08984 -15.3516 11.6992 -15.3516 C 16.3086 -15.3516 20 -11.6504 20.0098 -7.05078 C 20.0195 -2.44141 16.3184 1.25 11.709 1.25 Z M 11.6895 -2.41211 C 12.207 -2.41211 12.5195 -2.77344 12.5195 -3.33984 L 12.5195 -6.23047 L 15.5762 -6.23047 C 16.123 -6.23047 16.5039 -6.51367 16.5039 -7.03125 C 16.5039 -7.55859 16.1426 -7.86133 15.5762 -7.86133 L 12.5195 -7.86133 L 12.5195 -10.9277 C 12.5195 -11.5039 12.207 -11.8555 11.6895 -11.8555 C 11.1719 -11.8555 10.8789 -11.4844 10.8789 -10.9277 L 10.8789 -7.86133 L 7.83203 -7.86133 C 7.26562 -7.86133 6.89453 -7.55859 6.89453 -7.03125 C 6.89453 -6.51367 7.28516 -6.23047 7.83203 -6.23047 L 10.8789 -6.23047 L 10.8789 -3.33984 C 10.8789 -2.79297 11.1719 -2.41211 11.6895 -2.41211 Z"/>
  </g>
  <g id="" transform="matrix(1 0 0 1 304.924 1933)">
   <path d="M 14.9707 5.67383 C 21.9336 5.67383 27.6953 -0.078125 27.6953 -7.04102 C 27.6953 -14.0039 21.9238 -19.7559 14.9609 -19.7559 C 8.00781 -19.7559 2.25586 -14.0039 2.25586 -7.04102 C 2.25586 -0.078125 8.01758 5.67383 14.9707 5.67383 Z M 14.9707 3.85742 C 8.93555 3.85742 4.08203 -1.00586 4.08203 -7.04102 C 4.08203 -13.0762 8.92578 -17.9395 14.9609 -17.9395 C 21.0059 -17.9395 25.8594 -13.0762 25.8691 -7.04102 C 25.8789 -1.00586 21.0156 3.85742 14.9707 3.85742 Z M 14.9512 -1.06445 C 15.5176 -1.06445 15.8691 -1.45508 15.8691 -2.06055 L 15.8691 -6.13281 L 20.1074 -6.13281 C 20.6934 -6.13281 21.1133 -6.46484 21.1133 -7.02148 C 21.1133 -7.59766 20.7227 -7.93945 20.1074 -7.93945 L 15.8691 -7.93945 L 15.8691 -12.1875 C 15.8691 -12.8027 15.5176 -13.1934 14.9512 -13.1934 C 14.3848 -13.1934 14.0625 -12.7832 14.0625 -12.1875 L 14.0625 -7.93945 L 9.83398 -7.93945 C 9.21875 -7.93945 8.80859 -7.59766 8.80859 -7.02148 C 8.80859 -6.46484 9.23828 -6.13281 9.83398 -6.13281 L 14.0625 -6.13281 L 14.0625 -2.06055 C 14.0625 -1.47461 14.3848 -1.06445 14.9512 -1.06445 Z"/>
  </g>
  <text style="stroke:none;fill:black;font-family:-apple-system,&quot;SF Pro Display&quot;,&quot;SF Pro Text&quot;,Helvetica,sans-serif;font-weight:bold;" transform="matrix(1 0 0 1 263 1953)">Design Variations</text>
  <text style="stroke:none;fill:black;font-family:-apple-system,&quot;SF Pro Display&quot;,&quot;SF Pro Text&quot;,Helvetica,sans-serif;" transform="matrix(1 0 0 1 263 1971)">Symbols are supported in up to nine weights and three scales.</text>
  <text style="stroke:none;fill:black;font-family:-apple-system,&quot;SF Pro Display&quot;,&quot;SF Pro Text&quot;,Helvetica,sans-serif;" transform="matrix(1 0 0 1 263 1989)">For optimal layout with text and other symbols, vertically align</text>
  <text style="stroke:none;fill:black;font-family:-apple-system,&quot;SF Pro Display&quot;,&quot;SF Pro Text&quot;,Helvetica,sans-serif;" transform="matrix(1 0 0 1 263 2007)">symbols with the adjacent text.</text>
  <rect height="14" id="" style="fill:#00AEEF;stroke:none;opacity:0.4;" width="3" x="776" y="1919"/>
  <g id="" transform="matrix(1 0 0 1 779 1933)">
   <path d="M 10.5273 0 L 12.373 0 L 7.17773 -14.0918 L 5.43945 -14.0918 L 0.244141 0 L 2.08984 0 L 3.50586 -4.0332 L 9.11133 -4.0332 Z M 6.2793 -11.9531 L 6.33789 -11.9531 L 8.59375 -5.52734 L 4.02344 -5.52734 Z"/>
  </g>
  <rect height="14" id="" style="fill:#00AEEF;stroke:none;opacity:0.4;" width="3" x="791.617" y="1919"/>
  <text style="stroke:none;fill:black;font-family:-apple-system,&quot;SF Pro Display&quot;,&quot;SF Pro Text&quot;,Helvetica,sans-serif;font-weight:bold;" transform="matrix(1 0 0 1 776 1953)">Margins</text>
  <text style="stroke:none;fill:black;font-family:-apple-system,&quot;SF Pro Display&quot;,&quot;SF Pro Text&quot;,Helvetica,sans-serif;" transform="matrix(1 0 0 1 776 1971)">Leading and trailing margins on the left and right side of each symbol</text>
  <text style="stroke:none;fill:black;font-family:-apple-system,&quot;SF Pro Display&quot;,&quot;SF Pro Text&quot;,Helvetica,sans-serif;" transform="matrix(1 0 0 1 776 1989)">can be adjusted by modifying the width of the blue rectangles.</text>
  <text style="stroke:none;fill:black;font-family:-apple-system,&quot;SF Pro Display&quot;,&quot;SF Pro Text&quot;,Helvetica,sans-serif;" transform="matrix(1 0 0 1 776 2007)">Modifications are automatically applied proportionally to all</text>
  <text style="stroke:none;fill:black;font-family:-apple-system,&quot;SF Pro Display&quot;,&quot;SF Pro Text&quot;,Helvetica,sans-serif;" transform="matrix(1 0 0 1 776 2025)">scales and weights.</text>
  <g id="" transform="matrix(1 0 0 1 1289 1933)">
   <path d="M 2.83203 3.11523 L 4.375 4.6582 C 5.22461 5.48828 6.19141 5.41992 7.06055 4.46289 L 17.2754 -6.66016 C 17.7051 -6.36719 18.0957 -6.37695 18.5645 -6.47461 L 19.6094 -6.68945 L 20.3027 -5.99609 L 20.2539 -5.47852 C 20.1855 -4.95117 20.3516 -4.53125 20.8496 -4.0332 L 21.6602 -3.22266 C 22.168 -2.71484 22.8223 -2.68555 23.3008 -3.16406 L 26.5527 -6.41602 C 27.0312 -6.89453 27.0117 -7.54883 26.5039 -8.05664 L 25.6836 -8.87695 C 25.1855 -9.375 24.7754 -9.55078 24.2383 -9.47266 L 23.7109 -9.41406 L 23.0566 -10.0781 L 23.3398 -11.2207 C 23.4863 -11.7871 23.3398 -12.2559 22.7148 -12.8613 L 20.3027 -15.2539 C 16.7578 -18.7793 12.2266 -18.6719 9.11133 -15.5371 C 8.69141 -15.1074 8.64258 -14.5215 8.91602 -14.0918 C 9.15039 -13.7207 9.62891 -13.4961 10.2734 -13.6621 C 11.7871 -14.043 13.3008 -13.9258 14.7852 -12.9199 L 14.1602 -11.3379 C 13.9258 -10.752 13.9453 -10.2734 14.1797 -9.83398 L 3.01758 0.439453 C 2.08008 1.30859 1.97266 2.25586 2.83203 3.11523 Z M 10.6738 -15.1465 C 13.3398 -17.1387 16.6504 -16.8262 19.0527 -14.4141 L 21.6797 -11.8066 C 21.9141 -11.5723 21.9434 -11.3867 21.8848 -11.0938 L 21.5039 -9.53125 L 23.0762 -7.95898 L 24.043 -8.04688 C 24.3262 -8.07617 24.4141 -8.05664 24.6387 -7.83203 L 25.2637 -7.20703 L 22.5098 -4.46289 L 21.8848 -5.07812 C 21.6602 -5.30273 21.6406 -5.40039 21.6699 -5.68359 L 21.7578 -6.64062 L 20.1953 -8.20312 L 18.5742 -7.89062 C 18.291 -7.83203 18.1445 -7.83203 17.9102 -8.07617 L 15.7324 -10.2539 C 15.5078 -10.4883 15.4785 -10.625 15.6055 -10.9473 L 16.5527 -13.2227 C 14.9512 -14.7559 12.8418 -15.6055 10.8008 -14.9512 C 10.7129 -14.9219 10.6445 -14.9414 10.6152 -14.9805 C 10.5859 -15.0293 10.5859 -15.0781 10.6738 -15.1465 Z M 4.10156 2.41211 C 3.61328 1.91406 3.78906 1.61133 4.12109 1.30859 L 15.0781 -8.80859 L 16.3086 -7.57812 L 6.15234 3.34961 C 5.84961 3.68164 5.46875 3.7793 5.06836 3.37891 Z"/>
  </g>
  <text style="stroke:none;fill:black;font-family:-apple-system,&quot;SF Pro Display&quot;,&quot;SF Pro Text&quot;,Helvetica,sans-serif;font-weight:bold;" transform="matrix(1 0 0 1 1289 1953)">Exporting</text>
  <text style="stroke:none;fill:black;font-family:-apple-system,&quot;SF Pro Display&quot;,&quot;SF Pro Text&quot;,Helvetica,sans-serif;" transform="matrix(1 0 0 1 1289 1971)">Symbols should be outlined when exporting to ensure the</text>
  <text style="stroke:none;fill:black;font-family:-apple-system,&quot;SF Pro Display&quot;,&quot;SF Pro Text&quot;,Helvetica,sans-serif;" transform="matrix(1 0 0 1 1289 1989)">design is preserved when submitting to Xcode.</text>
  <text id="template-version" style="stroke:none;fill:black;font-family:-apple-system,&quot;SF Pro Display&quot;,&quot;SF Pro Text&quot;,Helvetica,sans-serif;text-anchor:end;" transform="matrix(1 0 0 1 3036 1933)">Template v.1.0</text>
  <text style="stroke:none;fill:black;font-family:-apple-system,&quot;SF Pro Display&quot;,&quot;SF Pro Text&quot;,Helvetica,sans-serif;text-anchor:end;" transform="matrix(1 0 0 1 3036 1951)">Generated from wrench</text>
  <text style="stroke:none;fill:black;font-family:-apple-system,&quot;SF Pro Display&quot;,&quot;SF Pro Text&quot;,Helvetica,sans-serif;text-anchor:end;" transform="matrix(1 0 0 1 3036 1969)">Typeset at 100 points</text>
  <text style="stroke:none;fill:black;font-family:-apple-system,&quot;SF Pro Display&quot;,&quot;SF Pro Text&quot;,Helvetica,sans-serif;" transform="matrix(1 0 0 1 263 726)">Small</text>
  <text style="stroke:none;fill:black;font-family:-apple-system,&quot;SF Pro Display&quot;,&quot;SF Pro Text&quot;,Helvetica,sans-serif;" transform="matrix(1 0 0 1 263 1156)">Medium</text>
  <text style="stroke:none;fill:black;font-family:-apple-system,&quot;SF Pro Display&quot;,&quot;SF Pro Text&quot;,Helvetica,sans-serif;" transform="matrix(1 0 0 1 263 1586)">Large</text>
 </g>
 <g id="Guides">
  <g id="H-reference" style="fill:#27AAE1;stroke:none;" transform="matrix(1 0 0 1 339 696)">
   <path d="M 54.9316 0 L 57.666 0 L 30.5664 -70.459 L 28.0762 -70.459 L 0.976562 0 L 3.66211 0 L 12.9395 -24.4629 L 45.7031 -24.4629 Z M 29.1992 -67.0898 L 29.4434 -67.0898 L 44.8242 -26.709 L 13.8184 -26.709 Z"/>
  </g>
  <line id="Baseline-S" style="fill:none;stroke:#27AAE1;opacity:1;stroke-width:0.577;" x1="263" x2="3036" y1="696" y2="696"/>
  <line id="Capline-S" style="fill:none;stroke:#27AAE1;opacity:1;stroke-width:0.577;" x1="263" x2="3036" y1="625.541" y2="625.541"/>
  <g id="H-reference" style="fill:#27AAE1;stroke:none;" transform="matrix(1 0 0 1 339 1126)">
   <path d="M 54.9316 0 L 57.666 0 L 30.5664 -70.459 L 28.0762 -70.459 L 0.976562 0 L 3.66211 0 L 12.9395 -24.4629 L 45.7031 -24.4629 Z M 29.1992 -67.0898 L 29.4434 -67.0898 L 44.8242 -26.709 L 13.8184 -26.709 Z"/>
  </g>
  <line id="Baseline-M" style="fill:none;stroke:#27AAE1;opacity:1;stroke-width:0.577;" x1="263" x2="3036" y1="1126" y2="1126"/>
  <line id="Capline-M" style="fill:none;stroke:#27AAE1;opacity:1;stroke-width:0.577;" x1="263" x2="3036" y1="1055.54" y2="1055.54"/>
  <g id="H-reference" style="fill:#27AAE1;stroke:none;" transform="matrix(1 0 0 1 339 1556)">
   <path d="M 54.9316 0 L 57.666 0 L 30.5664 -70.459 L 28.0762 -70.459 L 0.976562 0 L 3.66211 0 L 12.9395 -24.4629 L 45.7031 -24.4629 Z M 29.1992 -67.0898 L 29.4434 -67.0898 L 44.8242 -26.709 L 13.8184 -26.709 Z"/>
  </g>
  <line id="Baseline-L" style="fill:none;stroke:#27AAE1;opacity:1;stroke-width:0.577;" x1="263" x2="3036" y1="1556" y2="1556"/>
  <line id="Capline-L" style="fill:none;stroke:#27AAE1;opacity:1;stroke-width:0.577;" x1="263" x2="3036" y1="1485.54" y2="1485.54"/>
  <rect height="119.336" id="left-margin" style="fill:#00AEEF;stroke:none;opacity:0.4;" width="11.2254" x="1381.41" y="1030.79"/>
  <rect height="119.336" id="right-margin" style="fill:#00AEEF;stroke:none;opacity:0.4;" width="11.2238" x="1507.05" y="1030.79"/>
 </g>
 <g id="Symbols">
  <g id="Black-L" transform="matrix(1 0 0 1 2838.7 1556)">
   <path d="M 23.4863 39.4043 C 35.9375 51.8066 53.3691 51.2207 66.6016 37.8906 C 80.4199 23.9746 93.7988 -2.83203 112.158 -21.1914 C 123.193 -32.2266 136.328 -23.7305 154.297 -34.1797 C 168.799 -41.5527 178.125 -58.6426 173.828 -75 L 146.094 -67.3828 C 143.896 -66.7969 142.383 -68.0664 141.699 -70.3613 L 139.795 -77.002 C 139.16 -79.2969 139.99 -81.1523 142.188 -81.7383 L 170.312 -89.4043 C 169.287 -93.3594 166.748 -98.9746 162.598 -103.223 C 146.143 -119.971 118.457 -120.459 101.953 -104.688 C 77.7832 -81.7383 94.1895 -59.7168 82.6172 -48.1934 C 65.5762 -31.25 38.6719 -17.5781 24.8535 -3.75977 C 11.5723 9.52148 11.0352 27.002 23.4863 39.4043 Z M 34.3262 28.6133 C 28.2227 22.3145 28.7109 13.7695 35.5469 6.93359 C 48.8281 -6.34766 77.4902 -21.3867 93.457 -37.3535 C 111.572 -55.4199 92.7734 -75.3418 112.842 -93.7988 C 121.143 -101.416 134.668 -102.783 145.361 -97.6074 L 137.891 -95.6055 C 126.953 -92.7734 122.119 -83.9844 125.391 -72.8027 L 127.197 -66.5039 L 133.447 -43.2129 C 123.096 -42.1875 112.012 -42.6758 101.318 -32.0312 C 84.082 -14.8438 69.2383 13.9648 55.957 27.3438 C 49.0234 34.3262 40.3809 34.8145 34.3262 28.6133 Z M 108.594 -61.4258 L 121.24 -64.7949 C 122.461 -65.1367 123.193 -66.3086 122.803 -67.627 C 122.412 -68.8477 121.24 -69.4824 120.166 -69.1895 L 107.324 -65.8203 C 106.104 -65.4785 105.42 -64.209 105.713 -63.0859 C 106.006 -61.7676 107.275 -61.084 108.594 -61.4258 Z M 110.156 -54.9805 L 122.803 -58.3496 C 124.023 -58.6914 124.805 -59.8633 124.365 -61.1816 C 124.023 -62.4023 122.803 -63.0371 121.729 -62.7441 L 108.887 -59.375 C 107.666 -59.0332 107.031 -57.7637 107.324 -56.6406 C 107.715 -55.3223 108.838 -54.6387 110.156 -54.9805 Z M 111.719 -48.5352 L 124.561 -52.002 C 125.684 -52.3438 126.416 -53.5645 126.123 -54.834 C 125.781 -55.957 124.609 -56.6406 123.389 -56.2988 L 110.596 -52.9297 C 109.424 -52.5879 108.74 -51.416 108.936 -50.1953 C 109.131 -48.877 110.547 -48.1934 111.719 -48.5352 Z M 148.193 -53.0762 L 156.494 -55.3223 C 155.469 -53.7598 154.248 -52.2949 152.93 -50.9766 C 149.951 -48.0957 146.826 -46.2891 143.555 -45.166 L 141.699 -52.2461 C 143.701 -52.1484 145.85 -52.4414 148.193 -53.0762 Z M 38.3789 24.5605 C 41.7969 27.9297 47.7539 27.9297 51.0742 24.5605 C 54.541 20.9961 54.7852 15.1855 51.123 11.7188 C 47.6074 8.34961 41.748 8.1543 38.3301 11.7188 C 34.9121 15.2832 34.8633 21.0449 38.3789 24.5605 Z"/>
  </g>
  <g id="Heavy-L" transform="matrix(1 0 0 1 2543.62 1556)">
   <path d="M 23.0957 38.4277 C 35.0098 50.293 51.6602 49.7559 64.4043 36.9141 C 77.9785 23.291 91.2598 -3.32031 109.57 -21.6309 C 121.387 -33.4961 135.01 -23.6328 153.418 -36.0352 C 166.26 -43.3594 174.316 -58.7891 170.801 -73.0469 L 143.994 -65.7227 C 141.211 -64.9902 139.404 -66.6016 138.574 -69.4336 L 136.67 -76.0254 C 135.84 -78.8574 136.816 -81.1523 139.6 -81.9336 L 166.65 -89.3066 C 165.674 -92.7734 163.281 -97.7051 159.57 -101.514 C 143.604 -117.773 116.797 -118.115 100.928 -102.979 C 77.5391 -80.7617 93.8477 -58.9844 81.6406 -46.8262 C 64.7949 -29.9805 38.0859 -16.5039 24.4629 -2.88086 C 11.7188 9.86328 11.1816 26.5625 23.0957 38.4277 Z M 32.6172 28.9551 C 26.3184 22.4609 26.8066 13.5254 33.8379 6.49414 C 47.0703 -6.73828 75.4883 -21.6309 91.1621 -37.3047 C 108.838 -54.9805 90.5762 -75.0488 110.498 -93.4082 C 119.385 -101.611 134.033 -102.734 145.068 -96.4844 L 135.938 -94.0918 C 125.537 -91.3574 120.898 -83.1055 124.023 -72.3145 L 125.83 -66.0645 L 132.324 -41.9922 C 121.826 -40.918 110.693 -41.7969 100.049 -31.1523 C 83.0078 -14.209 68.2617 14.3555 55.0293 27.6855 C 47.9004 34.8633 38.916 35.4004 32.6172 28.9551 Z M 106.787 -61.0352 L 119.629 -64.502 C 120.801 -64.7949 121.533 -65.9668 121.143 -67.2852 C 120.801 -68.457 119.629 -69.0918 118.555 -68.7988 L 105.566 -65.332 C 104.346 -65.0391 103.662 -63.8184 103.955 -62.6953 C 104.248 -61.377 105.469 -60.6934 106.787 -61.0352 Z M 108.35 -54.4922 L 121.191 -57.9102 C 122.412 -58.252 123.145 -59.375 122.754 -60.6934 C 122.412 -61.9141 121.191 -62.5 120.117 -62.2559 L 107.129 -58.7891 C 105.908 -58.4473 105.273 -57.2266 105.566 -56.1035 C 105.957 -54.7852 107.08 -54.1504 108.35 -54.4922 Z M 145.947 -53.2227 L 155.811 -55.8594 C 154.541 -53.7109 152.979 -51.709 151.172 -49.9023 C 147.998 -46.8262 144.678 -44.9707 141.26 -43.7988 L 138.916 -52.4902 C 141.064 -52.2949 143.408 -52.5391 145.947 -53.2227 Z M 109.961 -47.9004 L 122.949 -51.416 C 124.072 -51.709 124.805 -52.9785 124.512 -54.1992 C 124.17 -55.3223 122.998 -56.0059 121.777 -55.6641 L 108.838 -52.1973 C 107.666 -51.9043 107.031 -50.7324 107.227 -49.5117 C 107.422 -48.2422 108.789 -47.6074 109.961 -47.9004 Z M 36.7676 24.8535 C 40.3809 28.3691 46.6309 28.3691 50.0977 24.8047 C 53.7109 21.0449 53.9551 14.9902 50.1465 11.377 C 46.4355 7.8125 40.2832 7.61719 36.7188 11.377 C 33.1543 15.0879 33.0566 21.1426 36.7676 24.8535 Z"/>
  </g>
  <g id="Bold-L" transform="matrix(1 0 0 1 2248.72 1556)">
   <path d="M 22.6562 37.3535 C 33.9844 48.6328 49.707 48.0957 61.9141 35.8887 C 75.293 22.5098 88.3789 -3.90625 106.641 -22.168 C 119.336 -34.8633 133.594 -23.4375 152.393 -38.0859 C 163.379 -45.3613 170.068 -58.8867 167.334 -70.8496 L 141.699 -63.8672 C 138.281 -62.9395 136.035 -64.9902 135.059 -68.4082 L 133.154 -74.9512 C 132.178 -78.3203 133.301 -81.2012 136.719 -82.1289 L 162.549 -89.1602 C 161.621 -92.1387 159.424 -96.2891 156.152 -99.6582 C 140.771 -115.332 114.99 -115.527 99.7559 -101.025 C 77.2949 -79.6875 93.5059 -58.2031 80.5176 -45.2637 C 63.8672 -28.6133 37.4023 -15.2832 24.0234 -1.9043 C 11.8652 10.3027 11.3281 26.0254 22.6562 37.3535 Z M 30.7129 29.3457 C 24.1699 22.6074 24.6582 13.2812 31.9336 6.00586 C 45.1172 -7.17773 73.291 -21.9238 88.5742 -37.207 C 105.811 -54.4434 88.0859 -74.7559 107.812 -92.9688 C 117.383 -101.758 133.252 -102.588 144.531 -95.2148 L 133.789 -92.3828 C 123.877 -89.7949 119.531 -82.0801 122.51 -71.7773 L 124.316 -65.5762 L 131.104 -40.7227 C 120.41 -39.4043 109.229 -40.8203 98.584 -30.2246 C 81.7871 -13.4766 67.2363 14.8438 54.0039 28.0762 C 46.6797 35.498 37.2559 36.0352 30.7129 29.3457 Z M 104.736 -60.6445 L 117.773 -64.1113 C 118.945 -64.4043 119.678 -65.5762 119.287 -66.8457 C 118.994 -68.0176 117.822 -68.6523 116.699 -68.3594 L 103.564 -64.8438 C 102.344 -64.5508 101.709 -63.3301 102.002 -62.207 C 102.295 -60.9375 103.467 -60.3027 104.736 -60.6445 Z M 106.348 -53.9062 L 119.385 -57.4219 C 120.605 -57.7148 121.289 -58.8867 120.947 -60.1074 C 120.605 -61.3281 119.434 -61.9141 118.311 -61.6699 L 105.176 -58.1055 C 103.955 -57.8125 103.32 -56.5918 103.613 -55.5176 C 104.004 -54.248 105.078 -53.5645 106.348 -53.9062 Z M 143.457 -53.418 L 154.834 -56.4453 C 153.467 -53.7109 151.611 -51.0742 149.17 -48.7305 C 145.801 -45.4102 142.334 -43.5059 138.721 -42.2852 L 135.84 -52.832 C 138.135 -52.4414 140.674 -52.6367 143.457 -53.418 Z M 107.959 -47.2168 L 121.143 -50.7812 C 122.266 -51.0742 122.998 -52.2949 122.656 -53.4668 C 122.363 -54.5898 121.24 -55.2734 120.02 -54.9316 L 106.885 -51.416 C 105.713 -51.123 105.078 -49.9512 105.273 -48.7793 C 105.518 -47.5098 106.836 -46.9238 107.959 -47.2168 Z M 34.9609 25.1465 C 38.7695 28.8574 45.3125 28.9062 48.9746 25.1465 C 52.832 21.1426 53.0273 14.7461 49.0723 10.9375 C 45.1172 7.17773 38.6719 7.03125 34.8633 10.9863 C 31.1523 14.8926 31.0547 21.2891 34.9609 25.1465 Z"/>
  </g>
  <g id="Semibold-L" transform="matrix(1 0 0 1 1953.28 1556)">
   <path d="M 22.3633 36.6211 C 33.3008 47.5098 48.3887 46.9238 60.2051 35.1562 C 73.3887 21.9238 86.4258 -4.29688 104.639 -22.5098 C 117.969 -35.8398 132.568 -23.3398 151.709 -39.5508 C 161.377 -46.7285 167.139 -58.9844 164.99 -69.3848 L 140.088 -62.5977 C 136.23 -61.5234 133.74 -63.8672 132.617 -67.6758 L 130.762 -74.1699 C 129.639 -77.9785 130.859 -81.2012 134.717 -82.2754 L 159.717 -89.0625 C 158.838 -91.6992 156.787 -95.3125 153.809 -98.3398 C 138.867 -113.623 113.721 -113.721 98.9746 -99.707 C 77.0996 -78.9551 93.2617 -57.666 79.7852 -44.1895 C 63.2324 -27.6855 36.9629 -14.4043 23.7305 -1.2207 C 11.9629 10.5469 11.4258 25.6836 22.3633 36.6211 Z M 29.3945 29.5898 C 22.6562 22.7051 23.1934 13.0859 30.6152 5.66406 C 43.7988 -7.4707 71.7285 -22.1191 86.7676 -37.1582 C 103.711 -54.1016 86.3281 -74.5605 106.006 -92.6758 C 115.967 -101.904 132.666 -102.49 144.092 -94.3359 L 132.324 -91.2109 C 122.754 -88.7207 118.604 -81.3477 121.484 -71.4355 L 123.242 -65.2344 L 130.225 -39.7949 C 119.434 -38.3789 108.203 -40.1367 97.6074 -29.541 C 80.957 -12.9883 66.5039 15.1367 53.3203 28.3691 C 45.8008 35.9375 36.084 36.4746 29.3945 29.5898 Z M 103.369 -60.3516 L 116.553 -63.8672 C 117.676 -64.1602 118.408 -65.332 118.018 -66.5527 C 117.725 -67.7246 116.553 -68.3594 115.479 -68.0664 L 102.148 -64.502 C 100.977 -64.209 100.342 -62.9883 100.635 -61.9141 C 100.977 -60.6445 102.1 -60.0098 103.369 -60.3516 Z M 104.98 -53.5156 L 118.164 -57.0801 C 119.336 -57.373 120.02 -58.4961 119.678 -59.7656 C 119.336 -60.8887 118.164 -61.5234 117.09 -61.2305 L 103.809 -57.666 C 102.637 -57.373 102.002 -56.2012 102.295 -55.0781 C 102.637 -53.8574 103.711 -53.1738 104.98 -53.5156 Z M 141.748 -53.5156 L 154.053 -56.8359 C 152.637 -53.7109 150.635 -50.6348 147.803 -47.9004 C 144.287 -44.4336 140.674 -42.4805 136.963 -41.2598 L 133.74 -53.0762 C 136.084 -52.5391 138.77 -52.7344 141.748 -53.5156 Z M 106.592 -46.7285 L 119.922 -50.293 C 120.996 -50.5859 121.729 -51.8066 121.436 -52.9785 C 121.094 -54.1016 119.971 -54.7852 118.799 -54.4434 L 105.518 -50.8789 C 104.395 -50.5859 103.76 -49.4141 103.955 -48.291 C 104.199 -47.0215 105.469 -46.4355 106.592 -46.7285 Z M 33.7402 25.3418 C 37.6953 29.1992 44.4336 29.248 48.2422 25.3418 C 52.1973 21.1914 52.3926 14.5996 48.291 10.6934 C 44.1895 6.78711 37.5488 6.64062 33.6426 10.6934 C 29.7363 14.7461 29.6875 21.3867 33.7402 25.3418 Z"/>
  </g>
  <g id="Medium-L" transform="matrix(1 0 0 1 1657.52 1556)">
   <path d="M 22.168 36.0352 C 32.7637 46.6309 47.4121 46.0938 58.8867 34.5703 C 71.9727 21.5332 84.9121 -4.63867 103.125 -22.8027 C 116.895 -36.5723 131.836 -23.2422 151.172 -40.625 C 159.863 -47.7539 164.893 -59.082 163.232 -68.2129 L 138.867 -61.6211 C 134.668 -60.498 131.982 -62.9883 130.762 -67.1387 L 128.906 -73.6328 C 127.734 -77.7344 129.004 -81.25 133.252 -82.373 L 157.568 -88.9648 C 156.738 -91.3574 154.736 -94.5801 152.051 -97.3633 C 137.354 -112.305 112.744 -112.402 98.3398 -98.6816 C 76.9531 -78.3691 93.0664 -57.2754 79.1992 -43.4082 C 62.7441 -26.9531 36.6211 -13.7695 23.5352 -0.683594 C 12.0605 10.791 11.5234 25.4395 22.168 36.0352 Z M 28.418 29.7852 C 21.5332 22.8027 22.0703 12.9395 29.6387 5.41992 C 42.7734 -7.66602 70.5566 -22.2656 85.4492 -37.1582 C 102.1 -53.8086 85.0586 -74.3652 104.639 -92.4805 C 114.893 -102.002 132.227 -102.393 143.701 -93.6035 L 131.201 -90.332 C 121.924 -87.8906 117.92 -80.8105 120.703 -71.1426 L 122.461 -64.9902 L 129.59 -39.1602 C 118.652 -37.5977 107.422 -39.5996 96.8262 -29.0527 C 80.3223 -12.5977 65.918 15.3809 52.7832 28.5645 C 45.166 36.2793 35.2539 36.7676 28.418 29.7852 Z M 102.295 -60.1074 L 115.576 -63.6719 C 116.748 -63.9648 117.432 -65.0879 117.09 -66.3574 C 116.748 -67.4805 115.625 -68.1152 114.502 -67.8223 L 101.123 -64.209 C 99.9512 -63.916 99.3164 -62.7441 99.6094 -61.6699 C 99.9512 -60.4004 101.025 -59.7656 102.295 -60.1074 Z M 103.906 -53.2227 L 117.236 -56.7871 C 118.359 -57.0801 119.043 -58.2031 118.701 -59.4727 C 118.408 -60.5957 117.236 -61.2305 116.162 -60.9375 L 102.783 -57.3242 C 101.611 -57.0312 100.977 -55.8594 101.27 -54.7852 C 101.611 -53.5156 102.686 -52.8809 103.906 -53.2227 Z M 140.43 -53.6133 L 153.418 -57.1289 C 152.002 -53.7109 149.902 -50.293 146.777 -47.2656 C 143.164 -43.7012 139.404 -41.6992 135.645 -40.4785 L 132.08 -53.3203 C 134.521 -52.6367 137.354 -52.7832 140.43 -53.6133 Z M 105.566 -46.3379 L 118.994 -49.9512 C 120.068 -50.2441 120.752 -51.4648 120.459 -52.6367 C 120.166 -53.7109 119.043 -54.3945 117.871 -54.0527 L 104.492 -50.4395 C 103.369 -50.1465 102.734 -49.0234 102.979 -47.9004 C 103.174 -46.6309 104.443 -46.0449 105.566 -46.3379 Z M 32.8125 25.5371 C 36.8652 29.4922 43.7988 29.4922 47.6562 25.4883 C 51.709 21.2402 51.9043 14.502 47.7051 10.4492 C 43.5059 6.44531 36.6699 6.34766 32.666 10.498 C 28.7109 14.6484 28.6621 21.4844 32.8125 25.5371 Z"/>
  </g>
  <g id="Regular-L" transform="matrix(1 0 0 1 1362.03 1556)">
   <path d="M 21.875 35.3027 C 32.0801 45.5078 46.0938 44.9707 57.2266 33.8867 C 70.166 20.9961 83.0078 -5.0293 101.123 -23.1445 C 115.527 -37.5488 130.859 -23.1445 150.488 -42.041 C 157.91 -49.1211 162.012 -59.1797 160.889 -66.748 L 137.305 -60.3516 C 132.617 -59.082 129.688 -61.9141 128.369 -66.4062 L 126.514 -72.9004 C 125.244 -77.3926 126.611 -81.25 131.299 -82.5195 L 154.785 -88.8672 C 154.004 -90.918 152.1 -93.6523 149.756 -96.0449 C 135.449 -110.645 111.475 -110.596 97.5586 -97.3633 C 76.7578 -77.6367 92.8223 -56.7383 78.4668 -42.334 C 62.1094 -26.0254 36.1328 -12.9395 23.2422 -0.0488281 C 12.1582 11.0352 11.6211 25.0977 21.875 35.3027 Z M 27.0996 30.0293 C 20.1172 22.9004 20.6055 12.793 28.3203 5.07812 C 41.4551 -7.95898 69.043 -22.4609 83.6914 -37.1094 C 100.049 -53.4668 83.3496 -74.1699 102.832 -92.1875 C 113.525 -102.1 131.641 -102.295 143.164 -92.7246 L 129.736 -89.209 C 120.801 -86.8652 116.992 -80.127 119.678 -70.8008 L 121.436 -64.6484 L 128.76 -38.2812 C 117.676 -36.5234 106.396 -38.916 95.8496 -28.418 C 79.4922 -12.1094 65.2344 15.6738 52.0996 28.8574 C 44.2871 36.7188 34.1309 37.207 27.0996 30.0293 Z M 100.879 -59.8145 L 114.355 -63.4277 C 115.479 -63.7207 116.162 -64.8438 115.82 -66.0645 C 115.527 -67.1875 114.355 -67.8223 113.281 -67.5293 L 99.7559 -63.8672 C 98.6328 -63.5742 97.998 -62.4023 98.291 -61.377 C 98.6328 -60.1074 99.6582 -59.4727 100.879 -59.8145 Z M 102.539 -52.8809 L 116.016 -56.4453 C 117.139 -56.7383 117.822 -57.8613 117.48 -59.082 C 117.188 -60.2051 116.016 -60.8398 114.941 -60.5469 L 101.416 -56.8848 C 100.293 -56.5918 99.6582 -55.4199 99.9512 -54.3945 C 100.293 -53.125 101.318 -52.5391 102.539 -52.8809 Z M 138.721 -53.7109 L 152.539 -57.5195 C 151.172 -53.7598 148.975 -49.9023 145.459 -46.4355 C 141.65 -42.7734 137.793 -40.6738 133.887 -39.4531 L 129.932 -53.6621 C 132.471 -52.7832 135.449 -52.832 138.721 -53.7109 Z M 104.199 -45.8984 L 117.773 -49.5117 C 118.848 -49.8047 119.531 -50.9766 119.238 -52.1484 C 118.945 -53.2227 117.822 -53.9062 116.65 -53.5645 L 103.174 -49.9023 C 102.051 -49.6582 101.416 -48.4863 101.66 -47.4121 C 101.904 -46.1914 103.076 -45.6055 104.199 -45.8984 Z M 31.543 25.7324 C 35.7422 29.834 42.9199 29.834 46.9238 25.7324 C 51.123 21.2891 51.2695 14.3066 46.9727 10.2051 C 42.627 6.05469 35.5957 5.9082 31.4453 10.2051 C 27.3438 14.5508 27.2949 21.582 31.543 25.7324 Z"/>
  </g>
  <g id="Light-L" transform="matrix(1 0 0 1 1066.05 1556)">
   <path d="M 21.6309 34.4727 C 31.543 44.3848 45.1172 43.7988 55.957 33.0078 C 68.7988 20.2637 81.6406 -5.76172 99.8535 -23.9746 C 114.648 -38.8184 129.15 -23.4375 149.219 -42.8223 C 156.152 -49.5117 160.059 -58.8867 159.521 -66.2598 L 136.768 -60.1562 C 131.299 -58.6426 128.223 -61.8164 126.855 -66.5527 L 124.951 -73.1445 C 123.584 -77.832 124.854 -82.0801 130.322 -83.5449 L 152.979 -89.6484 C 152.148 -91.5039 150.488 -93.75 148.438 -95.8496 C 134.521 -109.961 111.035 -110.205 97.3145 -97.168 C 76.8555 -77.6855 93.1152 -56.9824 77.8809 -41.7969 C 61.8164 -25.7324 35.8398 -12.6465 22.998 0.195312 C 12.207 10.9863 11.6699 24.5117 21.6309 34.4727 Z M 25.8301 30.2734 C 18.5059 22.8027 19.043 12.207 27.0508 4.24805 C 40.2344 -8.83789 67.8223 -23.3887 82.0801 -37.5977 C 98.5352 -54.1016 82.4707 -75.4395 101.465 -93.0176 C 113.086 -103.809 132.471 -103.271 143.75 -92.7246 L 129.053 -88.8672 C 120.508 -86.6211 116.943 -80.3223 119.531 -71.3867 L 121.289 -65.2344 L 129.053 -37.8418 C 117.627 -35.791 106.299 -38.8672 95.6055 -28.2227 C 79.3457 -11.9629 65.0879 15.8203 51.8555 29.0527 C 43.75 37.207 33.1055 37.7441 25.8301 30.2734 Z M 100.293 -60.2539 L 113.672 -63.8184 C 114.697 -64.0625 115.283 -65.1367 114.99 -66.1621 C 114.697 -67.2363 113.721 -67.7734 112.695 -67.5293 L 99.2676 -63.916 C 98.2422 -63.623 97.6562 -62.5977 97.9492 -61.6211 C 98.2422 -60.498 99.2188 -59.9609 100.293 -60.2539 Z M 101.953 -53.2227 L 115.283 -56.7871 C 116.309 -57.0801 116.943 -58.1055 116.65 -59.1797 C 116.357 -60.2051 115.332 -60.791 114.307 -60.498 L 100.928 -56.8848 C 99.9023 -56.6406 99.3164 -55.5664 99.5605 -54.5898 C 99.9023 -53.5156 100.83 -52.9297 101.953 -53.2227 Z M 137.988 -54.834 L 152.881 -58.9355 C 151.611 -54.7852 149.365 -50.293 145.117 -46.1426 C 141.211 -42.334 137.354 -40.1855 133.447 -38.916 L 128.906 -54.9805 C 131.494 -53.9062 134.57 -53.9062 137.988 -54.834 Z M 103.564 -46.1914 L 116.992 -49.8047 C 118.018 -50.0977 118.604 -51.1719 118.311 -52.1973 C 118.066 -53.1738 117.09 -53.8086 116.016 -53.4668 L 102.637 -49.9023 C 101.611 -49.6094 101.025 -48.584 101.27 -47.6074 C 101.514 -46.4844 102.539 -45.9473 103.564 -46.1914 Z M 30.2734 25.9766 C 34.7656 30.3223 42.4316 30.3711 46.6797 25.9277 C 51.1719 21.1426 51.2695 13.7207 46.7285 9.32617 C 42.041 4.88281 34.5215 4.83398 30.127 9.375 C 25.7324 14.0137 25.6836 21.5332 30.2734 25.9766 Z"/>
  </g>
  <g id="Thin-L" transform="matrix(1 0 0 1 770.314 1556)">
   <path d="M 21.2891 33.3984 C 30.8105 42.8711 43.75 42.334 54.248 31.9336 C 67.041 19.2871 79.834 -6.78711 98.1445 -25.0977 C 113.525 -40.4785 126.904 -23.8281 147.51 -43.8965 C 153.809 -50 157.471 -58.5449 157.715 -65.6738 L 136.084 -59.8633 C 129.541 -58.1055 126.27 -61.6699 124.854 -66.6992 L 122.852 -73.5352 C 121.436 -78.4668 122.51 -83.1543 129.053 -84.9121 L 150.586 -90.7227 C 149.658 -92.2363 148.389 -93.9453 146.729 -95.5566 C 133.252 -109.082 110.498 -109.717 96.9727 -96.875 C 76.9531 -77.7344 93.4082 -57.373 77.1484 -41.0645 C 61.377 -25.3418 35.4004 -12.3047 22.6562 0.439453 C 12.2559 10.8398 11.7188 23.7793 21.2891 33.3984 Z M 24.0723 30.5176 C 16.4062 22.6562 16.9434 11.4746 25.3906 3.125 C 38.6719 -10.0098 66.2109 -24.5605 79.9316 -38.2812 C 96.5332 -54.9316 81.3477 -77.0996 99.6094 -94.1406 C 112.5 -106.104 133.545 -104.492 144.385 -92.7246 L 128.174 -88.4766 C 120.166 -86.3281 116.943 -80.6152 119.287 -72.2168 L 121.094 -66.0156 C 121.143 -65.7715 121.094 -65.8691 121.191 -65.625 L 129.443 -37.3047 C 117.578 -34.7168 106.201 -38.8184 95.3125 -27.9297 C 79.1016 -11.7676 64.8438 16.0156 51.5625 29.2969 C 43.0664 37.8418 31.7871 38.3789 24.0723 30.5176 Z M 99.5117 -60.791 L 112.744 -64.3066 C 113.672 -64.5508 114.16 -65.4785 113.916 -66.3574 C 113.672 -67.2852 112.793 -67.7734 111.914 -67.5293 L 98.6816 -63.9648 C 97.7539 -63.7207 97.2656 -62.793 97.5098 -61.9629 C 97.7539 -61.0352 98.584 -60.5469 99.5117 -60.791 Z M 137.061 -56.3477 L 153.223 -60.8398 C 152.148 -56.25 149.902 -50.7812 144.629 -45.7031 C 140.674 -41.7969 136.719 -39.5996 132.861 -38.2812 L 127.441 -56.8359 C 130.127 -55.4688 133.398 -55.3223 137.061 -56.3477 Z M 101.123 -53.7109 L 114.355 -57.2754 C 115.283 -57.5195 115.771 -58.4473 115.527 -59.2773 C 115.283 -60.2051 114.453 -60.6934 113.525 -60.4492 L 100.293 -56.8848 C 99.3652 -56.6406 98.877 -55.7129 99.1211 -54.8828 C 99.3652 -53.9551 100.195 -53.4668 101.123 -53.7109 Z M 102.734 -46.6309 L 115.967 -50.1953 C 116.895 -50.4395 117.383 -51.3672 117.139 -52.2461 C 116.895 -53.125 116.064 -53.6621 115.137 -53.3691 L 101.904 -49.8535 C 100.977 -49.6094 100.488 -48.6816 100.732 -47.8516 C 100.977 -46.9238 101.855 -46.3867 102.734 -46.6309 Z M 28.5645 26.2695 C 33.4473 31.0059 41.748 31.0547 46.3867 26.1719 C 51.2695 20.9961 51.3184 12.9395 46.3867 8.20312 C 41.3086 3.32031 33.1543 3.36914 28.418 8.30078 C 23.6328 13.3301 23.6328 21.4355 28.5645 26.2695 Z"/>
  </g>
  <g id="Ultralight-L" transform="matrix(1 0 0 1 474.091 1556)">
   <path d="M 21.1426 32.8125 C 30.4688 42.1387 43.1152 41.5527 53.3691 31.3477 C 66.1621 18.75 78.9062 -7.27539 97.2656 -25.6348 C 112.939 -41.3086 125.781 -24.0234 146.68 -44.4824 C 152.637 -50.293 156.152 -58.3496 156.787 -65.3809 L 135.742 -59.7168 C 129.98 -58.1543 126.709 -60.3516 124.902 -63.9648 L 124.023 -66.8457 L 123.828 -66.7969 L 121.777 -73.7305 C 120.312 -78.7598 121.338 -83.6914 128.418 -85.6445 L 149.365 -91.2598 C 148.389 -92.627 147.266 -94.043 145.85 -95.459 C 132.617 -108.643 110.205 -109.473 96.8262 -96.7285 C 76.9531 -77.7344 93.6035 -57.5684 76.7578 -40.7227 C 61.1816 -25.0977 35.2051 -12.1094 22.5098 0.585938 C 12.3047 10.791 11.7676 23.4375 21.1426 32.8125 Z M 23.1934 30.6641 C 15.332 22.6074 15.8691 11.1328 24.5117 2.58789 C 37.8906 -10.6445 65.3809 -25.1953 78.8574 -38.6719 C 95.5078 -55.3223 80.7617 -77.9785 98.6816 -94.7266 C 112.207 -107.275 134.082 -105.127 144.727 -92.6758 L 127.734 -88.2324 C 119.971 -86.1816 116.895 -80.7617 119.189 -72.6074 L 120.996 -66.4062 C 121.094 -66.0156 121.045 -66.2109 121.143 -65.8203 L 129.639 -37.0605 C 117.48 -34.1309 106.104 -38.7695 95.1172 -27.7832 C 79.0039 -11.6699 64.7461 16.0645 51.3672 29.4434 C 42.6758 38.1348 31.1035 38.7207 23.1934 30.6641 Z M 99.1211 -61.0352 L 112.256 -64.5996 C 113.135 -64.8438 113.574 -65.6738 113.379 -66.4551 C 113.135 -67.2852 112.354 -67.7734 111.523 -67.5293 L 98.3398 -64.0137 C 97.5098 -63.7695 97.0215 -62.8906 97.2656 -62.1582 C 97.5098 -61.2793 98.291 -60.8398 99.1211 -61.0352 Z M 136.572 -57.1289 L 153.418 -61.7676 C 152.441 -56.9824 150.146 -51.0742 144.385 -45.459 C 140.381 -41.5527 136.426 -39.2578 132.568 -37.9395 L 126.709 -57.8613 C 129.395 -56.25 132.764 -56.0547 136.572 -57.1289 Z M 100.732 -53.9551 L 113.867 -57.5195 C 114.746 -57.7148 115.186 -58.5938 114.941 -59.3262 C 114.746 -60.2051 113.965 -60.6445 113.086 -60.4492 L 99.9512 -56.8848 C 99.1211 -56.6895 98.6328 -55.8105 98.877 -55.0293 C 99.1211 -54.1992 99.8535 -53.7598 100.732 -53.9551 Z M 102.344 -46.875 L 115.479 -50.3906 C 116.309 -50.6348 116.797 -51.4648 116.553 -52.2461 C 116.309 -53.125 115.527 -53.5645 114.697 -53.3203 L 101.562 -49.8047 C 100.684 -49.5605 100.244 -48.7305 100.488 -47.9492 C 100.732 -47.1191 101.465 -46.6309 102.344 -46.875 Z M 27.7344 26.416 C 32.8125 31.2988 41.4062 31.3965 46.2402 26.3184 C 51.3184 20.8984 51.3184 12.5488 46.2402 7.61719 C 40.918 2.53906 32.4707 2.63672 27.5391 7.71484 C 22.5586 12.9883 22.5586 21.3867 27.7344 26.416 Z"/>
  </g>
  <g id="Black-M" transform="matrix(1 0 0 1 2858.23 1126)">
   <path d="M 18.6035 23.4375 C 28.8086 33.5938 43.1641 33.1543 53.9551 22.2656 C 64.8926 11.2305 75.4395 -9.81445 89.7949 -24.1699 C 97.5098 -31.8848 106.494 -26.709 120.117 -32.373 C 133.398 -37.9395 142.188 -53.0762 138.135 -68.4082 L 115.771 -62.3047 C 114.404 -61.9141 113.623 -62.5977 113.281 -63.7695 L 111.768 -69.043 C 111.426 -70.2148 111.816 -71.1914 113.184 -71.582 L 135.986 -77.832 C 135.059 -81.3477 133.057 -86.377 129.395 -90.0879 C 116.162 -103.516 93.8477 -104.199 80.3223 -91.3086 C 60.6445 -72.5586 73.584 -55.2734 65.0879 -46.875 C 51.8066 -33.6426 30.6641 -22.9004 19.6777 -11.9141 C 8.83789 -1.07422 8.39844 13.3301 18.6035 23.4375 Z M 28.2227 13.8672 C 23.6328 9.17969 24.0234 2.73438 29.1504 -2.39258 C 39.5996 -12.8418 62.1094 -24.6094 74.707 -37.207 C 89.3555 -51.8555 74.5117 -67.3828 89.9414 -81.5918 C 96.0449 -87.1582 105.664 -88.3301 113.574 -85.1074 L 109.131 -83.8867 C 100.244 -81.5918 96.2891 -74.3652 98.9258 -65.332 L 100.342 -60.4004 L 105.078 -42.7246 C 97.168 -42.041 88.5742 -42.1875 80.127 -33.7891 C 66.5527 -20.2637 54.8828 2.39258 44.4336 12.8906 C 39.209 18.1641 32.7637 18.5547 28.2227 13.8672 Z M 86.2793 -56.25 L 95.8008 -58.7891 C 96.7285 -59.082 97.3145 -59.9121 96.9727 -60.9375 C 96.6797 -61.8652 95.8008 -62.3047 95.0195 -62.1094 L 85.3516 -59.5703 C 84.4238 -59.3262 83.9355 -58.3984 84.1309 -57.5195 C 84.3262 -56.4941 85.3027 -56.0059 86.2793 -56.25 Z M 87.5 -51.416 L 96.9727 -53.9551 C 97.9492 -54.1992 98.4863 -55.0781 98.1934 -56.0547 C 97.8516 -57.0312 96.9727 -57.4219 96.1914 -57.2754 L 86.5723 -54.6875 C 85.5957 -54.4434 85.1074 -53.5156 85.3516 -52.6367 C 85.6934 -51.6602 86.4746 -51.1719 87.5 -51.416 Z M 88.6719 -46.582 L 98.291 -49.1699 C 99.1699 -49.4141 99.707 -50.3418 99.4629 -51.2695 C 99.2188 -52.1484 98.3398 -52.6367 97.4121 -52.3926 L 87.793 -49.8535 C 86.9141 -49.6094 86.4258 -48.7305 86.5234 -47.8027 C 86.6699 -46.8262 87.793 -46.3379 88.6719 -46.582 Z M 117.48 -49.4629 L 122.607 -50.8301 C 122.021 -50.0488 121.387 -49.3652 120.703 -48.6816 C 118.604 -46.6797 116.406 -45.3613 114.111 -44.4824 L 112.988 -48.7793 C 114.404 -48.7793 115.918 -49.0234 117.48 -49.4629 Z M 31.2988 10.8398 C 33.8379 13.3789 38.2812 13.3789 40.7715 10.8398 C 43.4082 8.1543 43.6035 3.80859 40.8691 1.2207 C 38.1836 -1.36719 33.7402 -1.46484 31.2012 1.2207 C 28.6621 3.85742 28.6133 8.1543 31.2988 10.8398 Z"/>
  </g>
  <g id="Heavy-M" transform="matrix(1 0 0 1 2563.1 1126)">
   <path d="M 18.2129 22.6074 C 27.9297 32.2754 41.5039 31.8359 51.8555 21.4355 C 62.5977 10.6445 72.998 -10.1562 87.2559 -24.4629 C 95.7031 -32.9102 105.518 -26.4648 119.482 -34.1797 C 131.006 -39.7949 138.525 -53.2715 135.107 -66.4062 L 113.574 -60.5469 C 111.816 -60.0586 110.693 -61.0352 110.205 -62.7441 L 108.74 -67.9199 C 108.203 -69.6289 108.789 -70.9961 110.596 -71.4844 L 132.422 -77.4902 C 131.592 -80.5664 129.688 -84.9609 126.416 -88.2812 C 113.623 -101.318 92.1387 -101.758 79.1992 -89.4531 C 60.3516 -71.5332 73.1445 -54.4434 64.1113 -45.5078 C 50.9766 -32.373 30.0293 -21.7773 19.2871 -10.9863 C 8.93555 -0.683594 8.54492 12.9883 18.2129 22.6074 Z M 26.709 14.209 C 21.9238 9.32617 22.3145 2.63672 27.6367 -2.68555 C 37.9883 -12.9883 60.2539 -24.6582 72.6074 -37.0117 C 86.7676 -51.1719 72.2656 -66.748 87.6953 -80.957 C 94.2383 -86.9629 104.736 -87.9395 113.086 -83.8867 L 107.178 -82.3242 C 98.6816 -80.127 94.9707 -73.3398 97.4609 -64.6484 L 98.877 -59.7656 L 103.76 -41.5527 C 95.752 -40.8203 87.1582 -41.2109 78.8086 -32.9102 C 65.3809 -19.5801 53.8574 2.83203 43.5059 13.2324 C 38.1348 18.6523 31.3965 19.043 26.709 14.209 Z M 84.4727 -55.7617 L 94.1895 -58.3496 C 95.1172 -58.5938 95.7031 -59.4727 95.3613 -60.498 C 95.0684 -61.4258 94.1895 -61.8652 93.3594 -61.6699 L 83.4961 -59.0332 C 82.5684 -58.7891 82.0801 -57.8613 82.2754 -56.9824 C 82.4707 -56.0059 83.4473 -55.4688 84.4727 -55.7617 Z M 85.6445 -50.7812 L 95.4102 -53.3691 C 96.3379 -53.6133 96.875 -54.4922 96.582 -55.5176 C 96.2891 -56.4453 95.4102 -56.8848 94.5801 -56.6895 L 84.7168 -54.0527 C 83.7891 -53.8086 83.3008 -52.8809 83.5449 -52.002 C 83.8379 -51.0254 84.668 -50.4883 85.6445 -50.7812 Z M 86.8652 -45.8008 L 96.7285 -48.4375 C 97.6074 -48.6816 98.1445 -49.6582 97.9004 -50.5859 C 97.6562 -51.4648 96.7773 -51.9531 95.8496 -51.709 L 85.9863 -49.1211 C 85.1074 -48.8281 84.6191 -47.9492 84.7656 -47.0215 C 84.9121 -46.0449 85.9863 -45.5566 86.8652 -45.8008 Z M 115.234 -49.3164 L 121.729 -51.0742 C 120.898 -49.8535 119.922 -48.6816 118.848 -47.6074 C 116.602 -45.4102 114.209 -44.043 111.719 -43.1152 L 110.205 -48.6816 C 111.768 -48.6328 113.428 -48.8281 115.234 -49.3164 Z M 29.834 11.084 C 32.5195 13.7207 37.1582 13.7695 39.7461 11.084 C 42.4805 8.30078 42.6758 3.75977 39.7949 1.02539 C 37.0117 -1.66016 32.4219 -1.75781 29.7363 1.02539 C 27.0996 3.80859 27.0508 8.30078 29.834 11.084 Z"/>
  </g>
  <g id="Bold-M" transform="matrix(1 0 0 1 2268.18 1126)">
   <path d="M 17.8223 21.6797 C 26.9531 30.8105 39.6973 30.3711 49.4629 20.5078 C 59.9609 10.0098 70.2148 -10.5957 84.4238 -24.7559 C 93.7012 -34.082 104.395 -26.1719 118.701 -36.1816 C 128.369 -41.8457 134.375 -53.5156 131.787 -64.1602 L 111.182 -58.5449 C 108.936 -57.959 107.471 -59.2773 106.787 -61.5723 L 105.322 -66.6504 C 104.639 -68.9453 105.42 -70.8008 107.666 -71.4355 L 128.467 -77.0996 C 127.686 -79.6875 125.879 -83.3984 123.047 -86.2793 C 110.791 -98.7793 90.1855 -99.0234 77.9785 -87.4023 C 60.0098 -70.3125 72.6562 -53.5156 63.0859 -43.9453 C 50.0488 -30.957 29.3945 -20.5078 18.8965 -10.0098 C 9.08203 -0.195312 8.69141 12.5488 17.8223 21.6797 Z M 24.9512 14.5508 C 20.0195 9.52148 20.4102 2.53906 25.8789 -2.97852 C 36.1816 -13.2324 58.1055 -24.707 70.2148 -36.8164 C 83.8379 -50.4395 69.7754 -66.0156 85.1562 -80.2246 C 92.1387 -86.6699 103.711 -87.5 112.305 -82.4707 L 104.98 -80.5664 C 96.9727 -78.4668 93.457 -72.1191 95.8496 -63.8672 L 97.2656 -59.0332 L 102.344 -40.2832 C 94.1406 -39.4043 85.5469 -40.1367 77.2461 -31.9336 C 64.1113 -18.7988 52.7344 3.27148 42.4805 13.5742 C 36.9141 19.1895 29.834 19.5801 24.9512 14.5508 Z M 82.373 -55.1758 L 92.3828 -57.8125 C 93.3105 -58.0566 93.8477 -58.9844 93.5547 -59.9609 C 93.3105 -60.8887 92.3828 -61.377 91.5527 -61.1816 L 81.4453 -58.4961 C 80.5176 -58.252 79.9805 -57.2754 80.2246 -56.3965 C 80.4199 -55.4199 81.3965 -54.8828 82.373 -55.1758 Z M 83.6426 -50.0488 L 93.6035 -52.7344 C 94.5312 -52.9785 95.1172 -53.8574 94.8242 -54.8828 C 94.5312 -55.8105 93.6035 -56.25 92.7734 -56.0547 L 82.666 -53.3691 C 81.7383 -53.125 81.25 -52.1484 81.4941 -51.3184 C 81.7871 -50.293 82.6172 -49.8047 83.6426 -50.0488 Z M 112.695 -49.1699 L 120.557 -51.3184 C 119.531 -49.5605 118.311 -47.9004 116.797 -46.3867 C 114.307 -43.9941 111.719 -42.5293 109.033 -41.6504 L 107.129 -48.6328 C 108.838 -48.4375 110.693 -48.6328 112.695 -49.1699 Z M 84.8633 -44.9219 L 94.9707 -47.6562 C 95.8496 -47.9004 96.3867 -48.8281 96.1426 -49.8047 C 95.8984 -50.6836 95.0195 -51.2207 94.0918 -50.9277 L 83.9844 -48.2422 C 83.1055 -47.998 82.5684 -47.1191 82.7637 -46.1914 C 82.9102 -45.166 83.9844 -44.6777 84.8633 -44.9219 Z M 28.2227 11.377 C 31.0059 14.1602 35.8887 14.1602 38.623 11.377 C 41.4551 8.39844 41.6016 3.66211 38.6719 0.830078 C 35.7422 -1.95312 30.957 -2.09961 28.125 0.830078 C 25.3418 3.75977 25.293 8.49609 28.2227 11.377 Z"/>
  </g>
  <g id="Semibold-M" transform="matrix(1 0 0 1 1972.69 1126)">
   <path d="M 17.5293 21.0449 C 26.2695 29.7852 38.4277 29.3457 47.8516 19.873 C 58.2031 9.52148 68.3105 -10.8887 82.4707 -25 C 92.334 -34.9121 103.613 -26.0254 118.213 -37.5977 C 126.514 -43.2617 131.543 -53.6621 129.443 -62.5977 L 109.521 -57.1777 C 106.982 -56.4941 105.225 -58.0566 104.443 -60.7422 L 102.979 -65.7715 C 102.197 -68.457 103.125 -70.7031 105.713 -71.3867 L 125.732 -76.8066 C 125.049 -79.1016 123.291 -82.3242 120.752 -84.9121 C 108.838 -97.0703 88.8672 -97.168 77.1484 -85.9863 C 59.8145 -69.4824 72.3145 -52.8809 62.3535 -42.8711 C 49.3652 -29.9805 28.9551 -19.6289 18.6035 -9.27734 C 9.17969 0.146484 8.78906 12.3047 17.5293 21.0449 Z M 23.7793 14.7949 C 18.7012 9.61914 19.0918 2.44141 24.707 -3.17383 C 34.9121 -13.3301 56.6895 -24.7559 68.5547 -36.6699 C 81.8359 -49.9023 68.0176 -65.5273 83.4473 -79.7363 C 90.7227 -86.4746 102.93 -87.1582 111.719 -81.4941 L 103.467 -79.3457 C 95.8008 -77.3438 92.4316 -71.3379 94.7266 -63.3789 L 96.0938 -58.5449 L 101.318 -39.3555 C 93.0664 -38.3789 84.4238 -39.4043 76.2207 -31.25 C 63.1836 -18.3105 51.9531 3.61328 41.748 13.8672 C 36.0352 19.5801 28.8086 19.9707 23.7793 14.7949 Z M 80.957 -54.7852 L 91.1133 -57.4707 C 92.041 -57.7148 92.627 -58.6426 92.334 -59.6191 C 92.0898 -60.5469 91.1133 -61.084 90.2832 -60.8398 L 80.0293 -58.1055 C 79.0527 -57.8613 78.5645 -56.8848 78.7598 -56.0059 C 79.0527 -55.0293 79.9316 -54.4922 80.957 -54.7852 Z M 82.2266 -49.5605 L 92.3828 -52.2461 C 93.3105 -52.4902 93.8965 -53.418 93.6035 -54.4434 C 93.3105 -55.3711 92.3828 -55.8594 91.5527 -55.6152 L 81.25 -52.8809 C 80.3223 -52.6367 79.834 -51.6602 80.0781 -50.8301 C 80.3711 -49.8047 81.2012 -49.2676 82.2266 -49.5605 Z M 110.938 -49.0723 L 119.629 -51.4648 C 118.604 -49.3164 117.188 -47.3633 115.381 -45.5566 C 112.744 -43.0176 110.01 -41.5039 107.178 -40.5762 L 104.98 -48.6328 C 106.787 -48.3398 108.74 -48.4863 110.938 -49.0723 Z M 83.4961 -44.3359 L 93.75 -47.1191 C 94.6289 -47.3633 95.2148 -48.291 94.9707 -49.2676 C 94.7266 -50.1465 93.7988 -50.6836 92.8711 -50.3906 L 82.6172 -47.6562 C 81.6895 -47.4121 81.2012 -46.5332 81.3477 -45.6055 C 81.543 -44.5801 82.5684 -44.0918 83.4961 -44.3359 Z M 27.0996 11.5723 C 29.9805 14.4043 35.0098 14.4531 37.793 11.5723 C 40.7227 8.49609 40.918 3.61328 37.8906 0.683594 C 34.8633 -2.19727 29.8828 -2.29492 27.002 0.683594 C 24.1211 3.71094 24.0723 8.59375 27.0996 11.5723 Z"/>
  </g>
  <g id="Medium-M" transform="matrix(1 0 0 1 1676.9 1126)">
   <path d="M 17.334 20.5566 C 25.7812 29.0039 37.4512 28.5645 46.6309 19.4336 C 56.8359 9.17969 66.8945 -11.084 80.957 -25.1953 C 91.3086 -35.498 103.076 -25.8789 117.822 -38.6719 C 125.098 -44.3359 129.395 -53.7598 127.686 -61.4258 L 108.252 -56.1523 C 105.469 -55.3711 103.516 -57.1289 102.637 -60.1562 L 101.221 -65.1367 C 100.342 -68.1152 101.367 -70.5566 104.199 -71.3379 L 123.633 -76.6113 C 122.998 -78.6621 121.338 -81.4941 118.994 -83.8379 C 107.373 -95.752 87.8906 -95.752 76.5137 -84.9121 C 59.6191 -68.8965 72.0703 -52.3926 61.7676 -42.0898 C 48.877 -29.1992 28.5645 -18.9453 18.3594 -8.74023 C 9.22852 0.390625 8.83789 12.1094 17.334 20.5566 Z M 22.8516 14.9902 C 17.7246 9.7168 18.1152 2.39258 23.8281 -3.32031 C 33.9844 -13.4766 55.5664 -24.8047 67.334 -36.5234 C 80.2734 -49.5117 66.6992 -65.1855 82.1289 -79.3945 C 89.5996 -86.2793 102.295 -86.9141 111.182 -80.7617 L 102.344 -78.418 C 94.873 -76.4648 91.6504 -70.7031 93.8477 -62.9395 L 95.2637 -58.2031 L 100.537 -38.7207 C 92.2363 -37.6465 83.5449 -38.8672 75.3906 -30.7129 C 62.5488 -17.9199 51.3184 3.85742 41.1621 14.0625 C 35.4004 19.873 27.9785 20.2637 22.8516 14.9902 Z M 79.8828 -54.4434 L 90.1855 -57.2266 C 91.1133 -57.4707 91.6504 -58.3496 91.4062 -59.375 C 91.1133 -60.3027 90.1855 -60.791 89.3066 -60.5957 L 78.9062 -57.8125 C 77.9785 -57.5684 77.4902 -56.5918 77.6855 -55.7129 C 77.9785 -54.6875 78.8574 -54.1992 79.8828 -54.4434 Z M 81.1523 -49.1699 L 91.4551 -51.9043 C 92.3828 -52.1484 92.9688 -53.0762 92.6758 -54.1016 C 92.4316 -55.0293 91.4551 -55.5176 90.5762 -55.2734 L 80.1758 -52.4902 C 79.248 -52.2461 78.7598 -51.3184 79.0039 -50.4395 C 79.2969 -49.4141 80.127 -48.877 81.1523 -49.1699 Z M 109.57 -49.0234 L 118.945 -51.5625 C 117.822 -49.1699 116.309 -46.9238 114.258 -44.9219 C 111.523 -42.2852 108.691 -40.7227 105.762 -39.7949 L 103.369 -48.6816 C 105.225 -48.291 107.324 -48.3887 109.57 -49.0234 Z M 82.4219 -43.8965 L 92.8223 -46.6797 C 93.7012 -46.9238 94.2871 -47.9004 94.043 -48.8281 C 93.7988 -49.707 92.8711 -50.293 91.9434 -50 L 81.543 -47.2168 C 80.6641 -46.9727 80.127 -46.0449 80.3223 -45.166 C 80.4688 -44.1406 81.4941 -43.6523 82.4219 -43.8965 Z M 26.2207 11.7188 C 29.1992 14.6484 34.3262 14.6484 37.207 11.6699 C 40.1855 8.54492 40.3809 3.56445 37.2559 0.585938 C 34.1797 -2.34375 29.1016 -2.49023 26.1719 0.585938 C 23.2422 3.66211 23.1934 8.69141 26.2207 11.7188 Z"/>
  </g>
  <g id="Regular-M" transform="matrix(1 0 0 1 1381.41 1126)">
   <path d="M 17.041 19.9219 C 25.0977 27.9785 36.2305 27.5391 45.0195 18.7988 C 55.0781 8.74023 65.0391 -11.377 79.0527 -25.3906 C 89.9414 -36.3281 102.295 -25.6836 117.285 -40.0391 C 123.291 -45.752 126.611 -53.9551 125.391 -59.9121 L 106.641 -54.7852 C 103.467 -53.9551 101.27 -55.957 100.293 -59.3262 L 98.877 -64.2578 C 97.9004 -67.627 99.0723 -70.459 102.197 -71.2891 L 120.898 -76.3672 C 120.361 -78.0762 118.75 -80.4199 116.748 -82.4707 C 105.469 -94.043 86.5723 -93.8965 75.6836 -83.5449 C 59.375 -68.0664 71.7285 -51.709 61.0352 -41.0156 C 48.2422 -28.2715 28.125 -18.1152 18.0664 -8.05664 C 9.32617 0.683594 8.93555 11.8164 17.041 19.9219 Z M 21.6797 15.2344 C 16.4062 9.86328 16.7969 2.29492 22.6074 -3.51562 C 32.7148 -13.5742 54.1504 -24.8535 65.7227 -36.377 C 78.3203 -48.9746 64.9902 -64.6973 80.4199 -78.9062 C 88.1836 -86.084 101.465 -86.6211 110.498 -79.7363 L 100.879 -77.2461 C 93.7012 -75.3418 90.625 -69.873 92.7734 -62.4512 L 94.1406 -57.7148 L 99.5605 -37.8418 C 91.1133 -36.6211 82.4219 -38.0859 74.3652 -30.0781 C 61.6211 -17.3828 50.5859 4.15039 40.4785 14.3066 C 34.5703 20.2637 26.9531 20.6543 21.6797 15.2344 Z M 78.4668 -54.0527 L 88.916 -56.8359 C 89.8438 -57.0801 90.4297 -58.0078 90.1367 -59.0332 C 89.8926 -59.9609 88.9648 -60.498 88.0859 -60.2539 L 77.4902 -57.4219 C 76.5625 -57.1777 76.0742 -56.2012 76.3184 -55.3223 C 76.5625 -54.2969 77.4414 -53.7598 78.4668 -54.0527 Z M 79.7852 -48.6816 L 90.2344 -51.4648 C 91.1621 -51.709 91.748 -52.6367 91.4551 -53.6621 C 91.2109 -54.5898 90.2344 -55.0781 89.3555 -54.8828 L 78.8086 -52.002 C 77.8809 -51.8066 77.3438 -50.8301 77.5879 -49.9512 C 77.8809 -48.9258 78.7598 -48.3887 79.7852 -48.6816 Z M 107.861 -48.9258 L 117.969 -51.6602 C 116.846 -49.0234 115.186 -46.3867 112.842 -44.1406 C 109.961 -41.3086 106.982 -39.7461 103.955 -38.8184 L 101.221 -48.7793 C 103.174 -48.1934 105.371 -48.2422 107.861 -48.9258 Z M 81.0547 -43.3105 L 91.6504 -46.1426 C 92.5293 -46.3867 93.0664 -47.3633 92.8223 -48.291 C 92.627 -49.1699 91.6992 -49.7559 90.7227 -49.4629 L 80.1758 -46.6309 C 79.248 -46.3867 78.7598 -45.459 78.9551 -44.5801 C 79.1016 -43.5547 80.127 -43.0664 81.0547 -43.3105 Z M 25.0977 11.9141 C 28.2227 14.8926 33.4961 14.8926 36.4258 11.8652 C 39.502 8.64258 39.6484 3.51562 36.4746 0.439453 C 33.3008 -2.58789 28.125 -2.73438 25.0488 0.488281 C 22.0215 3.61328 21.9727 8.83789 25.0977 11.9141 Z"/>
  </g>
  <g id="Light-M" transform="matrix(1 0 0 1 1085.36 1126)">
   <path d="M 16.8457 19.1895 C 24.6094 26.9531 35.3516 26.5137 43.8477 18.0664 C 53.8574 8.10547 63.8184 -12.0605 77.8809 -26.123 C 89.1602 -37.4512 100.781 -25.9766 116.162 -40.7715 C 121.729 -46.0938 124.854 -53.7109 124.17 -59.5215 L 106.201 -54.6387 C 102.295 -53.5645 99.9512 -55.8594 98.9258 -59.4238 L 97.4609 -64.502 C 96.4355 -68.0664 97.5098 -71.1914 101.367 -72.2168 L 119.287 -77.0508 C 118.701 -78.5645 117.285 -80.5176 115.576 -82.2754 C 104.639 -93.457 86.1816 -93.5059 75.4883 -83.3496 C 59.4727 -68.1152 71.9727 -52.002 60.5469 -40.5762 C 47.998 -27.9785 27.8809 -17.8711 17.8711 -7.86133 C 9.375 0.634766 8.98438 11.3281 16.8457 19.1895 Z M 20.5078 15.4297 C 14.9902 9.76562 15.3809 1.80664 21.4844 -4.24805 C 31.6895 -14.4043 53.0762 -25.6348 64.2578 -36.8652 C 76.9531 -49.5605 64.2578 -65.8203 79.1992 -79.6387 C 87.793 -87.5977 102.246 -87.5 111.084 -79.7852 L 100.244 -76.9531 C 93.5059 -75.1465 90.625 -70.0684 92.627 -62.9883 L 93.9941 -58.2031 L 99.8535 -37.4512 C 91.1133 -35.9863 82.373 -38.0859 74.1699 -29.8828 C 61.5234 -17.2363 50.4395 4.29688 40.2344 14.502 C 34.082 20.7031 26.0742 21.0938 20.5078 15.4297 Z M 77.9297 -54.4434 L 88.3301 -57.2266 C 89.1602 -57.4219 89.6973 -58.252 89.4531 -59.1309 C 89.209 -60.0098 88.3789 -60.4492 87.5488 -60.2539 L 77.0996 -57.4219 C 76.2695 -57.2266 75.7812 -56.3477 76.0254 -55.5664 C 76.2695 -54.6387 77.0508 -54.1992 77.9297 -54.4434 Z M 79.248 -49.0234 L 89.5996 -51.8066 C 90.4785 -52.002 90.9668 -52.832 90.7227 -53.7109 C 90.4785 -54.5898 89.6484 -55.0293 88.8184 -54.834 L 78.3691 -52.002 C 77.5391 -51.8066 77.0508 -50.9277 77.2949 -50.1465 C 77.5391 -49.2188 78.3203 -48.7793 79.248 -49.0234 Z M 107.227 -49.9512 L 118.311 -52.9785 C 117.285 -49.9023 115.527 -46.7285 112.549 -43.7988 C 109.619 -40.918 106.592 -39.3066 103.564 -38.3301 L 100.293 -49.9512 C 102.295 -49.1699 104.639 -49.2188 107.227 -49.9512 Z M 80.5176 -43.6035 L 90.9668 -46.3867 C 91.748 -46.6309 92.2852 -47.5098 92.041 -48.3398 C 91.8457 -49.1699 91.0156 -49.6582 90.1367 -49.4141 L 79.7363 -46.582 C 78.8574 -46.3867 78.418 -45.5566 78.6133 -44.7266 C 78.7598 -43.7988 79.6387 -43.3594 80.5176 -43.6035 Z M 23.9746 12.1094 C 27.3438 15.332 33.0566 15.3809 36.2305 12.0605 C 39.5996 8.54492 39.6973 2.97852 36.2793 -0.292969 C 32.8125 -3.61328 27.1973 -3.71094 23.877 -0.292969 C 20.6055 3.17383 20.5566 8.78906 23.9746 12.1094 Z"/>
  </g>
  <g id="Thin-M" transform="matrix(1 0 0 1 789.503 1126)">
   <path d="M 16.5527 18.1641 C 24.0234 25.6348 34.1797 25.1953 42.3828 17.041 C 52.2949 7.22656 62.207 -12.9395 76.416 -27.1484 C 88.1836 -38.916 98.8281 -26.3184 114.648 -41.748 C 119.678 -46.582 122.559 -53.3691 122.559 -58.9355 L 105.566 -54.3945 C 100.732 -53.0762 98.2422 -55.7617 97.168 -59.5703 L 95.6543 -64.8438 C 94.5312 -68.6035 95.4102 -72.1191 100.244 -73.4375 L 117.188 -78.0273 C 116.504 -79.248 115.43 -80.6641 114.062 -82.0312 C 103.516 -92.6758 85.6934 -93.0664 75.1953 -83.0566 C 59.5703 -68.1641 72.3145 -52.2949 59.9121 -39.9414 C 47.6074 -27.6367 27.4902 -17.5293 17.627 -7.61719 C 9.47266 0.488281 9.0332 10.6934 16.5527 18.1641 Z M 18.9941 15.6738 C 13.1348 9.66797 13.5742 1.12305 19.9707 -5.27344 C 30.2734 -15.4297 51.6113 -26.709 62.3535 -37.4512 C 75.1953 -50.293 63.2812 -67.334 77.5879 -80.6641 C 87.2559 -89.6484 103.223 -88.6719 111.719 -79.7852 L 99.5117 -76.5625 C 93.1641 -74.9023 90.5762 -70.3613 92.4805 -63.7207 L 93.8477 -58.9355 L 100.195 -36.9629 C 91.1133 -35.0586 82.2754 -38.0371 73.877 -29.6387 C 61.3281 -17.0898 50.293 4.44336 39.9902 14.7461 C 33.4961 21.2402 24.9023 21.6797 18.9941 15.6738 Z M 77.2461 -54.9316 L 87.5488 -57.666 C 88.2812 -57.8613 88.6719 -58.5938 88.4766 -59.3262 C 88.2812 -60.0586 87.5977 -60.4492 86.8652 -60.2539 L 76.5625 -57.4707 C 75.8301 -57.2754 75.4395 -56.543 75.6348 -55.8594 C 75.8301 -55.127 76.5137 -54.6875 77.2461 -54.9316 Z M 78.5156 -49.4629 L 88.7695 -52.1973 C 89.5508 -52.3926 89.9414 -53.125 89.7461 -53.8574 C 89.5508 -54.5898 88.8184 -54.9805 88.1348 -54.7852 L 77.832 -52.002 C 77.0996 -51.8066 76.6602 -51.0742 76.8555 -50.3906 C 77.0996 -49.6582 77.7832 -49.2676 78.5156 -49.4629 Z M 106.396 -51.2695 L 118.652 -54.6387 C 117.773 -51.1719 116.016 -47.168 112.158 -43.4082 C 109.082 -40.4297 106.055 -38.7207 103.076 -37.7441 L 99.0723 -51.5625 C 101.123 -50.5371 103.613 -50.4883 106.396 -51.2695 Z M 79.7852 -43.9941 L 90.0879 -46.7285 C 90.7715 -46.9238 91.2109 -47.7051 91.0156 -48.3887 C 90.8203 -49.1211 90.1367 -49.5117 89.4043 -49.3164 L 79.1016 -46.582 C 78.3691 -46.3867 77.9785 -45.6055 78.125 -44.9219 C 78.3203 -44.1895 79.0527 -43.7988 79.7852 -43.9941 Z M 22.5098 12.3535 C 26.1719 15.918 32.4707 16.0156 35.9863 12.3047 C 39.6973 8.39844 39.6973 2.29492 35.9863 -1.31836 C 32.1289 -5.0293 25.9766 -4.98047 22.3633 -1.26953 C 18.75 2.53906 18.7012 8.69141 22.5098 12.3535 Z"/>
  </g>
  <g id="Ultralight-M" transform="matrix(1 0 0 1 493.232 1126)">
   <path d="M 16.4062 17.6758 C 23.6816 24.9512 33.5938 24.5117 41.6016 16.5527 C 51.5137 6.78711 61.4258 -13.4277 75.6348 -27.6367 C 87.6953 -39.6973 97.8027 -26.4648 113.916 -42.2363 C 118.604 -46.8262 121.387 -53.1738 121.729 -58.6914 L 105.273 -54.248 C 100.439 -52.9297 97.8516 -55.2246 96.582 -58.5938 L 96.2891 -59.668 L 96.2402 -59.6191 L 94.6777 -64.9902 C 93.5547 -68.8965 94.3848 -72.6562 99.707 -74.0723 L 116.113 -78.4668 C 115.381 -79.5898 114.453 -80.7617 113.281 -81.9336 C 102.93 -92.2363 85.4492 -92.8223 75.0488 -82.9102 C 59.6191 -68.1641 72.4609 -52.4902 59.5703 -39.5996 C 47.4609 -27.4414 27.2949 -17.3828 17.4805 -7.51953 C 9.52148 0.439453 9.08203 10.3516 16.4062 17.6758 Z M 18.2129 15.7715 C 12.1582 9.61914 12.5977 0.78125 19.2383 -5.76172 C 29.5898 -15.9668 50.8789 -27.2461 61.377 -37.793 C 74.3164 -50.6836 62.7441 -68.1152 76.7578 -81.1523 C 87.0117 -90.7227 103.711 -89.209 112.012 -79.7852 L 99.0723 -76.3672 C 93.0176 -74.7559 90.5762 -70.5078 92.3828 -64.0625 L 93.75 -59.2773 C 93.8477 -59.0332 93.7988 -59.1309 93.8477 -58.8867 L 100.391 -36.7188 C 91.0645 -34.5703 82.2266 -37.9883 73.7305 -29.541 C 61.2305 -16.9922 50.1953 4.49219 39.8438 14.8438 C 33.1543 21.5332 24.2676 21.9727 18.2129 15.7715 Z M 76.9043 -55.1758 L 87.1094 -57.9102 C 87.793 -58.1055 88.1836 -58.7891 87.9883 -59.375 C 87.793 -60.0586 87.207 -60.4492 86.5234 -60.2539 L 76.2695 -57.5195 C 75.5859 -57.3242 75.2441 -56.6406 75.4395 -56.0059 C 75.5859 -55.3711 76.2207 -54.9805 76.9043 -55.1758 Z M 105.957 -51.9531 L 118.799 -55.5176 C 118.018 -51.8555 116.26 -47.4121 111.963 -43.2129 C 108.838 -40.1855 105.811 -38.4766 102.783 -37.4023 L 98.3887 -52.4414 C 100.488 -51.2695 103.027 -51.123 105.957 -51.9531 Z M 78.1738 -49.6582 L 88.3789 -52.4414 C 89.0625 -52.5879 89.4043 -53.2715 89.2578 -53.9062 C 89.0625 -54.5898 88.4277 -54.9316 87.7441 -54.7852 L 77.5391 -52.002 C 76.8555 -51.8555 76.4648 -51.1719 76.6602 -50.5371 C 76.8555 -49.8535 77.4902 -49.5117 78.1738 -49.6582 Z M 79.3945 -44.1895 L 89.5996 -46.9238 C 90.2832 -47.1191 90.6738 -47.8027 90.4785 -48.3887 C 90.2832 -49.0723 89.6973 -49.4629 89.0137 -49.2676 L 78.7598 -46.5332 C 78.0762 -46.3379 77.7344 -45.6543 77.9297 -45.0684 C 78.125 -44.3848 78.7109 -43.9941 79.3945 -44.1895 Z M 21.7285 12.5 C 25.5859 16.2598 32.1777 16.3086 35.8398 12.4512 C 39.7461 8.30078 39.7461 1.9043 35.8398 -1.85547 C 31.7871 -5.71289 25.3418 -5.66406 21.582 -1.75781 C 17.7734 2.24609 17.7734 8.69141 21.7285 12.5 Z"/>
  </g>
  <g id="Black-S" transform="matrix(1 0 0 1 2874.64 696)">
   <path d="M 14.5508 10.6934 C 22.5098 18.6035 33.6914 18.2617 42.1387 9.76562 C 50.6836 1.12305 58.9355 -15.332 70.166 -26.5625 C 76.2695 -32.666 83.3984 -28.5156 94.0918 -33.1055 C 104.346 -37.5 111.133 -49.2188 108.008 -61.084 L 90.5273 -56.2988 C 89.4531 -56.0059 88.8184 -56.543 88.5254 -57.5195 L 87.3535 -61.6211 C 87.0605 -62.5977 87.4023 -63.3789 88.4766 -63.6719 L 106.299 -68.5547 C 105.566 -71.2891 104.004 -75.1953 101.172 -78.0762 C 90.8203 -88.5742 73.3887 -89.0625 62.8418 -79.0039 C 47.5098 -64.4043 57.6172 -50.8789 50.9277 -44.2383 C 40.5273 -33.8867 23.9746 -25.4883 15.3809 -16.8945 C 6.93359 -8.44727 6.5918 2.7832 14.5508 10.6934 Z M 22.0215 3.27148 C 18.4082 -0.439453 18.7012 -5.46875 22.7539 -9.52148 C 30.9082 -17.6758 48.5352 -26.9043 58.3984 -36.7676 C 69.8242 -48.1934 58.2031 -60.3516 70.3125 -71.4844 C 75.0977 -75.8789 82.666 -76.8066 88.916 -74.1699 L 85.3516 -73.2422 C 78.418 -71.4355 75.3418 -65.8203 77.3926 -58.7402 L 78.5156 -54.8828 L 82.2266 -41.0156 C 75.9766 -40.4785 69.2871 -40.5762 62.6953 -34.0332 C 52.0508 -23.4375 42.9199 -5.71289 34.7656 2.49023 C 30.6641 6.64062 25.5859 6.93359 22.0215 3.27148 Z M 67.4805 -51.6602 L 74.9512 -53.6621 C 75.6836 -53.8574 76.123 -54.541 75.8789 -55.3223 C 75.6348 -56.0547 74.9512 -56.3965 74.3164 -56.25 L 66.748 -54.248 C 66.0156 -54.0527 65.625 -53.3203 65.7715 -52.6367 C 65.918 -51.8555 66.6992 -51.4648 67.4805 -51.6602 Z M 68.4082 -47.8516 L 75.8789 -49.8535 C 76.6113 -50.0488 77.0508 -50.7324 76.8066 -51.5137 C 76.5625 -52.2461 75.8789 -52.5879 75.2441 -52.4414 L 67.6758 -50.4395 C 66.9434 -50.2441 66.5527 -49.5117 66.748 -48.8281 C 66.9922 -48.0469 67.627 -47.6562 68.4082 -47.8516 Z M 69.3359 -44.043 L 76.9043 -46.0938 C 77.5879 -46.2891 78.0273 -47.0215 77.832 -47.7539 C 77.6367 -48.4375 76.9531 -48.8281 76.2207 -48.6328 L 68.6523 -46.6309 C 67.9688 -46.4355 67.5781 -45.752 67.6758 -45.0195 C 67.7734 -44.2383 68.6523 -43.8477 69.3359 -44.043 Z M 91.8945 -46.3379 L 95.9473 -47.4121 C 95.5078 -46.8262 94.9707 -46.2402 94.4336 -45.7031 C 92.7734 -44.0918 91.0156 -43.0664 89.209 -42.3828 L 88.2812 -45.8008 C 89.4043 -45.8008 90.625 -45.9961 91.8945 -46.3379 Z M 24.4141 0.878906 C 26.416 2.88086 29.9316 2.88086 31.8848 0.878906 C 33.9355 -1.2207 34.082 -4.63867 31.9336 -6.68945 C 29.834 -8.69141 26.3672 -8.78906 24.3652 -6.68945 C 22.3633 -4.58984 22.3145 -1.2207 24.4141 0.878906 Z"/>
  </g>
  <g id="Heavy-S" transform="matrix(1 0 0 1 2579.05 696)">
   <path d="M 14.2578 10.1562 C 21.875 17.7246 32.5195 17.3828 40.625 9.22852 C 49.0234 0.732422 57.1777 -15.5273 68.3105 -26.709 C 74.9512 -33.3496 82.7637 -28.3203 93.7012 -34.4238 C 102.686 -38.8672 108.496 -49.4141 105.811 -59.5703 L 88.916 -54.9805 C 87.5977 -54.5898 86.7188 -55.3711 86.3281 -56.6895 L 85.1562 -60.7422 C 84.7656 -62.0605 85.2539 -63.1836 86.5723 -63.5254 L 103.711 -68.2129 C 103.076 -70.6543 101.562 -74.1211 98.9746 -76.709 C 88.9648 -86.9141 72.1191 -87.2559 62.0117 -77.6367 C 47.2656 -63.5742 57.2266 -50.1953 50.2441 -43.2617 C 39.8926 -32.959 23.5352 -24.6582 15.0879 -16.2109 C 6.98242 -8.10547 6.68945 2.58789 14.2578 10.1562 Z M 20.9473 3.51562 C 17.2363 -0.292969 17.5293 -5.51758 21.6797 -9.61914 C 29.7852 -17.7246 47.2168 -26.8555 56.9336 -36.5723 C 67.9688 -47.6074 56.543 -59.7168 68.7012 -70.8984 C 73.7305 -75.5371 81.8848 -76.3672 88.3789 -73.2422 L 83.8867 -72.0703 C 77.2461 -70.3125 74.3164 -64.9902 76.2695 -58.1543 L 77.3926 -54.3457 L 81.2012 -40.1855 C 74.9023 -39.5996 68.1641 -39.8926 61.6699 -33.3984 C 51.1719 -22.9492 42.1387 -5.41992 34.0332 2.73438 C 29.834 6.98242 24.6094 7.27539 20.9473 3.51562 Z M 66.1133 -51.2207 L 73.7793 -53.2715 C 74.5117 -53.4668 74.9512 -54.1504 74.707 -54.9805 C 74.4629 -55.7129 73.7793 -56.0547 73.0957 -55.9082 L 65.332 -53.8574 C 64.5996 -53.6621 64.209 -52.9297 64.3555 -52.1973 C 64.5508 -51.416 65.2832 -51.0254 66.1133 -51.2207 Z M 67.041 -47.3145 L 74.707 -49.3652 C 75.4395 -49.5605 75.8789 -50.2441 75.6348 -51.0742 C 75.4395 -51.8066 74.707 -52.1484 74.0723 -52.002 L 66.3086 -49.9512 C 65.5762 -49.7559 65.1855 -49.0234 65.3809 -48.3398 C 65.625 -47.5098 66.2598 -47.1191 67.041 -47.3145 Z M 68.0176 -43.4082 L 75.7324 -45.5078 C 76.4648 -45.7031 76.9043 -46.4844 76.709 -47.2168 C 76.5137 -47.9004 75.7812 -48.3398 75.0488 -48.0957 L 67.334 -46.0449 C 66.6016 -45.8496 66.2109 -45.166 66.3086 -44.4336 C 66.4062 -43.6035 67.2852 -43.2129 68.0176 -43.4082 Z M 90.1855 -46.1426 L 95.166 -47.4609 C 94.5801 -46.5332 93.8477 -45.7031 93.0176 -44.9219 C 91.2598 -43.1641 89.3555 -42.0898 87.4512 -41.4062 L 86.2793 -45.6543 C 87.5 -45.6055 88.8184 -45.752 90.1855 -46.1426 Z M 23.3887 1.02539 C 25.4883 3.125 29.1016 3.125 31.1035 1.02539 C 33.2031 -1.12305 33.3496 -4.63867 31.1523 -6.73828 C 29.0039 -8.78906 25.4395 -8.88672 23.3398 -6.73828 C 21.2891 -4.58984 21.2402 -1.07422 23.3887 1.02539 Z"/>
  </g>
  <g id="Bold-S" transform="matrix(1 0 0 1 2283.63 696)">
   <path d="M 13.9648 9.52148 C 21.1914 16.6992 31.25 16.3574 38.9648 8.59375 C 47.168 0.341797 55.2246 -15.7715 66.3086 -26.8555 C 73.5352 -34.082 82.1289 -28.0762 93.2617 -35.8887 C 100.83 -40.4297 105.566 -49.6094 103.418 -57.9102 L 87.1094 -53.4668 C 85.5469 -53.0273 84.375 -54.0039 83.8379 -55.8105 L 82.7148 -59.7168 C 82.2266 -61.5234 82.8613 -62.9395 84.4727 -63.3301 L 100.879 -67.8223 C 100.293 -69.9219 98.8281 -72.9004 96.582 -75.1953 C 86.9141 -85.1074 70.7031 -85.2051 61.084 -76.0742 C 46.9727 -62.6953 56.8359 -49.4629 49.4629 -42.1387 C 39.209 -31.8848 23.0469 -23.7305 14.7949 -15.4785 C 7.08008 -7.76367 6.78711 2.34375 13.9648 9.52148 Z M 19.7754 3.75977 C 15.9668 -0.146484 16.2598 -5.51758 20.5078 -9.76562 C 28.5156 -17.7734 45.7031 -26.8066 55.2734 -36.3281 C 65.918 -46.9727 54.7363 -59.0332 66.9434 -70.2637 C 72.2168 -75.1465 81.0059 -75.8789 87.6953 -72.168 L 82.3242 -70.752 C 75.9766 -69.0918 73.1445 -64.0625 75.0488 -57.5195 L 76.123 -53.7109 L 80.0293 -39.2578 C 73.6816 -38.5742 66.9434 -39.0625 60.498 -32.666 C 50.1953 -22.3633 41.2598 -5.07812 33.252 2.97852 C 28.9551 7.32422 23.5352 7.61719 19.7754 3.75977 Z M 64.5996 -50.7324 L 72.4609 -52.832 C 73.1934 -53.0273 73.6328 -53.7598 73.3887 -54.5898 C 73.1934 -55.3223 72.4609 -55.7129 71.7773 -55.5664 L 63.8184 -53.418 C 63.0859 -53.2227 62.6465 -52.4414 62.8418 -51.7578 C 63.0371 -50.9277 63.7695 -50.5371 64.5996 -50.7324 Z M 65.5762 -46.7285 L 73.4375 -48.8281 C 74.1699 -49.0234 74.6094 -49.7559 74.3652 -50.5859 C 74.1699 -51.3184 73.4375 -51.709 72.7539 -51.5137 L 64.7949 -49.4141 C 64.0625 -49.2188 63.623 -48.4375 63.8184 -47.7539 C 64.0625 -46.9238 64.7461 -46.5332 65.5762 -46.7285 Z M 66.5527 -42.7246 L 74.5117 -44.873 C 75.1953 -45.0684 75.6348 -45.8496 75.4395 -46.6309 C 75.2441 -47.3145 74.5605 -47.7539 73.7793 -47.5098 L 65.8203 -45.4102 C 65.1367 -45.2148 64.6973 -44.4824 64.8438 -43.75 C 64.9414 -42.9199 65.8203 -42.5293 66.5527 -42.7246 Z M 88.3301 -45.8984 L 94.2383 -47.5098 C 93.457 -46.2402 92.5781 -45.0684 91.5039 -44.043 C 89.5508 -42.1387 87.5488 -41.0156 85.4004 -40.332 L 84.0332 -45.459 C 85.3516 -45.3125 86.7676 -45.5078 88.3301 -45.8984 Z M 22.3145 1.2207 C 24.4629 3.36914 28.1738 3.36914 30.2246 1.2207 C 32.4219 -1.02539 32.5684 -4.63867 30.2734 -6.78711 C 28.0762 -8.93555 24.4141 -9.0332 22.2656 -6.78711 C 20.1172 -4.58984 20.0684 -0.976562 22.3145 1.2207 Z"/>
  </g>
  <g id="Semibold-S" transform="matrix(1 0 0 1 1987.8 696)">
   <path d="M 13.7695 9.08203 C 20.7031 16.0156 30.3711 15.6738 37.793 8.20312 C 45.8984 0.0488281 53.8574 -15.918 64.8926 -26.9531 C 72.5586 -34.6191 81.6406 -27.9297 92.9688 -36.8652 C 99.5605 -41.4551 103.516 -49.7559 101.709 -56.7871 L 85.8887 -52.4414 C 84.1309 -51.9531 82.7637 -53.125 82.1777 -55.1758 L 81.0547 -59.0332 C 80.4688 -61.1328 81.2012 -62.7441 83.0078 -63.2324 L 98.9258 -67.5781 C 98.3887 -69.4336 96.9727 -72.0215 94.9219 -74.1699 C 85.498 -83.8379 69.6777 -83.7891 60.4492 -75 C 46.7773 -62.0605 56.543 -48.9258 48.9746 -41.3574 C 38.7695 -31.1523 22.7051 -23.0469 14.5996 -14.9414 C 7.17773 -7.4707 6.83594 2.14844 13.7695 9.08203 Z M 18.9453 3.90625 C 15.0879 -0.0488281 15.3809 -5.56641 19.6777 -9.86328 C 27.6367 -17.8223 44.7266 -26.7578 54.1504 -36.1816 C 64.4531 -46.5332 53.4668 -58.5938 65.7227 -69.8242 C 71.1426 -74.8535 80.3223 -75.5859 87.207 -71.4355 L 81.2012 -69.873 C 75.0977 -68.2617 72.3633 -63.4277 74.2188 -57.0801 L 75.293 -53.3203 L 79.248 -38.5742 C 72.8516 -37.8418 66.1133 -38.4766 59.7168 -32.1289 C 49.5117 -21.9727 40.6738 -4.83398 32.7148 3.17383 C 28.3691 7.56836 22.8027 7.86133 18.9453 3.90625 Z M 63.5254 -50.3906 L 71.5332 -52.5391 C 72.3145 -52.7344 72.7539 -53.4668 72.5098 -54.2969 C 72.3145 -55.0781 71.5332 -55.4688 70.8496 -55.2734 L 62.7441 -53.125 C 62.0117 -52.9297 61.5723 -52.1484 61.7676 -51.416 C 61.9629 -50.5859 62.6953 -50.1953 63.5254 -50.3906 Z M 64.5508 -46.3379 L 72.5098 -48.4375 C 73.291 -48.6328 73.7305 -49.4141 73.5352 -50.2441 C 73.291 -50.9766 72.5098 -51.3672 71.8262 -51.2207 L 63.7695 -49.0234 C 62.9883 -48.8281 62.5977 -48.0469 62.7441 -47.3633 C 62.9883 -46.5332 63.7207 -46.0938 64.5508 -46.3379 Z M 87.0605 -45.752 L 93.5059 -47.5098 C 92.6758 -45.9961 91.6504 -44.6289 90.4297 -43.4082 C 88.3789 -41.4062 86.2305 -40.2832 84.0332 -39.5508 L 82.4707 -45.3613 C 83.8379 -45.166 85.4004 -45.3125 87.0605 -45.752 Z M 65.5273 -42.2363 L 73.6328 -44.4336 C 74.3164 -44.6289 74.8047 -45.4102 74.6094 -46.1914 C 74.4141 -46.9238 73.6816 -47.3633 72.9004 -47.1191 L 64.8438 -44.9707 C 64.0625 -44.7754 63.6719 -44.043 63.7695 -43.2617 C 63.916 -42.4316 64.7949 -42.041 65.5273 -42.2363 Z M 21.5332 1.36719 C 23.7305 3.51562 27.5391 3.51562 29.6387 1.36719 C 31.8359 -0.927734 31.9824 -4.63867 29.6875 -6.83594 C 27.4414 -8.98438 23.6816 -9.13086 21.4844 -6.83594 C 19.3359 -4.58984 19.2871 -0.878906 21.5332 1.36719 Z"/>
  </g>
  <g id="Medium-S" transform="matrix(1 0 0 1 1691.75 696)">
   <path d="M 13.623 8.74023 C 20.3613 15.4785 29.6875 15.1367 36.9141 7.86133 C 44.9707 -0.146484 52.832 -16.0645 63.8184 -27.0508 C 71.7773 -35.0098 81.2988 -27.7832 92.7246 -37.6465 C 98.584 -42.2852 102.002 -49.8535 100.488 -55.9082 L 84.9609 -51.6602 C 83.0566 -51.1719 81.543 -52.3926 80.9082 -54.6875 L 79.7852 -58.5449 C 79.1504 -60.791 79.9805 -62.6465 81.8848 -63.1348 L 97.4121 -67.3828 C 96.9727 -69.043 95.5566 -71.3867 93.6523 -73.3887 C 84.4238 -82.8613 68.9453 -82.7148 60.0098 -74.2188 C 46.6797 -61.5723 56.3477 -48.5352 48.584 -40.7715 C 38.3789 -30.6152 22.4609 -22.5586 14.4531 -14.5508 C 7.22656 -7.27539 6.88477 2.05078 13.623 8.74023 Z M 18.3105 4.05273 C 14.4043 0.0488281 14.6973 -5.56641 19.043 -9.96094 C 27.002 -17.8711 43.9453 -26.709 53.2715 -36.084 C 63.3789 -46.1914 52.5391 -58.2031 64.7949 -69.4824 C 70.3125 -74.6094 79.834 -75.3418 86.7676 -70.8496 L 80.3711 -69.1406 C 74.4141 -67.627 71.7773 -62.9395 73.5352 -56.7383 L 74.6582 -52.9785 L 78.6621 -38.0859 C 72.2168 -37.3047 65.4297 -38.0371 59.1309 -31.7871 C 49.0234 -21.6797 40.2344 -4.63867 32.3242 3.32031 C 27.8809 7.76367 22.2656 8.05664 18.3105 4.05273 Z M 62.7441 -50.1465 L 70.8496 -52.2949 C 71.6309 -52.4902 72.0703 -53.2715 71.8262 -54.1016 C 71.6309 -54.834 70.8496 -55.2734 70.166 -55.0781 L 61.9629 -52.8809 C 61.1816 -52.6855 60.791 -51.9043 60.9375 -51.1719 C 61.1816 -50.3418 61.9141 -49.9023 62.7441 -50.1465 Z M 63.7695 -45.9961 L 71.875 -48.1934 C 72.6074 -48.3887 73.0957 -49.1211 72.8516 -49.9512 C 72.6562 -50.7324 71.875 -51.123 71.1426 -50.9766 L 62.9395 -48.7793 C 62.207 -48.584 61.7676 -47.7539 61.9629 -47.0703 C 62.207 -46.1914 62.8906 -45.8008 63.7695 -45.9961 Z M 86.084 -45.6055 L 92.9199 -47.4609 C 92.0898 -45.8008 90.9668 -44.2871 89.5996 -42.9199 C 87.5 -40.8691 85.2539 -39.6973 83.0078 -39.0137 L 81.2988 -45.3125 C 82.7148 -45.0195 84.3262 -45.166 86.084 -45.6055 Z M 64.7461 -41.8945 L 72.9492 -44.0918 C 73.6816 -44.2871 74.1211 -45.0684 73.9258 -45.8984 C 73.7793 -46.582 72.998 -47.0703 72.2168 -46.8262 L 64.0625 -44.6289 C 63.2812 -44.4336 62.8906 -43.7012 62.9883 -42.9199 C 63.1348 -42.0898 64.0137 -41.6992 64.7461 -41.8945 Z M 20.9473 1.46484 C 23.1934 3.66211 27.0508 3.66211 29.1992 1.46484 C 31.4453 -0.878906 31.5918 -4.63867 29.248 -6.88477 C 26.9531 -9.08203 23.1445 -9.17969 20.8984 -6.88477 C 18.7012 -4.58984 18.6523 -0.78125 20.9473 1.46484 Z"/>
  </g>
  <g id="Regular-S" transform="matrix(1 0 0 1 1395.89 696)">
   <path d="M 13.4277 8.34961 C 19.873 14.7949 28.8086 14.4531 35.791 7.4707 C 43.7012 -0.439453 51.5137 -16.2109 62.4512 -27.1484 C 70.8008 -35.5469 80.8594 -27.6367 92.4316 -38.623 C 97.3633 -43.3105 100 -50 98.8281 -54.7852 L 83.7402 -50.6348 C 81.6406 -50.0977 79.9316 -51.5137 79.1992 -54.0527 L 78.125 -57.8613 C 77.3926 -60.4004 78.3691 -62.4512 80.4688 -63.0371 L 95.5078 -67.0898 C 95.0684 -68.5547 93.7012 -70.5566 91.9922 -72.3145 C 83.0078 -81.5918 67.9688 -81.3477 59.375 -73.1445 C 46.4844 -60.9375 56.0547 -48.0469 48.0469 -39.9902 C 37.9395 -29.8828 22.168 -21.9238 14.2578 -14.0137 C 7.27539 -7.03125 6.98242 1.85547 13.4277 8.34961 Z M 17.5293 4.24805 C 13.5254 0.146484 13.8184 -5.61523 18.2617 -10.0098 C 26.123 -17.9199 42.9199 -26.709 52.1484 -35.8887 C 61.9629 -45.752 51.2695 -57.7637 63.5742 -69.043 C 69.2383 -74.3164 79.1504 -75.0488 86.2305 -70.1172 L 79.2969 -68.2617 C 73.5352 -66.748 70.9961 -62.3047 72.7051 -56.2988 L 73.7793 -52.5879 L 77.832 -37.5 C 71.3867 -36.6211 64.5996 -37.5 58.3496 -31.25 C 48.3398 -21.3379 39.6484 -4.44336 31.7871 3.51562 C 27.2949 8.00781 21.5332 8.30078 17.5293 4.24805 Z M 61.7188 -49.8047 L 69.9707 -52.002 C 70.7031 -52.1973 71.1914 -52.9785 70.9473 -53.8086 C 70.752 -54.5898 69.9707 -55.0293 69.2383 -54.834 L 60.8887 -52.5879 C 60.1562 -52.3926 59.7168 -51.5625 59.9121 -50.8789 C 60.1562 -50 60.8398 -49.5605 61.7188 -49.8047 Z M 62.7441 -45.6055 L 70.9961 -47.8027 C 71.7285 -47.998 72.2168 -48.7793 71.9727 -49.6094 C 71.7773 -50.3906 70.9961 -50.8301 70.2637 -50.6348 L 61.9141 -48.3887 C 61.1816 -48.1934 60.7422 -47.3633 60.9375 -46.6797 C 61.1816 -45.8008 61.8652 -45.3613 62.7441 -45.6055 Z M 84.8145 -45.459 L 92.1875 -47.4609 C 91.3086 -45.6055 90.0879 -43.8477 88.5742 -42.334 C 86.3281 -40.1855 84.0332 -38.9648 81.6406 -38.2324 L 79.7363 -45.2637 C 81.2012 -44.873 82.9102 -44.9707 84.8145 -45.459 Z M 63.7695 -41.4062 L 72.0703 -43.6523 C 72.8027 -43.8477 73.291 -44.6289 73.0957 -45.459 C 72.9004 -46.1914 72.1191 -46.6797 71.3379 -46.4355 L 63.0371 -44.1895 C 62.2559 -43.9941 61.8652 -43.2129 62.0117 -42.4805 C 62.1582 -41.6016 62.9883 -41.2109 63.7695 -41.4062 Z M 20.2148 1.61133 C 22.5098 3.80859 26.416 3.80859 28.6133 1.61133 C 30.9082 -0.78125 31.0547 -4.63867 28.6621 -6.88477 C 26.3184 -9.13086 22.4609 -9.27734 20.166 -6.88477 C 17.9199 -4.54102 17.8711 -0.683594 20.2148 1.61133 Z"/>
  </g>
  <g id="Light-S" transform="matrix(1 0 0 1 1099.76 696)">
   <path d="M 13.2324 7.66602 C 19.4824 13.8672 28.0273 13.5254 34.8145 6.78711 C 42.6758 -1.02539 50.4395 -16.7969 61.4746 -27.832 C 70.166 -36.5234 79.541 -27.8809 91.4551 -39.3066 C 95.9961 -43.6035 98.4863 -49.8047 97.7539 -54.3945 L 83.3496 -50.4883 C 80.6152 -49.7559 78.8086 -51.416 78.0273 -54.1504 L 76.9043 -58.0566 C 76.123 -60.791 77.002 -63.1348 79.7363 -63.8672 L 94.0918 -67.7246 C 93.6035 -68.9941 92.4316 -70.6543 90.9668 -72.168 C 82.2754 -81.0547 67.6758 -81.0547 59.1797 -72.998 C 46.5332 -60.9863 56.2988 -48.2422 47.6074 -39.5996 C 37.6953 -29.6387 21.9238 -21.7285 14.0625 -13.8672 C 7.32422 -7.12891 7.03125 1.41602 13.2324 7.66602 Z M 16.5039 4.39453 C 12.3047 0.0488281 12.5977 -6.05469 17.2852 -10.6934 C 25.1953 -18.6035 41.9922 -27.3926 50.8789 -36.3281 C 60.791 -46.2402 50.6348 -58.7402 62.5 -69.7266 C 68.8965 -75.6836 79.7852 -75.8301 86.8164 -70.1172 L 78.7598 -68.0176 C 73.3398 -66.6016 70.9961 -62.4512 72.6074 -56.7871 L 73.6816 -53.0273 L 78.125 -37.1094 C 71.3867 -36.084 64.5508 -37.4512 58.1543 -31.1035 C 48.2422 -21.1914 39.5508 -4.3457 31.5918 3.66211 C 26.9043 8.39844 20.752 8.74023 16.5039 4.39453 Z M 61.2793 -50.1465 L 69.4336 -52.2949 C 70.1172 -52.4902 70.5566 -53.1738 70.3613 -53.9062 C 70.166 -54.6387 69.4336 -55.0293 68.7988 -54.834 L 60.5469 -52.6367 C 59.8633 -52.4414 59.4727 -51.709 59.668 -51.0742 C 59.8633 -50.293 60.498 -49.9023 61.2793 -50.1465 Z M 62.2559 -45.8984 L 70.459 -48.0957 C 71.1426 -48.2422 71.5332 -48.9746 71.3379 -49.707 C 71.1914 -50.3906 70.459 -50.7812 69.7754 -50.5859 L 61.5723 -48.3887 C 60.8887 -48.1934 60.498 -47.4609 60.6445 -46.8262 C 60.8887 -46.0938 61.5234 -45.7031 62.2559 -45.8984 Z M 84.2285 -46.3867 L 92.5293 -48.6328 C 91.6992 -46.3867 90.3809 -44.0918 88.2812 -42.0898 C 85.9863 -39.8438 83.6426 -38.5742 81.2988 -37.8418 L 78.9551 -46.2891 C 80.4688 -45.8008 82.2754 -45.8008 84.2285 -46.3867 Z M 63.2812 -41.6504 L 71.5332 -43.8965 C 72.168 -44.043 72.6074 -44.7754 72.4121 -45.5078 C 72.2168 -46.1426 71.582 -46.582 70.8496 -46.3867 L 62.6465 -44.1406 C 61.9629 -43.9941 61.5723 -43.2617 61.7188 -42.627 C 61.8652 -41.8457 62.5977 -41.5039 63.2812 -41.6504 Z M 19.2383 1.75781 C 21.7285 4.24805 26.0742 4.24805 28.4668 1.75781 C 30.957 -0.878906 31.0547 -5.07812 28.4668 -7.56836 C 25.8789 -10.0586 21.6309 -10.1562 19.1406 -7.56836 C 16.6992 -4.98047 16.6504 -0.732422 19.2383 1.75781 Z"/>
  </g>
  <g id="Thin-S" transform="matrix(1 0 0 1 803.81 696)">
   <path d="M 13.0371 6.78711 C 18.9453 12.6953 27.002 12.3535 33.4961 5.9082 C 41.3086 -1.80664 49.0723 -17.627 60.1562 -28.7109 C 69.2871 -37.8418 77.7832 -28.1738 90.1367 -40.1367 C 94.1406 -44.043 96.4844 -49.5117 96.3379 -53.9062 L 82.8613 -50.293 C 79.248 -49.3164 77.2949 -51.3184 76.4648 -54.248 L 75.293 -58.3496 C 74.4629 -61.2793 75.1465 -63.9648 78.7598 -64.9414 L 92.2363 -68.5547 C 91.6992 -69.5801 90.7715 -70.8008 89.6484 -71.9727 C 81.2988 -80.3711 67.2363 -80.6152 58.9844 -72.7539 C 46.6797 -60.9863 56.5918 -48.5352 47.0703 -39.0137 C 37.4023 -29.3457 21.6309 -21.4355 13.8672 -13.6719 C 7.42188 -7.22656 7.08008 0.878906 13.0371 6.78711 Z M 15.1855 4.58984 C 10.6445 -0.0488281 10.9863 -6.5918 15.9668 -11.5723 C 24.0234 -19.5312 40.7227 -28.3691 49.2188 -36.8652 C 59.2773 -46.875 49.7559 -60.1074 61.084 -70.6055 C 68.457 -77.4902 80.7129 -76.8555 87.4512 -70.1172 L 78.125 -67.6758 C 73.0469 -66.3574 70.9961 -62.6953 72.5098 -57.4219 L 73.584 -53.6621 L 78.4668 -36.6699 C 71.3867 -35.3027 64.502 -37.4512 57.959 -30.9082 C 48.0957 -21.0449 39.4531 -4.19922 31.3965 3.85742 C 26.3672 8.88672 19.7266 9.22852 15.1855 4.58984 Z M 60.6934 -50.5371 L 68.75 -52.7344 C 69.3359 -52.8809 69.6777 -53.4668 69.5312 -54.0527 C 69.3359 -54.6387 68.7988 -54.9805 68.2129 -54.834 L 60.1074 -52.6367 C 59.5215 -52.4902 59.1797 -51.9043 59.3262 -51.3184 C 59.5215 -50.7324 60.0586 -50.3906 60.6934 -50.5371 Z M 61.6699 -46.2891 L 69.7266 -48.4375 C 70.3125 -48.584 70.6543 -49.2188 70.5078 -49.8047 C 70.3613 -50.3906 69.7754 -50.7324 69.1895 -50.5859 L 61.084 -48.3887 C 60.498 -48.2422 60.1562 -47.6074 60.3027 -47.0703 C 60.498 -46.4355 61.0352 -46.0938 61.6699 -46.2891 Z M 83.4961 -47.5586 L 92.9199 -50.1465 C 92.1875 -47.5098 90.8203 -44.4824 87.9395 -41.748 C 85.5957 -39.4043 83.2031 -38.0859 80.8594 -37.3047 L 77.8809 -47.7051 C 79.4434 -46.9727 81.3965 -46.9727 83.4961 -47.5586 Z M 62.6465 -41.9922 L 70.752 -44.1895 C 71.3379 -44.3359 71.6797 -44.9707 71.5332 -45.5078 C 71.3379 -46.1426 70.8008 -46.4844 70.166 -46.2891 L 62.1094 -44.1406 C 61.5234 -43.9453 61.1816 -43.3594 61.3281 -42.7734 C 61.4746 -42.1875 62.0605 -41.8457 62.6465 -41.9922 Z M 17.9199 2.00195 C 20.752 4.73633 25.5371 4.78516 28.2715 1.95312 C 31.1035 -1.02539 31.1035 -5.71289 28.2715 -8.44727 C 25.293 -11.2793 20.6055 -11.2793 17.8223 -8.44727 C 15.0391 -5.51758 15.0391 -0.78125 17.9199 2.00195 Z"/>
  </g>
  <g id="Ultralight-S" transform="matrix(1 0 0 1 507.489 696)">
   <path d="M 12.9395 6.34766 C 18.6523 12.1094 26.4648 11.7676 32.8125 5.46875 C 40.5762 -2.19727 48.3398 -18.0176 59.4727 -29.1504 C 68.8477 -38.5254 76.9043 -28.3203 89.4531 -40.5762 C 93.2129 -44.2383 95.459 -49.3652 95.6055 -53.6621 L 82.5684 -50.1953 C 78.5156 -49.0723 76.5625 -51.2695 75.6836 -54.3457 L 74.4629 -58.4961 C 73.584 -61.5234 74.2188 -64.4043 78.2715 -65.4785 L 91.2598 -68.9941 C 90.7227 -69.9219 89.9414 -70.8984 88.9648 -71.875 C 80.8105 -80.0293 67.041 -80.4199 58.8867 -72.6562 C 46.7285 -61.0352 56.7383 -48.6816 46.7773 -38.7207 C 37.2559 -29.1992 21.4844 -21.2891 13.7695 -13.5742 C 7.4707 -7.27539 7.12891 0.537109 12.9395 6.34766 Z M 14.502 4.6875 C 9.81445 -0.0976562 10.1562 -6.93359 15.2832 -12.0117 C 23.3887 -20.0195 40.0879 -28.8574 48.3887 -37.1582 C 58.4961 -47.2168 49.3164 -60.791 60.3516 -71.0938 C 68.2617 -78.418 81.1523 -77.3926 87.7441 -70.1172 L 77.7832 -67.5293 C 72.9492 -66.2598 70.9961 -62.793 72.4121 -57.7148 L 73.4863 -54.0039 L 78.6133 -36.4746 C 71.3867 -34.8633 64.4531 -37.4023 57.8613 -30.8105 C 47.998 -20.9473 39.3555 -4.10156 31.2988 3.95508 C 26.0742 9.17969 19.1895 9.52148 14.502 4.6875 Z M 60.3516 -50.7812 L 68.4082 -52.9297 C 68.9453 -53.0762 69.2383 -53.6133 69.0918 -54.1504 C 68.9453 -54.6875 68.457 -54.9805 67.8711 -54.834 L 59.8633 -52.6855 C 59.3262 -52.5391 59.0332 -52.002 59.1797 -51.4648 C 59.3262 -50.9277 59.8145 -50.6348 60.3516 -50.7812 Z M 83.1543 -48.1445 L 93.0664 -50.8789 C 92.4316 -48.0957 91.0156 -44.7266 87.793 -41.5527 C 85.3516 -39.209 82.959 -37.8418 80.6152 -37.0117 L 77.2949 -48.4863 C 78.9062 -47.6074 80.9082 -47.5098 83.1543 -48.1445 Z M 61.3281 -46.4844 L 69.3848 -48.6328 C 69.9219 -48.7793 70.2148 -49.3164 70.0684 -49.8535 C 69.9219 -50.3906 69.4336 -50.6836 68.8477 -50.5371 L 60.8398 -48.3887 C 60.3027 -48.2422 60.0098 -47.7051 60.1562 -47.168 C 60.3027 -46.6309 60.791 -46.3379 61.3281 -46.4844 Z M 62.3047 -42.1875 L 70.3613 -44.3359 C 70.8984 -44.4824 71.1914 -45.0684 71.0449 -45.5566 C 70.8984 -46.0938 70.4102 -46.3867 69.873 -46.2402 L 61.8164 -44.0918 C 61.2793 -43.9453 60.9863 -43.4082 61.1328 -42.9199 C 61.2793 -42.334 61.7676 -42.041 62.3047 -42.1875 Z M 17.2363 2.09961 C 20.2148 5.0293 25.293 5.07812 28.125 2.05078 C 31.1523 -1.12305 31.1523 -6.05469 28.1738 -8.93555 C 25 -11.9141 20.0684 -11.8652 17.1387 -8.88672 C 14.209 -5.81055 14.209 -0.830078 17.2363 2.09961 Z"/>
  </g>
 </g>
</svg>
