<?xml version="1.0" encoding="UTF-8"?>
<!--Generator: Apple Native CoreSVG 123-->
<!DOCTYPE svg
PUBLIC "-//W3C//DTD SVG 1.1//EN"
       "http://www.w3.org/Graphics/SVG/1.1/DTD/svg11.dtd">
<svg version="1.1" xmlns="http://www.w3.org/2000/svg" xmlns:xlink="http://www.w3.org/1999/xlink" width="3300" height="2200">
 <!--glyph: "uni100391.medium", point size: 100.000000, font version: "Version 15.0d7e11", template writer version: "5"-->
 <g id="Notes">
  <rect height="2200" id="artboard" style="fill:white;opacity:1" width="3300" x="0" y="0"/>
  <line id="" style="fill:none;stroke:black;opacity:1;stroke-width:0.5;" x1="263" x2="3036" y1="292" y2="292"/>
  <text style="stroke:none;fill:black;font-family:-apple-system,&quot;SF Pro Display&quot;,&quot;SF Pro Text&quot;,Helvetica,sans-serif;font-weight:bold;" transform="matrix(1 0 0 1 263 322)">Weight/Scale Variations</text>
  <text style="stroke:none;fill:black;font-family:-apple-system,&quot;SF Pro Display&quot;,&quot;SF Pro Text&quot;,Helvetica,sans-serif;text-anchor:middle;" transform="matrix(1 0 0 1 559.711 322)">Ultralight</text>
  <text style="stroke:none;fill:black;font-family:-apple-system,&quot;SF Pro Display&quot;,&quot;SF Pro Text&quot;,Helvetica,sans-serif;text-anchor:middle;" transform="matrix(1 0 0 1 856.422 322)">Thin</text>
  <text style="stroke:none;fill:black;font-family:-apple-system,&quot;SF Pro Display&quot;,&quot;SF Pro Text&quot;,Helvetica,sans-serif;text-anchor:middle;" transform="matrix(1 0 0 1 1153.13 322)">Light</text>
  <text style="stroke:none;fill:black;font-family:-apple-system,&quot;SF Pro Display&quot;,&quot;SF Pro Text&quot;,Helvetica,sans-serif;text-anchor:middle;" transform="matrix(1 0 0 1 1449.84 322)">Regular</text>
  <text style="stroke:none;fill:black;font-family:-apple-system,&quot;SF Pro Display&quot;,&quot;SF Pro Text&quot;,Helvetica,sans-serif;text-anchor:middle;" transform="matrix(1 0 0 1 1746.56 322)">Medium</text>
  <text style="stroke:none;fill:black;font-family:-apple-system,&quot;SF Pro Display&quot;,&quot;SF Pro Text&quot;,Helvetica,sans-serif;text-anchor:middle;" transform="matrix(1 0 0 1 2043.27 322)">Semibold</text>
  <text style="stroke:none;fill:black;font-family:-apple-system,&quot;SF Pro Display&quot;,&quot;SF Pro Text&quot;,Helvetica,sans-serif;text-anchor:middle;" transform="matrix(1 0 0 1 2339.98 322)">Bold</text>
  <text style="stroke:none;fill:black;font-family:-apple-system,&quot;SF Pro Display&quot;,&quot;SF Pro Text&quot;,Helvetica,sans-serif;text-anchor:middle;" transform="matrix(1 0 0 1 2636.69 322)">Heavy</text>
  <text style="stroke:none;fill:black;font-family:-apple-system,&quot;SF Pro Display&quot;,&quot;SF Pro Text&quot;,Helvetica,sans-serif;text-anchor:middle;" transform="matrix(1 0 0 1 2933.4 322)">Black</text>
  <line id="" style="fill:none;stroke:black;opacity:1;stroke-width:0.5;" x1="263" x2="3036" y1="1903" y2="1903"/>
  <g id="" transform="matrix(1 0 0 1 263 1933)">
   <path d="M 9.24805 0.830078 C 13.5547 0.830078 17.1387 -2.74414 17.1387 -7.05078 C 17.1387 -11.3574 13.5449 -14.9316 9.23828 -14.9316 C 4.94141 -14.9316 1.36719 -11.3574 1.36719 -7.05078 C 1.36719 -2.74414 4.95117 0.830078 9.24805 0.830078 Z M 9.24805 -0.654297 C 5.70312 -0.654297 2.87109 -3.49609 2.87109 -7.05078 C 2.87109 -10.6055 5.69336 -13.4473 9.23828 -13.4473 C 12.793 -13.4473 15.6348 -10.6055 15.6445 -7.05078 C 15.6543 -3.49609 12.8027 -0.654297 9.24805 -0.654297 Z M 9.22852 -3.42773 C 9.69727 -3.42773 9.9707 -3.74023 9.9707 -4.25781 L 9.9707 -6.31836 L 12.1973 -6.31836 C 12.6953 -6.31836 13.0371 -6.57227 13.0371 -7.04102 C 13.0371 -7.51953 12.7148 -7.7832 12.1973 -7.7832 L 9.9707 -7.7832 L 9.9707 -10.0098 C 9.9707 -10.5273 9.69727 -10.8496 9.22852 -10.8496 C 8.75977 -10.8496 8.50586 -10.5078 8.50586 -10.0098 L 8.50586 -7.7832 L 6.29883 -7.7832 C 5.78125 -7.7832 5.44922 -7.51953 5.44922 -7.04102 C 5.44922 -6.57227 5.80078 -6.31836 6.29883 -6.31836 L 8.50586 -6.31836 L 8.50586 -4.25781 C 8.50586 -3.75977 8.75977 -3.42773 9.22852 -3.42773 Z"/>
  </g>
  <g id="" transform="matrix(1 0 0 1 281.506 1933)">
   <path d="M 11.709 2.91016 C 17.1582 2.91016 21.6699 -1.60156 21.6699 -7.05078 C 21.6699 -12.4902 17.1484 -17.0117 11.6992 -17.0117 C 6.25977 -17.0117 1.74805 -12.4902 1.74805 -7.05078 C 1.74805 -1.60156 6.26953 2.91016 11.709 2.91016 Z M 11.709 1.25 C 7.09961 1.25 3.41797 -2.44141 3.41797 -7.05078 C 3.41797 -11.6504 7.08984 -15.3516 11.6992 -15.3516 C 16.3086 -15.3516 20 -11.6504 20.0098 -7.05078 C 20.0195 -2.44141 16.3184 1.25 11.709 1.25 Z M 11.6895 -2.41211 C 12.207 -2.41211 12.5195 -2.77344 12.5195 -3.33984 L 12.5195 -6.23047 L 15.5762 -6.23047 C 16.123 -6.23047 16.5039 -6.51367 16.5039 -7.03125 C 16.5039 -7.55859 16.1426 -7.86133 15.5762 -7.86133 L 12.5195 -7.86133 L 12.5195 -10.9277 C 12.5195 -11.5039 12.207 -11.8555 11.6895 -11.8555 C 11.1719 -11.8555 10.8789 -11.4844 10.8789 -10.9277 L 10.8789 -7.86133 L 7.83203 -7.86133 C 7.26562 -7.86133 6.89453 -7.55859 6.89453 -7.03125 C 6.89453 -6.51367 7.28516 -6.23047 7.83203 -6.23047 L 10.8789 -6.23047 L 10.8789 -3.33984 C 10.8789 -2.79297 11.1719 -2.41211 11.6895 -2.41211 Z"/>
  </g>
  <g id="" transform="matrix(1 0 0 1 304.924 1933)">
   <path d="M 14.9707 5.67383 C 21.9336 5.67383 27.6953 -0.078125 27.6953 -7.04102 C 27.6953 -14.0039 21.9238 -19.7559 14.9609 -19.7559 C 8.00781 -19.7559 2.25586 -14.0039 2.25586 -7.04102 C 2.25586 -0.078125 8.01758 5.67383 14.9707 5.67383 Z M 14.9707 3.85742 C 8.93555 3.85742 4.08203 -1.00586 4.08203 -7.04102 C 4.08203 -13.0762 8.92578 -17.9395 14.9609 -17.9395 C 21.0059 -17.9395 25.8594 -13.0762 25.8691 -7.04102 C 25.8789 -1.00586 21.0156 3.85742 14.9707 3.85742 Z M 14.9512 -1.06445 C 15.5176 -1.06445 15.8691 -1.45508 15.8691 -2.06055 L 15.8691 -6.13281 L 20.1074 -6.13281 C 20.6934 -6.13281 21.1133 -6.46484 21.1133 -7.02148 C 21.1133 -7.59766 20.7227 -7.93945 20.1074 -7.93945 L 15.8691 -7.93945 L 15.8691 -12.1875 C 15.8691 -12.8027 15.5176 -13.1934 14.9512 -13.1934 C 14.3848 -13.1934 14.0625 -12.7832 14.0625 -12.1875 L 14.0625 -7.93945 L 9.83398 -7.93945 C 9.21875 -7.93945 8.80859 -7.59766 8.80859 -7.02148 C 8.80859 -6.46484 9.23828 -6.13281 9.83398 -6.13281 L 14.0625 -6.13281 L 14.0625 -2.06055 C 14.0625 -1.47461 14.3848 -1.06445 14.9512 -1.06445 Z"/>
  </g>
  <text style="stroke:none;fill:black;font-family:-apple-system,&quot;SF Pro Display&quot;,&quot;SF Pro Text&quot;,Helvetica,sans-serif;font-weight:bold;" transform="matrix(1 0 0 1 263 1953)">Design Variations</text>
  <text style="stroke:none;fill:black;font-family:-apple-system,&quot;SF Pro Display&quot;,&quot;SF Pro Text&quot;,Helvetica,sans-serif;" transform="matrix(1 0 0 1 263 1971)">Symbols are supported in up to nine weights and three scales.</text>
  <text style="stroke:none;fill:black;font-family:-apple-system,&quot;SF Pro Display&quot;,&quot;SF Pro Text&quot;,Helvetica,sans-serif;" transform="matrix(1 0 0 1 263 1989)">For optimal layout with text and other symbols, vertically align</text>
  <text style="stroke:none;fill:black;font-family:-apple-system,&quot;SF Pro Display&quot;,&quot;SF Pro Text&quot;,Helvetica,sans-serif;" transform="matrix(1 0 0 1 263 2007)">symbols with the adjacent text.</text>
  <rect height="14" id="" style="fill:#00AEEF;stroke:none;opacity:0.4;" width="3" x="776" y="1919"/>
  <g id="" transform="matrix(1 0 0 1 779 1933)">
   <path d="M 10.5273 0 L 12.373 0 L 7.17773 -14.0918 L 5.43945 -14.0918 L 0.244141 0 L 2.08984 0 L 3.50586 -4.0332 L 9.11133 -4.0332 Z M 6.2793 -11.9531 L 6.33789 -11.9531 L 8.59375 -5.52734 L 4.02344 -5.52734 Z"/>
  </g>
  <rect height="14" id="" style="fill:#00AEEF;stroke:none;opacity:0.4;" width="3" x="791.617" y="1919"/>
  <text style="stroke:none;fill:black;font-family:-apple-system,&quot;SF Pro Display&quot;,&quot;SF Pro Text&quot;,Helvetica,sans-serif;font-weight:bold;" transform="matrix(1 0 0 1 776 1953)">Margins</text>
  <text style="stroke:none;fill:black;font-family:-apple-system,&quot;SF Pro Display&quot;,&quot;SF Pro Text&quot;,Helvetica,sans-serif;" transform="matrix(1 0 0 1 776 1971)">Leading and trailing margins on the left and right side of each symbol</text>
  <text style="stroke:none;fill:black;font-family:-apple-system,&quot;SF Pro Display&quot;,&quot;SF Pro Text&quot;,Helvetica,sans-serif;" transform="matrix(1 0 0 1 776 1989)">can be adjusted by modifying the width of the blue rectangles.</text>
  <text style="stroke:none;fill:black;font-family:-apple-system,&quot;SF Pro Display&quot;,&quot;SF Pro Text&quot;,Helvetica,sans-serif;" transform="matrix(1 0 0 1 776 2007)">Modifications are automatically applied proportionally to all</text>
  <text style="stroke:none;fill:black;font-family:-apple-system,&quot;SF Pro Display&quot;,&quot;SF Pro Text&quot;,Helvetica,sans-serif;" transform="matrix(1 0 0 1 776 2025)">scales and weights.</text>
  <g id="" transform="matrix(1 0 0 1 1289 1933)">
   <path d="M 2.83203 3.11523 L 4.375 4.6582 C 5.22461 5.48828 6.19141 5.41992 7.06055 4.46289 L 17.2754 -6.66016 C 17.7051 -6.36719 18.0957 -6.37695 18.5645 -6.47461 L 19.6094 -6.68945 L 20.3027 -5.99609 L 20.2539 -5.47852 C 20.1855 -4.95117 20.3516 -4.53125 20.8496 -4.0332 L 21.6602 -3.22266 C 22.168 -2.71484 22.8223 -2.68555 23.3008 -3.16406 L 26.5527 -6.41602 C 27.0312 -6.89453 27.0117 -7.54883 26.5039 -8.05664 L 25.6836 -8.87695 C 25.1855 -9.375 24.7754 -9.55078 24.2383 -9.47266 L 23.7109 -9.41406 L 23.0566 -10.0781 L 23.3398 -11.2207 C 23.4863 -11.7871 23.3398 -12.2559 22.7148 -12.8613 L 20.3027 -15.2539 C 16.7578 -18.7793 12.2266 -18.6719 9.11133 -15.5371 C 8.69141 -15.1074 8.64258 -14.5215 8.91602 -14.0918 C 9.15039 -13.7207 9.62891 -13.4961 10.2734 -13.6621 C 11.7871 -14.043 13.3008 -13.9258 14.7852 -12.9199 L 14.1602 -11.3379 C 13.9258 -10.752 13.9453 -10.2734 14.1797 -9.83398 L 3.01758 0.439453 C 2.08008 1.30859 1.97266 2.25586 2.83203 3.11523 Z M 10.6738 -15.1465 C 13.3398 -17.1387 16.6504 -16.8262 19.0527 -14.4141 L 21.6797 -11.8066 C 21.9141 -11.5723 21.9434 -11.3867 21.8848 -11.0938 L 21.5039 -9.53125 L 23.0762 -7.95898 L 24.043 -8.04688 C 24.3262 -8.07617 24.4141 -8.05664 24.6387 -7.83203 L 25.2637 -7.20703 L 22.5098 -4.46289 L 21.8848 -5.07812 C 21.6602 -5.30273 21.6406 -5.40039 21.6699 -5.68359 L 21.7578 -6.64062 L 20.1953 -8.20312 L 18.5742 -7.89062 C 18.291 -7.83203 18.1445 -7.83203 17.9102 -8.07617 L 15.7324 -10.2539 C 15.5078 -10.4883 15.4785 -10.625 15.6055 -10.9473 L 16.5527 -13.2227 C 14.9512 -14.7559 12.8418 -15.6055 10.8008 -14.9512 C 10.7129 -14.9219 10.6445 -14.9414 10.6152 -14.9805 C 10.5859 -15.0293 10.5859 -15.0781 10.6738 -15.1465 Z M 4.10156 2.41211 C 3.61328 1.91406 3.78906 1.61133 4.12109 1.30859 L 15.0781 -8.80859 L 16.3086 -7.57812 L 6.15234 3.34961 C 5.84961 3.68164 5.46875 3.7793 5.06836 3.37891 Z"/>
  </g>
  <text style="stroke:none;fill:black;font-family:-apple-system,&quot;SF Pro Display&quot;,&quot;SF Pro Text&quot;,Helvetica,sans-serif;font-weight:bold;" transform="matrix(1 0 0 1 1289 1953)">Exporting</text>
  <text style="stroke:none;fill:black;font-family:-apple-system,&quot;SF Pro Display&quot;,&quot;SF Pro Text&quot;,Helvetica,sans-serif;" transform="matrix(1 0 0 1 1289 1971)">Symbols should be outlined when exporting to ensure the</text>
  <text style="stroke:none;fill:black;font-family:-apple-system,&quot;SF Pro Display&quot;,&quot;SF Pro Text&quot;,Helvetica,sans-serif;" transform="matrix(1 0 0 1 1289 1989)">design is preserved when submitting to Xcode.</text>
  <text id="template-version" style="stroke:none;fill:black;font-family:-apple-system,&quot;SF Pro Display&quot;,&quot;SF Pro Text&quot;,Helvetica,sans-serif;text-anchor:end;" transform="matrix(1 0 0 1 3036 1933)">Template v.1.0</text>
  <text style="stroke:none;fill:black;font-family:-apple-system,&quot;SF Pro Display&quot;,&quot;SF Pro Text&quot;,Helvetica,sans-serif;text-anchor:end;" transform="matrix(1 0 0 1 3036 1951)">Generated from paintbrush</text>
  <text style="stroke:none;fill:black;font-family:-apple-system,&quot;SF Pro Display&quot;,&quot;SF Pro Text&quot;,Helvetica,sans-serif;text-anchor:end;" transform="matrix(1 0 0 1 3036 1969)">Typeset at 100 points</text>
  <text style="stroke:none;fill:black;font-family:-apple-system,&quot;SF Pro Display&quot;,&quot;SF Pro Text&quot;,Helvetica,sans-serif;" transform="matrix(1 0 0 1 263 726)">Small</text>
  <text style="stroke:none;fill:black;font-family:-apple-system,&quot;SF Pro Display&quot;,&quot;SF Pro Text&quot;,Helvetica,sans-serif;" transform="matrix(1 0 0 1 263 1156)">Medium</text>
  <text style="stroke:none;fill:black;font-family:-apple-system,&quot;SF Pro Display&quot;,&quot;SF Pro Text&quot;,Helvetica,sans-serif;" transform="matrix(1 0 0 1 263 1586)">Large</text>
 </g>
 <g id="Guides">
  <g id="H-reference" style="fill:#27AAE1;stroke:none;" transform="matrix(1 0 0 1 339 696)">
   <path d="M 54.9316 0 L 57.666 0 L 30.5664 -70.459 L 28.0762 -70.459 L 0.976562 0 L 3.66211 0 L 12.9395 -24.4629 L 45.7031 -24.4629 Z M 29.1992 -67.0898 L 29.4434 -67.0898 L 44.8242 -26.709 L 13.8184 -26.709 Z"/>
  </g>
  <line id="Baseline-S" style="fill:none;stroke:#27AAE1;opacity:1;stroke-width:0.577;" x1="263" x2="3036" y1="696" y2="696"/>
  <line id="Capline-S" style="fill:none;stroke:#27AAE1;opacity:1;stroke-width:0.577;" x1="263" x2="3036" y1="625.541" y2="625.541"/>
  <g id="H-reference" style="fill:#27AAE1;stroke:none;" transform="matrix(1 0 0 1 339 1126)">
   <path d="M 54.9316 0 L 57.666 0 L 30.5664 -70.459 L 28.0762 -70.459 L 0.976562 0 L 3.66211 0 L 12.9395 -24.4629 L 45.7031 -24.4629 Z M 29.1992 -67.0898 L 29.4434 -67.0898 L 44.8242 -26.709 L 13.8184 -26.709 Z"/>
  </g>
  <line id="Baseline-M" style="fill:none;stroke:#27AAE1;opacity:1;stroke-width:0.577;" x1="263" x2="3036" y1="1126" y2="1126"/>
  <line id="Capline-M" style="fill:none;stroke:#27AAE1;opacity:1;stroke-width:0.577;" x1="263" x2="3036" y1="1055.54" y2="1055.54"/>
  <g id="H-reference" style="fill:#27AAE1;stroke:none;" transform="matrix(1 0 0 1 339 1556)">
   <path d="M 54.9316 0 L 57.666 0 L 30.5664 -70.459 L 28.0762 -70.459 L 0.976562 0 L 3.66211 0 L 12.9395 -24.4629 L 45.7031 -24.4629 Z M 29.1992 -67.0898 L 29.4434 -67.0898 L 44.8242 -26.709 L 13.8184 -26.709 Z"/>
  </g>
  <line id="Baseline-L" style="fill:none;stroke:#27AAE1;opacity:1;stroke-width:0.577;" x1="263" x2="3036" y1="1556" y2="1556"/>
  <line id="Capline-L" style="fill:none;stroke:#27AAE1;opacity:1;stroke-width:0.577;" x1="263" x2="3036" y1="1485.54" y2="1485.54"/>
  <rect height="119.336" id="left-margin" style="fill:#00AEEF;stroke:none;opacity:0.4;" width="11.2358" x="1386.47" y="1030.79"/>
  <rect height="119.336" id="right-margin" style="fill:#00AEEF;stroke:none;opacity:0.4;" width="11.2407" x="1501.98" y="1030.79"/>
 </g>
 <g id="Symbols">
  <g id="Black-L" transform="matrix(1 0 0 1 2848.17 1556)">
   <path d="M 33.252 -46.7773 C 26.6602 -40.2344 27.002 -30.8594 34.082 -23.6816 L 42.8711 -14.7461 C 36.7676 -11.2305 27.832 -7.27539 22.4609 -1.80664 C 11.6699 9.13086 11.7676 24.0234 22.8027 35.1074 C 33.8867 46.2402 48.9258 46.3867 59.7168 35.4004 C 65.0879 29.9805 69.1406 21.1426 72.6562 15.0879 L 81.5918 23.877 C 88.7207 30.9082 98.1445 31.2988 104.688 24.6582 L 112.012 17.1387 C 116.553 12.5 117.822 6.54297 115.771 1.02539 C 117.773 0 119.775 -1.46484 121.631 -3.32031 L 149.805 -31.4941 C 158.301 -39.9414 158.057 -50.3418 149.268 -59.1797 L 97.9004 -110.547 C 91.7969 -116.748 83.3008 -116.26 77.6367 -110.791 C 75.3418 -108.545 73.6328 -105.42 72.7539 -101.465 C 69.5312 -86.9141 62.9395 -72.3633 55.7129 -62.6465 C 54.7363 -61.3281 53.9551 -60.0098 53.418 -58.6914 C 48.9258 -59.2773 44.4336 -57.7637 40.7227 -54.1016 Z M 110.01 -16.4551 C 106.885 -13.3301 104.492 -12.5977 101.367 -15.7227 L 72.3633 -44.7266 L 72.3633 -44.7754 C 68.7012 -48.3887 69.4336 -51.416 72.0215 -55.4199 C 76.9531 -62.9883 83.7402 -75.8301 87.6465 -89.0625 C 87.8906 -89.7949 88.2324 -90.3809 88.6719 -90.8203 C 89.6484 -91.7969 90.918 -91.8945 92.1387 -90.625 L 119.678 -63.1348 C 116.943 -53.4668 109.424 -44.1895 103.516 -38.2812 C 102.832 -37.6465 101.953 -36.7676 103.027 -35.6934 C 105.957 -32.7637 122.559 -44.1406 131.445 -51.3184 L 134.082 -48.7305 C 136.768 -46.0449 136.914 -43.2617 134.375 -40.8203 Z M 46.7773 -36.5723 L 50.9277 -40.6738 C 51.9043 -41.6016 53.125 -41.6016 54.1504 -40.5762 L 98.4863 3.80859 C 99.4141 4.78516 99.5117 6.00586 98.5352 7.03125 L 94.5312 11.1328 C 93.5547 12.1582 92.2363 12.1582 91.1621 11.1328 L 75.5859 -4.49219 C 72.4609 -7.61719 68.6523 -6.73828 65.3809 -2.58789 C 61.377 2.44141 52.9785 19.7266 48.7793 23.877 C 44.1406 28.4668 38.3301 28.5645 33.8379 24.0723 C 29.3457 19.5312 29.4922 13.7207 34.0332 9.13086 C 38.2324 4.98047 55.4688 -3.4668 60.498 -7.4707 C 64.5996 -10.791 65.4785 -14.5508 62.4023 -17.6758 L 46.8262 -33.252 C 45.8008 -34.2773 45.8008 -35.5957 46.7773 -36.5723 Z M 36.6211 21.2891 C 38.7207 23.4375 41.7969 23.3887 43.75 21.2891 C 45.8008 19.0918 45.8496 16.1621 43.75 14.1602 C 41.6504 12.1094 38.5742 11.9629 36.6211 14.1602 C 34.668 16.2598 34.5703 19.2383 36.6211 21.2891 Z"/>
  </g>
  <g id="Heavy-L" transform="matrix(1 0 0 1 2552.41 1556)">
   <path d="M 33.3008 -46.1426 C 27.002 -39.9414 27.3438 -31.25 34.082 -24.4141 L 43.8965 -14.502 C 37.6953 -10.8398 27.6367 -6.49414 22.1191 -0.927734 C 11.8164 9.52148 11.8652 23.7305 22.4609 34.3262 C 33.0566 44.9707 47.3633 45.1172 57.7148 34.668 C 63.2324 29.1016 67.627 19.0918 71.2891 12.9395 L 81.25 22.7539 C 88.0371 29.4434 96.7773 29.834 102.979 23.4863 L 110.107 16.2598 C 114.551 11.7188 115.674 5.95703 113.477 0.585938 C 115.625 -0.341797 117.676 -1.75781 119.58 -3.71094 L 148.193 -32.373 C 156.25 -40.4297 156.055 -50.1953 147.656 -58.5938 L 96.6309 -109.668 C 90.918 -115.43 83.0566 -115.137 77.832 -110.059 C 75.6348 -107.91 74.0234 -104.932 73.1445 -101.074 C 69.9219 -86.2793 63.3301 -71.7773 55.6641 -61.6699 C 54.6387 -60.3027 53.8086 -58.9355 53.2715 -57.5195 C 48.8281 -58.3984 44.2871 -56.9824 40.5273 -53.2715 Z M 108.936 -14.8438 C 105.859 -11.7676 103.369 -11.4258 100.391 -14.4043 L 70.1172 -44.6289 L 70.166 -44.6289 C 66.748 -48.0469 67.041 -50.9766 69.873 -55.2246 C 75.4883 -63.5254 82.373 -76.6113 86.4258 -90.7715 C 86.6211 -91.5527 87.0117 -92.1875 87.5 -92.6758 C 88.5254 -93.7012 89.8438 -93.8477 91.1621 -92.5293 L 119.531 -64.1602 C 117.09 -54.3457 109.375 -44.873 103.369 -38.8672 C 102.734 -38.2324 101.855 -37.3535 102.93 -36.3281 C 105.908 -33.3496 122.852 -45.1172 131.494 -52.1973 L 134.521 -49.1699 C 137.402 -46.2891 137.5 -43.3594 134.863 -40.7715 Z M 45.3125 -37.1582 L 49.5605 -41.3086 C 50.8301 -42.5781 52.3926 -42.5781 53.7598 -41.2109 L 97.998 3.125 C 99.3164 4.44336 99.3652 5.95703 98.0957 7.27539 L 93.9941 11.4746 C 92.7246 12.8418 91.0645 12.793 89.7461 11.4258 L 74.0234 -4.29688 C 71.1426 -7.17773 67.7246 -6.29883 64.7461 -2.49023 C 60.4492 3.17383 52.3438 20.166 47.998 24.4141 C 43.1641 29.1992 36.9629 29.2969 32.2266 24.5605 C 27.4902 19.8242 27.5879 13.5742 32.373 8.78906 C 36.6699 4.49219 53.6133 -3.66211 59.2773 -7.95898 C 63.0859 -10.9863 63.916 -14.3555 61.084 -17.2363 L 45.4102 -32.9102 C 44.0918 -34.2285 44.043 -35.8398 45.3125 -37.1582 Z M 35.4004 21.4355 C 37.4512 23.5352 40.5762 23.4863 42.5293 21.4355 C 44.5801 19.2383 44.5801 16.3086 42.5293 14.3066 C 40.4785 12.2559 37.3535 12.1582 35.4004 14.3066 C 33.4961 16.4062 33.3496 19.3359 35.4004 21.4355 Z"/>
  </g>
  <g id="Bold-L" transform="matrix(1 0 0 1 2256.75 1556)">
   <path d="M 33.3496 -45.5078 C 27.4414 -39.6484 27.7344 -31.6895 34.082 -25.293 L 45.0684 -14.209 C 38.6719 -10.4004 27.3926 -5.61523 21.7285 0.0488281 C 11.9141 9.96094 12.0117 23.4375 22.0703 33.4961 C 32.1289 43.6035 45.6543 43.7012 55.4688 33.7891 C 61.1328 28.125 65.9668 16.8457 69.7754 10.5469 L 80.9082 21.5332 C 87.2559 27.832 95.2637 28.1738 101.123 22.2168 L 107.959 15.2344 C 112.305 10.791 113.33 5.27344 110.889 0.0976562 C 113.184 -0.732422 115.332 -2.14844 117.285 -4.10156 L 146.436 -33.3496 C 154.004 -40.9668 153.809 -50.0488 145.898 -57.959 L 95.166 -108.691 C 89.8926 -113.965 82.7637 -113.916 77.9785 -109.229 C 75.9766 -107.227 74.4141 -104.346 73.6328 -100.684 C 70.3613 -85.5957 63.7207 -71.0449 55.6152 -60.6445 C 54.4922 -59.1309 53.6621 -57.666 53.125 -56.1523 C 48.6816 -57.373 44.0918 -56.1523 40.332 -52.3926 Z M 107.764 -13.0371 C 104.736 -9.96094 102.1 -10.1074 99.2188 -12.9395 L 67.6758 -44.4824 L 67.7246 -44.5312 C 64.5508 -47.6074 64.4043 -50.5371 67.4805 -54.9805 C 73.8281 -64.0625 80.8594 -77.4902 85.0586 -92.7246 C 85.2539 -93.5547 85.6445 -94.2383 86.1816 -94.7754 C 87.2559 -95.8496 88.623 -96.0449 90.0391 -94.6289 L 119.434 -65.2832 C 117.236 -55.3223 109.375 -45.6055 103.271 -39.502 C 102.637 -38.8672 101.758 -38.0371 102.783 -37.0117 C 105.811 -33.9844 123.242 -46.2402 131.592 -53.125 L 135.059 -49.6582 C 138.086 -46.6309 138.232 -43.457 135.449 -40.7227 Z M 43.75 -37.793 L 48.0469 -42.041 C 49.6582 -43.6523 51.6113 -43.6523 53.2715 -41.9434 L 97.5098 2.34375 C 99.1699 4.05273 99.2188 5.9082 97.6074 7.56836 L 93.457 11.8652 C 91.8457 13.5254 89.7949 13.4766 88.1348 11.7676 L 72.3145 -4.05273 C 69.7266 -6.64062 66.6992 -5.85938 64.0137 -2.39258 C 59.4238 4.05273 51.6113 20.6055 47.168 25 C 42.0898 30.0293 35.4492 30.127 30.4199 25.1465 C 25.4395 20.1172 25.4883 13.4277 30.5176 8.34961 C 34.9121 3.95508 51.4648 -3.85742 57.959 -8.49609 C 61.377 -11.1816 62.207 -14.1602 59.6191 -16.748 L 43.8477 -32.5195 C 42.1387 -34.1797 42.1387 -36.1816 43.75 -37.793 Z M 34.0332 21.5332 C 36.084 23.6328 39.209 23.584 41.1621 21.5332 C 43.1641 19.3848 43.1641 16.4062 41.1621 14.4531 C 39.1113 12.4512 35.9863 12.3535 34.0332 14.4531 C 32.1289 16.5039 32.0312 19.4824 34.0332 21.5332 Z"/>
  </g>
  <g id="Semibold-L" transform="matrix(1 0 0 1 1960.77 1556)">
   <path d="M 33.3984 -45.0195 C 27.7344 -39.4043 28.0273 -31.9824 34.082 -25.8789 L 45.8496 -14.0137 C 39.3555 -10.1074 27.2461 -5.0293 21.4844 0.732422 C 12.0117 10.2539 12.1094 23.1934 21.7773 32.9102 C 31.4941 42.627 44.4824 42.7246 53.9551 33.2031 C 59.7168 27.4414 64.7949 15.332 68.7012 8.88672 L 80.6641 20.7031 C 86.7188 26.709 94.2383 27.002 99.8047 21.3379 L 106.494 14.5508 C 110.791 10.1562 111.67 4.73633 109.082 -0.244141 C 111.475 -0.976562 113.672 -2.39258 115.674 -4.39453 L 145.215 -34.0332 C 152.441 -41.3086 152.295 -49.9512 144.678 -57.5195 L 94.1406 -108.057 C 89.2578 -112.988 82.6172 -113.086 78.125 -108.643 C 76.1719 -106.738 74.707 -103.955 73.9258 -100.342 C 70.6543 -85.1074 64.0137 -70.6055 55.5664 -59.9121 C 54.3457 -58.3008 53.5156 -56.7383 52.9785 -55.1758 C 48.584 -56.6406 43.9941 -55.5664 40.1855 -51.7578 Z M 106.934 -11.7676 C 103.955 -8.74023 101.221 -9.22852 98.4375 -11.9629 L 65.9668 -44.3848 L 66.0156 -44.4336 C 63.0859 -47.3633 62.5977 -50.1953 65.8203 -54.7852 C 72.7051 -64.4531 79.7852 -78.0762 84.1309 -94.043 C 84.3262 -94.873 84.7168 -95.6055 85.3027 -96.1914 C 86.377 -97.3145 87.793 -97.5586 89.3066 -96.0938 L 119.287 -66.1133 C 117.334 -56.0547 109.326 -46.0938 103.223 -39.9414 C 102.588 -39.3555 101.709 -38.4766 102.734 -37.4512 C 105.762 -34.4238 123.584 -47.0215 131.641 -53.7598 L 135.449 -49.9512 C 138.574 -46.875 138.721 -43.5547 135.84 -40.6738 Z M 42.627 -38.2324 L 46.9727 -42.5293 C 48.8281 -44.3848 51.0742 -44.3848 52.9785 -42.4316 L 97.168 1.85547 C 99.0723 3.75977 99.1211 5.9082 97.3145 7.76367 L 93.0176 12.1094 C 91.2109 14.0137 88.9648 13.9648 87.0117 12.0117 L 71.0938 -3.90625 C 68.75 -6.25 65.9668 -5.51758 63.5254 -2.34375 C 58.7402 4.63867 51.123 20.9473 46.582 25.4395 C 41.3574 30.6152 34.375 30.7129 29.1992 25.4883 C 23.9746 20.3125 24.0234 13.3301 29.248 8.10547 C 33.7402 3.61328 50.0488 -4.00391 57.0312 -8.83789 C 60.2051 -11.2793 60.9863 -14.0625 58.5938 -16.4062 L 42.7246 -32.2266 C 40.8203 -34.1309 40.7715 -36.377 42.627 -38.2324 Z M 33.1055 21.6309 C 35.1562 23.6816 38.2324 23.6328 40.1855 21.6309 C 42.2363 19.4824 42.1875 16.5039 40.1855 14.5508 C 38.1836 12.5488 35.0586 12.4512 33.1055 14.5508 C 31.2012 16.6016 31.1035 19.5801 33.1055 21.6309 Z"/>
  </g>
  <g id="Medium-L" transform="matrix(1 0 0 1 1664.62 1556)">
   <path d="M 33.4473 -44.6777 C 27.9297 -39.2578 28.2227 -32.2266 34.082 -26.3184 L 46.4355 -13.8672 C 39.8926 -9.91211 27.1484 -4.58984 21.2891 1.26953 C 12.1094 10.498 12.1582 23.0469 21.582 32.4707 C 31.0059 41.8945 43.5547 41.9922 52.7832 32.7637 C 58.6426 26.9043 63.916 14.1602 67.9199 7.61719 L 80.4688 20.0684 C 86.3281 25.8789 93.4082 26.123 98.8281 20.6543 L 105.371 14.0137 C 109.619 9.66797 110.4 4.3457 107.666 -0.537109 C 110.156 -1.2207 112.451 -2.63672 114.453 -4.63867 L 144.287 -34.5703 C 151.27 -41.6016 151.123 -49.8535 143.799 -57.1777 L 93.4082 -107.52 C 88.7207 -112.207 82.4707 -112.451 78.2227 -108.203 C 76.3184 -106.348 74.9023 -103.662 74.1699 -100.146 C 70.8984 -84.7168 64.209 -70.2148 55.5176 -59.3262 C 54.248 -57.666 53.3691 -56.0547 52.8809 -54.3945 C 48.4863 -56.1035 43.9453 -55.127 40.0879 -51.2695 Z M 106.348 -10.8398 C 103.32 -7.8125 100.537 -8.54492 97.8516 -11.1816 L 64.6973 -44.3359 L 64.7461 -44.3848 C 61.9141 -47.1191 61.2305 -49.9512 64.5996 -54.6875 C 71.875 -64.7461 79.0039 -78.5156 83.3984 -95.0684 C 83.5938 -95.8984 83.9844 -96.6797 84.6191 -97.2656 C 85.7422 -98.4375 87.207 -98.7305 88.7207 -97.2168 L 119.189 -66.6992 C 117.432 -56.5918 109.326 -46.4844 103.125 -40.2832 C 102.539 -39.6973 101.66 -38.8184 102.637 -37.8418 C 105.713 -34.7656 123.828 -47.6074 131.641 -54.2969 L 135.693 -50.2441 C 138.965 -47.0215 139.062 -43.6035 136.133 -40.6738 Z M 41.7969 -38.5742 L 46.1914 -42.9199 C 48.1934 -44.9219 50.6348 -44.9219 52.7344 -42.8223 L 96.9238 1.41602 C 98.9746 3.56445 99.0234 5.85938 97.0215 7.91016 L 92.7246 12.3047 C 90.7227 14.4043 88.2812 14.3066 86.1816 12.207 L 70.2148 -3.75977 C 67.9688 -6.00586 65.4297 -5.27344 63.1836 -2.29492 C 58.1543 5.12695 50.7324 21.1914 46.1426 25.7324 C 40.7715 31.0547 33.5938 31.1523 28.2227 25.7812 C 22.9004 20.459 22.9492 13.2324 28.2715 7.86133 C 32.8125 3.32031 48.9258 -4.10156 56.3477 -9.13086 C 59.2773 -11.377 60.0586 -13.916 57.8125 -16.1621 L 41.8945 -32.0312 C 39.7949 -34.082 39.7949 -36.5723 41.7969 -38.5742 Z M 32.4219 21.6797 C 34.4238 23.7305 37.5 23.6816 39.4531 21.6797 C 41.5039 19.5801 41.4551 16.6016 39.4531 14.6484 C 37.4512 12.6465 34.3262 12.5488 32.4219 14.6484 C 30.5176 16.6992 30.3711 19.6289 32.4219 21.6797 Z"/>
  </g>
  <g id="Regular-L" transform="matrix(1 0 0 1 1368.64 1556)">
   <path d="M 33.4473 -44.2383 C 28.2227 -39.0137 28.4668 -32.5195 34.082 -26.9043 L 47.2656 -13.7207 C 40.5762 -9.61914 26.9531 -4.00391 20.9961 1.95312 C 12.207 10.791 12.2559 22.8027 21.2891 31.8848 C 30.3711 40.9668 42.3828 41.0156 51.2695 32.1777 C 57.2266 26.2207 62.793 12.5977 66.8945 6.00586 L 80.2246 19.2383 C 85.791 24.7559 92.3828 25 97.5586 19.7754 L 103.906 13.3301 C 108.154 9.0332 108.789 3.80859 105.811 -0.927734 C 108.398 -1.46484 110.889 -2.88086 112.891 -4.93164 L 143.066 -35.2539 C 149.707 -41.9434 149.609 -49.7559 142.578 -56.7383 L 92.3828 -106.885 C 88.0371 -111.23 82.2754 -111.621 78.3203 -107.617 C 76.5625 -105.859 75.1953 -103.271 74.4629 -99.8535 C 71.1914 -84.2773 64.502 -69.7266 55.4688 -58.6426 C 54.1016 -56.8359 53.1738 -55.0781 52.7344 -53.2715 C 48.3887 -55.3711 43.8477 -54.541 39.9414 -50.6836 Z M 105.518 -9.57031 C 102.539 -6.5918 99.6582 -7.61719 97.1191 -10.2051 L 63.0371 -44.2383 L 63.0371 -44.2871 C 60.4492 -46.875 59.4238 -49.6094 62.9883 -54.541 C 70.752 -65.0879 77.9297 -79.1504 82.4707 -96.3867 C 82.666 -97.2656 83.0566 -98.0469 83.6914 -98.6816 C 84.8633 -99.8535 86.377 -100.244 87.9395 -98.6328 L 119.092 -67.5293 C 117.529 -57.2754 109.326 -47.0215 103.076 -40.7227 C 102.441 -40.1367 101.611 -39.2578 102.588 -38.2812 C 105.664 -35.2051 124.17 -48.4375 131.689 -54.9316 L 136.084 -50.5371 C 139.404 -47.2168 139.551 -43.7012 136.475 -40.625 Z M 40.6738 -39.0137 L 45.1172 -43.457 C 47.3633 -45.7031 50.0977 -45.6543 52.3926 -43.3105 L 96.582 0.927734 C 98.877 3.27148 98.9258 5.85938 96.7285 8.10547 L 92.334 12.5977 C 90.0879 14.8926 87.4023 14.7949 85.0586 12.4512 L 69.043 -3.61328 C 66.9922 -5.61523 64.6973 -4.93164 62.6953 -2.19727 C 57.4707 5.71289 50.2441 21.5332 45.6055 26.1719 C 40.0391 31.5918 32.5684 31.7383 27.002 26.1719 C 21.4844 20.6543 21.5332 13.1348 27.002 7.61719 C 31.6406 2.97852 47.5098 -4.24805 55.4199 -9.47266 C 58.1543 -11.5234 58.8867 -13.8184 56.7871 -15.8203 L 40.8203 -31.7383 C 38.4766 -34.0332 38.4766 -36.7676 40.6738 -39.0137 Z M 31.4941 21.7773 C 33.4961 23.7793 36.5723 23.7793 38.5254 21.7773 C 40.5273 19.6777 40.4785 16.6992 38.5254 14.7461 C 36.5234 12.7441 33.3984 12.6953 31.4941 14.7461 C 29.5898 16.7969 29.4434 19.7266 31.4941 21.7773 Z"/>
  </g>
  <g id="Light-L" transform="matrix(1 0 0 1 1072.64 1556)">
   <path d="M 34.0332 -43.9941 C 29.0039 -38.9648 29.1504 -33.1055 34.5703 -27.7344 L 48.7305 -13.4766 C 41.7969 -9.375 26.5625 -2.97852 20.6055 2.92969 C 12.3535 11.1816 12.3535 22.6074 20.8984 31.1523 C 29.3945 39.6973 40.7715 39.6973 49.0723 31.3965 C 55.0293 25.4395 61.4258 10.2051 65.5273 3.27148 L 79.8828 17.5781 C 85.2051 22.9004 91.1621 23.0469 96.1426 18.0664 L 102.002 12.1582 C 106.104 8.00781 106.738 3.22266 103.809 -1.31836 C 106.25 -1.61133 108.594 -2.7832 110.547 -4.73633 L 141.895 -36.4258 C 148.193 -42.7246 148.096 -49.9023 141.406 -56.543 L 91.9434 -105.908 C 87.8418 -110.01 82.6172 -110.352 79.0527 -106.787 C 77.4414 -105.176 76.123 -102.734 75.4883 -99.6094 C 72.4121 -84.082 66.0156 -69.6289 55.6152 -57.3242 C 54.248 -55.6152 53.2715 -53.8574 52.9297 -52.002 C 48.5352 -54.5898 43.9941 -53.9062 39.9414 -49.8535 Z M 105.225 -8.69141 C 101.758 -5.22461 98.291 -7.32422 95.8496 -9.76562 L 61.6211 -43.9941 C 58.7891 -46.8262 57.8613 -49.6582 61.4746 -54.2969 C 69.9219 -64.9414 77.0508 -78.418 81.7871 -97.3633 C 82.0801 -98.3887 82.5684 -99.4141 83.3008 -100.098 C 84.6191 -101.465 86.3281 -101.904 88.1348 -100.098 L 119.971 -68.2617 C 118.506 -58.3008 110.547 -48.3398 104.492 -42.2852 C 103.906 -41.6992 103.027 -40.8203 104.004 -39.8926 C 106.934 -36.9629 125 -49.8047 132.227 -56.0547 L 136.523 -51.7578 C 140.332 -47.998 140.479 -44.043 136.963 -40.5762 Z M 39.4531 -39.8926 L 44.043 -44.4824 C 46.6797 -47.1191 49.6094 -47.0703 52.3438 -44.2871 L 96.3867 -0.195312 C 99.1699 2.58789 99.2188 5.37109 96.582 8.05664 L 92.041 12.6465 C 89.3555 15.332 86.4746 15.2344 83.7891 12.5 L 67.4805 -3.80859 C 65.7227 -5.56641 63.6719 -5.07812 62.0117 -2.63672 C 55.957 7.08008 49.5117 21.9727 44.6777 26.7578 C 38.9648 32.4219 31.1035 32.5195 25.293 26.709 C 19.4824 20.9473 19.5312 12.9883 25.1953 7.32422 C 29.9805 2.53906 44.9219 -3.95508 54.6387 -10.0098 C 57.0801 -11.6699 57.6172 -13.7207 55.8105 -15.4785 L 39.6484 -31.6406 C 36.9141 -34.3262 36.8652 -37.207 39.4531 -39.8926 Z M 30.0781 21.9727 C 32.0312 23.9258 35.1074 23.9258 37.0117 21.9727 C 39.0137 19.9707 38.9648 16.9434 37.0117 14.9902 C 35.1074 13.0859 31.9336 13.0371 30.0781 14.9902 C 28.1738 16.9922 28.0762 19.9707 30.0781 21.9727 Z"/>
  </g>
  <g id="Thin-L" transform="matrix(1 0 0 1 776.881 1556)">
   <path d="M 34.8145 -43.7012 C 30.0293 -38.916 30.0293 -33.9355 35.2051 -28.8086 L 50.7324 -13.2324 C 43.457 -9.13086 26.0254 -1.66016 20.0684 4.24805 C 12.5977 11.7188 12.5 22.3145 20.3125 30.127 C 28.125 37.9395 38.6719 37.8906 46.1914 30.3711 C 52.0996 24.4141 59.5703 6.98242 63.6719 -0.292969 L 79.3945 15.4297 C 84.4727 20.459 89.5996 20.5078 94.2871 15.7715 L 99.4141 10.6445 C 103.369 6.68945 104.004 2.39258 101.123 -1.85547 C 103.32 -1.85547 105.518 -2.58789 107.422 -4.54102 L 140.381 -37.9395 C 146.143 -43.75 146.045 -50.1465 139.893 -56.25 L 91.4062 -104.688 C 87.5977 -108.447 83.1055 -108.74 79.9805 -105.615 C 78.5645 -104.199 77.3926 -102.051 76.9043 -99.2676 C 74.0234 -83.8379 67.9688 -69.4824 55.8105 -55.6641 C 54.3945 -54.0039 53.3691 -52.1484 53.125 -50.0488 C 48.6816 -53.5645 44.2871 -53.125 39.9414 -48.8281 Z M 104.785 -7.4707 C 100.684 -3.36914 96.4844 -6.93359 94.2383 -9.13086 L 59.7168 -43.6523 C 56.5918 -46.7773 55.8594 -49.707 59.5215 -54.0039 C 68.8477 -64.7461 75.8789 -77.4902 80.957 -98.6328 C 81.25 -99.9512 81.8359 -101.172 82.7148 -102.002 C 84.2773 -103.564 86.2793 -104.102 88.3789 -102.002 L 121.143 -69.2383 C 119.824 -59.7168 112.158 -50.0977 106.348 -44.2871 C 105.762 -43.75 104.98 -42.9199 105.859 -42.041 C 108.691 -39.209 126.074 -51.6113 132.91 -57.5195 L 137.109 -53.3691 C 141.504 -48.9746 141.65 -44.5312 137.646 -40.5273 Z M 37.793 -41.0156 L 42.5781 -45.8496 C 45.752 -49.0723 48.9746 -48.9258 52.2461 -45.6055 L 96.1914 -1.66016 C 99.5117 1.66016 99.6094 4.78516 96.4355 7.95898 L 91.6016 12.793 C 88.4277 15.9668 85.3027 15.8203 82.0312 12.5488 L 65.4297 -4.05273 C 64.0137 -5.46875 62.3535 -5.22461 61.084 -3.17383 C 53.9551 8.88672 48.4863 22.5586 43.457 27.5879 C 37.5977 33.4473 29.1992 33.5449 22.998 27.4414 C 16.8457 21.3379 16.8945 12.8418 22.8027 6.98242 C 27.832 1.95312 41.5527 -3.51562 53.6133 -10.6445 C 55.6641 -11.8652 55.9082 -13.5742 54.4922 -14.9902 L 38.0371 -31.4453 C 34.7656 -34.668 34.7168 -37.8418 37.793 -41.0156 Z M 28.2227 22.2168 C 30.0781 24.1211 33.2031 24.1211 35.0586 22.2168 C 37.0117 20.3125 36.9141 17.2363 35.0586 15.3809 C 33.2031 13.5254 30.0781 13.5254 28.2227 15.3809 C 26.3672 17.2363 26.2695 20.3125 28.2227 22.2168 Z"/>
  </g>
  <g id="Ultralight-L" transform="matrix(1 0 0 1 480.658 1556)">
   <path d="M 35.2051 -43.5547 C 30.5176 -38.8672 30.5176 -34.3262 35.498 -29.3457 L 51.7578 -13.0859 C 44.2871 -8.98438 25.7324 -1.02539 19.7754 4.93164 C 12.7441 12.0117 12.5488 22.168 20.0195 29.6387 C 27.4902 37.1094 37.5488 37.0117 44.6777 29.834 C 50.6348 23.9258 58.6426 5.37109 62.7441 -2.14844 L 79.1504 14.3066 C 84.082 19.1895 88.7695 19.1895 93.3594 14.5996 L 98.0957 9.86328 C 102.002 6.00586 102.588 1.95312 99.8047 -2.09961 C 101.855 -1.95312 103.955 -2.53906 105.811 -4.39453 L 139.6 -38.7207 C 145.117 -44.2871 145.02 -50.293 139.111 -56.1035 L 91.1133 -104.053 C 87.5 -107.666 83.3008 -107.91 80.4688 -105.029 C 79.1504 -103.711 78.0273 -101.66 77.5879 -99.1211 C 74.8535 -83.6914 68.9941 -69.4336 55.9082 -54.7852 C 54.4434 -53.1738 53.3203 -51.2207 53.2715 -48.9258 C 48.6816 -52.9785 44.4336 -52.7832 39.9414 -48.291 Z M 104.59 -6.83594 C 100.244 -2.49023 95.752 -6.49414 93.5547 -8.69141 L 58.3984 -43.8477 C 55.4199 -46.9727 54.9316 -49.9023 58.4961 -53.8574 C 68.3105 -64.6484 75.293 -77.002 80.5176 -99.2676 C 80.8105 -100.684 81.4941 -102.051 82.4219 -102.979 C 84.082 -104.639 86.2305 -105.225 88.4766 -102.979 L 121.777 -69.7266 C 120.459 -60.4004 112.988 -51.0254 107.324 -45.3613 C 106.738 -44.7754 105.957 -43.9941 106.836 -43.1152 C 109.57 -40.3809 126.611 -52.4902 133.252 -58.3008 L 137.402 -54.1504 C 142.139 -49.5117 142.285 -44.7754 137.988 -40.4785 Z M 36.9629 -41.6016 L 41.8457 -46.5332 C 45.2637 -50.0488 48.6328 -49.9023 52.1973 -46.2891 L 55.0293 -43.457 C 55.5176 -42.7734 56.1523 -42.041 56.8848 -41.3086 L 57.0312 -41.5039 L 92.4316 -6.05469 L 92.334 -5.76172 C 92.9199 -5.17578 93.6523 -4.58984 94.4824 -4.05273 L 96.0938 -2.44141 C 99.707 1.17188 99.8047 4.44336 96.3379 7.91016 L 91.3574 12.8418 C 87.9395 16.2598 84.668 16.1133 81.1523 12.5977 L 64.3555 -4.19922 C 63.1836 -5.41992 61.6211 -5.32227 60.5957 -3.4668 C 52.9785 9.81445 47.9492 22.8516 42.8711 27.9785 C 36.8652 33.9844 28.2227 34.082 21.8262 27.7832 C 15.4785 21.5332 15.5762 12.793 21.582 6.78711 C 26.709 1.66016 39.8438 -3.32031 53.125 -10.9863 C 54.9316 -12.0117 55.0293 -13.5254 53.8574 -14.7461 L 37.207 -31.3477 C 33.6914 -34.8633 33.5938 -38.1348 36.9629 -41.6016 Z M 27.2461 22.3633 C 29.1016 24.2188 32.2266 24.2188 34.082 22.3633 C 35.9863 20.459 35.8887 17.3828 34.082 15.5762 C 32.2266 13.7207 29.1016 13.7207 27.2461 15.5762 C 25.3906 17.3828 25.3418 20.459 27.2461 22.3633 Z"/>
  </g>
  <g id="Black-M" transform="matrix(1 0 0 1 2866.46 1126)">
   <path d="M 25.9766 -44.873 C 20.5566 -39.4531 20.8008 -31.6406 26.6113 -25.6836 L 32.6172 -19.5801 C 27.9297 -17.041 21.6309 -14.0625 17.627 -10.0098 C 8.93555 -1.12305 9.0332 10.9375 17.8711 19.873 C 26.8555 28.9062 39.1113 29.0039 47.8027 20.1172 C 51.7578 16.1133 54.834 9.86328 57.373 5.17578 L 63.4766 11.1816 C 69.3359 16.9922 77.2461 17.2852 82.6172 11.7676 L 88.2812 6.00586 C 91.8945 2.34375 93.0176 -2.34375 91.6992 -6.73828 C 93.0664 -7.51953 94.4336 -8.59375 95.8008 -9.91211 L 117.578 -31.7383 C 124.561 -38.6719 124.365 -47.2656 117.139 -54.4434 L 77.3926 -94.2871 C 72.168 -99.5605 65.0391 -98.8281 60.3516 -94.3359 C 58.4473 -92.5293 57.0801 -89.9902 56.3965 -86.9629 C 53.9551 -76.0254 49.0723 -64.7949 43.3105 -57.0801 C 42.6758 -56.2012 42.1387 -55.3223 41.6992 -54.4434 C 38.1836 -54.6387 34.668 -53.3691 31.7871 -50.5371 Z M 86.4746 -22.3633 C 83.7891 -19.6777 81.7871 -19.0918 79.2969 -21.582 L 58.1543 -42.7246 C 54.9805 -45.8984 56.1523 -48.3887 57.8613 -51.0254 C 61.1328 -56.0059 66.2109 -65.2344 69.1895 -75.1465 C 69.3848 -75.7324 69.7266 -76.2695 70.0195 -76.5625 C 70.8496 -77.3926 71.8262 -77.3926 72.8516 -76.3672 L 93.3105 -55.9082 C 91.0156 -48.7793 85.4492 -41.9922 81.1035 -37.6465 C 80.5664 -37.1094 79.8828 -36.4258 80.7129 -35.6445 C 82.9102 -33.4473 94.9707 -41.6016 102.051 -47.168 L 103.467 -45.752 C 105.615 -43.6035 105.713 -41.5039 103.711 -39.5508 Z M 37.5 -35.9375 L 40.7227 -39.1113 C 41.2598 -39.6484 41.8457 -39.6484 42.4805 -39.0137 L 76.8066 -4.63867 C 77.3438 -4.10156 77.4414 -3.51562 76.8555 -2.88086 L 73.7793 0.292969 C 73.1934 0.878906 72.5098 0.878906 71.875 0.292969 L 59.8145 -11.8164 C 57.1777 -14.4531 53.9062 -13.8184 51.123 -10.3027 C 47.998 -6.34766 41.4551 7.03125 38.2812 10.2051 C 34.9609 13.5742 30.7617 13.623 27.4414 10.3516 C 24.1699 7.03125 24.2676 2.83203 27.6367 -0.537109 C 30.8105 -3.71094 44.1406 -10.1562 48.0957 -13.3301 C 51.5137 -16.1621 52.1484 -19.3848 49.5605 -22.0215 L 37.5488 -34.1309 C 36.9629 -34.7168 36.9629 -35.3516 37.5 -35.9375 Z M 29.248 8.54492 C 30.8594 10.2539 33.3008 10.1562 34.7656 8.54492 C 36.3281 6.78711 36.377 4.54102 34.7656 3.02734 C 33.1543 1.46484 30.8105 1.31836 29.248 3.02734 C 27.7344 4.63867 27.6855 6.93359 29.248 8.54492 Z"/>
  </g>
  <g id="Heavy-M" transform="matrix(1 0 0 1 2570.6 1126)">
   <path d="M 25.9277 -44.2383 C 20.752 -39.1602 20.9961 -31.8848 26.5137 -26.3184 L 33.3496 -19.3359 C 28.6133 -16.6504 21.5332 -13.4766 17.3828 -9.27734 C 9.0332 -0.830078 9.13086 10.6934 17.627 19.2383 C 26.1719 27.8809 37.8418 27.9785 46.1914 19.4824 C 50.293 15.332 53.5645 8.30078 56.25 3.56445 L 63.1836 10.4004 C 68.75 15.8691 76.0742 16.1621 81.1523 10.9863 L 86.7188 5.27344 C 90.2344 1.70898 91.2598 -2.83203 89.7461 -7.12891 C 91.2598 -7.86133 92.7246 -8.93555 94.1406 -10.3516 L 116.162 -32.4219 C 122.754 -38.9648 122.559 -47.0215 115.723 -53.8574 L 76.0742 -93.5547 C 71.2891 -98.4375 64.6973 -97.9492 60.3516 -93.75 C 58.5449 -91.9922 57.2266 -89.5996 56.5918 -86.6211 C 54.1016 -75.3906 49.0723 -64.1602 43.2129 -56.3477 C 42.4805 -55.3711 41.9434 -54.3945 41.5039 -53.4668 C 37.9883 -53.9062 34.4727 -52.6855 31.5918 -49.8535 Z M 85.4004 -20.8496 C 82.8613 -18.3105 80.9082 -17.9199 78.4668 -20.3125 L 56.25 -42.5781 C 53.2715 -45.5078 53.9551 -47.9004 55.957 -50.8789 C 59.7656 -56.5918 64.9902 -66.3086 68.0664 -76.7578 C 68.2129 -77.3926 68.5547 -77.8809 68.8965 -78.2227 C 69.6777 -79.0527 70.7031 -79.1016 71.7285 -78.0762 L 93.0176 -56.7871 C 90.8691 -49.4629 85.1074 -42.3828 80.6152 -37.8906 C 80.127 -37.3535 79.4434 -36.6699 80.2246 -35.8887 C 82.4707 -33.6426 95.1172 -42.2852 102.002 -47.8027 L 103.906 -45.8984 C 106.055 -43.75 106.201 -41.5039 104.15 -39.5508 Z M 36.2793 -36.3281 L 39.502 -39.5508 C 40.2832 -40.332 41.2109 -40.332 42.041 -39.502 L 76.3672 -5.07812 C 77.1484 -4.29688 77.1973 -3.41797 76.4648 -2.58789 L 73.291 0.634766 C 72.5098 1.46484 71.4844 1.46484 70.6543 0.634766 L 58.5449 -11.5234 C 56.1035 -13.916 53.1738 -13.3301 50.6348 -10.1074 C 47.4121 -5.85938 40.9668 7.37305 37.7441 10.6445 C 34.1797 14.1602 29.6387 14.209 26.1719 10.7422 C 22.6562 7.22656 22.7539 2.68555 26.3184 -0.830078 C 29.541 -4.10156 42.7734 -10.4492 46.9727 -13.7207 C 50.1465 -16.3086 50.7812 -19.2383 48.3887 -21.6309 L 36.3281 -33.7402 C 35.498 -34.5703 35.498 -35.5469 36.2793 -36.3281 Z M 28.2715 8.59375 C 29.8828 10.2539 32.3242 10.2051 33.8379 8.59375 C 35.4004 6.88477 35.4004 4.63867 33.8379 3.07617 C 32.2266 1.51367 29.834 1.41602 28.2715 3.07617 C 26.8066 4.6875 26.709 6.98242 28.2715 8.59375 Z"/>
  </g>
  <g id="Bold-M" transform="matrix(1 0 0 1 2274.82 1126)">
   <path d="M 25.8301 -43.6035 C 20.9961 -38.8184 21.2402 -32.2266 26.416 -27.002 L 34.1797 -19.0918 C 29.3457 -16.2598 21.3867 -12.8418 17.0898 -8.49609 C 9.17969 -0.488281 9.22852 10.4004 17.334 18.5547 C 25.4883 26.709 36.4746 26.8066 44.3848 18.7988 C 48.6816 14.4531 52.1484 6.54297 55.0293 1.70898 L 62.9395 9.52148 C 68.1152 14.6484 74.7559 14.9414 79.541 10.1074 L 85.0098 4.49219 C 88.4277 1.02539 89.3066 -3.41797 87.5488 -7.51953 C 89.209 -8.25195 90.8203 -9.375 92.334 -10.8887 L 114.551 -33.1543 C 120.752 -39.3555 120.605 -46.8262 114.16 -53.2227 L 74.6582 -92.7734 C 70.2637 -97.168 64.3066 -96.9727 60.3027 -93.0664 C 58.6426 -91.4551 57.4219 -89.1602 56.7871 -86.1816 C 54.248 -74.6582 49.1211 -63.4277 43.1152 -55.5664 C 42.334 -54.4922 41.6992 -53.3691 41.2598 -52.2949 C 37.793 -53.0273 34.2773 -51.9531 31.3965 -49.0723 Z M 84.2285 -19.1406 C 81.8848 -16.748 79.8828 -16.5527 77.6367 -18.8477 L 53.9551 -42.4805 L 54.0039 -42.5293 C 51.3672 -45.0684 51.5625 -47.3633 53.7598 -50.6836 C 58.252 -57.2266 63.5742 -67.4316 66.748 -78.6133 C 66.9434 -79.1992 67.2363 -79.6875 67.5781 -80.0781 C 68.4082 -80.9082 69.4336 -81.0059 70.459 -79.9805 L 92.627 -57.8125 C 90.7227 -50.1953 84.7656 -42.7734 80.0781 -38.1348 C 79.5898 -37.6465 78.9062 -36.9629 79.7363 -36.1816 C 82.0312 -33.8379 95.2637 -43.0664 101.904 -48.4863 L 104.346 -46.0938 C 106.592 -43.8477 106.689 -41.5527 104.639 -39.502 Z M 34.8633 -36.8164 L 38.1836 -40.0391 C 39.209 -41.0645 40.4785 -41.0645 41.5527 -39.9902 L 75.8789 -5.61523 C 76.9531 -4.54102 76.9531 -3.32031 75.9766 -2.24609 L 72.7539 1.02539 C 71.7285 2.09961 70.4102 2.09961 69.2871 0.976562 L 57.1289 -11.1816 C 54.9316 -13.3789 52.3438 -12.7441 50.0488 -9.86328 C 46.7285 -5.32227 40.4297 7.76367 37.1094 11.084 C 33.3008 14.8438 28.418 14.9414 24.707 11.1816 C 20.9961 7.4707 21.0449 2.58789 24.8047 -1.17188 C 28.1738 -4.54102 41.2109 -10.791 45.752 -14.1602 C 48.584 -16.4551 49.2676 -19.043 47.1191 -21.1914 L 34.9609 -33.3496 C 33.8379 -34.4238 33.8379 -35.791 34.8633 -36.8164 Z M 27.2461 8.69141 C 28.8086 10.3027 31.25 10.3027 32.7637 8.69141 C 34.3262 6.98242 34.3262 4.73633 32.7637 3.17383 C 31.1523 1.61133 28.7598 1.51367 27.2461 3.17383 C 25.7324 4.78516 25.6348 7.08008 27.2461 8.69141 Z"/>
  </g>
  <g id="Semibold-M" transform="matrix(1 0 0 1 1978.76 1126)">
   <path d="M 25.7324 -43.1152 C 21.1914 -38.623 21.4355 -32.4219 26.3184 -27.4902 L 34.7656 -18.9453 C 29.8828 -15.9668 21.2891 -12.3535 16.8945 -7.95898 C 9.22852 -0.244141 9.32617 10.2051 17.1387 18.0664 C 25 25.9277 35.498 26.0254 43.1641 18.3105 C 47.5586 13.8672 51.1719 5.32227 54.1504 0.488281 L 62.7441 8.93555 C 67.627 13.8184 73.877 14.0625 78.3691 9.47266 L 83.7891 3.95508 C 87.1582 0.488281 87.9395 -3.85742 85.9863 -7.86133 C 87.793 -8.54492 89.502 -9.66797 91.0645 -11.2305 L 113.477 -33.6914 C 119.336 -39.5996 119.238 -46.6309 113.086 -52.7832 L 73.6328 -92.2363 C 69.5801 -96.2891 64.0625 -96.2891 60.3027 -92.627 C 58.7402 -91.0645 57.5195 -88.8184 56.8848 -85.9375 C 54.3457 -74.1699 49.1211 -62.9395 43.0664 -55.0293 C 42.1875 -53.8086 41.5039 -52.6367 41.1133 -51.4648 C 37.6465 -52.3926 34.1309 -51.416 31.25 -48.5352 Z M 83.3984 -17.9688 C 81.1523 -15.7227 79.248 -15.625 77.002 -17.8711 L 52.3926 -42.4316 L 52.4414 -42.4805 C 50.0977 -44.7754 49.8535 -46.9727 52.2949 -50.5371 C 57.1777 -57.666 62.6465 -68.2617 65.8691 -79.8828 C 66.0156 -80.4688 66.3086 -80.957 66.6992 -81.3477 C 67.5293 -82.1777 68.5547 -82.3242 69.5801 -81.25 L 92.334 -58.5449 C 90.6738 -50.7324 84.4727 -43.0664 79.7363 -38.3301 C 79.248 -37.8418 78.5645 -37.1582 79.3457 -36.377 C 81.6895 -33.9844 95.4102 -43.6035 101.904 -48.9746 L 104.688 -46.1914 C 106.934 -43.9453 107.031 -41.5527 104.932 -39.502 Z M 33.9355 -37.1094 L 37.2559 -40.3809 C 38.4766 -41.6016 39.9902 -41.6016 41.2598 -40.332 L 75.5371 -5.95703 C 76.7578 -4.6875 76.8066 -3.22266 75.6348 -2.00195 L 72.4121 1.31836 C 71.1914 2.58789 69.6289 2.53906 68.3594 1.2207 L 56.1523 -10.9863 C 54.1016 -12.9883 51.7578 -12.3535 49.707 -9.66797 C 46.2402 -4.93164 40.0879 8.05664 36.6699 11.4258 C 32.7148 15.2832 27.5391 15.3809 23.6816 11.5234 C 19.8242 7.61719 19.873 2.49023 23.7793 -1.46484 C 27.1973 -4.83398 40.1367 -11.0352 44.873 -14.4531 C 47.5586 -16.5527 48.2422 -18.8965 46.1914 -20.8984 L 34.0332 -33.1055 C 32.7148 -34.3262 32.7148 -35.8887 33.9355 -37.1094 Z M 26.5137 8.74023 C 28.0762 10.3516 30.5176 10.3516 32.0312 8.74023 C 33.5938 7.08008 33.5938 4.78516 32.0312 3.22266 C 30.4199 1.66016 28.0273 1.5625 26.5137 3.22266 C 25 4.83398 24.9023 7.12891 26.5137 8.74023 Z"/>
  </g>
  <g id="Medium-M" transform="matrix(1 0 0 1 1682.54 1126)">
   <path d="M 25.6836 -42.7734 C 21.2891 -38.4277 21.5332 -32.5684 26.2695 -27.832 L 35.2051 -18.7988 C 30.2734 -15.7715 21.2402 -12.0605 16.748 -7.51953 C 9.32617 -0.0488281 9.375 10.0586 16.9922 17.7246 C 24.6094 25.3418 34.7656 25.4395 42.2363 17.9199 C 46.7285 13.4277 50.4395 4.44336 53.5156 -0.488281 L 62.5977 8.49609 C 67.2852 13.1348 73.1934 13.4277 77.5391 9.0332 L 82.8613 3.56445 C 86.2305 0.146484 86.8652 -4.15039 84.7656 -8.10547 C 86.7188 -8.74023 88.5254 -9.91211 90.0879 -11.4746 L 112.646 -34.082 C 118.311 -39.7461 118.164 -46.5332 112.256 -52.4414 L 72.8516 -91.8457 C 69.043 -95.6543 63.8672 -95.8008 60.3027 -92.2852 C 58.7891 -90.7715 57.6172 -88.5742 56.9824 -85.6934 C 54.3945 -73.8281 49.1699 -62.5488 43.0176 -54.6387 C 42.041 -53.3203 41.3574 -52.0996 40.9668 -50.8301 C 37.5488 -51.9043 34.0332 -51.0742 31.1523 -48.1445 Z M 82.8125 -17.041 C 80.6641 -14.8926 78.7109 -14.9414 76.5625 -17.0898 L 51.2207 -42.4316 L 51.2695 -42.4316 C 49.1211 -44.5801 48.584 -46.7285 51.1719 -50.4395 C 56.3965 -58.0078 61.9141 -68.8477 65.1855 -80.8105 C 65.332 -81.3965 65.625 -81.9336 66.0156 -82.3242 C 66.8457 -83.1543 67.8711 -83.3496 68.9453 -82.2754 L 92.0898 -59.082 C 90.625 -51.1719 84.3262 -43.3105 79.4434 -38.4277 C 78.9551 -37.9395 78.2715 -37.3047 79.1016 -36.4746 C 81.4941 -34.082 95.5566 -44.0918 101.855 -49.3652 L 104.932 -46.2891 C 107.227 -43.9941 107.324 -41.5527 105.225 -39.4531 Z M 33.2031 -37.3535 L 36.5234 -40.6738 C 37.8906 -41.9922 39.5996 -41.9922 41.0156 -40.5762 L 75.293 -6.25 C 76.6602 -4.83398 76.709 -3.17383 75.3906 -1.80664 L 72.1191 1.51367 C 70.8008 2.88086 69.043 2.83203 67.627 1.41602 L 55.3711 -10.8398 C 53.5156 -12.6953 51.3184 -12.0605 49.4141 -9.57031 C 45.8984 -4.63867 39.7949 8.25195 36.3281 11.6699 C 32.2754 15.6738 26.9043 15.7715 22.9492 11.7676 C 18.9453 7.76367 18.9941 2.39258 22.998 -1.61133 C 26.4648 -5.07812 39.3555 -11.1816 44.2383 -14.6973 C 46.7285 -16.6504 47.4121 -18.7988 45.5078 -20.7031 L 33.3008 -32.8613 C 31.8848 -34.2773 31.8848 -36.0352 33.2031 -37.3535 Z M 25.9766 8.78906 C 27.5391 10.3516 29.9316 10.3516 31.4453 8.78906 C 33.0566 7.12891 33.0078 4.83398 31.4453 3.27148 C 29.8828 1.70898 27.4414 1.66016 25.9766 3.27148 C 24.4629 4.88281 24.3652 7.17773 25.9766 8.78906 Z"/>
  </g>
  <g id="Regular-M" transform="matrix(1 0 0 1 1386.47 1126)">
   <path d="M 25.6348 -42.334 C 21.4844 -38.2324 21.7285 -32.7637 26.1719 -28.3203 L 35.791 -18.6523 C 30.7617 -15.4785 21.1426 -11.5723 16.5527 -6.98242 C 9.375 0.195312 9.47266 9.86328 16.7969 17.2363 C 24.1211 24.5605 33.7891 24.6582 41.0156 17.4805 C 45.6055 12.8418 49.5117 3.22266 52.6855 -1.70898 L 62.4023 7.91016 C 66.8457 12.3047 72.3145 12.5488 76.416 8.39844 L 81.6895 3.02734 C 85.0098 -0.390625 85.498 -4.58984 83.1543 -8.44727 C 85.3027 -8.98438 87.2559 -10.2051 88.8672 -11.8164 L 111.572 -34.6191 C 116.943 -39.9902 116.846 -46.3867 111.182 -52.002 L 71.875 -91.3086 C 68.3594 -94.7754 63.623 -95.1172 60.3027 -91.8457 C 58.8867 -90.3809 57.7637 -88.2812 57.1289 -85.4492 C 54.4922 -73.3398 49.1699 -62.0605 42.9688 -54.1016 C 41.8945 -52.6855 41.1621 -51.3184 40.7715 -49.9023 C 37.4023 -51.2695 33.8867 -50.5371 31.0059 -47.6562 Z M 81.9824 -15.8691 C 79.9805 -13.8672 78.0273 -14.0137 75.9766 -16.1133 L 49.6582 -42.3828 L 49.707 -42.4316 C 47.8027 -44.2871 46.9727 -46.3379 49.6582 -50.293 C 55.3223 -58.4473 60.9375 -69.6289 64.3066 -82.0801 C 64.4531 -82.666 64.6973 -83.1543 65.1367 -83.5938 C 65.9668 -84.4238 66.9922 -84.668 68.1152 -83.5449 L 91.7969 -59.8633 C 90.5762 -51.709 84.0332 -43.6035 79.1016 -38.623 C 78.6133 -38.1348 77.9297 -37.4512 78.7109 -36.6699 C 81.1523 -34.2285 95.8008 -44.7266 101.807 -49.8535 L 105.225 -46.4355 C 107.568 -44.0918 107.666 -41.5527 105.518 -39.4531 Z M 32.2754 -37.6953 L 35.6445 -41.0156 C 37.1582 -42.4805 39.1113 -42.5293 40.6738 -40.918 L 74.9512 -6.5918 C 76.5137 -4.98047 76.5137 -3.125 75.0488 -1.61133 L 71.7773 1.75781 C 70.2637 3.32031 68.3105 3.27148 66.6992 1.66016 L 54.3945 -10.5957 C 52.6855 -12.3535 50.7812 -11.6699 49.0234 -9.375 C 45.4102 -4.29688 39.4043 8.49609 35.8887 12.0117 C 31.6406 16.1133 26.0742 16.2109 21.9727 12.0605 C 17.8223 7.91016 17.8223 2.29492 22.0215 -1.85547 C 25.4883 -5.37109 38.2812 -11.4258 43.4082 -14.9902 C 45.7031 -16.748 46.3867 -18.7012 44.6289 -20.4102 L 32.373 -32.6172 C 30.7617 -34.1309 30.7617 -36.1816 32.2754 -37.6953 Z M 25.2441 8.83789 C 26.8066 10.4004 29.1992 10.4004 30.7129 8.83789 C 32.3242 7.17773 32.2754 4.88281 30.7129 3.32031 C 29.1504 1.75781 26.709 1.70898 25.2441 3.32031 C 23.7305 4.98047 23.6328 7.22656 25.2441 8.83789 Z"/>
  </g>
  <g id="Light-M" transform="matrix(1 0 0 1 1090.41 1126)">
   <path d="M 26.1719 -42.1387 C 22.168 -38.1836 22.3145 -33.3008 26.6113 -29.0527 L 37.1582 -18.457 C 31.8848 -15.2832 20.8008 -10.6934 16.1621 -6.10352 C 9.52148 0.537109 9.57031 9.66797 16.4062 16.5527 C 23.2422 23.3887 32.373 23.4375 39.0137 16.748 C 43.6523 12.1582 48.2422 1.07422 51.416 -4.15039 L 62.0605 6.44531 C 66.3086 10.6445 71.2402 10.8398 75.1465 6.83594 L 79.9316 2.00195 C 83.1543 -1.26953 83.6426 -5.17578 81.3477 -8.78906 C 83.3496 -9.13086 85.2051 -10.1074 86.7676 -11.6699 L 110.498 -35.6445 C 115.576 -40.7227 115.479 -46.5332 110.156 -51.8066 L 71.4844 -90.4297 C 68.2129 -93.75 63.916 -93.9941 60.9375 -91.0645 C 59.6191 -89.7461 58.5938 -87.793 58.0566 -85.2051 C 55.6152 -73.1445 50.4883 -61.9629 43.0664 -52.9297 C 41.9922 -51.5625 41.2598 -50.1953 40.9668 -48.8281 C 37.5977 -50.5859 34.0332 -50 31.0059 -46.9238 Z M 81.6895 -15.0391 C 79.248 -12.5977 76.8066 -13.7695 74.8535 -15.6738 L 48.3887 -42.1387 L 48.4375 -42.1875 C 46.3379 -44.2383 45.5566 -46.3867 48.3398 -50.0977 C 54.5898 -58.3496 60.1562 -69.043 63.7207 -82.959 C 63.916 -83.6914 64.2578 -84.375 64.7461 -84.8633 C 65.7227 -85.8398 66.9434 -86.1328 68.2617 -84.8633 L 92.627 -60.498 C 91.4551 -52.6367 85.1562 -44.7754 80.3711 -39.9902 C 79.8828 -39.5508 79.248 -38.8672 79.9805 -38.1348 C 82.3242 -35.791 96.5332 -45.8984 102.246 -50.8789 L 105.615 -47.5098 C 108.398 -44.7754 108.447 -41.8945 105.957 -39.4043 Z M 31.1523 -38.4766 L 34.6191 -41.9434 C 36.5234 -43.7988 38.6719 -43.7988 40.625 -41.7969 L 74.8047 -7.56836 C 76.7578 -5.61523 76.8066 -3.56445 74.9512 -1.66016 L 71.4844 1.85547 C 69.6289 3.75977 67.4805 3.66211 65.5273 1.70898 L 53.0273 -10.791 C 51.5625 -12.2559 49.8535 -11.7676 48.3887 -9.76562 C 44.0918 -3.07617 38.7207 8.88672 35.0586 12.5488 C 30.7129 16.8457 24.8047 16.9434 20.4102 12.5488 C 16.0156 8.1543 16.0645 2.19727 20.3613 -2.09961 C 24.0234 -5.76172 35.9863 -11.1328 42.7246 -15.4297 C 44.7266 -16.8945 45.2637 -18.6035 43.75 -20.0684 L 31.2988 -32.4707 C 29.3457 -34.4238 29.2969 -36.5723 31.1523 -38.4766 Z M 23.9746 9.0332 C 25.4883 10.5469 27.8809 10.5469 29.3945 9.0332 C 30.957 7.42188 30.9082 5.07812 29.3945 3.56445 C 27.8809 2.05078 25.4395 2.00195 23.9746 3.56445 C 22.5098 5.12695 22.4121 7.4707 23.9746 9.0332 Z"/>
  </g>
  <g id="Thin-M" transform="matrix(1 0 0 1 794.557 1126)">
   <path d="M 26.8555 -41.8457 C 23.0957 -38.0859 23.1445 -34.0332 27.1484 -30.0293 L 38.916 -18.2129 C 33.3496 -15.0391 20.3125 -9.52148 15.6738 -4.88281 C 9.76562 1.02539 9.66797 9.42383 15.8691 15.625 C 22.1191 21.875 30.4688 21.8262 36.4258 15.8203 C 41.0645 11.2305 46.582 -1.80664 49.7559 -7.37305 L 61.6699 4.49219 C 65.625 8.44727 69.7754 8.49609 73.5352 4.78516 L 77.6367 0.634766 C 80.7129 -2.49023 81.2012 -5.9082 79.0039 -9.22852 C 80.7129 -9.32617 82.4707 -9.96094 83.9844 -11.4746 L 109.131 -37.0117 C 113.721 -41.6016 113.672 -46.7285 108.789 -51.5625 L 70.9961 -89.3066 C 67.9688 -92.334 64.3066 -92.5293 61.8164 -90.0391 C 60.6445 -88.8672 59.7168 -87.1582 59.3262 -84.9609 C 57.0312 -72.9492 52.2949 -61.8164 43.2617 -51.416 C 42.1387 -50.1465 41.3574 -48.6816 41.1621 -47.168 C 37.7441 -49.6582 34.2773 -49.2676 31.0059 -45.9961 Z M 81.3477 -13.9648 C 78.2715 -10.9375 75.1953 -13.3789 73.4375 -15.1367 L 46.7285 -41.8457 C 44.3848 -44.1895 43.75 -46.4355 46.582 -49.8535 C 53.6133 -58.1543 59.082 -68.1641 62.9395 -84.082 C 63.1836 -85.0586 63.623 -85.9375 64.2578 -86.5723 C 65.4297 -87.7441 66.8945 -88.1348 68.457 -86.5723 L 93.6523 -61.377 C 92.5781 -53.9062 86.6211 -46.3867 82.0312 -41.8457 C 81.5918 -41.3574 80.957 -40.7227 81.6895 -40.0391 C 83.8867 -37.8418 97.5098 -47.5098 102.881 -52.1973 L 106.152 -48.9258 C 109.424 -45.7031 109.57 -42.334 106.543 -39.3555 Z M 29.6875 -39.4531 L 33.3496 -43.1641 C 35.6934 -45.5566 38.0859 -45.459 40.5273 -42.9688 L 74.6094 -8.88672 C 77.0508 -6.44531 77.1484 -4.10156 74.8047 -1.75781 L 71.0938 1.95312 C 68.75 4.29688 66.4062 4.19922 64.0137 1.80664 L 51.1719 -11.0352 C 50 -12.1582 48.6328 -11.9629 47.5586 -10.3027 C 42.2852 -1.41602 37.8418 9.42383 33.9844 13.2812 C 29.4434 17.7734 23.0469 17.8223 18.3594 13.1836 C 13.6719 8.49609 13.7207 2.05078 18.2129 -2.44141 C 22.0703 -6.29883 32.959 -10.7422 41.7969 -16.0156 C 43.457 -17.0898 43.7012 -18.5059 42.5781 -19.6289 L 29.834 -32.3242 C 27.4414 -34.7168 27.3926 -37.1094 29.6875 -39.4531 Z M 22.3145 9.22852 C 23.7793 10.6934 26.1719 10.6934 27.6367 9.22852 C 29.1504 7.71484 29.1016 5.37109 27.6367 3.90625 C 26.1719 2.44141 23.7305 2.44141 22.3145 3.90625 C 20.8496 5.37109 20.8008 7.71484 22.3145 9.22852 Z"/>
  </g>
  <g id="Ultralight-M" transform="matrix(1 0 0 1 498.285 1126)">
   <path d="M 27.1973 -41.748 C 23.5352 -38.0859 23.5352 -34.4238 27.4414 -30.5176 L 39.8438 -18.1152 C 34.082 -14.9414 20.0684 -8.88672 15.4297 -4.29688 C 9.86328 1.26953 9.7168 9.27734 15.625 15.1855 C 21.5332 21.0938 29.4434 20.9961 35.1074 15.3809 C 39.6973 10.7422 45.752 -3.27148 48.9258 -9.0332 L 61.4258 3.4668 C 65.2832 7.32422 69.043 7.32422 72.6562 3.71094 L 76.4648 -0.0488281 C 79.4922 -3.07617 79.9805 -6.29883 77.7832 -9.47266 C 79.3945 -9.42383 81.1035 -9.91211 82.5195 -11.377 L 108.447 -37.6953 C 112.793 -42.0898 112.744 -46.875 108.057 -51.4648 L 70.7031 -88.7695 C 67.8711 -91.6016 64.5508 -91.7969 62.2559 -89.502 C 61.1816 -88.4277 60.3027 -86.8164 59.9609 -84.8145 C 57.7637 -72.8516 53.1738 -61.7188 43.3105 -50.6348 C 42.1875 -49.4141 41.3574 -47.9004 41.2598 -46.1914 C 37.7441 -49.1699 34.4238 -48.9258 30.957 -45.5078 Z M 81.1523 -13.3789 C 77.832 -10.1074 74.3652 -13.1348 72.7051 -14.8438 L 45.8008 -41.748 C 43.3594 -44.1895 42.8223 -46.4844 45.6543 -49.707 C 53.125 -58.0566 58.5449 -67.7734 62.5488 -84.668 C 62.793 -85.7422 63.2812 -86.7676 64.0137 -87.4512 C 65.2344 -88.6719 66.8945 -89.1113 68.5547 -87.4512 L 94.2383 -61.8164 C 93.2129 -54.541 87.3535 -47.168 82.9102 -42.7734 C 82.4707 -42.334 81.8359 -41.6992 82.5195 -41.0156 C 84.668 -38.8672 97.998 -48.3398 103.174 -52.8809 L 106.396 -49.6582 C 110.01 -46.1426 110.107 -42.5781 106.836 -39.3066 Z M 28.9062 -39.9902 L 32.666 -43.7988 C 35.2539 -46.4355 37.793 -46.2891 40.5273 -43.6035 L 43.5059 -40.5762 C 43.75 -40.332 43.9941 -40.0879 44.2383 -39.8438 L 71.7285 -12.4023 L 71.7285 -12.3535 C 71.9238 -12.1094 72.168 -11.9141 72.4121 -11.7188 L 74.5605 -9.57031 C 77.2461 -6.88477 77.2949 -4.39453 74.707 -1.80664 L 70.8984 2.00195 C 68.3594 4.58984 65.8203 4.44336 63.1836 1.80664 L 50.2441 -11.1328 C 49.2188 -12.1582 47.998 -12.0117 47.168 -10.5469 C 41.3574 -0.585938 37.3535 9.7168 33.4473 13.623 C 28.8086 18.2617 22.168 18.3105 17.2852 13.5254 C 12.4512 8.69141 12.5 2.00195 17.1387 -2.63672 C 21.0449 -6.54297 31.3965 -10.5469 41.3574 -16.3574 C 42.8223 -17.1875 42.9688 -18.4082 41.9434 -19.4336 L 29.1016 -32.2754 C 26.4648 -34.9121 26.416 -37.4023 28.9062 -39.9902 Z M 21.4355 9.375 C 22.8516 10.791 25.293 10.791 26.709 9.375 C 28.2227 7.86133 28.1738 5.51758 26.709 4.10156 C 25.293 2.63672 22.8516 2.63672 21.4355 4.10156 C 20.0195 5.51758 19.9219 7.86133 21.4355 9.375 Z"/>
  </g>
  <g id="Black-S" transform="matrix(1 0 0 1 2880.98 696)">
   <path d="M 20.3613 -42.7246 C 16.1133 -38.5254 16.3086 -32.4219 20.8496 -27.7832 L 25.5859 -22.9492 C 21.9238 -20.9473 16.9434 -18.6035 13.8184 -15.4297 C 7.03125 -8.49609 7.08008 0.927734 14.0137 7.91016 C 20.9961 14.9414 30.5664 15.0391 37.3535 8.10547 C 40.4785 4.93164 42.8711 0 44.873 -3.66211 L 49.707 1.07422 C 54.2969 5.61523 60.4492 5.85938 64.6484 1.5625 L 69.0918 -2.97852 C 71.9238 -5.85938 72.8027 -9.47266 71.7285 -12.9395 C 72.8516 -13.5254 73.9258 -14.3555 74.9512 -15.4297 L 92.041 -32.5195 C 97.4609 -37.9395 97.3145 -44.6289 91.6992 -50.2441 L 60.5469 -81.4453 C 56.4941 -85.5469 50.9277 -85.0098 47.2656 -81.4941 C 45.8008 -80.0781 44.7266 -78.125 44.1895 -75.7324 C 42.2852 -67.1387 38.4277 -58.3496 33.9355 -52.2949 C 33.4473 -51.6113 33.0078 -50.8789 32.666 -50.1953 C 29.9316 -50.3906 27.1973 -49.4141 24.9023 -47.168 Z M 67.6758 -25.0488 C 65.5762 -22.9492 64.0137 -22.5098 62.0605 -24.4629 L 45.5078 -41.0156 C 42.9688 -43.5547 43.8477 -45.5078 45.2148 -47.6074 C 47.8027 -51.5625 51.8066 -58.8379 54.1504 -66.6016 C 54.2969 -67.0898 54.541 -67.4805 54.7852 -67.7246 C 55.4199 -68.3594 56.2012 -68.3594 56.9824 -67.5781 L 73.0957 -51.4648 C 71.2891 -45.8984 66.9434 -40.5762 63.4766 -37.1094 C 63.0859 -36.7188 62.5488 -36.1816 63.1836 -35.5469 C 64.9414 -33.8379 74.4629 -40.2344 79.9316 -44.6289 L 81.1035 -43.457 C 82.7637 -41.7969 82.8613 -40.1367 81.2988 -38.623 Z M 29.2969 -35.791 L 31.8359 -38.2812 C 32.2754 -38.7207 32.7637 -38.7207 33.252 -38.2324 L 60.1562 -11.2793 C 60.5957 -10.8398 60.6445 -10.3516 60.2051 -9.86328 L 57.7637 -7.37305 C 57.3242 -6.88477 56.7383 -6.88477 56.25 -7.37305 L 46.7773 -16.8457 C 44.7266 -18.8965 42.1875 -18.4082 40.0391 -15.6738 C 37.5977 -12.5977 32.4707 -2.09961 29.9805 0.390625 C 27.3438 3.02734 24.0234 3.07617 21.4355 0.488281 C 18.8477 -2.09961 18.9453 -5.41992 21.582 -8.05664 C 24.0723 -10.5469 34.5215 -15.625 37.5977 -18.1152 C 40.2832 -20.3125 40.7715 -22.8027 38.7695 -24.8535 L 29.3457 -34.3262 C 28.8574 -34.8145 28.8574 -35.3516 29.2969 -35.791 Z M 22.8516 -0.927734 C 24.1211 0.390625 26.0254 0.341797 27.1973 -0.927734 C 28.418 -2.29492 28.4668 -4.05273 27.1973 -5.27344 C 25.9277 -6.49414 24.0723 -6.5918 22.8516 -5.27344 C 21.6797 -4.00391 21.6309 -2.19727 22.8516 -0.927734 Z"/>
  </g>
  <g id="Heavy-S" transform="matrix(1 0 0 1 2584.86 696)">
   <path d="M 20.2637 -42.2852 C 16.2109 -38.2812 16.4062 -32.5684 20.752 -28.1738 L 26.0254 -22.8027 C 22.3145 -20.7031 16.8945 -18.2617 13.6719 -14.9902 C 7.08008 -8.30078 7.17773 0.78125 13.8672 7.51953 C 20.6055 14.3066 29.7852 14.4043 36.377 7.71484 C 39.5996 4.44336 42.041 -0.976562 44.1895 -4.63867 L 49.5605 0.634766 C 53.9062 4.93164 59.668 5.17578 63.6719 1.12305 L 68.1152 -3.41797 C 70.8496 -6.20117 71.6309 -9.81445 70.459 -13.1836 C 71.6309 -13.8184 72.8027 -14.6484 73.9258 -15.7715 L 91.0645 -32.9102 C 96.2402 -38.0859 96.0938 -44.4336 90.7227 -49.8047 L 59.6191 -81.0059 C 55.8594 -84.8145 50.6348 -84.4727 47.2168 -81.1523 C 45.8008 -79.7852 44.7754 -77.8809 44.2383 -75.4883 C 42.2852 -66.6504 38.3301 -57.8613 33.8867 -51.9043 C 33.3008 -51.123 32.8125 -50.3418 32.4707 -49.5605 C 29.7363 -49.9023 27.002 -48.9258 24.7559 -46.7285 Z M 66.8945 -23.9746 C 64.9902 -22.0215 63.4766 -21.6309 61.6211 -23.5352 L 44.0918 -41.0156 L 44.1406 -41.0156 C 41.8457 -43.2617 42.334 -45.1172 43.8965 -47.5098 C 46.8262 -52.002 50.9766 -59.7168 53.3203 -67.7734 C 53.4668 -68.2129 53.7109 -68.6035 53.9551 -68.8477 C 54.5898 -69.4824 55.3223 -69.5312 56.1035 -68.75 L 72.7539 -52.0996 C 71.0938 -46.2891 66.5527 -40.7227 62.9883 -37.1582 C 62.5977 -36.7676 62.0605 -36.2305 62.6953 -35.5957 C 64.4531 -33.7891 74.4629 -40.625 79.834 -44.9707 L 81.3965 -43.457 C 83.0566 -41.7969 83.1055 -40.1367 81.5918 -38.623 Z M 28.4668 -36.0352 L 31.0547 -38.5254 C 31.5918 -39.1113 32.3242 -39.1113 32.959 -38.4766 L 59.8633 -11.5234 C 60.4492 -10.9375 60.4492 -10.2539 59.9121 -9.61914 L 57.4707 -7.12891 C 56.8848 -6.49414 56.1035 -6.49414 55.4688 -7.12891 L 45.9473 -16.6016 C 44.043 -18.5059 41.748 -18.0176 39.7461 -15.4785 C 37.3047 -12.3535 32.1777 -1.85547 29.6387 0.634766 C 26.8555 3.41797 23.3398 3.4668 20.6055 0.732422 C 17.9199 -1.95312 17.9688 -5.51758 20.752 -8.25195 C 23.291 -10.791 33.7402 -15.8691 36.8652 -18.3594 C 39.3555 -20.4102 39.8926 -22.7051 37.9883 -24.6094 L 28.5156 -34.082 C 27.9297 -34.668 27.9297 -35.4492 28.4668 -36.0352 Z M 22.2656 -0.878906 C 23.5352 0.390625 25.4395 0.390625 26.6113 -0.878906 C 27.832 -2.24609 27.8809 -4.00391 26.6113 -5.22461 C 25.3418 -6.49414 23.4863 -6.54297 22.2656 -5.22461 C 21.0938 -3.95508 21.0449 -2.14844 22.2656 -0.878906 Z"/>
  </g>
  <g id="Bold-S" transform="matrix(1 0 0 1 2288.81 696)">
   <path d="M 20.1172 -41.7969 C 16.3086 -38.0371 16.5039 -32.7148 20.5566 -28.6133 L 26.4648 -22.6562 C 22.7539 -20.4102 16.8457 -17.8711 13.4766 -14.502 C 7.17773 -8.05664 7.22656 0.585938 13.6719 7.03125 C 20.166 13.5742 28.9062 13.6719 35.2051 7.22656 C 38.5742 3.85742 41.1133 -2.00195 43.3594 -5.71289 L 49.3652 0.195312 C 53.4668 4.19922 58.8379 4.44336 62.5488 0.634766 L 66.9922 -3.85742 C 69.6777 -6.64062 70.3613 -10.2051 68.9453 -13.4766 C 70.3125 -14.0625 71.582 -14.9902 72.8027 -16.2109 L 89.9902 -33.3984 C 94.873 -38.2812 94.7754 -44.2383 89.6484 -49.3652 L 58.5449 -80.5176 C 55.0781 -83.9844 50.293 -83.8379 47.1191 -80.7129 C 45.8008 -79.3945 44.7754 -77.5879 44.2383 -75.1953 C 42.2363 -66.1621 38.1348 -57.3242 33.7891 -51.416 C 33.1055 -50.5371 32.6172 -49.6582 32.2754 -48.7793 C 29.5898 -49.2676 26.8066 -48.4375 24.6094 -46.2402 Z M 66.0156 -22.7539 C 64.3066 -21.0449 62.8906 -20.6543 61.084 -22.4609 L 42.5293 -40.9668 L 42.5293 -41.0156 C 40.5762 -42.9199 40.6738 -44.7266 42.3828 -47.3633 C 45.752 -52.5391 50 -60.6934 52.3926 -69.043 C 52.5391 -69.4824 52.7344 -69.8242 53.0273 -70.1172 C 53.6133 -70.7031 54.3457 -70.8008 55.127 -70.0195 L 72.3633 -52.7832 C 70.8984 -46.7773 66.1133 -40.8691 62.4023 -37.1582 C 62.0117 -36.7676 61.4746 -36.2305 62.1094 -35.5957 C 63.9648 -33.7891 74.4629 -41.0645 79.7363 -45.4102 L 81.6895 -43.457 C 83.3496 -41.8457 83.3984 -40.0879 81.8848 -38.5742 Z M 27.5879 -36.2793 L 30.127 -38.7695 C 30.8594 -39.502 31.8359 -39.5508 32.5684 -38.7207 L 59.4727 -11.8164 C 60.2051 -11.0352 60.2539 -10.1074 59.5215 -9.375 L 57.0801 -6.83594 C 56.3477 -6.05469 55.3223 -6.05469 54.541 -6.83594 L 45.0684 -16.3574 C 43.2617 -18.1152 41.2109 -17.5781 39.3555 -15.2344 C 36.9141 -12.1094 31.8359 -1.61133 29.248 0.927734 C 26.3184 3.85742 22.5586 3.90625 19.6777 1.02539 C 16.8457 -1.85547 16.8945 -5.61523 19.8242 -8.49609 C 22.3633 -11.084 32.8125 -16.1621 35.9863 -18.6523 C 38.2812 -20.5078 38.8184 -22.5586 37.0605 -24.3164 L 27.6367 -33.7891 C 26.8555 -34.5215 26.8555 -35.5469 27.5879 -36.2793 Z M 21.6309 -0.878906 C 22.9004 0.439453 24.7559 0.390625 25.9766 -0.878906 C 27.1973 -2.19727 27.1973 -4.00391 25.9766 -5.22461 C 24.707 -6.44531 22.8027 -6.54297 21.6309 -5.22461 C 20.459 -3.90625 20.3613 -2.14844 21.6309 -0.878906 Z"/>
  </g>
  <g id="Semibold-S" transform="matrix(1 0 0 1 1992.53 696)">
   <path d="M 20.0195 -41.4551 C 16.3574 -37.8906 16.6016 -32.8613 20.459 -28.9062 L 26.8066 -22.5098 C 23.0469 -20.2148 16.7969 -17.627 13.3789 -14.1602 C 7.17773 -7.91016 7.27539 0.439453 13.5742 6.73828 C 19.873 13.0371 28.2715 13.1348 34.4238 6.93359 C 37.8906 3.4668 40.4785 -2.7832 42.8223 -6.49414 L 49.2676 -0.146484 C 53.1738 3.71094 58.2031 3.95508 61.8164 0.292969 L 66.2109 -4.19922 C 68.8965 -6.93359 69.4824 -10.498 67.9199 -13.7207 C 69.3848 -14.2578 70.752 -15.2344 72.0215 -16.5039 L 89.209 -33.6914 C 93.9453 -38.4277 93.7988 -44.0918 88.916 -49.0234 L 57.8125 -80.1758 C 54.541 -83.3984 50.0977 -83.4473 47.0703 -80.4688 C 45.752 -79.1992 44.7754 -77.3926 44.2871 -75 C 42.2363 -65.7715 38.0371 -56.9336 33.6914 -51.123 C 32.959 -50.1465 32.4707 -49.1699 32.1289 -48.2422 C 29.4434 -48.877 26.709 -48.0957 24.4629 -45.8984 Z M 65.4297 -21.9238 C 63.8184 -20.3125 62.4512 -19.9707 60.6934 -21.7285 L 41.4062 -40.9668 L 41.4551 -40.9668 C 39.6973 -42.7246 39.502 -44.4336 41.3574 -47.2656 C 45.0195 -52.8809 49.3164 -61.3281 51.7578 -69.9707 C 51.9043 -70.3613 52.0508 -70.7031 52.3438 -70.9961 C 52.9297 -71.582 53.6621 -71.6797 54.4434 -70.8984 L 72.0703 -53.3203 C 70.752 -47.0703 65.8203 -40.9668 62.0117 -37.207 C 61.6211 -36.8164 61.084 -36.2793 61.7188 -35.6445 C 63.623 -33.7402 74.5605 -41.4062 79.6875 -45.7031 L 81.8848 -43.457 C 83.5449 -41.8457 83.5938 -40.0879 82.0801 -38.5742 Z M 26.9531 -36.4746 L 29.4922 -38.9648 C 30.3223 -39.7949 31.4453 -39.8438 32.3242 -38.916 L 59.2285 -11.9629 C 60.0586 -11.084 60.1074 -10.0098 59.2773 -9.17969 L 56.8359 -6.64062 C 55.957 -5.76172 54.7852 -5.76172 53.9062 -6.68945 L 44.4336 -16.1621 C 42.7734 -17.8223 40.8203 -17.2363 39.1113 -15.0879 C 36.6699 -11.9141 31.5918 -1.46484 28.9551 1.17188 C 25.9277 4.15039 22.0215 4.19922 19.043 1.2207 C 16.1133 -1.75781 16.1621 -5.66406 19.1406 -8.69141 C 21.7773 -11.2793 32.1777 -16.3574 35.3516 -18.8477 C 37.5488 -20.5566 38.1348 -22.4609 36.4746 -24.1211 L 27.002 -33.5938 C 26.0742 -34.4238 26.0742 -35.6445 26.9531 -36.4746 Z M 21.1914 -0.830078 C 22.4121 0.439453 24.3164 0.439453 25.4883 -0.830078 C 26.7578 -2.14844 26.7578 -3.95508 25.4883 -5.17578 C 24.2188 -6.44531 22.3633 -6.49414 21.1914 -5.17578 C 20.0195 -3.90625 19.9219 -2.09961 21.1914 -0.830078 Z"/>
  </g>
  <g id="Medium-S" transform="matrix(1 0 0 1 1696.16 696)">
   <path d="M 19.9219 -41.2109 C 16.4062 -37.7441 16.6504 -32.9102 20.4102 -29.1504 L 27.0508 -22.4609 C 23.291 -20.0195 16.7969 -17.4316 13.2812 -13.8672 C 7.22656 -7.8125 7.32422 0.341797 13.4766 6.49414 C 19.6289 12.6953 27.7832 12.7441 33.8379 6.68945 C 37.3535 3.17383 39.9902 -3.32031 42.3828 -7.03125 L 49.1699 -0.390625 C 52.9297 3.32031 57.7637 3.56445 61.2305 0.0488281 L 65.5762 -4.44336 C 68.2617 -7.17773 68.7988 -10.6934 67.0898 -13.8672 C 68.7012 -14.4043 70.166 -15.4297 71.4355 -16.6992 L 88.623 -33.9355 C 93.2129 -38.5254 93.1152 -43.9941 88.3301 -48.7793 L 57.2266 -79.8828 C 54.1504 -82.959 49.9023 -83.1055 47.0215 -80.2246 C 45.752 -79.0039 44.8242 -77.2461 44.2871 -74.8535 C 42.1875 -65.5273 37.9883 -56.6406 33.6426 -50.8789 C 32.8613 -49.8047 32.3242 -48.8281 31.9824 -47.8027 C 29.3457 -48.5352 26.6113 -47.8516 24.4141 -45.6543 Z M 64.9902 -21.2891 C 63.4766 -19.7754 62.1582 -19.4336 60.4004 -21.1914 L 60.4004 -21.1426 L 40.5762 -40.9668 L 40.625 -40.9668 C 39.0137 -42.5293 38.623 -44.1895 40.5762 -47.2168 C 44.4336 -53.125 48.7793 -61.8652 51.2695 -70.6543 C 51.416 -71.0449 51.5625 -71.3379 51.8555 -71.6309 C 52.4414 -72.2168 53.1738 -72.3633 53.9551 -71.582 L 71.8262 -53.6621 C 70.6543 -47.3633 65.625 -41.0645 61.7188 -37.207 C 61.3281 -36.8164 60.791 -36.2793 61.4258 -35.6445 C 63.3789 -33.7402 74.6094 -41.6992 79.5898 -45.8984 L 82.0312 -43.457 C 83.6914 -41.8457 83.7402 -40.0391 82.2266 -38.5742 Z M 26.4648 -36.6211 L 29.0039 -39.1113 C 29.9316 -39.9902 31.2012 -40.0391 32.1289 -39.0625 L 59.0332 -12.1094 C 59.9609 -11.1816 59.9609 -9.96094 59.082 -9.0332 L 56.6406 -6.49414 C 55.7129 -5.51758 54.3945 -5.56641 53.418 -6.54297 L 43.9453 -16.0156 C 42.334 -17.627 40.5762 -17.041 38.916 -14.9414 C 36.4746 -11.7676 31.4453 -1.31836 28.7598 1.31836 C 25.6348 4.3457 21.582 4.44336 18.5547 1.36719 C 15.5273 -1.66016 15.5762 -5.71289 18.6523 -8.78906 C 21.2891 -11.4258 31.7383 -16.5039 34.9121 -18.9941 C 36.9629 -20.6055 37.5977 -22.4121 35.9863 -23.9746 L 26.5137 -33.4473 C 25.5371 -34.375 25.5371 -35.6934 26.4648 -36.6211 Z M 20.8008 -0.830078 C 22.0703 0.439453 23.9746 0.439453 25.1465 -0.830078 C 26.416 -2.14844 26.3672 -3.95508 25.1465 -5.17578 C 23.877 -6.39648 22.0215 -6.49414 20.8008 -5.17578 C 19.6289 -3.85742 19.5801 -2.09961 20.8008 -0.830078 Z"/>
  </g>
  <g id="Regular-S" transform="matrix(1 0 0 1 1399.89 696)">
   <path d="M 19.8242 -40.8691 C 16.4551 -37.5977 16.6992 -33.0566 20.3125 -29.4434 L 27.3926 -22.3145 C 23.584 -19.8242 16.748 -17.1387 13.1348 -13.5254 C 7.27539 -7.66602 7.37305 0.195312 13.3301 6.20117 C 19.3359 12.1582 27.1973 12.2559 33.0566 6.39648 C 36.6699 2.7832 39.3555 -4.05273 41.8457 -7.8125 L 49.0234 -0.732422 C 52.6367 2.83203 57.1777 3.02734 60.4492 -0.292969 L 64.8438 -4.73633 C 67.4805 -7.4707 67.8711 -10.9375 66.0156 -14.0625 C 67.7734 -14.5996 69.3359 -15.6738 70.6543 -16.9922 L 87.8906 -34.2285 C 92.2852 -38.623 92.1875 -43.8965 87.5977 -48.4375 L 56.4941 -79.541 C 53.6621 -82.4219 49.6582 -82.666 46.9238 -79.9805 C 45.752 -78.7598 44.8242 -77.002 44.2871 -74.6582 C 42.1875 -65.1367 37.8906 -56.2988 33.5938 -50.5371 C 32.7148 -49.4141 32.1777 -48.3398 31.8359 -47.2656 C 29.1992 -48.1445 26.5137 -47.5098 24.2676 -45.3125 Z M 64.3555 -20.459 C 62.9883 -19.0918 61.7188 -18.75 60.0586 -20.459 L 39.502 -40.918 L 39.5508 -40.9668 C 38.1836 -42.334 37.4512 -43.8965 39.5508 -47.1191 C 43.7012 -53.5156 48.1445 -62.5 50.6348 -71.5332 C 50.7812 -71.875 50.9277 -72.2168 51.2207 -72.5098 C 51.8066 -73.0957 52.4902 -73.2422 53.2715 -72.4609 L 71.5332 -54.1992 C 70.5078 -47.7051 65.332 -41.2109 61.3281 -37.207 C 60.9375 -36.8164 60.4004 -36.2793 61.0352 -35.6934 C 63.0371 -33.6914 74.707 -42.0898 79.541 -46.1914 L 82.2754 -43.457 C 83.8867 -41.8457 83.9355 -40.0391 82.4707 -38.5742 Z M 25.8301 -36.7676 L 28.3691 -39.3066 C 29.3945 -40.2832 30.8594 -40.332 31.8848 -39.2578 L 58.7891 -12.3047 C 59.8145 -11.2305 59.8145 -9.86328 58.8379 -8.83789 L 56.3477 -6.29883 C 55.3223 -5.22461 53.9062 -5.27344 52.832 -6.34766 L 43.3105 -15.8691 C 41.8457 -17.334 40.1855 -16.6992 38.6719 -14.7949 C 36.2305 -11.5723 31.2012 -1.17188 28.5156 1.51367 C 25.2441 4.63867 21.0449 4.73633 17.9199 1.61133 C 14.8438 -1.5625 14.8438 -5.76172 18.0176 -8.98438 C 20.7031 -11.6211 31.1035 -16.6992 34.3262 -19.1406 C 36.2305 -20.6543 36.9141 -22.3145 35.3516 -23.7793 L 25.8789 -33.252 C 24.8047 -34.2773 24.8047 -35.7422 25.8301 -36.7676 Z M 20.3613 -0.78125 C 21.6309 0.439453 23.4863 0.439453 24.707 -0.78125 C 25.9766 -2.09961 25.9277 -3.90625 24.707 -5.12695 C 23.4375 -6.39648 21.5332 -6.44531 20.3613 -5.12695 C 19.1895 -3.80859 19.0918 -2.05078 20.3613 -0.78125 Z"/>
  </g>
  <g id="Light-S" transform="matrix(1 0 0 1 1103.74 696)">
   <path d="M 20.2637 -40.7227 C 17.0898 -37.5488 17.2363 -33.5449 20.6543 -30.127 L 28.5645 -22.168 C 24.5605 -19.6777 16.4062 -16.3574 12.793 -12.7441 C 7.42188 -7.32422 7.42188 0.0488281 12.9883 5.61523 C 18.5547 11.1328 25.8789 11.1816 31.2988 5.76172 C 34.9121 2.14844 38.2812 -5.95703 40.7715 -9.96094 L 48.7305 -2.00195 C 52.1484 1.36719 56.2012 1.51367 59.375 -1.66016 L 63.2812 -5.66406 C 65.8691 -8.30078 66.2598 -11.4746 64.4043 -14.3555 C 66.0156 -14.6973 67.5293 -15.5762 68.75 -16.8457 L 86.9629 -35.1562 C 91.0645 -39.2578 90.9668 -44.043 86.6699 -48.291 L 56.1523 -78.8086 C 53.5156 -81.4453 49.9512 -81.6895 47.5098 -79.248 C 46.4355 -78.1738 45.5566 -76.6113 45.1172 -74.4629 C 43.1152 -64.9902 39.0625 -56.2012 33.6914 -49.5605 C 32.8613 -48.4375 32.2754 -47.4121 32.0312 -46.2891 C 29.3945 -47.5098 26.6113 -47.0215 24.2676 -44.6777 Z M 64.1113 -19.7266 C 62.3535 -17.9688 60.6445 -18.5059 59.082 -20.0684 L 38.3789 -40.7227 L 38.4277 -40.7715 C 36.8652 -42.2852 36.2305 -43.9453 38.3789 -46.9727 C 43.0664 -53.3691 47.4121 -61.9629 50.1465 -72.2656 C 50.2441 -72.8027 50.4883 -73.2422 50.8789 -73.6328 C 51.5625 -74.3164 52.4414 -74.5605 53.418 -73.6328 L 72.2168 -54.7852 C 71.2891 -48.5352 66.2598 -42.2363 62.4512 -38.4277 C 62.1094 -38.0859 61.5723 -37.5488 62.1582 -36.9629 C 64.0625 -35.0586 75.3418 -43.1641 79.9316 -47.0703 L 82.6172 -44.4336 C 84.5703 -42.4316 84.668 -40.332 82.8613 -38.5254 Z M 24.8047 -37.4512 L 27.4902 -40.1367 C 28.8574 -41.4551 30.4688 -41.4551 31.8359 -40.0391 L 58.6426 -13.1836 C 60.0098 -11.7676 60.0586 -10.2539 58.7402 -8.88672 L 56.1035 -6.20117 C 54.7852 -4.83398 53.1738 -4.93164 51.7578 -6.29883 L 42.041 -16.0156 C 40.8203 -17.2852 39.4043 -16.7969 38.1348 -15.1367 C 35.0586 -10.498 30.6152 -0.830078 27.7832 2.00195 C 24.4141 5.27344 19.9219 5.37109 16.5527 2.00195 C 13.2324 -1.31836 13.2324 -5.85938 16.6016 -9.17969 C 19.3848 -11.9629 29.0527 -16.4551 33.7402 -19.5801 C 35.4004 -20.8008 35.8887 -22.2168 34.5703 -23.4863 L 24.9023 -33.1543 C 23.5352 -34.4727 23.4863 -36.1328 24.8047 -37.4512 Z M 19.2383 -0.634766 C 20.459 0.585938 22.3633 0.585938 23.5352 -0.634766 C 24.7559 -1.9043 24.707 -3.71094 23.5352 -4.93164 C 22.3145 -6.15234 20.4102 -6.15234 19.2383 -4.93164 C 18.1152 -3.66211 18.0176 -1.85547 19.2383 -0.634766 Z"/>
  </g>
  <g id="Thin-S" transform="matrix(1 0 0 1 807.789 696)">
   <path d="M 20.8984 -40.4785 C 17.8711 -37.5 17.9688 -34.1797 21.1426 -30.957 L 30.127 -21.9727 C 25.8301 -19.4824 15.9668 -15.332 12.3535 -11.7188 C 7.56836 -6.93359 7.51953 -0.195312 12.5488 4.78516 C 17.5293 9.81445 24.2188 9.76562 29.0039 4.98047 C 32.6172 1.36719 36.8164 -8.49609 39.3066 -12.793 L 48.3887 -3.75977 C 51.5625 -0.585938 54.9316 -0.537109 57.9102 -3.4668 L 61.2305 -6.83594 C 63.7207 -9.32617 64.0625 -12.1094 62.3047 -14.7949 C 63.7207 -14.8926 65.1367 -15.4785 66.3086 -16.6504 L 85.7422 -36.3281 C 89.4531 -40.0391 89.3555 -44.1895 85.4492 -48.0957 L 55.7129 -77.832 C 53.2715 -80.2246 50.293 -80.4199 48.2422 -78.3691 C 47.3145 -77.4414 46.582 -76.0254 46.2402 -74.2188 C 44.3848 -64.8438 40.625 -56.1035 33.8379 -48.1934 C 33.0078 -47.168 32.373 -46.0938 32.2266 -44.9219 C 29.541 -46.7285 26.8066 -46.3867 24.2676 -43.8477 Z M 63.7695 -18.7988 C 61.5234 -16.5039 59.1797 -18.1641 57.7637 -19.5801 L 36.9141 -40.4785 C 35.1074 -42.2852 34.6191 -43.9941 36.8164 -46.7285 C 42.1875 -53.2227 46.4844 -61.2305 49.4629 -73.291 C 49.6094 -73.9746 49.9512 -74.6582 50.4395 -75.1465 C 51.2695 -75.9766 52.3926 -76.2695 53.5645 -75.0977 L 73.1934 -55.5664 C 72.3145 -49.6094 67.5781 -43.6523 63.9648 -40.0391 C 63.5742 -39.6973 63.0859 -39.209 63.6719 -38.623 C 65.4297 -36.8652 76.1719 -44.5801 80.4688 -48.291 L 83.0566 -45.7031 C 85.5469 -43.2617 85.5957 -40.7227 83.3496 -38.4766 Z M 23.5352 -38.3301 L 26.3672 -41.2109 C 28.0762 -42.9688 29.9316 -42.9199 31.7871 -41.0645 L 58.4961 -14.3555 C 60.3027 -12.5 60.3516 -10.7422 58.5938 -8.98438 L 55.7617 -6.10352 C 54.0039 -4.3457 52.1973 -4.44336 50.3906 -6.25 L 40.4297 -16.2109 C 39.4531 -17.1875 38.3301 -16.9434 37.4023 -15.5762 C 33.4473 -9.08203 29.7852 -0.341797 26.8066 2.63672 C 23.291 6.10352 18.3594 6.15234 14.7461 2.58789 C 11.1328 -1.02539 11.1816 -5.95703 14.6484 -9.47266 C 17.627 -12.4512 26.3672 -16.1133 32.9102 -20.0684 C 34.2773 -20.9961 34.5215 -22.1191 33.5449 -23.0957 L 23.6328 -33.0078 C 21.8262 -34.7656 21.8262 -36.6211 23.5352 -38.3301 Z M 17.7734 -0.439453 C 18.9453 0.732422 20.8008 0.732422 21.9727 -0.439453 C 23.1445 -1.66016 23.0957 -3.4668 21.9727 -4.63867 C 20.8008 -5.81055 18.8965 -5.81055 17.7734 -4.63867 C 16.6504 -3.4668 16.5527 -1.61133 17.7734 -0.439453 Z"/>
  </g>
  <g id="Ultralight-S" transform="matrix(1 0 0 1 511.469 696)">
   <path d="M 21.1914 -40.3809 C 18.3105 -37.4512 18.3105 -34.4727 21.4355 -31.3965 L 30.957 -21.875 C 26.5137 -19.3848 15.7715 -14.7949 12.1582 -11.1816 C 7.66602 -6.68945 7.61719 -0.292969 12.3047 4.39453 C 16.9922 9.08203 23.3398 9.0332 27.832 4.54102 C 31.4453 0.927734 36.0352 -9.81445 38.5254 -14.2578 L 48.1934 -4.63867 C 51.2207 -1.5625 54.2969 -1.5625 57.1289 -4.44336 L 60.2051 -7.4707 C 62.5977 -9.86328 62.9883 -12.4512 61.2305 -14.9902 C 62.5488 -14.9902 63.8672 -15.4297 65.0391 -16.5527 L 85.1562 -36.9629 C 88.623 -40.4785 88.5742 -44.3359 84.8633 -47.998 L 55.4688 -77.2949 C 53.1738 -79.5898 50.4883 -79.7363 48.6328 -77.8809 C 47.8027 -77.0508 47.0703 -75.7324 46.7773 -74.1211 C 45.0684 -64.6973 41.4062 -56.0059 33.9355 -47.5098 C 33.0566 -46.5332 32.4219 -45.3613 32.2754 -44.0918 C 29.541 -46.2891 26.9043 -46.0449 24.2676 -43.4082 Z M 63.623 -18.2617 C 61.084 -15.7715 58.4473 -18.0176 57.1289 -19.3359 L 36.1328 -40.332 C 34.2285 -42.2363 33.7891 -44.043 36.0352 -46.6309 C 41.748 -53.125 45.9961 -60.8398 49.1211 -73.8281 C 49.2676 -74.6094 49.6582 -75.3906 50.1953 -75.8789 C 51.1719 -76.8555 52.3926 -77.1973 53.6621 -75.8789 L 73.6816 -55.957 C 72.8516 -50.1953 68.2129 -44.3848 64.6973 -40.8691 C 64.3555 -40.5273 63.8672 -40.0391 64.4043 -39.502 C 66.1133 -37.793 76.6113 -45.2637 80.7617 -48.877 L 83.3008 -46.3379 C 86.0352 -43.6523 86.1328 -40.918 83.6426 -38.4277 Z M 22.8516 -38.8184 L 25.7812 -41.748 C 27.7344 -43.75 29.6875 -43.6523 31.7383 -41.6016 L 58.3984 -14.9414 C 60.4492 -12.8906 60.498 -10.9863 58.5449 -9.0332 L 55.6152 -6.05469 C 53.6621 -4.10156 51.709 -4.19922 49.707 -6.20117 L 39.5996 -16.3086 C 38.7695 -17.1387 37.7441 -17.041 37.0605 -15.8203 C 32.666 -8.30078 29.3945 -0.0976562 26.3184 2.92969 C 22.7539 6.54297 17.627 6.5918 13.8184 2.88086 C 10.0586 -0.878906 10.1074 -6.05469 13.6719 -9.61914 C 16.748 -12.6953 25 -15.9668 32.5195 -20.3613 C 33.7402 -21.0938 33.8379 -22.0703 33.0078 -22.9004 L 22.998 -32.9102 C 20.9961 -34.9121 20.9473 -36.8652 22.8516 -38.8184 Z M 16.9922 -0.341797 C 18.1641 0.830078 20.0684 0.830078 21.1914 -0.341797 C 22.3633 -1.51367 22.3145 -3.36914 21.1914 -4.49219 C 20.0195 -5.61523 18.1152 -5.61523 16.9922 -4.49219 C 15.8691 -3.36914 15.8203 -1.51367 16.9922 -0.341797 Z"/>
  </g>
 </g>
</svg>
