<?xml version="1.0" encoding="UTF-8"?>
<!--Generator: Apple Native CoreSVG 123-->
<!DOCTYPE svg
PUBLIC "-//W3C//DTD SVG 1.1//EN"
       "http://www.w3.org/Graphics/SVG/1.1/DTD/svg11.dtd">
<svg version="1.1" xmlns="http://www.w3.org/2000/svg" xmlns:xlink="http://www.w3.org/1999/xlink" width="3300" height="2200">
 <!--glyph: "uni100483.medium", point size: 100.000000, font version: "Version 15.0d7e11", template writer version: "5"-->
 <g id="Notes">
  <rect height="2200" id="artboard" style="fill:white;opacity:1" width="3300" x="0" y="0"/>
  <line id="" style="fill:none;stroke:black;opacity:1;stroke-width:0.5;" x1="263" x2="3036" y1="292" y2="292"/>
  <text style="stroke:none;fill:black;font-family:-apple-system,&quot;SF Pro Display&quot;,&quot;SF Pro Text&quot;,Helvetica,sans-serif;font-weight:bold;" transform="matrix(1 0 0 1 263 322)">Weight/Scale Variations</text>
  <text style="stroke:none;fill:black;font-family:-apple-system,&quot;SF Pro Display&quot;,&quot;SF Pro Text&quot;,Helvetica,sans-serif;text-anchor:middle;" transform="matrix(1 0 0 1 559.711 322)">Ultralight</text>
  <text style="stroke:none;fill:black;font-family:-apple-system,&quot;SF Pro Display&quot;,&quot;SF Pro Text&quot;,Helvetica,sans-serif;text-anchor:middle;" transform="matrix(1 0 0 1 856.422 322)">Thin</text>
  <text style="stroke:none;fill:black;font-family:-apple-system,&quot;SF Pro Display&quot;,&quot;SF Pro Text&quot;,Helvetica,sans-serif;text-anchor:middle;" transform="matrix(1 0 0 1 1153.13 322)">Light</text>
  <text style="stroke:none;fill:black;font-family:-apple-system,&quot;SF Pro Display&quot;,&quot;SF Pro Text&quot;,Helvetica,sans-serif;text-anchor:middle;" transform="matrix(1 0 0 1 1449.84 322)">Regular</text>
  <text style="stroke:none;fill:black;font-family:-apple-system,&quot;SF Pro Display&quot;,&quot;SF Pro Text&quot;,Helvetica,sans-serif;text-anchor:middle;" transform="matrix(1 0 0 1 1746.56 322)">Medium</text>
  <text style="stroke:none;fill:black;font-family:-apple-system,&quot;SF Pro Display&quot;,&quot;SF Pro Text&quot;,Helvetica,sans-serif;text-anchor:middle;" transform="matrix(1 0 0 1 2043.27 322)">Semibold</text>
  <text style="stroke:none;fill:black;font-family:-apple-system,&quot;SF Pro Display&quot;,&quot;SF Pro Text&quot;,Helvetica,sans-serif;text-anchor:middle;" transform="matrix(1 0 0 1 2339.98 322)">Bold</text>
  <text style="stroke:none;fill:black;font-family:-apple-system,&quot;SF Pro Display&quot;,&quot;SF Pro Text&quot;,Helvetica,sans-serif;text-anchor:middle;" transform="matrix(1 0 0 1 2636.69 322)">Heavy</text>
  <text style="stroke:none;fill:black;font-family:-apple-system,&quot;SF Pro Display&quot;,&quot;SF Pro Text&quot;,Helvetica,sans-serif;text-anchor:middle;" transform="matrix(1 0 0 1 2933.4 322)">Black</text>
  <line id="" style="fill:none;stroke:black;opacity:1;stroke-width:0.5;" x1="263" x2="3036" y1="1903" y2="1903"/>
  <g id="" transform="matrix(1 0 0 1 263 1933)">
   <path d="M 9.24805 0.830078 C 13.5547 0.830078 17.1387 -2.74414 17.1387 -7.05078 C 17.1387 -11.3574 13.5449 -14.9316 9.23828 -14.9316 C 4.94141 -14.9316 1.36719 -11.3574 1.36719 -7.05078 C 1.36719 -2.74414 4.95117 0.830078 9.24805 0.830078 Z M 9.24805 -0.654297 C 5.70312 -0.654297 2.87109 -3.49609 2.87109 -7.05078 C 2.87109 -10.6055 5.69336 -13.4473 9.23828 -13.4473 C 12.793 -13.4473 15.6348 -10.6055 15.6445 -7.05078 C 15.6543 -3.49609 12.8027 -0.654297 9.24805 -0.654297 Z M 9.22852 -3.42773 C 9.69727 -3.42773 9.9707 -3.74023 9.9707 -4.25781 L 9.9707 -6.31836 L 12.1973 -6.31836 C 12.6953 -6.31836 13.0371 -6.57227 13.0371 -7.04102 C 13.0371 -7.51953 12.7148 -7.7832 12.1973 -7.7832 L 9.9707 -7.7832 L 9.9707 -10.0098 C 9.9707 -10.5273 9.69727 -10.8496 9.22852 -10.8496 C 8.75977 -10.8496 8.50586 -10.5078 8.50586 -10.0098 L 8.50586 -7.7832 L 6.29883 -7.7832 C 5.78125 -7.7832 5.44922 -7.51953 5.44922 -7.04102 C 5.44922 -6.57227 5.80078 -6.31836 6.29883 -6.31836 L 8.50586 -6.31836 L 8.50586 -4.25781 C 8.50586 -3.75977 8.75977 -3.42773 9.22852 -3.42773 Z"/>
  </g>
  <g id="" transform="matrix(1 0 0 1 281.506 1933)">
   <path d="M 11.709 2.91016 C 17.1582 2.91016 21.6699 -1.60156 21.6699 -7.05078 C 21.6699 -12.4902 17.1484 -17.0117 11.6992 -17.0117 C 6.25977 -17.0117 1.74805 -12.4902 1.74805 -7.05078 C 1.74805 -1.60156 6.26953 2.91016 11.709 2.91016 Z M 11.709 1.25 C 7.09961 1.25 3.41797 -2.44141 3.41797 -7.05078 C 3.41797 -11.6504 7.08984 -15.3516 11.6992 -15.3516 C 16.3086 -15.3516 20 -11.6504 20.0098 -7.05078 C 20.0195 -2.44141 16.3184 1.25 11.709 1.25 Z M 11.6895 -2.41211 C 12.207 -2.41211 12.5195 -2.77344 12.5195 -3.33984 L 12.5195 -6.23047 L 15.5762 -6.23047 C 16.123 -6.23047 16.5039 -6.51367 16.5039 -7.03125 C 16.5039 -7.55859 16.1426 -7.86133 15.5762 -7.86133 L 12.5195 -7.86133 L 12.5195 -10.9277 C 12.5195 -11.5039 12.207 -11.8555 11.6895 -11.8555 C 11.1719 -11.8555 10.8789 -11.4844 10.8789 -10.9277 L 10.8789 -7.86133 L 7.83203 -7.86133 C 7.26562 -7.86133 6.89453 -7.55859 6.89453 -7.03125 C 6.89453 -6.51367 7.28516 -6.23047 7.83203 -6.23047 L 10.8789 -6.23047 L 10.8789 -3.33984 C 10.8789 -2.79297 11.1719 -2.41211 11.6895 -2.41211 Z"/>
  </g>
  <g id="" transform="matrix(1 0 0 1 304.924 1933)">
   <path d="M 14.9707 5.67383 C 21.9336 5.67383 27.6953 -0.078125 27.6953 -7.04102 C 27.6953 -14.0039 21.9238 -19.7559 14.9609 -19.7559 C 8.00781 -19.7559 2.25586 -14.0039 2.25586 -7.04102 C 2.25586 -0.078125 8.01758 5.67383 14.9707 5.67383 Z M 14.9707 3.85742 C 8.93555 3.85742 4.08203 -1.00586 4.08203 -7.04102 C 4.08203 -13.0762 8.92578 -17.9395 14.9609 -17.9395 C 21.0059 -17.9395 25.8594 -13.0762 25.8691 -7.04102 C 25.8789 -1.00586 21.0156 3.85742 14.9707 3.85742 Z M 14.9512 -1.06445 C 15.5176 -1.06445 15.8691 -1.45508 15.8691 -2.06055 L 15.8691 -6.13281 L 20.1074 -6.13281 C 20.6934 -6.13281 21.1133 -6.46484 21.1133 -7.02148 C 21.1133 -7.59766 20.7227 -7.93945 20.1074 -7.93945 L 15.8691 -7.93945 L 15.8691 -12.1875 C 15.8691 -12.8027 15.5176 -13.1934 14.9512 -13.1934 C 14.3848 -13.1934 14.0625 -12.7832 14.0625 -12.1875 L 14.0625 -7.93945 L 9.83398 -7.93945 C 9.21875 -7.93945 8.80859 -7.59766 8.80859 -7.02148 C 8.80859 -6.46484 9.23828 -6.13281 9.83398 -6.13281 L 14.0625 -6.13281 L 14.0625 -2.06055 C 14.0625 -1.47461 14.3848 -1.06445 14.9512 -1.06445 Z"/>
  </g>
  <text style="stroke:none;fill:black;font-family:-apple-system,&quot;SF Pro Display&quot;,&quot;SF Pro Text&quot;,Helvetica,sans-serif;font-weight:bold;" transform="matrix(1 0 0 1 263 1953)">Design Variations</text>
  <text style="stroke:none;fill:black;font-family:-apple-system,&quot;SF Pro Display&quot;,&quot;SF Pro Text&quot;,Helvetica,sans-serif;" transform="matrix(1 0 0 1 263 1971)">Symbols are supported in up to nine weights and three scales.</text>
  <text style="stroke:none;fill:black;font-family:-apple-system,&quot;SF Pro Display&quot;,&quot;SF Pro Text&quot;,Helvetica,sans-serif;" transform="matrix(1 0 0 1 263 1989)">For optimal layout with text and other symbols, vertically align</text>
  <text style="stroke:none;fill:black;font-family:-apple-system,&quot;SF Pro Display&quot;,&quot;SF Pro Text&quot;,Helvetica,sans-serif;" transform="matrix(1 0 0 1 263 2007)">symbols with the adjacent text.</text>
  <rect height="14" id="" style="fill:#00AEEF;stroke:none;opacity:0.4;" width="3" x="776" y="1919"/>
  <g id="" transform="matrix(1 0 0 1 779 1933)">
   <path d="M 10.5273 0 L 12.373 0 L 7.17773 -14.0918 L 5.43945 -14.0918 L 0.244141 0 L 2.08984 0 L 3.50586 -4.0332 L 9.11133 -4.0332 Z M 6.2793 -11.9531 L 6.33789 -11.9531 L 8.59375 -5.52734 L 4.02344 -5.52734 Z"/>
  </g>
  <rect height="14" id="" style="fill:#00AEEF;stroke:none;opacity:0.4;" width="3" x="791.617" y="1919"/>
  <text style="stroke:none;fill:black;font-family:-apple-system,&quot;SF Pro Display&quot;,&quot;SF Pro Text&quot;,Helvetica,sans-serif;font-weight:bold;" transform="matrix(1 0 0 1 776 1953)">Margins</text>
  <text style="stroke:none;fill:black;font-family:-apple-system,&quot;SF Pro Display&quot;,&quot;SF Pro Text&quot;,Helvetica,sans-serif;" transform="matrix(1 0 0 1 776 1971)">Leading and trailing margins on the left and right side of each symbol</text>
  <text style="stroke:none;fill:black;font-family:-apple-system,&quot;SF Pro Display&quot;,&quot;SF Pro Text&quot;,Helvetica,sans-serif;" transform="matrix(1 0 0 1 776 1989)">can be adjusted by modifying the width of the blue rectangles.</text>
  <text style="stroke:none;fill:black;font-family:-apple-system,&quot;SF Pro Display&quot;,&quot;SF Pro Text&quot;,Helvetica,sans-serif;" transform="matrix(1 0 0 1 776 2007)">Modifications are automatically applied proportionally to all</text>
  <text style="stroke:none;fill:black;font-family:-apple-system,&quot;SF Pro Display&quot;,&quot;SF Pro Text&quot;,Helvetica,sans-serif;" transform="matrix(1 0 0 1 776 2025)">scales and weights.</text>
  <g id="" transform="matrix(1 0 0 1 1289 1933)">
   <path d="M 2.83203 3.11523 L 4.375 4.6582 C 5.22461 5.48828 6.19141 5.41992 7.06055 4.46289 L 17.2754 -6.66016 C 17.7051 -6.36719 18.0957 -6.37695 18.5645 -6.47461 L 19.6094 -6.68945 L 20.3027 -5.99609 L 20.2539 -5.47852 C 20.1855 -4.95117 20.3516 -4.53125 20.8496 -4.0332 L 21.6602 -3.22266 C 22.168 -2.71484 22.8223 -2.68555 23.3008 -3.16406 L 26.5527 -6.41602 C 27.0312 -6.89453 27.0117 -7.54883 26.5039 -8.05664 L 25.6836 -8.87695 C 25.1855 -9.375 24.7754 -9.55078 24.2383 -9.47266 L 23.7109 -9.41406 L 23.0566 -10.0781 L 23.3398 -11.2207 C 23.4863 -11.7871 23.3398 -12.2559 22.7148 -12.8613 L 20.3027 -15.2539 C 16.7578 -18.7793 12.2266 -18.6719 9.11133 -15.5371 C 8.69141 -15.1074 8.64258 -14.5215 8.91602 -14.0918 C 9.15039 -13.7207 9.62891 -13.4961 10.2734 -13.6621 C 11.7871 -14.043 13.3008 -13.9258 14.7852 -12.9199 L 14.1602 -11.3379 C 13.9258 -10.752 13.9453 -10.2734 14.1797 -9.83398 L 3.01758 0.439453 C 2.08008 1.30859 1.97266 2.25586 2.83203 3.11523 Z M 10.6738 -15.1465 C 13.3398 -17.1387 16.6504 -16.8262 19.0527 -14.4141 L 21.6797 -11.8066 C 21.9141 -11.5723 21.9434 -11.3867 21.8848 -11.0938 L 21.5039 -9.53125 L 23.0762 -7.95898 L 24.043 -8.04688 C 24.3262 -8.07617 24.4141 -8.05664 24.6387 -7.83203 L 25.2637 -7.20703 L 22.5098 -4.46289 L 21.8848 -5.07812 C 21.6602 -5.30273 21.6406 -5.40039 21.6699 -5.68359 L 21.7578 -6.64062 L 20.1953 -8.20312 L 18.5742 -7.89062 C 18.291 -7.83203 18.1445 -7.83203 17.9102 -8.07617 L 15.7324 -10.2539 C 15.5078 -10.4883 15.4785 -10.625 15.6055 -10.9473 L 16.5527 -13.2227 C 14.9512 -14.7559 12.8418 -15.6055 10.8008 -14.9512 C 10.7129 -14.9219 10.6445 -14.9414 10.6152 -14.9805 C 10.5859 -15.0293 10.5859 -15.0781 10.6738 -15.1465 Z M 4.10156 2.41211 C 3.61328 1.91406 3.78906 1.61133 4.12109 1.30859 L 15.0781 -8.80859 L 16.3086 -7.57812 L 6.15234 3.34961 C 5.84961 3.68164 5.46875 3.7793 5.06836 3.37891 Z"/>
  </g>
  <text style="stroke:none;fill:black;font-family:-apple-system,&quot;SF Pro Display&quot;,&quot;SF Pro Text&quot;,Helvetica,sans-serif;font-weight:bold;" transform="matrix(1 0 0 1 1289 1953)">Exporting</text>
  <text style="stroke:none;fill:black;font-family:-apple-system,&quot;SF Pro Display&quot;,&quot;SF Pro Text&quot;,Helvetica,sans-serif;" transform="matrix(1 0 0 1 1289 1971)">Symbols should be outlined when exporting to ensure the</text>
  <text style="stroke:none;fill:black;font-family:-apple-system,&quot;SF Pro Display&quot;,&quot;SF Pro Text&quot;,Helvetica,sans-serif;" transform="matrix(1 0 0 1 1289 1989)">design is preserved when submitting to Xcode.</text>
  <text id="template-version" style="stroke:none;fill:black;font-family:-apple-system,&quot;SF Pro Display&quot;,&quot;SF Pro Text&quot;,Helvetica,sans-serif;text-anchor:end;" transform="matrix(1 0 0 1 3036 1933)">Template v.1.0</text>
  <text style="stroke:none;fill:black;font-family:-apple-system,&quot;SF Pro Display&quot;,&quot;SF Pro Text&quot;,Helvetica,sans-serif;text-anchor:end;" transform="matrix(1 0 0 1 3036 1951)">Generated from suit.club</text>
  <text style="stroke:none;fill:black;font-family:-apple-system,&quot;SF Pro Display&quot;,&quot;SF Pro Text&quot;,Helvetica,sans-serif;text-anchor:end;" transform="matrix(1 0 0 1 3036 1969)">Typeset at 100 points</text>
  <text style="stroke:none;fill:black;font-family:-apple-system,&quot;SF Pro Display&quot;,&quot;SF Pro Text&quot;,Helvetica,sans-serif;" transform="matrix(1 0 0 1 263 726)">Small</text>
  <text style="stroke:none;fill:black;font-family:-apple-system,&quot;SF Pro Display&quot;,&quot;SF Pro Text&quot;,Helvetica,sans-serif;" transform="matrix(1 0 0 1 263 1156)">Medium</text>
  <text style="stroke:none;fill:black;font-family:-apple-system,&quot;SF Pro Display&quot;,&quot;SF Pro Text&quot;,Helvetica,sans-serif;" transform="matrix(1 0 0 1 263 1586)">Large</text>
 </g>
 <g id="Guides">
  <g id="H-reference" style="fill:#27AAE1;stroke:none;" transform="matrix(1 0 0 1 339 696)">
   <path d="M 54.9316 0 L 57.666 0 L 30.5664 -70.459 L 28.0762 -70.459 L 0.976562 0 L 3.66211 0 L 12.9395 -24.4629 L 45.7031 -24.4629 Z M 29.1992 -67.0898 L 29.4434 -67.0898 L 44.8242 -26.709 L 13.8184 -26.709 Z"/>
  </g>
  <line id="Baseline-S" style="fill:none;stroke:#27AAE1;opacity:1;stroke-width:0.577;" x1="263" x2="3036" y1="696" y2="696"/>
  <line id="Capline-S" style="fill:none;stroke:#27AAE1;opacity:1;stroke-width:0.577;" x1="263" x2="3036" y1="625.541" y2="625.541"/>
  <g id="H-reference" style="fill:#27AAE1;stroke:none;" transform="matrix(1 0 0 1 339 1126)">
   <path d="M 54.9316 0 L 57.666 0 L 30.5664 -70.459 L 28.0762 -70.459 L 0.976562 0 L 3.66211 0 L 12.9395 -24.4629 L 45.7031 -24.4629 Z M 29.1992 -67.0898 L 29.4434 -67.0898 L 44.8242 -26.709 L 13.8184 -26.709 Z"/>
  </g>
  <line id="Baseline-M" style="fill:none;stroke:#27AAE1;opacity:1;stroke-width:0.577;" x1="263" x2="3036" y1="1126" y2="1126"/>
  <line id="Capline-M" style="fill:none;stroke:#27AAE1;opacity:1;stroke-width:0.577;" x1="263" x2="3036" y1="1055.54" y2="1055.54"/>
  <g id="H-reference" style="fill:#27AAE1;stroke:none;" transform="matrix(1 0 0 1 339 1556)">
   <path d="M 54.9316 0 L 57.666 0 L 30.5664 -70.459 L 28.0762 -70.459 L 0.976562 0 L 3.66211 0 L 12.9395 -24.4629 L 45.7031 -24.4629 Z M 29.1992 -67.0898 L 29.4434 -67.0898 L 44.8242 -26.709 L 13.8184 -26.709 Z"/>
  </g>
  <line id="Baseline-L" style="fill:none;stroke:#27AAE1;opacity:1;stroke-width:0.577;" x1="263" x2="3036" y1="1556" y2="1556"/>
  <line id="Capline-L" style="fill:none;stroke:#27AAE1;opacity:1;stroke-width:0.577;" x1="263" x2="3036" y1="1485.54" y2="1485.54"/>
  <rect height="119.336" id="left-margin" style="fill:#00AEEF;stroke:none;opacity:0.4;" width="8.74023" x="1394.55" y="1030.79"/>
  <rect height="119.336" id="right-margin" style="fill:#00AEEF;stroke:none;opacity:0.4;" width="8.74023" x="1496.4" y="1030.79"/>
 </g>
 <g id="Symbols">
  <g id="Black-L" transform="matrix(1 0 0 1 2854.35 1556)">
   <path d="M 11.2793 -24.2188 C 11.2793 -5.71289 25.3906 5.9082 40.0879 5.9082 C 45.9961 5.9082 51.0742 5.07812 55.4199 3.02734 C 53.125 6.98242 50.3418 9.81445 47.6562 12.9883 C 41.6016 20.1172 44.3848 31.25 55.4199 31.25 L 102.686 31.25 C 113.721 31.25 116.504 20.1172 110.449 12.9883 C 107.764 9.81445 104.98 6.98242 102.686 3.02734 C 107.031 5.07812 112.109 5.9082 118.018 5.9082 C 132.715 5.9082 146.826 -5.71289 146.826 -24.2188 C 146.826 -41.2598 133.252 -54.3945 116.26 -54.3945 C 111.963 -54.3945 107.471 -53.6133 103.906 -51.7578 C 108.105 -56.543 109.912 -62.2559 109.912 -68.3594 C 109.912 -85.4492 96.0449 -99.2188 79.0527 -99.2188 C 62.0605 -99.2188 48.1934 -85.4492 48.1934 -68.3594 C 48.1934 -62.2559 50.0488 -56.543 54.248 -51.7578 C 50.6348 -53.6133 46.1914 -54.3945 41.8457 -54.3945 C 24.8535 -54.3945 11.2793 -41.2598 11.2793 -24.2188 Z M 32.8613 -25.2441 C 32.8613 -32.5195 38.3301 -37.6953 45.5566 -37.6953 C 51.3672 -37.6953 55.127 -35.6445 58.7402 -34.0332 C 61.084 -32.9102 63.4766 -31.9336 66.6504 -31.9336 C 72.1191 -31.9336 75.2441 -35.0098 75.2441 -39.6973 C 75.2441 -42.041 74.5117 -44.5801 72.8516 -47.168 C 69.0918 -52.7344 65.4297 -58.8379 65.4297 -68.2617 C 65.4297 -75.8301 71.5332 -81.9824 79.0527 -81.9824 C 86.5723 -81.9824 92.6758 -75.8301 92.6758 -68.2617 C 92.6758 -58.8379 89.0137 -52.7344 85.2539 -47.168 C 83.5938 -44.5801 82.9102 -42.041 82.9102 -39.6973 C 82.9102 -35.0098 85.9863 -31.9336 91.4551 -31.9336 C 94.6289 -31.9336 97.0215 -32.9102 99.3652 -34.0332 C 102.881 -35.6934 106.738 -37.6953 112.549 -37.6953 C 119.775 -37.6953 125.244 -32.5195 125.244 -25.2441 C 125.244 -18.2129 120.02 -13.5254 112.549 -13.5254 C 106.689 -13.5254 102.539 -15.0879 97.9492 -17.4805 C 92.7246 -20.2148 84.6191 -17.627 84.6191 -8.20312 C 84.6191 -2.83203 87.4023 3.85742 90.4297 8.88672 C 91.0156 9.91211 90.4785 10.498 89.8438 10.498 L 68.3105 10.498 C 67.627 10.498 67.0898 9.91211 67.6758 8.88672 C 70.7031 3.85742 73.4863 -2.83203 73.4863 -8.20312 C 73.4863 -17.627 65.3809 -20.2148 60.1562 -17.4805 C 55.5664 -15.0879 51.416 -13.5254 45.5566 -13.5254 C 38.1348 -13.5254 32.8613 -18.2129 32.8613 -25.2441 Z M 60.1074 -46.1426 C 59.9121 -46.4844 59.7168 -46.8262 59.5215 -47.1191 C 60.3027 -46.582 61.084 -46.0938 61.9629 -45.6055 Z M 97.9492 -46.0938 L 96.0938 -45.6055 C 96.9727 -46.0938 97.7539 -46.582 98.5352 -47.1191 C 98.3398 -46.7773 98.1445 -46.4355 97.9492 -46.0938 Z"/>
  </g>
  <g id="Heavy-L" transform="matrix(1 0 0 1 2559.64 1556)">
   <path d="M 11.2793 -24.2676 C 11.2793 -6.34766 24.6094 5.07812 39.6484 5.07812 C 45.8496 5.07812 51.3184 3.90625 55.8105 1.41602 C 53.3203 6.10352 50.1953 9.42383 47.3145 12.7441 C 41.7969 19.2871 44.3359 29.248 54.2969 29.248 L 99.8047 29.248 C 109.766 29.248 112.305 19.2871 106.787 12.7441 C 103.906 9.42383 100.732 6.10352 98.291 1.41602 C 102.734 3.90625 108.252 5.07812 114.453 5.07812 C 129.492 5.07812 142.822 -6.34766 142.822 -24.2676 C 142.822 -40.8203 129.59 -53.7109 113.135 -53.7109 C 108.74 -53.7109 104.15 -52.832 100.439 -50.8301 C 105.029 -55.8594 106.982 -61.9629 106.982 -68.1152 C 106.982 -84.668 93.5059 -98.0469 77.0508 -98.0469 C 60.5469 -98.0469 47.1191 -84.668 47.1191 -68.1152 C 47.1191 -61.9629 49.0723 -55.9082 53.7109 -50.8301 C 50 -52.832 45.4102 -53.7109 40.9668 -53.7109 C 24.5117 -53.7109 11.2793 -40.8203 11.2793 -24.2676 Z M 29.5898 -25.0488 C 29.5898 -33.1055 35.791 -39.0625 43.7988 -39.0625 C 50 -39.0625 54.1016 -36.9141 57.8125 -35.2539 C 60.0098 -34.2285 62.1582 -33.3984 64.8926 -33.3984 C 69.5801 -33.3984 72.4121 -36.084 72.4121 -40.2832 C 72.4121 -42.3828 71.7285 -44.6777 70.2148 -46.9238 C 66.0156 -52.7344 62.1094 -58.5938 62.1094 -68.0176 C 62.1094 -76.3184 68.7988 -83.0078 77.0508 -83.0078 C 85.2539 -83.0078 91.9434 -76.3184 91.9434 -68.0176 C 91.9434 -58.5938 88.0859 -52.7344 83.8867 -46.9238 C 82.373 -44.6777 81.6895 -42.3828 81.6895 -40.2832 C 81.6895 -36.084 84.5215 -33.3984 89.209 -33.3984 C 91.9434 -33.3984 94.0918 -34.2285 96.2891 -35.2539 C 99.9512 -36.9141 104.102 -39.0625 110.303 -39.0625 C 118.262 -39.0625 124.512 -33.1055 124.512 -25.0488 C 124.512 -16.9434 118.701 -11.6211 110.303 -11.6211 C 104.004 -11.6211 99.1699 -13.5254 94.7266 -16.3574 C 89.8926 -19.1895 82.4707 -16.7969 82.6172 -8.34961 C 82.8613 -2.53906 86.084 4.73633 89.502 9.81445 C 90.2344 10.8887 89.6484 11.6211 88.916 11.6211 L 65.1855 11.6211 C 64.4043 11.6211 63.8672 10.8887 64.5996 9.81445 C 68.0176 4.73633 71.1914 -2.53906 71.4844 -8.34961 C 71.6309 -16.7969 64.209 -19.1895 59.375 -16.3574 C 54.8828 -13.5254 50.0977 -11.6211 43.7988 -11.6211 C 35.4004 -11.6211 29.5898 -16.9434 29.5898 -25.0488 Z M 59.3262 -45.752 C 59.2285 -45.8984 59.1309 -46.0938 58.9844 -46.2402 C 59.5215 -45.8496 60.1074 -45.5078 60.6934 -45.166 Z M 94.6289 -45.6543 L 93.3594 -45.166 C 93.9453 -45.5078 94.4824 -45.8496 95.0195 -46.2402 C 94.9219 -46.0449 94.7754 -45.8496 94.6289 -45.6543 Z"/>
  </g>
  <g id="Bold-L" transform="matrix(1 0 0 1 2265.17 1556)">
   <path d="M 11.2793 -24.3652 C 11.2793 -7.03125 23.7305 4.10156 39.1113 4.10156 C 45.7031 4.10156 51.6602 2.49023 56.2012 -0.488281 C 53.6133 5.0293 50 8.98438 46.9727 12.4512 C 41.9922 18.3594 44.2383 27.002 53.0273 27.002 L 96.582 27.002 C 105.322 27.002 107.617 18.3594 102.637 12.4512 C 99.6094 8.98438 95.9961 5.0293 93.4082 -0.488281 C 97.9492 2.49023 103.906 4.10156 110.498 4.10156 C 125.879 4.10156 138.33 -7.03125 138.33 -24.3652 C 138.33 -40.332 125.488 -52.9297 109.619 -52.9297 C 105.127 -52.9297 100.488 -51.9043 96.582 -49.8047 C 101.611 -55.1758 103.662 -61.6699 103.662 -67.8711 C 103.662 -83.8379 90.6738 -96.7285 74.8047 -96.7285 C 58.8867 -96.7285 45.9473 -83.8379 45.9473 -67.8711 C 45.9473 -61.6211 47.998 -55.1758 53.0273 -49.8047 C 49.1699 -51.9043 44.4824 -52.9297 39.9902 -52.9297 C 24.1211 -52.9297 11.2793 -40.332 11.2793 -24.3652 Z M 25.9277 -24.8047 C 25.9277 -33.7402 32.959 -40.625 41.7969 -40.625 C 48.4375 -40.625 52.8809 -38.2812 56.7383 -36.6211 C 58.7402 -35.7422 60.6445 -35.0586 62.9395 -35.0586 C 66.6992 -35.0586 69.2383 -37.2559 69.2383 -40.918 C 69.2383 -42.8223 68.5547 -44.8242 67.2852 -46.6797 C 62.5488 -52.6855 58.4473 -58.3496 58.4473 -67.7734 C 58.4473 -76.8555 65.7715 -84.1797 74.8047 -84.1797 C 83.8379 -84.1797 91.1621 -76.8555 91.1621 -67.7734 C 91.1621 -58.3496 87.0117 -52.6855 82.3242 -46.6797 C 81.0059 -44.8242 80.3711 -42.8223 80.3711 -40.918 C 80.3711 -37.2559 82.8613 -35.0586 86.6699 -35.0586 C 88.9648 -35.0586 90.7715 -35.7422 92.8223 -36.6211 C 96.6309 -38.2812 101.123 -40.625 107.764 -40.625 C 116.65 -40.625 123.682 -33.7402 123.682 -24.8047 C 123.682 -15.5762 117.236 -9.47266 107.764 -9.47266 C 101.025 -9.47266 95.459 -11.8164 91.0645 -15.0391 C 86.7188 -18.0176 80.127 -15.8691 80.3223 -8.49609 C 80.957 -2.24609 84.5703 5.66406 88.4766 10.9375 C 89.3066 12.0117 88.7695 12.8418 87.8418 12.8418 L 61.7188 12.8418 C 60.791 12.8418 60.3027 12.0117 61.084 10.9375 C 65.0391 5.66406 68.6523 -2.24609 69.2383 -8.49609 C 69.4824 -15.8691 62.8906 -18.0176 58.5449 -15.0391 C 54.1504 -11.8164 48.584 -9.47266 41.8457 -9.47266 C 32.373 -9.47266 25.9277 -15.5762 25.9277 -24.8047 Z"/>
  </g>
  <g id="Semibold-L" transform="matrix(1 0 0 1 1970.02 1556)">
   <path d="M 11.2793 -24.4141 C 11.2793 -7.56836 23.0957 3.4668 38.7207 3.4668 C 45.6055 3.4668 51.9531 1.51367 56.4941 -1.85547 C 53.8574 4.24805 49.8535 8.74023 46.6797 12.2559 C 42.0898 17.7246 44.1895 25.4395 52.1484 25.4395 L 94.3359 25.4395 C 102.295 25.4395 104.395 17.7246 99.8047 12.2559 C 96.6309 8.74023 92.627 4.24805 90.0391 -1.85547 C 94.5312 1.51367 100.879 3.4668 107.764 3.4668 C 123.389 3.4668 135.205 -7.56836 135.205 -24.4141 C 135.205 -39.9902 122.656 -52.3438 107.227 -52.3438 C 102.686 -52.3438 97.998 -51.3184 93.9453 -49.1211 C 99.2676 -54.7363 101.367 -61.4746 101.367 -67.6758 C 101.367 -83.252 88.7207 -95.8496 73.2422 -95.8496 C 57.7637 -95.8496 45.1172 -83.252 45.1172 -67.6758 C 45.1172 -61.4258 47.2168 -54.7363 52.5391 -49.1211 C 48.5352 -51.2695 43.8477 -52.3438 39.2578 -52.3438 C 23.8281 -52.3438 11.2793 -39.9902 11.2793 -24.4141 Z M 23.3887 -24.6582 C 23.3887 -34.2285 31.0059 -41.6504 40.4297 -41.6504 C 47.4121 -41.6504 52.0508 -39.2578 56.0059 -37.5488 C 57.9102 -36.7676 59.6191 -36.1816 61.5723 -36.1816 C 64.7461 -36.1816 67.041 -38.0859 67.041 -41.3574 C 67.041 -43.0664 66.4062 -44.9219 65.2344 -46.5332 C 60.2051 -52.6855 55.8594 -58.1543 55.8594 -67.5781 C 55.8594 -77.1973 63.6719 -84.9609 73.2422 -84.9609 C 82.8613 -84.9609 90.625 -77.1973 90.625 -67.5781 C 90.625 -58.1543 86.2793 -52.6855 81.25 -46.5332 C 80.0781 -44.9219 79.4434 -43.0664 79.4434 -41.3574 C 79.4434 -38.0859 81.7383 -36.1816 84.9121 -36.1816 C 86.9141 -36.1816 88.5254 -36.7676 90.4297 -37.5488 C 94.3848 -39.2578 99.0234 -41.6504 106.055 -41.6504 C 115.479 -41.6504 123.096 -34.2285 123.096 -24.6582 C 123.096 -14.6484 116.211 -8.00781 106.006 -8.00781 C 98.9746 -8.00781 92.8711 -10.5957 88.5742 -14.1602 C 84.5215 -17.2363 78.4668 -15.2344 78.8086 -8.64258 C 79.5898 -2.05078 83.4961 6.29883 87.793 11.6699 C 88.6719 12.793 88.1836 13.7207 87.1582 13.7207 L 59.3262 13.7207 C 58.3008 13.7207 57.8125 12.793 58.6914 11.6699 C 62.9883 6.29883 66.8945 -2.05078 67.7246 -8.64258 C 68.0176 -15.2344 61.9629 -17.2363 57.9102 -14.1602 C 53.6133 -10.5957 47.5098 -8.00781 40.4785 -8.00781 C 30.2734 -8.00781 23.3887 -14.6484 23.3887 -24.6582 Z"/>
  </g>
  <g id="Medium-L" transform="matrix(1 0 0 1 1674.49 1556)">
   <path d="M 11.2793 -24.4629 C 11.2793 -7.91016 22.6562 2.97852 38.4766 2.97852 C 45.5078 2.97852 52.1973 0.683594 56.6895 -2.97852 C 54.0527 3.56445 49.7559 8.54492 46.4844 12.1094 C 42.1875 17.2363 44.1895 24.2676 51.5137 24.2676 L 92.627 24.2676 C 99.9512 24.2676 101.953 17.2363 97.6562 12.1094 C 94.4336 8.54492 90.0879 3.56445 87.4512 -2.97852 C 91.9434 0.683594 98.6328 2.97852 105.664 2.97852 C 121.484 2.97852 132.861 -7.91016 132.861 -24.4629 C 132.861 -39.6973 120.508 -51.9531 105.371 -51.9531 C 100.83 -51.9531 96.1426 -50.8301 91.9922 -48.584 C 97.5098 -54.3945 99.6094 -61.3281 99.6094 -67.5781 C 99.6094 -82.8125 87.2559 -95.166 72.0703 -95.166 C 56.8848 -95.166 44.5312 -82.8125 44.5312 -67.5781 C 44.5312 -61.3281 46.6309 -54.4434 52.1484 -48.6328 C 48.0469 -50.8301 43.3105 -51.9531 38.7695 -51.9531 C 23.6328 -51.9531 11.2793 -39.6973 11.2793 -24.4629 Z M 21.4844 -24.5605 C 21.4844 -34.5703 29.541 -42.4805 39.4043 -42.4805 C 46.6309 -42.4805 51.416 -39.9902 55.4688 -38.2812 C 57.2754 -37.5 58.7891 -37.0605 60.5469 -37.0605 C 63.2324 -37.0605 65.4297 -38.7207 65.4297 -41.6504 C 65.4297 -43.3105 64.7949 -44.9707 63.6719 -46.3867 C 58.3984 -52.6855 53.9551 -58.0078 53.9551 -67.4316 C 53.9551 -77.4902 62.0605 -85.5469 72.0703 -85.5469 C 82.0801 -85.5469 90.1855 -77.4902 90.1855 -67.4316 C 90.1855 -58.0078 85.7422 -52.6855 80.4688 -46.3867 C 79.3457 -44.9707 78.7109 -43.3105 78.7109 -41.6504 C 78.7109 -38.7207 80.9082 -37.0605 83.5938 -37.0605 C 85.3516 -37.0605 86.8164 -37.5 88.623 -38.2812 C 92.6758 -39.9902 97.5098 -42.4805 104.736 -42.4805 C 114.6 -42.4805 122.656 -34.5703 122.656 -24.5605 C 122.656 -13.916 115.43 -6.88477 104.688 -6.88477 C 97.4121 -6.88477 90.918 -9.7168 86.6699 -13.4766 C 82.8613 -16.6016 77.2461 -14.7949 77.5879 -8.74023 C 78.6133 -1.9043 82.7148 6.83594 87.2559 12.207 C 88.2324 13.3789 87.6953 14.3555 86.6211 14.3555 L 57.5195 14.3555 C 56.4453 14.3555 55.9082 13.3789 56.8848 12.207 C 61.4258 6.83594 65.5273 -1.9043 66.5527 -8.74023 C 66.8945 -14.7949 61.2793 -16.6504 57.4707 -13.4766 C 53.2227 -9.7168 46.7285 -6.88477 39.4531 -6.88477 C 28.7109 -6.88477 21.4844 -13.916 21.4844 -24.5605 Z"/>
  </g>
  <g id="Regular-L" transform="matrix(1 0 0 1 1379.31 1556)">
   <path d="M 11.2793 -24.5117 C 11.2793 -8.39844 22.0215 2.29492 38.0859 2.29492 C 45.459 2.29492 52.5391 -0.390625 56.9336 -4.44336 C 54.3457 2.68555 49.6094 8.25195 46.2402 11.9141 C 42.334 16.5527 44.1406 22.7539 50.6348 22.7539 L 90.4297 22.7539 C 96.9238 22.7539 98.7305 16.5527 94.8242 11.9141 C 91.5039 8.25195 86.7188 2.68555 84.1309 -4.44336 C 88.5254 -0.390625 95.6055 2.29492 102.979 2.29492 C 119.043 2.29492 129.785 -8.39844 129.785 -24.5117 C 129.785 -39.3555 117.725 -51.416 102.979 -51.416 C 98.4375 -51.416 93.75 -50.2441 89.4531 -47.998 C 95.2637 -54.0039 97.3633 -61.2305 97.3633 -67.3828 C 97.3633 -82.2266 85.3027 -94.2871 70.5566 -94.2871 C 55.7617 -94.2871 43.7012 -82.2266 43.7012 -67.3828 C 43.7012 -61.1816 45.8496 -54.0527 51.6113 -47.998 C 47.3633 -50.1953 42.627 -51.416 38.0859 -51.416 C 23.3398 -51.416 11.2793 -39.3555 11.2793 -24.5117 Z M 18.9941 -24.3652 C 18.9941 -35.0098 27.5879 -43.5059 38.0859 -43.5059 C 45.5566 -43.5059 50.6348 -40.9668 54.7363 -39.209 C 56.4453 -38.5254 57.7637 -38.1836 59.2285 -38.1836 C 61.2793 -38.1836 63.2324 -39.502 63.2324 -42.0898 C 63.2324 -43.6035 62.6465 -45.0684 61.6699 -46.1914 C 56.0547 -52.6367 51.416 -57.8125 51.416 -67.2363 C 51.416 -77.832 59.9609 -86.377 70.5566 -86.377 C 81.1035 -86.377 89.6484 -77.832 89.6484 -67.2363 C 89.6484 -57.8125 85.0098 -52.6367 79.3945 -46.1914 C 78.418 -45.0684 77.832 -43.6035 77.832 -42.0898 C 77.832 -39.502 79.7852 -38.1836 81.8848 -38.1836 C 83.3008 -38.1836 84.5703 -38.5254 86.2793 -39.209 C 90.4297 -40.918 95.459 -43.5059 102.979 -43.5059 C 113.477 -43.5059 122.07 -35.0098 122.07 -24.3652 C 122.07 -12.9395 114.453 -5.41992 102.979 -5.41992 C 95.3613 -5.41992 88.3789 -8.49609 84.1797 -12.6465 C 80.7129 -15.8203 75.5859 -14.1602 76.0742 -8.83789 C 77.2949 -1.66016 81.6895 7.4707 86.5723 12.9395 C 87.5977 14.1113 87.1094 15.2344 85.8887 15.2344 L 55.1758 15.2344 C 53.9551 15.2344 53.4668 14.1113 54.4922 12.9395 C 59.375 7.4707 63.7695 -1.66016 64.9902 -8.83789 C 65.4785 -14.1602 60.4004 -15.8691 56.8848 -12.6465 C 52.6855 -8.49609 45.7031 -5.41992 38.0859 -5.41992 C 26.6113 -5.41992 18.9941 -12.9395 18.9941 -24.3652 Z"/>
  </g>
  <g id="Light-L" transform="matrix(1 0 0 1 1083.7 1556)">
   <path d="M 11.2793 -25.1953 C 11.2793 -9.375 21.8262 1.12305 37.5977 1.12305 C 45.459 1.12305 52.6855 -2.14844 56.8359 -6.68945 C 54.1992 0.78125 49.3652 7.08008 45.0684 11.4746 C 41.1621 15.7227 42.9199 21.5332 49.0234 21.5332 L 89.8438 21.5332 C 95.9473 21.5332 97.6562 15.7227 93.7988 11.4746 C 89.502 7.08008 84.6191 0.78125 82.0312 -6.68945 C 86.1816 -2.14844 93.4082 1.12305 101.27 1.12305 C 117.041 1.12305 127.588 -9.375 127.588 -25.1953 C 127.588 -39.7461 115.771 -51.5625 101.318 -51.5625 C 96.7285 -51.5625 91.8945 -50.293 87.5977 -47.8027 C 93.8477 -54.1016 95.752 -61.3281 95.752 -67.1875 C 95.752 -81.7383 83.9355 -93.5059 69.4336 -93.5059 C 54.9316 -93.5059 43.1152 -81.7383 43.1152 -67.1875 C 43.1152 -61.3281 45.0195 -54.1504 51.2207 -47.8516 C 46.9727 -50.293 42.1387 -51.5625 37.5488 -51.5625 C 23.0957 -51.5625 11.2793 -39.7461 11.2793 -25.1953 Z M 17.334 -25.0977 C 17.334 -36.377 26.416 -45.3613 37.5488 -45.3613 C 44.7754 -45.3613 49.3652 -42.7734 53.2227 -40.918 C 54.6387 -40.2832 55.6152 -40.0391 56.8848 -40.0391 C 58.6914 -40.0391 60.3027 -41.2598 60.3027 -43.4082 C 60.3027 -44.6777 59.7656 -45.8496 58.9844 -46.7773 C 53.418 -53.0273 49.1211 -58.252 49.1211 -67.0898 C 49.1211 -78.3203 58.2031 -87.3535 69.4336 -87.3535 C 80.6641 -87.3535 89.7461 -78.3203 89.7461 -67.0898 C 89.7461 -58.252 85.4492 -53.0273 79.8828 -46.7773 C 79.1016 -45.8496 78.5645 -44.6777 78.5645 -43.4082 C 78.5645 -41.2598 80.127 -40.0391 81.9824 -40.0391 C 83.2031 -40.0391 84.1797 -40.2832 85.5957 -40.918 C 89.4531 -42.7246 94.043 -45.3613 101.318 -45.3613 C 112.451 -45.3613 121.533 -36.377 121.533 -25.0977 C 121.533 -12.9395 113.428 -4.88281 101.27 -4.88281 C 93.6523 -4.88281 87.1094 -8.1543 82.8613 -12.6465 C 79.7852 -15.7227 75.1953 -13.916 75.9766 -9.17969 C 77.8809 -1.07422 82.4219 7.32422 87.8418 12.9883 C 89.0625 14.2578 88.5742 15.625 87.0605 15.625 L 51.8066 15.625 C 50.293 15.625 49.8047 14.2578 51.0254 12.9883 C 56.4453 7.32422 60.9863 -1.07422 62.8906 -9.17969 C 63.623 -13.916 59.082 -15.7715 55.957 -12.6465 C 51.709 -8.1543 45.2148 -4.88281 37.5977 -4.88281 C 25.4395 -4.88281 17.334 -12.9395 17.334 -25.0977 Z"/>
  </g>
  <g id="Thin-L" transform="matrix(1 0 0 1 788.453 1556)">
   <path d="M 11.2793 -26.0254 C 11.2793 -10.6445 21.582 -0.439453 36.9629 -0.439453 C 45.6543 -0.439453 53.125 -4.6875 56.8848 -10.0098 C 54.1504 -2.00195 49.2188 5.32227 43.5547 10.8398 C 39.6484 14.6484 41.3086 19.9707 46.8262 19.9707 L 89.0625 19.9707 C 94.6289 19.9707 96.2402 14.6484 92.3828 10.8398 C 86.7188 5.32227 81.7383 -2.00195 79.0527 -10.0098 C 82.8125 -4.6875 90.2832 -0.439453 98.9746 -0.439453 C 114.355 -0.439453 124.658 -10.6445 124.658 -26.0254 C 124.658 -40.2832 113.135 -51.709 99.0723 -51.709 C 94.3359 -51.709 89.1113 -50.3418 84.7168 -47.2168 C 92.041 -54.0527 93.6523 -61.4746 93.6523 -66.8945 C 93.6523 -81.1035 82.1289 -92.5293 67.9688 -92.5293 C 53.8086 -92.5293 42.2852 -81.1035 42.2852 -66.8945 C 42.2852 -61.4746 43.8965 -54.1016 51.1719 -47.2656 C 46.8262 -50.3418 41.5527 -51.709 36.8652 -51.709 C 22.8027 -51.709 11.2793 -40.2832 11.2793 -26.0254 Z M 15.0879 -26.0254 C 15.0879 -38.1836 24.8535 -47.9004 36.8652 -47.9004 C 43.75 -47.9004 47.7539 -45.166 51.2207 -43.2129 C 52.2949 -42.627 52.7832 -42.4805 53.7598 -42.4805 C 55.2734 -42.4805 56.3965 -43.5059 56.3965 -45.1172 C 56.3965 -46.0938 55.957 -46.875 55.4199 -47.5098 C 49.9023 -53.5645 46.0938 -58.7891 46.0938 -66.8457 C 46.0938 -79.0039 55.9082 -88.7207 67.9688 -88.7207 C 80.0293 -88.7207 89.8438 -79.0039 89.8438 -66.8457 C 89.8438 -58.7891 85.9863 -53.5645 80.5176 -47.5098 C 79.9805 -46.875 79.541 -46.0938 79.541 -45.1172 C 79.541 -43.5059 80.6152 -42.4805 82.1777 -42.4805 C 83.1055 -42.4805 83.6426 -42.627 84.7168 -43.2129 C 88.1836 -45.166 92.1875 -47.9004 99.0723 -47.9004 C 111.035 -47.9004 120.85 -38.1836 120.85 -26.0254 C 120.85 -12.9395 112.061 -4.24805 98.9746 -4.24805 C 91.4062 -4.24805 85.4492 -7.66602 81.1523 -12.6465 C 78.5645 -15.5273 74.707 -13.623 75.8301 -9.66797 C 78.7109 -0.244141 83.3496 7.17773 89.502 13.0371 C 90.9668 14.4531 90.5273 16.2109 88.5742 16.2109 L 47.3633 16.2109 C 45.4102 16.2109 44.9707 14.4531 46.4355 13.0371 C 52.5879 7.17773 57.2266 -0.244141 60.1074 -9.66797 C 61.2305 -13.623 57.3242 -15.625 54.7852 -12.6465 C 50.4395 -7.66602 44.5312 -4.24805 36.9629 -4.24805 C 23.8281 -4.24805 15.0879 -12.9395 15.0879 -26.0254 Z"/>
  </g>
  <g id="Ultralight-L" transform="matrix(1 0 0 1 492.499 1556)">
   <path d="M 11.2793 -26.4648 C 11.2793 -11.2793 21.4355 -1.2207 36.6211 -1.2207 C 45.9473 -1.2207 53.6133 -6.25 57.0801 -12.1094 C 54.2969 -3.75977 49.3164 4.3457 42.7246 10.498 C 38.8672 14.0625 40.4785 19.1895 45.7031 19.1895 L 88.7207 19.1895 C 93.9453 19.1895 95.5078 14.0625 91.6992 10.498 C 85.1074 4.29688 80.127 -3.75977 77.3438 -12.1094 C 80.8105 -6.25 88.4766 -1.2207 97.8027 -1.2207 C 112.988 -1.2207 123.145 -11.2793 123.145 -26.4648 C 123.145 -40.5273 111.816 -51.8066 97.9004 -51.8066 C 92.5781 -51.8066 86.2793 -50.0488 81.7383 -45.459 L 81.2012 -45.2637 C 90.9668 -52.9297 92.5293 -61.1816 92.5293 -66.6992 C 92.5293 -80.8105 81.2012 -92.041 67.1875 -92.041 C 53.2227 -92.041 41.8945 -80.8105 41.8945 -66.6992 C 41.8945 -61.1816 43.457 -52.9297 53.2227 -45.2637 L 52.7344 -45.4102 C 48.1445 -50.0488 41.8457 -51.8066 36.5234 -51.8066 C 22.6074 -51.8066 11.2793 -40.5273 11.2793 -26.4648 Z M 13.9648 -26.5137 C 13.9648 -39.1113 24.0723 -49.1699 36.5234 -49.1699 C 43.1641 -49.1699 46.9238 -46.3867 50.1953 -44.3359 C 51.0742 -43.7988 51.3672 -43.75 52.1484 -43.75 C 53.5156 -43.75 54.3945 -44.6777 54.3945 -45.9961 C 54.3945 -46.7773 54.0039 -47.4121 53.5645 -47.9004 C 48.1445 -53.8086 44.5312 -59.0332 44.5312 -66.748 C 44.5312 -79.3457 54.6875 -89.4043 67.1875 -89.4043 C 79.7363 -89.4043 89.8926 -79.3457 89.8926 -66.748 C 89.8926 -59.0332 86.2793 -53.8086 80.8594 -47.9004 C 80.4199 -47.4121 80.0293 -46.7773 80.0293 -45.9961 C 80.0293 -44.6777 80.8594 -43.75 82.2754 -43.75 C 83.0566 -43.75 83.3496 -43.7988 84.2285 -44.3359 C 87.5488 -46.3867 91.2598 -49.1699 97.9004 -49.1699 C 110.352 -49.1699 120.459 -39.1113 120.459 -26.5137 C 120.459 -12.8906 111.377 -3.90625 97.8027 -3.90625 C 90.2344 -3.90625 84.6191 -7.42188 80.2734 -12.6953 C 77.9785 -15.4297 74.4629 -13.4766 75.7324 -9.91211 C 79.1016 0.146484 83.7891 7.08008 90.332 13.0859 C 91.9434 14.5508 91.5527 16.5039 89.3555 16.5039 L 45.0684 16.5039 C 42.8711 16.5039 42.4805 14.5508 44.0918 13.0859 C 50.6348 7.08008 55.3223 0.146484 58.6914 -9.91211 C 59.9609 -13.4766 56.4453 -15.5273 54.1504 -12.6953 C 49.8047 -7.42188 44.1406 -3.90625 36.6211 -3.90625 C 23.0469 -3.90625 13.9648 -12.8906 13.9648 -26.5137 Z"/>
  </g>
  <g id="Black-M" transform="matrix(1 0 0 1 2870.02 1126)">
   <path d="M 8.74023 -26.9531 C 8.74023 -11.9629 20.6543 -2.83203 31.4453 -2.83203 C 35.6934 -2.83203 39.1602 -3.27148 42.2363 -4.44336 C 40.6738 -2.09961 38.8672 -0.195312 36.7676 2.19727 C 31.3965 8.34961 33.7891 18.4082 43.5547 18.4082 L 83.2031 18.4082 C 92.9688 18.4082 95.3613 8.34961 89.9902 2.19727 C 87.8906 -0.195312 86.084 -2.09961 84.5215 -4.44336 C 87.5977 -3.27148 91.1133 -2.83203 95.3125 -2.83203 C 106.104 -2.83203 118.018 -11.9629 118.018 -26.9531 C 118.018 -40.6738 107.178 -51.123 93.4082 -51.123 C 90.1855 -51.123 86.8652 -50.6348 84.2285 -49.2676 C 87.1094 -52.6367 88.3301 -56.6406 88.3301 -61.084 C 88.3301 -74.9023 77.1484 -86.0352 63.3789 -86.0352 C 49.6094 -86.0352 38.4277 -74.9023 38.4277 -61.084 C 38.4277 -56.6406 39.6484 -52.6367 42.5293 -49.2676 C 39.9414 -50.6348 36.5723 -51.123 33.3496 -51.123 C 19.6289 -51.123 8.74023 -40.6738 8.74023 -26.9531 Z M 28.9551 -28.125 C 28.9551 -33.0566 32.5195 -36.3281 37.4023 -36.3281 C 41.2109 -36.3281 43.5059 -34.8145 45.9961 -33.5938 C 47.8516 -32.5684 49.8535 -31.6895 52.7832 -31.6895 C 57.959 -31.6895 60.5469 -34.5215 60.5469 -38.623 C 60.5469 -40.5762 59.9609 -42.7734 58.5938 -45.1172 C 56.25 -49.0723 53.9551 -54.0527 53.9551 -61.084 C 53.9551 -66.3086 58.2031 -70.6055 63.3789 -70.6055 C 68.5547 -70.6055 72.8516 -66.3086 72.8516 -61.084 C 72.8516 -54.0527 70.5078 -49.0723 68.1641 -45.1172 C 66.7969 -42.7734 66.2598 -40.5762 66.2598 -38.623 C 66.2598 -34.5215 68.7988 -31.6895 74.0234 -31.6895 C 76.9043 -31.6895 78.9062 -32.5684 80.8105 -33.5938 C 83.2031 -34.9121 85.5469 -36.3281 89.3555 -36.3281 C 94.2383 -36.3281 97.8027 -33.0566 97.8027 -28.125 C 97.8027 -23.6816 94.2383 -20.752 89.3555 -20.752 C 85.3516 -20.752 83.3008 -21.5332 79.5898 -23.0469 C 75.1953 -24.9023 68.2129 -22.5586 68.2129 -14.2578 C 68.2129 -10.1562 69.9219 -6.15234 71.9727 -2.34375 C 72.4121 -1.51367 71.9727 -1.07422 71.4844 -1.07422 L 55.3223 -1.07422 C 54.7852 -1.07422 54.3457 -1.51367 54.7852 -2.34375 C 56.8359 -6.15234 58.5449 -10.1562 58.5449 -14.2578 C 58.5449 -22.5586 51.5625 -24.9023 47.168 -23.0469 C 43.5059 -21.5332 41.4062 -20.752 37.4023 -20.752 C 32.5684 -20.752 28.9551 -23.6816 28.9551 -28.125 Z M 79.9316 -44.4336 L 77.6367 -44.1406 C 78.7109 -44.6777 79.6875 -45.3125 80.6152 -45.9961 C 80.3223 -45.5078 80.127 -44.9707 79.9316 -44.4336 Z M 46.8262 -44.4336 C 46.6797 -44.9707 46.4355 -45.5078 46.1426 -45.9473 C 47.0703 -45.3125 48.0469 -44.6777 49.1699 -44.1406 Z"/>
  </g>
  <g id="Heavy-M" transform="matrix(1 0 0 1 2575.21 1126)">
   <path d="M 8.74023 -26.8555 C 8.74023 -12.4512 19.8242 -3.41797 31.0547 -3.41797 C 35.5957 -3.41797 39.502 -4.10156 42.7734 -5.66406 C 41.0156 -2.68555 38.916 -0.488281 36.7188 2.05078 C 31.8848 7.66602 34.082 16.5039 42.7734 16.5039 L 80.1758 16.5039 C 88.8672 16.5039 91.0645 7.66602 86.2305 2.05078 C 84.0332 -0.488281 81.9336 -2.68555 80.1758 -5.66406 C 83.4473 -4.10156 87.3535 -3.41797 91.8945 -3.41797 C 103.125 -3.41797 114.209 -12.4512 114.209 -26.8555 C 114.209 -40.0879 103.662 -50.293 90.4297 -50.293 C 87.1094 -50.293 83.6426 -49.707 80.9082 -48.2422 C 84.1309 -51.9043 85.498 -56.25 85.498 -60.8887 C 85.498 -74.2188 74.707 -84.9121 61.4746 -84.9121 C 48.2422 -84.9121 37.4512 -74.2188 37.4512 -60.8887 C 37.4512 -56.25 38.8184 -51.9043 42.0898 -48.2422 C 39.3066 -49.707 35.8398 -50.293 32.5195 -50.293 C 19.2871 -50.293 8.74023 -40.0879 8.74023 -26.8555 Z M 25.8301 -27.7344 C 25.8301 -33.3496 30.0293 -37.3047 35.5957 -37.3047 C 39.9414 -37.3047 42.6758 -35.7422 45.3613 -34.4727 C 47.1191 -33.5449 48.9746 -32.8125 51.4648 -32.8125 C 55.8594 -32.8125 58.2031 -35.2539 58.2031 -38.916 C 58.2031 -40.6738 57.666 -42.6758 56.3965 -44.6777 C 53.6133 -48.9258 50.9277 -53.7109 50.9277 -60.8398 C 50.9277 -66.6992 55.6641 -71.4355 61.4746 -71.4355 C 67.2852 -71.4355 72.0215 -66.6992 72.0215 -60.8398 C 72.0215 -53.7109 69.3359 -48.9258 66.5527 -44.6777 C 65.2832 -42.6758 64.7461 -40.6738 64.7461 -38.916 C 64.7461 -35.2539 67.0898 -32.8125 71.4844 -32.8125 C 73.9746 -32.8125 75.8301 -33.5449 77.5879 -34.4727 C 80.2246 -35.7422 83.0078 -37.3047 87.3535 -37.3047 C 92.9199 -37.3047 97.1191 -33.3496 97.1191 -27.7344 C 97.1191 -22.3145 93.0664 -18.75 87.3535 -18.75 C 82.9102 -18.75 79.9805 -19.9219 76.3672 -21.7773 C 72.3145 -23.8281 66.0156 -21.7285 66.0645 -14.3555 C 66.1621 -10.0098 68.2617 -5.17578 70.6543 -1.26953 C 71.1426 -0.488281 70.7031 0.0488281 70.166 0.0488281 L 52.7832 0.0488281 C 52.2461 0.0488281 51.8066 -0.488281 52.2949 -1.26953 C 54.6875 -5.17578 56.7871 -10.0098 56.8848 -14.3555 C 56.9336 -21.7285 50.6348 -23.8281 46.582 -21.7773 C 42.9688 -19.9219 40.0391 -18.75 35.5957 -18.75 C 29.8828 -18.75 25.8301 -22.3145 25.8301 -27.7344 Z M 46.3867 -43.8965 C 46.1914 -44.2383 45.9961 -44.6289 45.8008 -44.9219 C 46.4844 -44.4336 47.2656 -43.9453 48.0469 -43.5059 Z M 76.5137 -43.8477 L 74.9023 -43.5059 C 75.6836 -43.9453 76.416 -44.4336 77.1484 -44.9219 C 76.9043 -44.5801 76.709 -44.2383 76.5137 -43.8477 Z"/>
  </g>
  <g id="Bold-M" transform="matrix(1 0 0 1 2280.63 1126)">
   <path d="M 8.74023 -26.7578 C 8.74023 -12.9395 18.9453 -4.15039 30.6152 -4.15039 C 35.498 -4.15039 39.8438 -5.12695 43.3105 -7.12891 C 41.4062 -3.36914 38.8672 -0.683594 36.6211 1.9043 C 32.4219 6.88477 34.375 14.3555 41.8945 14.3555 L 76.8066 14.3555 C 84.3262 14.3555 86.2305 6.88477 82.0312 1.9043 C 79.834 -0.683594 77.2949 -3.36914 75.3418 -7.12891 C 78.8574 -5.12695 83.1543 -4.15039 88.0371 -4.15039 C 99.7559 -4.15039 109.961 -12.9395 109.961 -26.7578 C 109.961 -39.4531 99.7559 -49.4141 87.1094 -49.4141 C 83.6426 -49.4141 80.127 -48.7305 77.1973 -47.1191 C 80.8105 -51.123 82.373 -55.9082 82.373 -60.6934 C 82.373 -73.4375 72.0215 -83.6914 59.3262 -83.6914 C 46.6797 -83.6914 36.3281 -73.4375 36.3281 -60.6934 C 36.3281 -55.8594 37.8418 -51.123 41.5039 -47.1191 C 38.623 -48.6816 35.0098 -49.4141 31.5918 -49.4141 C 18.8965 -49.4141 8.74023 -39.4531 8.74023 -26.7578 Z M 22.3145 -27.2949 C 22.3145 -33.6914 27.2949 -38.4277 33.5938 -38.4277 C 38.4766 -38.4277 41.748 -36.7188 44.6289 -35.4492 C 46.2891 -34.668 47.9492 -34.082 50 -34.082 C 53.4668 -34.082 55.6152 -36.0352 55.6152 -39.209 C 55.6152 -40.8203 55.0781 -42.5781 53.9551 -44.2383 C 50.5859 -48.7793 47.5586 -53.2715 47.5586 -60.5957 C 47.5586 -67.1387 52.832 -72.4121 59.3262 -72.4121 C 65.8691 -72.4121 71.1426 -67.1387 71.1426 -60.5957 C 71.1426 -53.2715 68.0664 -48.7793 64.6973 -44.2383 C 63.623 -42.5781 63.0859 -40.8203 63.0859 -39.209 C 63.0859 -36.0352 65.2344 -34.082 68.7012 -34.082 C 70.752 -34.082 72.3633 -34.668 74.0234 -35.4492 C 76.9043 -36.7676 80.1758 -38.4277 85.0586 -38.4277 C 91.4062 -38.4277 96.3379 -33.6914 96.3379 -27.2949 C 96.3379 -20.8496 91.748 -16.5527 85.0586 -16.5527 C 80.127 -16.5527 76.2695 -18.1152 72.8027 -20.3613 C 69.1406 -22.6074 63.5254 -20.8008 63.623 -14.4043 C 63.8672 -9.86328 66.4062 -4.10156 69.1895 -0.0976562 C 69.7266 0.683594 69.3359 1.26953 68.7012 1.26953 L 50 1.26953 C 49.3652 1.26953 48.9258 0.683594 49.5117 -0.0976562 C 52.2461 -4.10156 54.7852 -9.86328 55.0781 -14.4043 C 55.1758 -20.8008 49.5605 -22.6074 45.8984 -20.3613 C 42.4316 -18.1152 38.5742 -16.5527 33.5938 -16.5527 C 26.9531 -16.5527 22.3145 -20.8496 22.3145 -27.2949 Z M 45.8496 -43.3105 C 45.8008 -43.4082 45.752 -43.457 45.6543 -43.5547 C 46.0449 -43.3105 46.4355 -43.0664 46.8262 -42.8223 Z M 72.7051 -43.2129 L 71.8262 -42.8223 C 72.2168 -43.0664 72.6074 -43.3105 72.9492 -43.5547 C 72.9004 -43.457 72.8027 -43.3105 72.7051 -43.2129 Z"/>
  </g>
  <g id="Semibold-M" transform="matrix(1 0 0 1 1985.41 1126)">
   <path d="M 8.74023 -26.709 C 8.74023 -13.2812 18.3105 -4.63867 30.3223 -4.63867 C 35.4004 -4.63867 40.1367 -5.85938 43.6523 -8.20312 C 41.6504 -3.85742 38.7695 -0.78125 36.5723 1.80664 C 32.8125 6.34766 34.5703 12.9395 41.2598 12.9395 L 74.4629 12.9395 C 81.2012 12.9395 82.9102 6.34766 79.1504 1.80664 C 76.9531 -0.78125 74.0723 -3.85742 72.0703 -8.20312 C 75.6348 -5.85938 80.3223 -4.63867 85.4004 -4.63867 C 97.4609 -4.63867 106.982 -13.2812 106.982 -26.709 C 106.982 -39.0137 97.0703 -48.7793 84.8145 -48.7793 C 81.2988 -48.7793 77.7344 -47.998 74.6582 -46.3867 C 78.5645 -50.5859 80.1758 -55.6641 80.1758 -60.5469 C 80.1758 -72.8516 70.166 -82.8613 57.8613 -82.8613 C 45.6055 -82.8613 35.5469 -72.8516 35.5469 -60.5469 C 35.5469 -55.6641 37.207 -50.5859 41.0645 -46.3867 C 38.0371 -47.998 34.4238 -48.7793 30.957 -48.7793 C 18.6523 -48.7793 8.74023 -39.0137 8.74023 -26.709 Z M 19.9219 -26.9531 C 19.9219 -33.8867 25.3906 -39.209 32.2266 -39.209 C 37.5 -39.209 41.0645 -37.4512 44.1406 -36.1328 C 45.752 -35.4492 47.2168 -34.9121 48.9746 -34.9121 C 51.8555 -34.9121 53.8086 -36.6211 53.8086 -39.4531 C 53.8086 -40.918 53.3203 -42.5293 52.2949 -43.9453 C 48.5352 -48.6816 45.2148 -53.0273 45.2148 -60.4492 C 45.2148 -67.4316 50.8789 -73.0957 57.8613 -73.0957 C 64.8438 -73.0957 70.5078 -67.4316 70.5078 -60.4492 C 70.5078 -53.0273 67.1875 -48.6816 63.4766 -43.9453 C 62.4512 -42.5293 61.9141 -40.918 61.9141 -39.4531 C 61.9141 -36.6211 63.916 -34.9121 66.748 -34.9121 C 68.5059 -34.9121 69.9707 -35.4492 71.582 -36.1328 C 74.6094 -37.4023 78.2227 -39.209 83.4961 -39.209 C 90.3809 -39.209 95.8496 -33.8867 95.8496 -26.9531 C 95.8496 -19.7754 90.8203 -15.0391 83.4961 -15.0391 C 78.2227 -15.0391 73.6816 -16.8945 70.3125 -19.3848 C 66.8945 -21.7285 61.8164 -20.166 61.9629 -14.4531 C 62.3047 -9.76562 65.1367 -3.36914 68.1641 0.683594 C 68.75 1.51367 68.3594 2.14844 67.6758 2.14844 L 48.0469 2.14844 C 47.3633 2.14844 46.9727 1.51367 47.5586 0.683594 C 50.5859 -3.36914 53.418 -9.76562 53.8086 -14.4531 C 53.9062 -20.166 48.8281 -21.7285 45.4102 -19.3848 C 42.041 -16.8945 37.5488 -15.0391 32.2266 -15.0391 C 24.9023 -15.0391 19.9219 -19.7754 19.9219 -26.9531 Z"/>
  </g>
  <g id="Medium-M" transform="matrix(1 0 0 1 1689.79 1126)">
   <path d="M 8.74023 -26.6602 C 8.74023 -13.5742 17.8223 -4.98047 30.127 -4.98047 C 35.3516 -4.98047 40.332 -6.44531 43.8965 -9.0332 C 41.8945 -4.24805 38.7207 -0.830078 36.5234 1.70898 C 33.1055 5.9082 34.7168 11.8164 40.8203 11.8164 L 72.7051 11.8164 C 78.8086 11.8164 80.4199 5.9082 76.9531 1.70898 C 74.8047 -0.830078 71.6309 -4.24805 69.6289 -9.0332 C 73.1445 -6.44531 78.1738 -4.98047 83.3984 -4.98047 C 95.7031 -4.98047 104.785 -13.5742 104.785 -26.6602 C 104.785 -38.6719 95.0195 -48.291 83.0566 -48.291 C 79.541 -48.291 75.9277 -47.4609 72.8027 -45.8496 C 76.8555 -50.1953 78.5156 -55.5176 78.5156 -60.4004 C 78.5156 -72.4609 68.75 -82.2266 56.7383 -82.2266 C 44.7754 -82.2266 34.9609 -72.4609 34.9609 -60.4004 C 34.9609 -55.4688 36.6699 -50.2441 40.7227 -45.8496 C 37.5977 -47.4609 33.9844 -48.291 30.4199 -48.291 C 18.457 -48.291 8.74023 -38.6719 8.74023 -26.6602 Z M 18.0664 -26.7578 C 18.0664 -34.0332 23.9258 -39.7949 31.1523 -39.7949 C 36.7676 -39.7949 40.5762 -37.9395 43.75 -36.6699 C 45.3125 -36.0352 46.6797 -35.5957 48.2422 -35.5957 C 50.5859 -35.5957 52.4902 -37.0117 52.4902 -39.5996 C 52.4902 -41.0156 51.9531 -42.4316 50.9766 -43.7012 C 46.9727 -48.584 43.457 -52.7832 43.457 -60.3027 C 43.457 -67.6758 49.4141 -73.6328 56.7383 -73.6328 C 64.1113 -73.6328 70.0684 -67.6758 70.0684 -60.3027 C 70.0684 -52.7832 66.5039 -48.584 62.5 -43.7012 C 61.5723 -42.4316 61.0352 -41.0156 61.0352 -39.5996 C 61.0352 -37.0117 62.8906 -35.5957 65.2832 -35.5957 C 66.7969 -35.5957 68.1641 -36.0352 69.6777 -36.6699 C 72.8516 -37.9395 76.709 -39.7949 82.3242 -39.7949 C 89.5996 -39.7949 95.459 -34.0332 95.459 -26.7578 C 95.459 -18.9941 90.1367 -13.916 82.3242 -13.916 C 76.7578 -13.916 71.7285 -15.9668 68.457 -18.6523 C 65.2344 -21.0938 60.498 -19.6777 60.6934 -14.502 C 61.084 -9.66797 64.1602 -2.7832 67.3828 1.31836 C 68.0176 2.14844 67.627 2.7832 66.8945 2.7832 L 46.582 2.7832 C 45.8984 2.7832 45.459 2.14844 46.1426 1.31836 C 49.3164 -2.7832 52.3926 -9.66797 52.832 -14.502 C 52.9785 -19.6777 48.291 -21.0938 45.0684 -18.6523 C 41.748 -15.9668 36.7676 -13.916 31.2012 -13.916 C 23.3398 -13.916 18.0664 -18.9941 18.0664 -26.7578 Z"/>
  </g>
  <g id="Regular-M" transform="matrix(1 0 0 1 1394.55 1126)">
   <path d="M 8.74023 -26.5625 C 8.74023 -13.916 17.1875 -5.46875 29.834 -5.46875 C 35.2539 -5.46875 40.6738 -7.27539 44.1895 -10.1562 C 42.1875 -4.83398 38.5742 -0.878906 36.4746 1.61133 C 33.4473 5.37109 34.9121 10.3516 40.1855 10.3516 L 70.4102 10.3516 C 75.6836 10.3516 77.1484 5.37109 74.0723 1.61133 C 71.9727 -0.878906 68.3594 -4.83398 66.4062 -10.1562 C 69.9219 -7.27539 75.3418 -5.46875 80.7617 -5.46875 C 93.4082 -5.46875 101.855 -13.916 101.855 -26.5625 C 101.855 -38.2324 92.3828 -47.7051 80.8105 -47.7051 C 77.2461 -47.7051 73.6328 -46.7773 70.3613 -45.166 C 74.6094 -49.707 76.3672 -55.3223 76.3672 -60.2539 C 76.3672 -71.9238 66.8945 -81.3965 55.2734 -81.3965 C 43.7012 -81.3965 34.2285 -71.9238 34.2285 -60.2539 C 34.2285 -55.2734 35.9863 -49.7559 40.2344 -45.166 C 36.9629 -46.7773 33.3496 -47.7051 29.7852 -47.7051 C 18.2129 -47.7051 8.74023 -38.2324 8.74023 -26.5625 Z M 15.6738 -26.416 C 15.6738 -34.2773 22.0215 -40.5762 29.7852 -40.5762 C 35.791 -40.5762 39.9414 -38.623 43.2617 -37.3047 C 44.7754 -36.8164 45.9961 -36.4258 47.2168 -36.4258 C 48.9746 -36.4258 50.6836 -37.5977 50.6836 -39.8438 C 50.6836 -41.1133 50.1953 -42.3828 49.3164 -43.4082 C 44.9707 -48.4863 41.1621 -52.4902 41.1621 -60.1074 C 41.1621 -67.9688 47.4609 -74.2676 55.2734 -74.2676 C 63.1348 -74.2676 69.4336 -67.9688 69.4336 -60.1074 C 69.4336 -52.4902 65.625 -48.4863 61.2793 -43.4082 C 60.4004 -42.3828 59.9121 -41.1133 59.9121 -39.8438 C 59.9121 -37.5977 61.6211 -36.4258 63.3789 -36.4258 C 64.5996 -36.4258 65.7715 -36.8164 67.2852 -37.3047 C 70.6055 -38.5742 74.7559 -40.5762 80.8105 -40.5762 C 88.5742 -40.5762 94.9219 -34.2773 94.9219 -26.416 C 94.9219 -17.9688 89.2578 -12.4023 80.7617 -12.4023 C 74.8535 -12.4023 69.1895 -14.7461 65.9668 -17.6758 C 63.0371 -20.2637 58.8379 -19.043 59.0332 -14.5996 C 59.5215 -9.57031 62.9395 -2.05078 66.3574 2.09961 C 67.0898 2.92969 66.6504 3.61328 65.918 3.61328 L 44.6777 3.61328 C 43.9453 3.61328 43.5059 2.92969 44.2383 2.09961 C 47.6562 -2.05078 51.0254 -9.57031 51.5625 -14.5996 C 51.7578 -19.043 47.5586 -20.2637 44.5801 -17.6758 C 41.3574 -14.7461 35.7422 -12.4023 29.834 -12.4023 C 21.3379 -12.4023 15.6738 -17.9688 15.6738 -26.416 Z"/>
  </g>
  <g id="Light-M" transform="matrix(1 0 0 1 1098.84 1126)">
   <path d="M 8.74023 -27.1484 C 8.74023 -14.7461 16.9922 -6.54297 29.3457 -6.54297 C 35.2051 -6.54297 40.7715 -8.78906 44.0918 -12.1094 C 42.0898 -6.44531 38.3301 -1.9043 35.4492 1.17188 C 32.4219 4.63867 33.7891 9.32617 38.7207 9.32617 L 69.873 9.32617 C 74.8047 9.32617 76.1719 4.63867 73.1445 1.17188 C 70.2637 -1.9043 66.5527 -6.44531 64.502 -12.1094 C 67.8711 -8.78906 73.3887 -6.54297 79.248 -6.54297 C 91.6016 -6.54297 99.8535 -14.7461 99.8535 -27.1484 C 99.8535 -38.5742 90.5762 -47.8027 79.248 -47.8027 C 75.7324 -47.8027 72.0703 -46.875 68.75 -45.0684 C 73.3398 -49.8047 74.9512 -55.4199 74.9512 -60.0586 C 74.9512 -71.4844 65.6738 -80.7617 54.2969 -80.7617 C 42.9199 -80.7617 33.6914 -71.4844 33.6914 -60.0586 C 33.6914 -55.3711 35.2539 -49.8535 39.8438 -45.0684 C 36.5723 -46.875 32.8613 -47.8027 29.3457 -47.8027 C 18.0176 -47.8027 8.74023 -38.5742 8.74023 -27.1484 Z M 14.1602 -27.0508 C 14.1602 -35.498 20.9961 -42.2363 29.3457 -42.2363 C 35.0586 -42.2363 38.8184 -40.2832 41.9434 -38.8672 C 43.1641 -38.3789 44.0918 -38.1348 45.1172 -38.1348 C 46.6797 -38.1348 48.0469 -39.1113 48.0469 -40.9668 C 48.0469 -42.041 47.6074 -43.1152 46.9238 -43.9453 C 42.5781 -48.877 39.1113 -52.8809 39.1113 -59.9609 C 39.1113 -68.4082 45.8984 -75.1953 54.2969 -75.1953 C 62.6953 -75.1953 69.4824 -68.4082 69.4824 -59.9609 C 69.4824 -52.8809 66.0156 -48.877 61.6699 -43.9453 C 60.9863 -43.1152 60.5469 -42.041 60.5469 -40.9668 C 60.5469 -39.1113 61.9629 -38.1348 63.4766 -38.1348 C 64.502 -38.1348 65.4297 -38.3789 66.6504 -38.8672 C 69.7266 -40.2344 73.5352 -42.2363 79.248 -42.2363 C 87.5977 -42.2363 94.4336 -35.498 94.4336 -27.0508 C 94.4336 -17.9688 88.3789 -11.9629 79.248 -11.9629 C 73.3398 -11.9629 68.0664 -14.4043 64.7949 -17.7246 C 62.2559 -20.166 58.4473 -18.7988 58.9355 -14.8926 C 60.1074 -9.0332 63.5254 -2.19727 67.4805 2.14844 C 68.3594 3.07617 67.9688 4.00391 66.9434 4.00391 L 41.6504 4.00391 C 40.625 4.00391 40.2344 3.07617 41.1133 2.14844 C 45.0684 -2.19727 48.4863 -9.0332 49.707 -14.8926 C 50.1465 -18.7988 46.3867 -20.166 43.7988 -17.7246 C 40.5273 -14.4043 35.2539 -11.9629 29.3457 -11.9629 C 20.2637 -11.9629 14.1602 -17.9688 14.1602 -27.0508 Z"/>
  </g>
  <g id="Thin-M" transform="matrix(1 0 0 1 803.444 1126)">
   <path d="M 8.74023 -27.9297 C 8.74023 -15.918 16.748 -7.91016 28.7598 -7.91016 C 35.3027 -7.91016 41.0156 -10.9863 44.043 -14.8926 C 41.9922 -8.83789 38.1348 -3.36914 34.082 0.585938 C 31.0547 3.66211 32.373 7.91016 36.7676 7.91016 L 69.1895 7.91016 C 73.6328 7.91016 74.9023 3.66211 71.9238 0.585938 C 67.8223 -3.41797 64.0137 -8.83789 61.9141 -14.8926 C 64.9414 -10.9863 70.6543 -7.91016 77.1973 -7.91016 C 89.209 -7.91016 97.2168 -15.918 97.2168 -27.9297 C 97.2168 -39.0137 88.2324 -47.9492 77.2461 -47.9492 C 73.6816 -47.9492 69.7266 -46.9727 66.3574 -44.7266 C 71.7285 -49.8535 72.998 -55.5176 72.998 -59.8145 C 72.998 -70.9473 64.0137 -79.8828 52.9785 -79.8828 C 41.9434 -79.8828 32.959 -70.9473 32.959 -59.8145 C 32.959 -55.5176 34.2285 -49.9023 39.5996 -44.7754 C 36.2305 -46.9727 32.3242 -47.9492 28.7109 -47.9492 C 17.7246 -47.9492 8.74023 -39.0137 8.74023 -27.9297 Z M 12.1582 -27.8809 C 12.1582 -37.1094 19.6289 -44.4824 28.7109 -44.4824 C 34.1309 -44.4824 37.3535 -42.4316 40.1367 -40.918 C 41.0156 -40.4297 41.5527 -40.332 42.334 -40.332 C 43.6035 -40.332 44.5312 -41.1621 44.5312 -42.5293 C 44.5312 -43.3105 44.1895 -44.043 43.7012 -44.5801 C 39.4531 -49.3164 36.377 -53.3691 36.377 -59.7656 C 36.377 -68.9941 43.7988 -76.3672 52.9785 -76.3672 C 62.1582 -76.3672 69.5801 -68.9941 69.5801 -59.7656 C 69.5801 -53.3691 66.5039 -49.3164 62.2559 -44.5801 C 61.7676 -44.043 61.4258 -43.3105 61.4258 -42.5293 C 61.4258 -41.1621 62.4023 -40.332 63.623 -40.332 C 64.4531 -40.332 64.9414 -40.4297 65.8203 -40.918 C 68.6035 -42.3828 71.8262 -44.4824 77.2461 -44.4824 C 86.377 -44.4824 93.7988 -37.1094 93.7988 -27.8809 C 93.7988 -17.9688 87.1582 -11.377 77.1973 -11.377 C 71.3379 -11.377 66.6016 -13.9648 63.2812 -17.7246 C 61.1816 -20.0195 58.0078 -18.5547 58.7891 -15.332 C 60.791 -8.30078 64.3555 -2.34375 68.9941 2.19727 C 70.0684 3.22266 69.7266 4.49219 68.3105 4.49219 L 37.6465 4.49219 C 36.2305 4.49219 35.8887 3.22266 36.9629 2.19727 C 41.6016 -2.34375 45.166 -8.30078 47.168 -15.332 C 47.9492 -18.5547 44.8242 -20.0684 42.7246 -17.7246 C 39.3555 -13.9648 34.668 -11.377 28.7598 -11.377 C 18.7988 -11.377 12.1582 -17.9688 12.1582 -27.8809 Z"/>
  </g>
  <g id="Ultralight-M" transform="matrix(1 0 0 1 507.392 1126)">
   <path d="M 8.74023 -28.3203 C 8.74023 -16.5039 16.6504 -8.64258 28.4668 -8.64258 C 35.498 -8.64258 41.3574 -12.3047 44.1406 -16.6504 C 41.9922 -10.3027 38.1836 -4.24805 33.3496 0.292969 C 30.3711 3.17383 31.5918 7.17773 35.791 7.17773 L 68.8477 7.17773 C 72.998 7.17773 74.2676 3.17383 71.2402 0.292969 C 66.4551 -4.24805 62.5977 -10.3027 60.4492 -16.6504 C 63.2812 -12.3047 69.1406 -8.64258 76.1719 -8.64258 C 87.9883 -8.64258 95.8984 -16.5039 95.8984 -28.3203 C 95.8984 -39.2578 87.0605 -48.0469 76.2207 -48.0469 C 72.0215 -48.0469 67.0898 -46.6309 63.4766 -43.0664 L 63.1348 -42.8711 C 70.7031 -48.7793 72.0215 -55.2246 72.0215 -59.668 C 72.0215 -70.6543 63.1836 -79.3945 52.2949 -79.3945 C 41.4062 -79.3945 32.5684 -70.6543 32.5684 -59.668 C 32.5684 -55.2246 33.9355 -48.7793 41.4551 -42.8711 L 41.1621 -43.0664 C 37.5488 -46.6309 32.6172 -48.0469 28.418 -48.0469 C 17.5781 -48.0469 8.74023 -39.2578 8.74023 -28.3203 Z M 11.1328 -28.3203 C 11.1328 -37.9395 18.8965 -45.6543 28.418 -45.6543 C 33.6426 -45.6543 36.6211 -43.5059 39.209 -41.9434 C 39.9414 -41.5039 40.2344 -41.4551 40.918 -41.4551 C 42.041 -41.4551 42.7246 -42.1875 42.7246 -43.3105 C 42.7246 -43.9941 42.4316 -44.5312 42.0898 -44.9707 C 37.8418 -49.5605 35.0098 -53.6133 35.0098 -59.668 C 35.0098 -69.3359 42.7246 -77.002 52.2949 -77.002 C 61.8652 -77.002 69.6289 -69.3359 69.6289 -59.668 C 69.6289 -53.6133 66.7969 -49.5605 62.5488 -44.9707 C 62.207 -44.5312 61.8652 -43.9941 61.8652 -43.3105 C 61.8652 -42.1875 62.5977 -41.4551 63.7207 -41.4551 C 64.4043 -41.4551 64.6973 -41.5039 65.4297 -41.9434 C 68.0176 -43.5059 70.9961 -45.6543 76.2207 -45.6543 C 85.7422 -45.6543 93.457 -37.9395 93.457 -28.3203 C 93.457 -17.9199 86.5234 -11.0352 76.1719 -11.0352 C 70.3125 -11.0352 65.8203 -13.7207 62.4512 -17.7246 C 60.5957 -19.9219 57.7637 -18.4082 58.7402 -15.5273 C 61.1816 -7.91016 64.7949 -2.44141 69.7754 2.19727 C 70.9473 3.32031 70.6543 4.78516 68.9941 4.78516 L 35.6445 4.78516 C 33.9844 4.78516 33.6914 3.32031 34.8633 2.19727 C 39.8438 -2.44141 43.457 -7.91016 45.8984 -15.5273 C 46.875 -18.4082 43.9941 -19.9707 42.1875 -17.7246 C 38.8184 -13.7207 34.3262 -11.0352 28.4668 -11.0352 C 18.1152 -11.0352 11.1328 -17.9199 11.1328 -28.3203 Z"/>
  </g>
  <g id="Black-S" transform="matrix(1 0 0 1 2883.89 696)">
   <path d="M 6.83594 -28.7109 C 6.83594 -17.041 16.1133 -9.86328 24.6094 -9.86328 C 27.9297 -9.86328 30.7129 -10.2051 33.1543 -11.1816 C 31.8848 -9.32617 30.4688 -7.8125 28.8086 -5.9082 C 24.6582 -1.12305 26.5137 6.64062 34.082 6.64062 L 64.9414 6.64062 C 72.5098 6.64062 74.3652 -1.12305 70.2148 -5.9082 C 68.5547 -7.8125 67.1387 -9.32617 65.8691 -11.1816 C 68.3105 -10.2051 71.0938 -9.86328 74.4141 -9.86328 C 82.9102 -9.86328 92.1875 -17.041 92.1875 -28.7109 C 92.1875 -39.4531 83.6914 -47.6074 72.9492 -47.6074 C 70.459 -47.6074 67.8223 -47.2168 65.7227 -46.1426 C 68.0176 -48.8281 68.9941 -51.9531 68.9941 -55.4688 C 68.9941 -66.2598 60.2539 -74.9512 49.5117 -74.9512 C 38.7695 -74.9512 30.0293 -66.2598 30.0293 -55.4688 C 30.0293 -51.9531 31.0059 -48.8281 33.3008 -46.1426 C 31.2012 -47.2168 28.5645 -47.6074 26.0742 -47.6074 C 15.332 -47.6074 6.83594 -39.4531 6.83594 -28.7109 Z M 22.4609 -29.6387 C 22.4609 -33.5449 25.293 -36.1328 29.1504 -36.1328 C 32.1777 -36.1328 34.0332 -34.9609 35.9863 -33.9844 C 37.4512 -33.2031 39.0137 -32.5195 41.2598 -32.5195 C 45.2637 -32.5195 47.2656 -34.7168 47.2656 -37.8906 C 47.2656 -39.4043 46.8262 -41.1133 45.752 -42.9199 C 43.8965 -46.0449 42.041 -49.9512 42.041 -55.4688 C 42.041 -59.6191 45.4102 -62.9883 49.5117 -62.9883 C 53.6133 -62.9883 56.9824 -59.6191 56.9824 -55.4688 C 56.9824 -49.9512 55.127 -46.0449 53.2715 -42.9199 C 52.1973 -41.1133 51.7578 -39.4043 51.7578 -37.8906 C 51.7578 -34.7168 53.7598 -32.5195 57.7637 -32.5195 C 60.0098 -32.5195 61.5723 -33.2031 63.0371 -33.9844 C 64.9414 -35.0098 66.8457 -36.1328 69.873 -36.1328 C 73.7305 -36.1328 76.5625 -33.5449 76.5625 -29.6387 C 76.5625 -26.0742 73.7305 -23.7305 69.873 -23.7305 C 66.6992 -23.7305 64.9902 -24.3652 62.1094 -25.5859 C 58.6914 -27.0508 53.2715 -25.2441 53.2715 -18.7988 C 53.2715 -15.5762 54.6387 -12.3535 56.25 -9.375 C 56.5918 -8.74023 56.25 -8.39844 55.8594 -8.39844 L 43.1641 -8.39844 C 42.7734 -8.39844 42.4316 -8.74023 42.7734 -9.375 C 44.3848 -12.3535 45.752 -15.5762 45.752 -18.7988 C 45.752 -25.2441 40.332 -27.0508 36.9141 -25.5859 C 34.0332 -24.3652 32.3242 -23.7305 29.1504 -23.7305 C 25.293 -23.7305 22.4609 -26.0742 22.4609 -29.6387 Z M 62.3535 -42.3828 L 60.5957 -42.1387 C 61.4258 -42.5781 62.207 -43.0664 62.8906 -43.5547 C 62.6465 -43.2129 62.5 -42.8223 62.3535 -42.3828 Z M 36.6699 -42.3828 C 36.5234 -42.8223 36.377 -43.2129 36.1328 -43.5547 C 36.8164 -43.0664 37.5977 -42.5781 38.4277 -42.1387 Z"/>
  </g>
  <g id="Heavy-S" transform="matrix(1 0 0 1 2588.52 696)">
   <path d="M 6.83594 -28.5645 C 6.83594 -17.2852 15.5273 -10.2051 24.3652 -10.2051 C 27.8809 -10.2051 30.957 -10.7422 33.5449 -11.9629 C 32.1777 -9.61914 30.5176 -7.91016 28.8574 -5.95703 C 25.1465 -1.5625 26.8066 5.32227 33.6426 5.32227 L 62.6953 5.32227 C 69.4824 5.32227 71.1914 -1.5625 67.4316 -5.95703 C 65.8203 -7.91016 64.1602 -9.61914 62.7441 -11.9629 C 65.3809 -10.7422 68.4082 -10.2051 71.9727 -10.2051 C 80.8105 -10.2051 89.502 -17.2852 89.502 -28.5645 C 89.502 -38.9648 81.2012 -46.9727 70.8496 -46.9727 C 68.2617 -46.9727 65.5273 -46.5332 63.3789 -45.3613 C 65.918 -48.2422 66.9922 -51.709 66.9922 -55.3223 C 66.9922 -65.7715 58.5449 -74.1699 48.1445 -74.1699 C 37.793 -74.1699 29.3457 -65.7715 29.3457 -55.3223 C 29.3457 -51.709 30.4199 -48.2422 32.959 -45.3613 C 30.8105 -46.5332 28.0762 -46.9727 25.4883 -46.9727 C 15.0879 -46.9727 6.83594 -38.9648 6.83594 -28.5645 Z M 20.2148 -29.248 C 20.2148 -33.6426 23.5352 -36.7188 27.832 -36.7188 C 31.2988 -36.7188 33.4961 -35.4492 35.6445 -34.4727 C 37.0605 -33.7891 38.5254 -33.2031 40.4785 -33.2031 C 43.8965 -33.2031 45.8008 -35.1074 45.8008 -37.9883 C 45.8008 -39.4043 45.3613 -40.9668 44.3359 -42.5781 C 42.1387 -45.8984 39.9414 -49.6094 39.9414 -55.3223 C 39.9414 -59.8633 43.6523 -63.5742 48.1445 -63.5742 C 52.6855 -63.5742 56.3477 -59.8633 56.3477 -55.3223 C 56.3477 -49.6094 54.1992 -45.8984 51.9531 -42.5781 C 50.9766 -40.9668 50.5371 -39.4043 50.5371 -37.9883 C 50.5371 -35.1074 52.4414 -33.2031 55.8105 -33.2031 C 57.8125 -33.2031 59.2285 -33.7891 60.6445 -34.4727 C 62.7441 -35.498 65.0391 -36.7188 68.5059 -36.7188 C 72.8027 -36.7188 76.0742 -33.6426 76.0742 -29.248 C 76.0742 -25.0488 72.9492 -22.2656 68.5059 -22.2656 C 64.9902 -22.2656 62.5977 -23.1934 59.7656 -24.6094 C 56.5918 -26.2207 51.6113 -24.6094 51.6113 -18.7988 C 51.6602 -15.5273 53.3203 -11.6211 55.127 -8.59375 C 55.4688 -7.95898 55.127 -7.56836 54.7363 -7.56836 L 41.6016 -7.56836 C 41.1621 -7.56836 40.8203 -7.95898 41.2109 -8.59375 C 43.0176 -11.6211 44.6777 -15.5273 44.7266 -18.7988 C 44.7266 -24.6094 39.7461 -26.2207 36.5234 -24.6094 C 33.7402 -23.1934 31.3477 -22.2656 27.832 -22.2656 C 23.3887 -22.2656 20.2148 -25.0488 20.2148 -29.248 Z M 36.4746 -41.9434 C 36.3281 -42.1875 36.1816 -42.4316 36.0352 -42.627 C 36.5723 -42.2852 37.1094 -41.9434 37.6953 -41.6016 Z M 59.8145 -41.8945 L 58.5938 -41.6016 C 59.1797 -41.9434 59.7168 -42.2852 60.2539 -42.627 C 60.1074 -42.3828 59.9609 -42.1875 59.8145 -41.8945 Z"/>
  </g>
  <g id="Bold-S" transform="matrix(1 0 0 1 2293.32 696)">
   <path d="M 6.83594 -28.418 C 6.83594 -17.5781 14.8438 -10.6445 24.0723 -10.6445 C 27.832 -10.6445 31.25 -11.3281 33.9844 -12.8418 C 32.4707 -9.96094 30.5176 -7.95898 28.9551 -6.05469 C 25.6836 -2.09961 27.1973 3.80859 33.1543 3.80859 L 60.1562 3.80859 C 66.1133 3.80859 67.627 -2.09961 64.3555 -6.05469 C 62.7441 -7.95898 60.791 -9.96094 59.3262 -12.8418 C 62.0605 -11.3281 65.4785 -10.6445 69.2383 -10.6445 C 78.4668 -10.6445 86.4746 -17.5781 86.4746 -28.418 C 86.4746 -38.4277 78.4668 -46.2891 68.5059 -46.2891 C 65.8203 -46.2891 63.0371 -45.752 60.7422 -44.5312 C 63.5254 -47.6562 64.7461 -51.416 64.7461 -55.2246 C 64.7461 -65.2344 56.6406 -73.3398 46.6309 -73.3398 C 36.6699 -73.3398 28.5645 -65.2344 28.5645 -55.2246 C 28.5645 -51.3672 29.7852 -47.6562 32.5684 -44.5312 C 30.2734 -45.7031 27.4902 -46.2891 24.8047 -46.2891 C 14.8438 -46.2891 6.83594 -38.4277 6.83594 -28.418 Z M 17.7246 -28.8574 C 17.7246 -33.6914 21.5332 -37.3535 26.3672 -37.3535 C 30.2734 -37.3535 32.9102 -36.0352 35.2539 -35.0586 C 36.6211 -34.4727 37.9883 -33.9355 39.6484 -33.9355 C 42.3828 -33.9355 44.1406 -35.498 44.1406 -38.0859 C 44.1406 -39.4043 43.7012 -40.8203 42.7734 -42.1387 C 40.1367 -45.752 37.6465 -49.2676 37.6465 -55.127 C 37.6465 -60.1562 41.6992 -64.1602 46.6309 -64.1602 C 51.6113 -64.1602 55.6641 -60.1562 55.6641 -55.127 C 55.6641 -49.2676 53.1738 -45.752 50.5371 -42.1387 C 49.6094 -40.8203 49.1699 -39.4043 49.1699 -38.0859 C 49.1699 -35.498 50.9277 -33.9355 53.6621 -33.9355 C 55.3223 -33.9355 56.6406 -34.4727 58.0078 -35.0586 C 60.3516 -36.0352 63.0371 -37.3535 66.9434 -37.3535 C 71.7773 -37.3535 75.5859 -33.6914 75.5859 -28.8574 C 75.5859 -23.877 72.0703 -20.6543 66.9434 -20.6543 C 63.0371 -20.6543 59.8633 -21.8262 57.1777 -23.5352 C 54.248 -25.293 49.7559 -23.9258 49.7559 -18.8477 C 49.8047 -15.4785 51.8066 -10.791 53.8574 -7.66602 C 54.248 -7.08008 53.9062 -6.68945 53.5156 -6.68945 L 39.7949 -6.68945 C 39.4043 -6.68945 39.0625 -7.08008 39.4531 -7.66602 C 41.5039 -10.791 43.457 -15.4785 43.5547 -18.8477 C 43.5547 -23.9258 39.0625 -25.293 36.1328 -23.5352 C 33.4473 -21.8262 30.2734 -20.6543 26.3672 -20.6543 C 21.2402 -20.6543 17.7246 -23.877 17.7246 -28.8574 Z M 36.4258 -41.3086 C 36.3281 -41.3574 36.2793 -41.4062 36.1816 -41.4551 L 36.2305 -41.4551 Z M 57.0312 -41.4551 C 56.8359 -41.3086 56.6406 -41.1621 56.3965 -41.0645 L 56.9824 -41.4062 Z"/>
  </g>
  <g id="Semibold-S" transform="matrix(1 0 0 1 1997.66 696)">
   <path d="M 6.83594 -28.3203 C 6.83594 -17.7734 14.3555 -10.8887 23.877 -10.8887 C 27.7832 -10.8887 31.4453 -11.7676 34.2773 -13.5254 C 32.7148 -10.2051 30.5176 -7.91016 29.0039 -6.10352 C 26.0254 -2.44141 27.4414 2.7832 32.8125 2.7832 L 58.4473 2.7832 C 63.7695 2.7832 65.1855 -2.44141 62.207 -6.10352 C 60.7422 -7.91016 58.4961 -10.2051 56.9824 -13.5254 C 59.7656 -11.7676 63.4277 -10.8887 67.334 -10.8887 C 76.8555 -10.8887 84.375 -17.7734 84.375 -28.3203 C 84.375 -38.0371 76.5625 -45.8008 66.8457 -45.8008 C 64.1113 -45.8008 61.377 -45.166 58.9355 -43.9941 C 61.9141 -47.2168 63.2324 -51.2207 63.2324 -55.127 C 63.2324 -64.8438 55.2734 -72.7539 45.6055 -72.7539 C 35.9375 -72.7539 28.0273 -64.8438 28.0273 -55.127 C 28.0273 -51.2207 29.2969 -47.2168 32.2754 -43.9941 C 29.8828 -45.166 27.0996 -45.8008 24.3652 -45.8008 C 14.6973 -45.8008 6.83594 -38.0371 6.83594 -28.3203 Z M 16.0156 -28.5156 C 16.0156 -33.7891 20.166 -37.793 25.3418 -37.793 C 29.5898 -37.793 32.5195 -36.4258 35.0098 -35.4492 C 36.3281 -34.9121 37.5977 -34.4727 39.0625 -34.4727 C 41.3086 -34.4727 42.9688 -35.791 42.9688 -38.1348 C 42.9688 -39.3555 42.5781 -40.6738 41.6992 -41.8945 C 38.7695 -45.6543 36.0352 -49.0234 36.0352 -55.0293 C 36.0352 -60.3516 40.332 -64.5996 45.6055 -64.5996 C 50.9277 -64.5996 55.1758 -60.3516 55.1758 -55.0293 C 55.1758 -49.0234 52.4902 -45.6543 49.5117 -41.8945 C 48.6816 -40.6738 48.2422 -39.3555 48.2422 -38.1348 C 48.2422 -35.791 49.9023 -34.4727 52.1973 -34.4727 C 53.6133 -34.4727 54.834 -34.9121 56.2012 -35.4492 C 58.6426 -36.4258 61.6211 -37.793 65.8691 -37.793 C 71.0449 -37.793 75.1953 -33.7891 75.1953 -28.5156 C 75.1953 -23.0957 71.4355 -19.5312 65.8691 -19.5312 C 61.7188 -19.5312 58.0078 -20.9473 55.3711 -22.8027 C 52.5879 -24.6582 48.4863 -23.4375 48.4863 -18.8477 C 48.584 -15.4297 50.7812 -10.2051 52.9785 -7.08008 C 53.418 -6.44531 53.0762 -6.05469 52.6367 -6.05469 L 38.5742 -6.05469 C 38.1836 -6.05469 37.8418 -6.44531 38.2324 -7.08008 C 40.4297 -10.2051 42.6758 -15.4297 42.7246 -18.8477 C 42.7246 -23.4375 38.623 -24.6582 35.8398 -22.8027 C 33.2031 -20.9473 29.4922 -19.5312 25.3418 -19.5312 C 19.7754 -19.5312 16.0156 -23.0957 16.0156 -28.5156 Z"/>
  </g>
  <g id="Medium-S" transform="matrix(1 0 0 1 1701.73 696)">
   <path d="M 6.83594 -28.2715 C 6.83594 -17.9199 14.0137 -11.1328 23.7305 -11.1328 C 27.7344 -11.1328 31.6406 -12.1582 34.4238 -14.0137 C 32.9102 -10.4004 30.4688 -7.91016 29.0527 -6.10352 C 26.3184 -2.68555 27.6367 2.00195 32.5195 2.00195 L 57.1289 2.00195 C 62.0117 2.00195 63.3301 -2.68555 60.5957 -6.10352 C 59.1797 -7.91016 56.7383 -10.4004 55.1758 -14.0137 C 58.0078 -12.1582 61.9141 -11.1328 65.8691 -11.1328 C 75.6348 -11.1328 82.8125 -17.9199 82.8125 -28.2715 C 82.8125 -37.793 75.0977 -45.4102 65.625 -45.4102 C 62.8906 -45.4102 60.1074 -44.7754 57.6172 -43.5547 C 60.6934 -46.9238 62.0605 -51.0742 62.0605 -55.0293 C 62.0605 -64.5508 54.2969 -72.3145 44.8242 -72.3145 C 35.3516 -72.3145 27.5879 -64.5508 27.5879 -55.0293 C 27.5879 -51.0742 28.9551 -46.9238 32.0312 -43.5547 C 29.5898 -44.7754 26.8066 -45.4102 24.0234 -45.4102 C 14.5508 -45.4102 6.83594 -37.793 6.83594 -28.2715 Z M 14.6973 -28.3203 C 14.6973 -33.8379 19.0918 -38.1348 24.5605 -38.1348 C 29.0527 -38.1348 32.2266 -36.7188 34.8145 -35.7422 C 36.1328 -35.2539 37.3047 -34.8633 38.5742 -34.8633 C 40.5273 -34.8633 42.1387 -36.0352 42.1387 -38.1836 C 42.1387 -39.3555 41.6992 -40.625 40.8691 -41.6504 C 37.6953 -45.5566 34.8145 -48.8281 34.8145 -54.9316 C 34.8145 -60.498 39.3066 -64.9414 44.8242 -64.9414 C 50.3418 -64.9414 54.834 -60.498 54.834 -54.9316 C 54.834 -48.8281 51.9531 -45.5566 48.7793 -41.6504 C 47.9492 -40.625 47.5098 -39.3555 47.5098 -38.1836 C 47.5098 -36.0352 49.1211 -34.8633 51.0742 -34.8633 C 52.2949 -34.8633 53.4668 -35.2539 54.7852 -35.7422 C 57.373 -36.7188 60.5469 -38.1348 65.0879 -38.1348 C 70.5078 -38.1348 74.9512 -33.8379 74.9512 -28.3203 C 74.9512 -22.5098 70.9961 -18.6523 65.0879 -18.6523 C 60.6934 -18.6523 56.5918 -20.2148 54.0527 -22.2168 C 51.3672 -24.1699 47.5098 -23.0957 47.5098 -18.8965 C 47.6074 -15.4297 50 -9.76562 52.2949 -6.5918 C 52.7344 -6.00586 52.3926 -5.56641 52.002 -5.56641 L 37.6465 -5.56641 C 37.207 -5.56641 36.8652 -6.00586 37.3535 -6.5918 C 39.6484 -9.76562 42.041 -15.4297 42.0898 -18.8965 C 42.1387 -23.0957 38.2812 -24.2188 35.5957 -22.2168 C 33.0566 -20.2148 28.9551 -18.6523 24.5605 -18.6523 C 18.6523 -18.6523 14.6973 -22.5098 14.6973 -28.3203 Z"/>
  </g>
  <g id="Regular-S" transform="matrix(1 0 0 1 1406.05 696)">
   <path d="M 6.83594 -28.1738 C 6.83594 -18.1152 13.5254 -11.377 23.584 -11.377 C 27.6367 -11.377 31.8359 -12.5977 34.668 -14.6973 C 33.1543 -10.6934 30.3711 -7.8125 29.1016 -6.15234 C 26.709 -3.02734 27.8809 1.02539 32.1777 1.02539 L 55.3711 1.02539 C 59.7168 1.02539 60.8887 -3.02734 58.4961 -6.15234 C 57.2266 -7.8125 54.4434 -10.6934 52.9297 -14.6973 C 55.7129 -12.5977 59.9121 -11.377 64.0137 -11.377 C 74.0234 -11.377 80.7617 -18.1152 80.7617 -28.1738 C 80.7617 -37.4023 73.1934 -44.9219 64.0137 -44.9219 C 61.2305 -44.9219 58.4473 -44.2383 55.8594 -43.0176 C 59.082 -46.5332 60.498 -50.9277 60.498 -54.9316 C 60.498 -64.209 52.9785 -71.7285 43.7988 -71.7285 C 34.6191 -71.7285 27.0508 -64.209 27.0508 -54.9316 C 27.0508 -50.9277 28.5156 -46.582 31.6895 -43.0176 C 29.1504 -44.2383 26.3672 -44.9219 23.584 -44.9219 C 14.3555 -44.9219 6.83594 -37.4023 6.83594 -28.1738 Z M 12.9883 -28.0273 C 12.9883 -33.8867 17.7734 -38.5742 23.584 -38.5742 C 28.3691 -38.5742 31.7871 -37.1094 34.5703 -36.1328 C 35.8398 -35.6934 36.9629 -35.3516 37.9883 -35.3516 C 39.502 -35.3516 41.0156 -36.3281 41.0156 -38.2812 C 41.0156 -39.3555 40.5762 -40.4785 39.7949 -41.4062 C 36.3281 -45.459 33.2031 -48.584 33.2031 -54.834 C 33.2031 -60.6445 37.9395 -65.3809 43.7988 -65.3809 C 49.6582 -65.3809 54.3457 -60.6445 54.3457 -54.834 C 54.3457 -48.584 51.2207 -45.459 47.7539 -41.4062 C 47.0215 -40.4785 46.582 -39.3555 46.582 -38.2812 C 46.582 -36.3281 48.0957 -35.3516 49.5605 -35.3516 C 50.6348 -35.3516 51.709 -35.6934 52.9785 -36.1328 C 55.7129 -37.0605 59.1797 -38.5742 64.0137 -38.5742 C 69.8242 -38.5742 74.5605 -33.8867 74.5605 -28.0273 C 74.5605 -21.7285 70.3613 -17.5781 64.0137 -17.5781 C 59.375 -17.5781 54.7363 -19.3359 52.2461 -21.4844 C 49.7559 -23.584 46.2402 -22.6074 46.2891 -18.8965 C 46.3867 -15.3809 48.9746 -9.17969 51.4648 -6.00586 C 51.9043 -5.41992 51.5625 -4.98047 51.123 -4.98047 L 36.4258 -4.98047 C 35.9863 -4.98047 35.6934 -5.41992 36.1328 -6.00586 C 38.623 -9.17969 41.2109 -15.3809 41.3086 -18.8965 C 41.3574 -22.6074 37.793 -23.584 35.3027 -21.4844 C 32.8125 -19.3359 28.2227 -17.5781 23.584 -17.5781 C 17.2363 -17.5781 12.9883 -21.7285 12.9883 -28.0273 Z"/>
  </g>
  <g id="Light-S" transform="matrix(1 0 0 1 1110.21 696)">
   <path d="M 6.83594 -28.6621 C 6.83594 -18.8477 13.3789 -12.3535 23.1445 -12.3535 C 27.5879 -12.3535 31.8848 -13.916 34.5703 -16.3574 C 33.0078 -12.0605 30.127 -8.69141 28.1738 -6.54297 C 25.7812 -3.71094 26.9043 0.0488281 30.9082 0.0488281 L 54.9316 0.0488281 C 58.9355 0.0488281 60.0586 -3.71094 57.666 -6.54297 C 55.7129 -8.69141 52.832 -12.0605 51.2695 -16.3574 C 53.9551 -13.916 58.252 -12.3535 62.6465 -12.3535 C 72.4609 -12.3535 79.0039 -18.8477 79.0039 -28.6621 C 79.0039 -37.6953 71.6309 -45.0195 62.6953 -45.0195 C 59.9121 -45.0195 57.0801 -44.3359 54.4434 -42.9688 C 57.959 -46.582 59.2285 -50.9766 59.2285 -54.7852 C 59.2285 -63.8184 51.9043 -71.1426 42.9199 -71.1426 C 33.9355 -71.1426 26.5625 -63.8184 26.5625 -54.7852 C 26.5625 -50.9766 27.8809 -46.6309 31.3477 -42.9688 C 28.8086 -44.3359 25.9277 -45.0195 23.1445 -45.0195 C 14.1602 -45.0195 6.83594 -37.6953 6.83594 -28.6621 Z M 11.6699 -28.5645 C 11.6699 -34.9609 16.8457 -40.0879 23.1445 -40.0879 C 27.7344 -40.0879 30.8105 -38.5742 33.3496 -37.5 C 34.4238 -37.1094 35.2539 -36.8652 36.1328 -36.8652 C 37.4512 -36.8652 38.6719 -37.6953 38.6719 -39.3066 C 38.6719 -40.1855 38.2812 -41.1133 37.6465 -41.8457 C 34.2773 -45.752 31.3965 -48.9258 31.3965 -54.6875 C 31.3965 -61.084 36.5234 -66.1621 42.9199 -66.1621 C 49.2676 -66.1621 54.3945 -61.084 54.3945 -54.6875 C 54.3945 -48.9258 51.5625 -45.752 48.1445 -41.8457 C 47.5586 -41.1133 47.168 -40.1855 47.168 -39.3066 C 47.168 -37.6953 48.3887 -36.8652 49.6582 -36.8652 C 50.5859 -36.8652 51.3672 -37.1094 52.4414 -37.5 C 54.9805 -38.5254 58.0566 -40.0879 62.6953 -40.0879 C 68.9941 -40.0879 74.1699 -34.9609 74.1699 -28.5645 C 74.1699 -21.7285 69.5801 -17.1387 62.6465 -17.1387 C 58.0566 -17.1387 53.7598 -19.043 51.2207 -21.4844 C 49.0723 -23.4863 45.9473 -22.4609 46.1914 -19.1895 C 46.875 -14.8926 49.5117 -9.27734 52.4414 -5.95703 C 53.0762 -5.27344 52.7344 -4.63867 52.0508 -4.63867 L 33.7891 -4.63867 C 33.0566 -4.63867 32.7637 -5.27344 33.3984 -5.95703 C 36.2793 -9.27734 38.9648 -14.8926 39.6484 -19.1895 C 39.8926 -22.4609 36.7676 -23.4863 34.6191 -21.4844 C 32.0801 -19.043 27.7832 -17.1387 23.1445 -17.1387 C 16.2598 -17.1387 11.6699 -21.7285 11.6699 -28.5645 Z"/>
  </g>
  <g id="Thin-S" transform="matrix(1 0 0 1 814.674 696)">
   <path d="M 6.83594 -29.3457 C 6.83594 -19.873 13.1836 -13.5742 22.6562 -13.5742 C 27.6367 -13.5742 32.0312 -15.8203 34.5215 -18.75 C 32.8613 -14.0625 29.8828 -10.0098 26.9531 -7.03125 C 24.6094 -4.58984 25.6348 -1.17188 29.1504 -1.17188 L 54.3457 -1.17188 C 57.9102 -1.17188 58.9355 -4.58984 56.543 -7.03125 C 53.6133 -10.0098 50.6348 -14.0625 48.9746 -18.75 C 51.4648 -15.8203 55.8594 -13.5742 60.8398 -13.5742 C 70.3125 -13.5742 76.6602 -19.873 76.6602 -29.3457 C 76.6602 -38.1348 69.5801 -45.166 60.8887 -45.166 C 58.1055 -45.166 55.0781 -44.4336 52.4414 -42.7734 C 56.4941 -46.6797 57.5684 -51.123 57.5684 -54.541 C 57.5684 -63.3301 50.4883 -70.3613 41.748 -70.3613 C 33.0566 -70.3613 25.9277 -63.3301 25.9277 -54.541 C 25.9277 -51.123 27.002 -46.7285 31.0059 -42.7734 C 28.418 -44.4336 25.3906 -45.166 22.6074 -45.166 C 13.916 -45.166 6.83594 -38.1348 6.83594 -29.3457 Z M 9.91211 -29.2969 C 9.91211 -36.377 15.625 -42.041 22.6074 -42.041 C 26.9043 -42.041 29.541 -40.4297 31.7871 -39.3066 C 32.5195 -38.916 33.0078 -38.8184 33.6914 -38.8184 C 34.7168 -38.8184 35.5469 -39.502 35.5469 -40.625 C 35.5469 -41.3086 35.2539 -41.9434 34.8633 -42.4316 C 31.4941 -46.1914 29.0039 -49.3164 29.0039 -54.4922 C 29.0039 -61.5723 34.7168 -67.2363 41.748 -67.2363 C 48.7793 -67.2363 54.4922 -61.5723 54.4922 -54.4922 C 54.4922 -49.3164 52.002 -46.1914 48.6328 -42.4316 C 48.2422 -41.9434 47.9492 -41.3086 47.9492 -40.625 C 47.9492 -39.502 48.7793 -38.8184 49.8047 -38.8184 C 50.4883 -38.8184 50.9766 -38.916 51.709 -39.3066 C 53.9551 -40.4297 56.5918 -42.041 60.8887 -42.041 C 67.8711 -42.041 73.584 -36.377 73.584 -29.2969 C 73.584 -21.6797 68.5059 -16.6504 60.8398 -16.6504 C 56.25 -16.6504 52.4414 -18.6523 49.8535 -21.5332 C 48.0957 -23.3398 45.5078 -22.2168 46.0938 -19.5312 C 47.5098 -14.2578 50.2441 -9.42383 53.7598 -5.95703 C 54.541 -5.12695 54.2969 -4.19922 53.2227 -4.19922 L 30.2734 -4.19922 C 29.1992 -4.19922 28.9551 -5.12695 29.7363 -5.95703 C 33.252 -9.42383 35.9863 -14.2578 37.4512 -19.5312 C 37.9883 -22.2168 35.4004 -23.3887 33.6426 -21.5332 C 31.0547 -18.6523 27.2461 -16.6504 22.6562 -16.6504 C 14.9902 -16.6504 9.91211 -21.6797 9.91211 -29.2969 Z"/>
  </g>
  <g id="Ultralight-S" transform="matrix(1 0 0 1 518.549 696)">
   <path d="M 6.83594 -29.6875 C 6.83594 -20.4102 13.0859 -14.209 22.3633 -14.209 C 27.7344 -14.209 32.2754 -16.8945 34.5215 -20.166 C 32.8613 -15.2832 29.8828 -10.7422 26.3184 -7.32422 C 23.9746 -5.0293 24.9512 -1.80664 28.2715 -1.80664 L 54.0039 -1.80664 C 57.373 -1.80664 58.3496 -5.0293 56.0059 -7.32422 C 52.4414 -10.7422 49.4141 -15.2832 47.7539 -20.166 C 50 -16.8945 54.5898 -14.209 59.9121 -14.209 C 69.2383 -14.209 75.4883 -20.4102 75.4883 -29.6875 C 75.4883 -38.3301 68.5059 -45.2637 59.9609 -45.2637 C 57.0801 -45.2637 53.8574 -44.3848 51.1719 -42.4316 C 55.7617 -46.6309 56.6895 -51.1719 56.6895 -54.4434 C 56.6895 -63.0371 49.707 -69.9707 41.1621 -69.9707 C 32.5684 -69.9707 25.6348 -63.0371 25.6348 -54.4434 C 25.6348 -51.1719 26.5625 -46.6309 31.1523 -42.4316 C 28.4668 -44.3848 25.1953 -45.2637 22.3145 -45.2637 C 13.8184 -45.2637 6.83594 -38.3301 6.83594 -29.6875 Z M 8.98438 -29.6875 C 8.98438 -37.1582 14.9902 -43.0664 22.3145 -43.0664 C 26.4648 -43.0664 28.8574 -41.4062 30.957 -40.2344 C 31.5918 -39.8926 31.8359 -39.7949 32.4219 -39.7949 C 33.3496 -39.7949 33.9355 -40.4297 33.9355 -41.3574 C 33.9355 -41.8945 33.6914 -42.3828 33.3984 -42.7734 C 30.0781 -46.3867 27.7832 -49.5605 27.7832 -54.3945 C 27.7832 -61.8652 33.7402 -67.7734 41.1621 -67.7734 C 48.5352 -67.7734 54.541 -61.8652 54.541 -54.3945 C 54.541 -49.5605 52.2461 -46.3867 48.9258 -42.7734 C 48.584 -42.3828 48.3398 -41.8945 48.3398 -41.3574 C 48.3398 -40.4297 48.9746 -39.7949 49.9023 -39.7949 C 50.4395 -39.7949 50.7324 -39.8926 51.3672 -40.2344 C 53.418 -41.4062 55.8594 -43.0664 59.9609 -43.0664 C 67.334 -43.0664 73.291 -37.1582 73.291 -29.6875 C 73.291 -21.6797 67.9688 -16.3574 59.9121 -16.3574 C 55.3223 -16.3574 51.7578 -18.457 49.1211 -21.5332 C 47.6074 -23.2422 45.3125 -22.1191 45.9961 -19.7266 C 47.8027 -13.9648 50.6348 -9.52148 54.4434 -5.9082 C 55.3223 -5.0293 55.0781 -3.95508 53.8574 -3.95508 L 28.4668 -3.95508 C 27.1973 -3.95508 26.9531 -5.0293 27.8809 -5.9082 C 31.6406 -9.52148 34.4727 -13.9648 36.2793 -19.7266 C 37.0117 -22.1191 34.668 -23.291 33.1543 -21.5332 C 30.5176 -18.457 26.9531 -16.3574 22.3633 -16.3574 C 14.3555 -16.3574 8.98438 -21.6797 8.98438 -29.6875 Z M 49.8535 -41.3086 L 49.6582 -41.1621 L 49.8535 -41.3086 Z"/>
  </g>
 </g>
</svg>
