<?xml version="1.0" encoding="UTF-8"?>
<!--Generator: Apple Native CoreSVG 123-->
<!DOCTYPE svg
PUBLIC "-//W3C//DTD SVG 1.1//EN"
       "http://www.w3.org/Graphics/SVG/1.1/DTD/svg11.dtd">
<svg version="1.1" xmlns="http://www.w3.org/2000/svg" xmlns:xlink="http://www.w3.org/1999/xlink" width="3300" height="2200">
 <!--glyph: "uni100393.medium", point size: 100.000000, font version: "Version 15.0d7e11", template writer version: "5"-->
 <g id="Notes">
  <rect height="2200" id="artboard" style="fill:white;opacity:1" width="3300" x="0" y="0"/>
  <line id="" style="fill:none;stroke:black;opacity:1;stroke-width:0.5;" x1="263" x2="3036" y1="292" y2="292"/>
  <text style="stroke:none;fill:black;font-family:-apple-system,&quot;SF Pro Display&quot;,&quot;SF Pro Text&quot;,Helvetica,sans-serif;font-weight:bold;" transform="matrix(1 0 0 1 263 322)">Weight/Scale Variations</text>
  <text style="stroke:none;fill:black;font-family:-apple-system,&quot;SF Pro Display&quot;,&quot;SF Pro Text&quot;,Helvetica,sans-serif;text-anchor:middle;" transform="matrix(1 0 0 1 559.711 322)">Ultralight</text>
  <text style="stroke:none;fill:black;font-family:-apple-system,&quot;SF Pro Display&quot;,&quot;SF Pro Text&quot;,Helvetica,sans-serif;text-anchor:middle;" transform="matrix(1 0 0 1 856.422 322)">Thin</text>
  <text style="stroke:none;fill:black;font-family:-apple-system,&quot;SF Pro Display&quot;,&quot;SF Pro Text&quot;,Helvetica,sans-serif;text-anchor:middle;" transform="matrix(1 0 0 1 1153.13 322)">Light</text>
  <text style="stroke:none;fill:black;font-family:-apple-system,&quot;SF Pro Display&quot;,&quot;SF Pro Text&quot;,Helvetica,sans-serif;text-anchor:middle;" transform="matrix(1 0 0 1 1449.84 322)">Regular</text>
  <text style="stroke:none;fill:black;font-family:-apple-system,&quot;SF Pro Display&quot;,&quot;SF Pro Text&quot;,Helvetica,sans-serif;text-anchor:middle;" transform="matrix(1 0 0 1 1746.56 322)">Medium</text>
  <text style="stroke:none;fill:black;font-family:-apple-system,&quot;SF Pro Display&quot;,&quot;SF Pro Text&quot;,Helvetica,sans-serif;text-anchor:middle;" transform="matrix(1 0 0 1 2043.27 322)">Semibold</text>
  <text style="stroke:none;fill:black;font-family:-apple-system,&quot;SF Pro Display&quot;,&quot;SF Pro Text&quot;,Helvetica,sans-serif;text-anchor:middle;" transform="matrix(1 0 0 1 2339.98 322)">Bold</text>
  <text style="stroke:none;fill:black;font-family:-apple-system,&quot;SF Pro Display&quot;,&quot;SF Pro Text&quot;,Helvetica,sans-serif;text-anchor:middle;" transform="matrix(1 0 0 1 2636.69 322)">Heavy</text>
  <text style="stroke:none;fill:black;font-family:-apple-system,&quot;SF Pro Display&quot;,&quot;SF Pro Text&quot;,Helvetica,sans-serif;text-anchor:middle;" transform="matrix(1 0 0 1 2933.4 322)">Black</text>
  <line id="" style="fill:none;stroke:black;opacity:1;stroke-width:0.5;" x1="263" x2="3036" y1="1903" y2="1903"/>
  <g id="" transform="matrix(1 0 0 1 263 1933)">
   <path d="M 9.24805 0.830078 C 13.5547 0.830078 17.1387 -2.74414 17.1387 -7.05078 C 17.1387 -11.3574 13.5449 -14.9316 9.23828 -14.9316 C 4.94141 -14.9316 1.36719 -11.3574 1.36719 -7.05078 C 1.36719 -2.74414 4.95117 0.830078 9.24805 0.830078 Z M 9.24805 -0.654297 C 5.70312 -0.654297 2.87109 -3.49609 2.87109 -7.05078 C 2.87109 -10.6055 5.69336 -13.4473 9.23828 -13.4473 C 12.793 -13.4473 15.6348 -10.6055 15.6445 -7.05078 C 15.6543 -3.49609 12.8027 -0.654297 9.24805 -0.654297 Z M 9.22852 -3.42773 C 9.69727 -3.42773 9.9707 -3.74023 9.9707 -4.25781 L 9.9707 -6.31836 L 12.1973 -6.31836 C 12.6953 -6.31836 13.0371 -6.57227 13.0371 -7.04102 C 13.0371 -7.51953 12.7148 -7.7832 12.1973 -7.7832 L 9.9707 -7.7832 L 9.9707 -10.0098 C 9.9707 -10.5273 9.69727 -10.8496 9.22852 -10.8496 C 8.75977 -10.8496 8.50586 -10.5078 8.50586 -10.0098 L 8.50586 -7.7832 L 6.29883 -7.7832 C 5.78125 -7.7832 5.44922 -7.51953 5.44922 -7.04102 C 5.44922 -6.57227 5.80078 -6.31836 6.29883 -6.31836 L 8.50586 -6.31836 L 8.50586 -4.25781 C 8.50586 -3.75977 8.75977 -3.42773 9.22852 -3.42773 Z"/>
  </g>
  <g id="" transform="matrix(1 0 0 1 281.506 1933)">
   <path d="M 11.709 2.91016 C 17.1582 2.91016 21.6699 -1.60156 21.6699 -7.05078 C 21.6699 -12.4902 17.1484 -17.0117 11.6992 -17.0117 C 6.25977 -17.0117 1.74805 -12.4902 1.74805 -7.05078 C 1.74805 -1.60156 6.26953 2.91016 11.709 2.91016 Z M 11.709 1.25 C 7.09961 1.25 3.41797 -2.44141 3.41797 -7.05078 C 3.41797 -11.6504 7.08984 -15.3516 11.6992 -15.3516 C 16.3086 -15.3516 20 -11.6504 20.0098 -7.05078 C 20.0195 -2.44141 16.3184 1.25 11.709 1.25 Z M 11.6895 -2.41211 C 12.207 -2.41211 12.5195 -2.77344 12.5195 -3.33984 L 12.5195 -6.23047 L 15.5762 -6.23047 C 16.123 -6.23047 16.5039 -6.51367 16.5039 -7.03125 C 16.5039 -7.55859 16.1426 -7.86133 15.5762 -7.86133 L 12.5195 -7.86133 L 12.5195 -10.9277 C 12.5195 -11.5039 12.207 -11.8555 11.6895 -11.8555 C 11.1719 -11.8555 10.8789 -11.4844 10.8789 -10.9277 L 10.8789 -7.86133 L 7.83203 -7.86133 C 7.26562 -7.86133 6.89453 -7.55859 6.89453 -7.03125 C 6.89453 -6.51367 7.28516 -6.23047 7.83203 -6.23047 L 10.8789 -6.23047 L 10.8789 -3.33984 C 10.8789 -2.79297 11.1719 -2.41211 11.6895 -2.41211 Z"/>
  </g>
  <g id="" transform="matrix(1 0 0 1 304.924 1933)">
   <path d="M 14.9707 5.67383 C 21.9336 5.67383 27.6953 -0.078125 27.6953 -7.04102 C 27.6953 -14.0039 21.9238 -19.7559 14.9609 -19.7559 C 8.00781 -19.7559 2.25586 -14.0039 2.25586 -7.04102 C 2.25586 -0.078125 8.01758 5.67383 14.9707 5.67383 Z M 14.9707 3.85742 C 8.93555 3.85742 4.08203 -1.00586 4.08203 -7.04102 C 4.08203 -13.0762 8.92578 -17.9395 14.9609 -17.9395 C 21.0059 -17.9395 25.8594 -13.0762 25.8691 -7.04102 C 25.8789 -1.00586 21.0156 3.85742 14.9707 3.85742 Z M 14.9512 -1.06445 C 15.5176 -1.06445 15.8691 -1.45508 15.8691 -2.06055 L 15.8691 -6.13281 L 20.1074 -6.13281 C 20.6934 -6.13281 21.1133 -6.46484 21.1133 -7.02148 C 21.1133 -7.59766 20.7227 -7.93945 20.1074 -7.93945 L 15.8691 -7.93945 L 15.8691 -12.1875 C 15.8691 -12.8027 15.5176 -13.1934 14.9512 -13.1934 C 14.3848 -13.1934 14.0625 -12.7832 14.0625 -12.1875 L 14.0625 -7.93945 L 9.83398 -7.93945 C 9.21875 -7.93945 8.80859 -7.59766 8.80859 -7.02148 C 8.80859 -6.46484 9.23828 -6.13281 9.83398 -6.13281 L 14.0625 -6.13281 L 14.0625 -2.06055 C 14.0625 -1.47461 14.3848 -1.06445 14.9512 -1.06445 Z"/>
  </g>
  <text style="stroke:none;fill:black;font-family:-apple-system,&quot;SF Pro Display&quot;,&quot;SF Pro Text&quot;,Helvetica,sans-serif;font-weight:bold;" transform="matrix(1 0 0 1 263 1953)">Design Variations</text>
  <text style="stroke:none;fill:black;font-family:-apple-system,&quot;SF Pro Display&quot;,&quot;SF Pro Text&quot;,Helvetica,sans-serif;" transform="matrix(1 0 0 1 263 1971)">Symbols are supported in up to nine weights and three scales.</text>
  <text style="stroke:none;fill:black;font-family:-apple-system,&quot;SF Pro Display&quot;,&quot;SF Pro Text&quot;,Helvetica,sans-serif;" transform="matrix(1 0 0 1 263 1989)">For optimal layout with text and other symbols, vertically align</text>
  <text style="stroke:none;fill:black;font-family:-apple-system,&quot;SF Pro Display&quot;,&quot;SF Pro Text&quot;,Helvetica,sans-serif;" transform="matrix(1 0 0 1 263 2007)">symbols with the adjacent text.</text>
  <rect height="14" id="" style="fill:#00AEEF;stroke:none;opacity:0.4;" width="3" x="776" y="1919"/>
  <g id="" transform="matrix(1 0 0 1 779 1933)">
   <path d="M 10.5273 0 L 12.373 0 L 7.17773 -14.0918 L 5.43945 -14.0918 L 0.244141 0 L 2.08984 0 L 3.50586 -4.0332 L 9.11133 -4.0332 Z M 6.2793 -11.9531 L 6.33789 -11.9531 L 8.59375 -5.52734 L 4.02344 -5.52734 Z"/>
  </g>
  <rect height="14" id="" style="fill:#00AEEF;stroke:none;opacity:0.4;" width="3" x="791.617" y="1919"/>
  <text style="stroke:none;fill:black;font-family:-apple-system,&quot;SF Pro Display&quot;,&quot;SF Pro Text&quot;,Helvetica,sans-serif;font-weight:bold;" transform="matrix(1 0 0 1 776 1953)">Margins</text>
  <text style="stroke:none;fill:black;font-family:-apple-system,&quot;SF Pro Display&quot;,&quot;SF Pro Text&quot;,Helvetica,sans-serif;" transform="matrix(1 0 0 1 776 1971)">Leading and trailing margins on the left and right side of each symbol</text>
  <text style="stroke:none;fill:black;font-family:-apple-system,&quot;SF Pro Display&quot;,&quot;SF Pro Text&quot;,Helvetica,sans-serif;" transform="matrix(1 0 0 1 776 1989)">can be adjusted by modifying the width of the blue rectangles.</text>
  <text style="stroke:none;fill:black;font-family:-apple-system,&quot;SF Pro Display&quot;,&quot;SF Pro Text&quot;,Helvetica,sans-serif;" transform="matrix(1 0 0 1 776 2007)">Modifications are automatically applied proportionally to all</text>
  <text style="stroke:none;fill:black;font-family:-apple-system,&quot;SF Pro Display&quot;,&quot;SF Pro Text&quot;,Helvetica,sans-serif;" transform="matrix(1 0 0 1 776 2025)">scales and weights.</text>
  <g id="" transform="matrix(1 0 0 1 1289 1933)">
   <path d="M 2.83203 3.11523 L 4.375 4.6582 C 5.22461 5.48828 6.19141 5.41992 7.06055 4.46289 L 17.2754 -6.66016 C 17.7051 -6.36719 18.0957 -6.37695 18.5645 -6.47461 L 19.6094 -6.68945 L 20.3027 -5.99609 L 20.2539 -5.47852 C 20.1855 -4.95117 20.3516 -4.53125 20.8496 -4.0332 L 21.6602 -3.22266 C 22.168 -2.71484 22.8223 -2.68555 23.3008 -3.16406 L 26.5527 -6.41602 C 27.0312 -6.89453 27.0117 -7.54883 26.5039 -8.05664 L 25.6836 -8.87695 C 25.1855 -9.375 24.7754 -9.55078 24.2383 -9.47266 L 23.7109 -9.41406 L 23.0566 -10.0781 L 23.3398 -11.2207 C 23.4863 -11.7871 23.3398 -12.2559 22.7148 -12.8613 L 20.3027 -15.2539 C 16.7578 -18.7793 12.2266 -18.6719 9.11133 -15.5371 C 8.69141 -15.1074 8.64258 -14.5215 8.91602 -14.0918 C 9.15039 -13.7207 9.62891 -13.4961 10.2734 -13.6621 C 11.7871 -14.043 13.3008 -13.9258 14.7852 -12.9199 L 14.1602 -11.3379 C 13.9258 -10.752 13.9453 -10.2734 14.1797 -9.83398 L 3.01758 0.439453 C 2.08008 1.30859 1.97266 2.25586 2.83203 3.11523 Z M 10.6738 -15.1465 C 13.3398 -17.1387 16.6504 -16.8262 19.0527 -14.4141 L 21.6797 -11.8066 C 21.9141 -11.5723 21.9434 -11.3867 21.8848 -11.0938 L 21.5039 -9.53125 L 23.0762 -7.95898 L 24.043 -8.04688 C 24.3262 -8.07617 24.4141 -8.05664 24.6387 -7.83203 L 25.2637 -7.20703 L 22.5098 -4.46289 L 21.8848 -5.07812 C 21.6602 -5.30273 21.6406 -5.40039 21.6699 -5.68359 L 21.7578 -6.64062 L 20.1953 -8.20312 L 18.5742 -7.89062 C 18.291 -7.83203 18.1445 -7.83203 17.9102 -8.07617 L 15.7324 -10.2539 C 15.5078 -10.4883 15.4785 -10.625 15.6055 -10.9473 L 16.5527 -13.2227 C 14.9512 -14.7559 12.8418 -15.6055 10.8008 -14.9512 C 10.7129 -14.9219 10.6445 -14.9414 10.6152 -14.9805 C 10.5859 -15.0293 10.5859 -15.0781 10.6738 -15.1465 Z M 4.10156 2.41211 C 3.61328 1.91406 3.78906 1.61133 4.12109 1.30859 L 15.0781 -8.80859 L 16.3086 -7.57812 L 6.15234 3.34961 C 5.84961 3.68164 5.46875 3.7793 5.06836 3.37891 Z"/>
  </g>
  <text style="stroke:none;fill:black;font-family:-apple-system,&quot;SF Pro Display&quot;,&quot;SF Pro Text&quot;,Helvetica,sans-serif;font-weight:bold;" transform="matrix(1 0 0 1 1289 1953)">Exporting</text>
  <text style="stroke:none;fill:black;font-family:-apple-system,&quot;SF Pro Display&quot;,&quot;SF Pro Text&quot;,Helvetica,sans-serif;" transform="matrix(1 0 0 1 1289 1971)">Symbols should be outlined when exporting to ensure the</text>
  <text style="stroke:none;fill:black;font-family:-apple-system,&quot;SF Pro Display&quot;,&quot;SF Pro Text&quot;,Helvetica,sans-serif;" transform="matrix(1 0 0 1 1289 1989)">design is preserved when submitting to Xcode.</text>
  <text id="template-version" style="stroke:none;fill:black;font-family:-apple-system,&quot;SF Pro Display&quot;,&quot;SF Pro Text&quot;,Helvetica,sans-serif;text-anchor:end;" transform="matrix(1 0 0 1 3036 1933)">Template v.1.0</text>
  <text style="stroke:none;fill:black;font-family:-apple-system,&quot;SF Pro Display&quot;,&quot;SF Pro Text&quot;,Helvetica,sans-serif;text-anchor:end;" transform="matrix(1 0 0 1 3036 1951)">Generated from bandage</text>
  <text style="stroke:none;fill:black;font-family:-apple-system,&quot;SF Pro Display&quot;,&quot;SF Pro Text&quot;,Helvetica,sans-serif;text-anchor:end;" transform="matrix(1 0 0 1 3036 1969)">Typeset at 100 points</text>
  <text style="stroke:none;fill:black;font-family:-apple-system,&quot;SF Pro Display&quot;,&quot;SF Pro Text&quot;,Helvetica,sans-serif;" transform="matrix(1 0 0 1 263 726)">Small</text>
  <text style="stroke:none;fill:black;font-family:-apple-system,&quot;SF Pro Display&quot;,&quot;SF Pro Text&quot;,Helvetica,sans-serif;" transform="matrix(1 0 0 1 263 1156)">Medium</text>
  <text style="stroke:none;fill:black;font-family:-apple-system,&quot;SF Pro Display&quot;,&quot;SF Pro Text&quot;,Helvetica,sans-serif;" transform="matrix(1 0 0 1 263 1586)">Large</text>
 </g>
 <g id="Guides">
  <g id="H-reference" style="fill:#27AAE1;stroke:none;" transform="matrix(1 0 0 1 339 696)">
   <path d="M 54.9316 0 L 57.666 0 L 30.5664 -70.459 L 28.0762 -70.459 L 0.976562 0 L 3.66211 0 L 12.9395 -24.4629 L 45.7031 -24.4629 Z M 29.1992 -67.0898 L 29.4434 -67.0898 L 44.8242 -26.709 L 13.8184 -26.709 Z"/>
  </g>
  <line id="Baseline-S" style="fill:none;stroke:#27AAE1;opacity:1;stroke-width:0.577;" x1="263" x2="3036" y1="696" y2="696"/>
  <line id="Capline-S" style="fill:none;stroke:#27AAE1;opacity:1;stroke-width:0.577;" x1="263" x2="3036" y1="625.541" y2="625.541"/>
  <g id="H-reference" style="fill:#27AAE1;stroke:none;" transform="matrix(1 0 0 1 339 1126)">
   <path d="M 54.9316 0 L 57.666 0 L 30.5664 -70.459 L 28.0762 -70.459 L 0.976562 0 L 3.66211 0 L 12.9395 -24.4629 L 45.7031 -24.4629 Z M 29.1992 -67.0898 L 29.4434 -67.0898 L 44.8242 -26.709 L 13.8184 -26.709 Z"/>
  </g>
  <line id="Baseline-M" style="fill:none;stroke:#27AAE1;opacity:1;stroke-width:0.577;" x1="263" x2="3036" y1="1126" y2="1126"/>
  <line id="Capline-M" style="fill:none;stroke:#27AAE1;opacity:1;stroke-width:0.577;" x1="263" x2="3036" y1="1055.54" y2="1055.54"/>
  <g id="H-reference" style="fill:#27AAE1;stroke:none;" transform="matrix(1 0 0 1 339 1556)">
   <path d="M 54.9316 0 L 57.666 0 L 30.5664 -70.459 L 28.0762 -70.459 L 0.976562 0 L 3.66211 0 L 12.9395 -24.4629 L 45.7031 -24.4629 Z M 29.1992 -67.0898 L 29.4434 -67.0898 L 44.8242 -26.709 L 13.8184 -26.709 Z"/>
  </g>
  <line id="Baseline-L" style="fill:none;stroke:#27AAE1;opacity:1;stroke-width:0.577;" x1="263" x2="3036" y1="1556" y2="1556"/>
  <line id="Capline-L" style="fill:none;stroke:#27AAE1;opacity:1;stroke-width:0.577;" x1="263" x2="3036" y1="1485.54" y2="1485.54"/>
  <rect height="119.336" id="left-margin" style="fill:#00AEEF;stroke:none;opacity:0.4;" width="11.2367" x="1387.93" y="1030.79"/>
  <rect height="119.336" id="right-margin" style="fill:#00AEEF;stroke:none;opacity:0.4;" width="11.2189" x="1500.54" y="1030.79"/>
 </g>
 <g id="Symbols">
  <g id="Black-L" transform="matrix(1 0 0 1 2849.29 1556)">
   <path d="M 25.4395 23.6816 C 40.7715 39.0137 63.8672 38.1348 79.7363 22.2656 L 98.4863 3.4668 L 122.559 -20.6543 L 141.357 -39.3066 C 157.227 -55.1758 158.057 -78.3203 142.773 -93.6523 C 127.49 -109.033 104.346 -108.154 88.4766 -92.2852 L 69.7266 -73.4863 L 45.6543 -49.3164 L 26.8555 -30.7129 C 10.9863 -14.8438 10.1562 8.30078 25.4395 23.6816 Z M 122.51 -50.3418 L 99.4629 -73.4375 C 98.9258 -73.9746 98.3398 -74.4629 97.8027 -74.9512 L 101.611 -78.7598 C 110.107 -87.3047 121.582 -89.4531 130.029 -80.957 C 138.477 -72.4609 136.523 -61.1328 127.881 -52.4902 L 124.072 -48.6816 C 123.584 -49.2676 123.096 -49.8047 122.51 -50.3418 Z M 87.3047 -61.084 L 110.254 -38.1836 C 111.523 -36.9141 111.426 -36.0352 110.107 -34.7168 L 84.375 -8.98438 C 83.1543 -7.76367 82.1289 -7.66602 80.957 -8.88672 L 58.0566 -31.9336 C 56.8359 -33.1543 56.8848 -34.082 58.1543 -35.3516 L 83.8867 -60.9375 C 85.1562 -62.207 86.084 -62.3047 87.3047 -61.084 Z M 84.082 -42.2852 C 87.0117 -42.2852 89.1113 -44.6289 89.1113 -47.2656 C 89.1113 -49.9512 86.9629 -52.1973 84.1797 -52.1973 C 81.4453 -52.1973 79.248 -50 79.248 -47.168 C 79.248 -44.6777 81.4453 -42.2852 84.082 -42.2852 Z M 96.2891 -30.1758 C 99.0723 -30.1758 101.172 -32.4707 101.172 -35.2051 C 101.172 -37.793 99.1699 -40.1367 96.1914 -40.1367 C 93.6035 -40.1367 91.3574 -37.6953 91.3574 -35.2051 C 91.3574 -32.4219 93.5547 -30.1758 96.2891 -30.1758 Z M 68.7012 -33.3496 C 69.5312 -31.543 71.582 -30.6641 73.584 -31.4941 C 75.4395 -32.373 76.1719 -34.7656 75.3906 -36.5234 C 74.5605 -38.4277 72.3633 -39.2578 70.4102 -38.3789 C 68.5059 -37.5488 67.7734 -35.2051 68.7012 -33.3496 Z M 80.7129 -21.3379 C 81.5918 -19.4336 83.6426 -18.6035 85.6445 -19.4824 C 87.5 -20.2637 88.2812 -22.5098 87.4512 -24.4141 C 86.5723 -26.1719 84.4238 -27.1484 82.5684 -26.3184 C 80.5664 -25.4883 79.834 -23.1445 80.7129 -21.3379 Z M 38.1836 10.9375 C 29.7363 2.49023 31.6895 -8.88672 40.4297 -17.5781 L 44.1406 -21.2891 C 44.6289 -20.752 45.1172 -20.2148 45.7031 -19.6777 L 68.75 3.41797 C 69.3359 3.95508 69.873 4.49219 70.459 4.98047 L 66.6992 8.74023 C 58.1543 17.334 46.6797 19.4336 38.1836 10.9375 Z"/>
  </g>
  <g id="Heavy-L" transform="matrix(1 0 0 1 2553.75 1556)">
   <path d="M 25.0977 22.7539 C 39.8926 37.5488 62.0117 36.7676 77.4902 21.2891 L 96.2402 2.44141 L 120.508 -21.8262 L 139.307 -40.4785 C 154.785 -55.957 155.518 -78.125 140.771 -92.9688 C 125.977 -107.764 103.857 -106.982 88.3789 -91.5039 L 69.5801 -72.6562 L 45.3613 -48.3887 L 26.5625 -29.7363 C 11.084 -14.2578 10.3027 7.91016 25.0977 22.7539 Z M 120.459 -49.4141 L 97.2168 -72.6562 C 96.4844 -73.4375 95.7031 -74.1699 94.9219 -74.8047 L 99.8047 -79.7363 C 108.838 -88.7207 120.85 -90.7227 129.688 -81.8848 C 138.525 -73.0469 136.621 -61.084 127.539 -52.002 L 122.607 -47.0703 C 121.973 -47.8516 121.24 -48.6328 120.459 -49.4141 Z M 86.7188 -61.7188 L 109.619 -38.916 C 111.475 -37.0605 111.279 -35.7422 109.375 -33.8379 L 84.2285 -8.69141 C 82.373 -6.78711 80.957 -6.64062 79.1016 -8.44727 L 56.2988 -31.3965 C 54.4922 -33.2031 54.6387 -34.5703 56.543 -36.4746 L 81.6895 -61.4746 C 83.5449 -63.3789 84.9121 -63.5254 86.7188 -61.7188 Z M 82.9102 -42.4316 C 85.8398 -42.4316 87.9395 -44.7754 87.9395 -47.4121 C 87.9883 -50.0977 85.791 -52.3926 82.959 -52.3926 C 80.2246 -52.3926 78.0273 -50.1465 78.0273 -47.3633 C 78.0273 -44.8242 80.2734 -42.4316 82.9102 -42.4316 Z M 95.166 -30.2734 C 97.9492 -30.2734 100.098 -32.5195 100.049 -35.3027 C 100.049 -37.8906 98.0469 -40.2344 95.0684 -40.2344 C 92.4316 -40.2344 90.1855 -37.8418 90.1855 -35.3027 C 90.1855 -32.5195 92.4316 -30.2734 95.166 -30.2734 Z M 68.2617 -32.666 C 69.5312 -31.25 71.6309 -31.2012 73.1445 -32.4219 C 74.6094 -33.7402 74.6094 -36.1328 73.3398 -37.4512 C 72.0215 -38.9648 69.8242 -39.0137 68.3594 -37.6953 C 66.8945 -36.4258 66.8457 -34.082 68.2617 -32.666 Z M 80.3711 -20.5566 C 81.6406 -19.0918 83.7891 -18.9941 85.3027 -20.3613 C 86.7188 -21.5332 86.7676 -23.8281 85.498 -25.293 C 84.1309 -26.6602 81.9824 -26.8555 80.5176 -25.5859 C 79.0039 -24.2676 79.0039 -21.9238 80.3711 -20.5566 Z M 36.1328 11.6699 C 27.2949 2.83203 29.248 -9.13086 38.3789 -18.2617 L 43.2129 -23.1445 C 43.8965 -22.3633 44.5801 -21.582 45.3613 -20.8008 L 68.6035 2.44141 C 69.3848 3.22266 70.166 3.95508 70.9473 4.58984 L 66.1133 9.47266 C 57.0801 18.5547 45.0195 20.5078 36.1328 11.6699 Z"/>
  </g>
  <g id="Bold-L" transform="matrix(1 0 0 1 2258.36 1556)">
   <path d="M 24.6582 21.7285 C 38.916 35.9375 59.9121 35.2051 75 20.166 L 93.75 1.31836 L 118.164 -23.0957 L 136.963 -41.8457 C 152.051 -56.8848 152.686 -77.9297 138.525 -92.1875 C 124.316 -106.396 103.271 -105.664 88.2324 -90.625 L 69.4824 -71.7773 L 45.0684 -47.3633 L 26.2207 -28.6621 C 11.1816 -13.5742 10.498 7.4707 24.6582 21.7285 Z M 118.164 -48.3887 L 94.7754 -71.8262 C 93.7012 -72.8516 92.6758 -73.7793 91.6504 -74.5605 L 97.8516 -80.8105 C 107.324 -90.2832 120.02 -92.1875 129.297 -82.959 C 138.574 -73.7305 136.719 -61.0352 127.148 -51.4648 L 120.947 -45.2637 C 120.166 -46.2891 119.238 -47.3633 118.164 -48.3887 Z M 86.1328 -62.4512 L 108.887 -39.7461 C 111.377 -37.207 111.133 -35.4004 108.496 -32.8125 L 84.0332 -8.34961 C 81.4453 -5.71289 79.5898 -5.46875 77.0996 -8.00781 L 54.3945 -30.7617 C 51.9043 -33.3008 52.0996 -35.1074 54.7363 -37.6953 L 79.1992 -62.1094 C 81.7871 -64.6973 83.6426 -64.9414 86.1328 -62.4512 Z M 81.5918 -42.5781 C 84.5215 -42.5781 86.6211 -44.9219 86.6211 -47.6074 C 86.6699 -50.3418 84.4238 -52.6367 81.6406 -52.6367 C 78.8574 -52.6367 76.6602 -50.3418 76.6602 -47.5098 C 76.6602 -44.9707 78.9062 -42.5781 81.5918 -42.5781 Z M 93.8965 -30.3223 C 96.6797 -30.3223 98.877 -32.6172 98.877 -35.4004 C 98.877 -38.0371 96.7773 -40.3809 93.7988 -40.3809 C 91.1621 -40.3809 88.916 -37.9395 88.916 -35.4492 C 88.916 -32.5684 91.1133 -30.3223 93.8965 -30.3223 Z M 67.7734 -31.8848 C 69.5312 -30.957 71.7285 -31.7383 72.7051 -33.4473 C 73.6328 -35.3027 72.8516 -37.6953 71.0938 -38.5742 C 69.1895 -39.502 66.9922 -38.7695 66.0156 -36.9141 C 65.0879 -35.1562 65.8203 -32.8125 67.7734 -31.8848 Z M 79.9316 -19.6289 C 81.7383 -18.7012 83.9355 -19.4336 84.9121 -21.3379 C 85.8398 -22.998 85.1074 -25.3418 83.3496 -26.3184 C 81.3965 -27.1484 79.1992 -26.5137 78.2715 -24.707 C 77.2949 -22.9004 78.0273 -20.5566 79.9316 -19.6289 Z M 33.8867 12.4512 C 24.6094 3.27148 26.4648 -9.42383 36.084 -19.043 L 42.2852 -25.2441 C 43.0664 -24.1699 43.9941 -23.1445 45.0195 -22.0703 L 68.457 1.31836 C 69.5312 2.39258 70.5566 3.32031 71.582 4.10156 L 65.4297 10.3027 C 55.9082 19.873 43.2129 21.6797 33.8867 12.4512 Z"/>
  </g>
  <g id="Semibold-L" transform="matrix(1 0 0 1 1962.58 1556)">
   <path d="M 24.4141 20.9961 C 38.2324 34.8145 58.4961 34.1309 73.2422 19.3848 L 92.041 0.537109 L 116.553 -24.0234 L 135.4 -42.7246 C 150.146 -57.5195 150.732 -77.7832 136.963 -91.6016 C 123.145 -105.42 102.93 -104.785 88.1348 -90.0391 L 69.3848 -71.1914 L 44.8242 -46.6309 L 26.0254 -27.8809 C 11.2305 -13.1348 10.6445 7.12891 24.4141 20.9961 Z M 116.602 -47.7051 L 93.0664 -71.2402 C 91.7969 -72.4609 90.5762 -73.5352 89.3555 -74.3652 L 96.4844 -81.543 C 106.348 -91.4062 119.482 -93.1641 129.053 -83.6914 C 138.623 -74.1699 136.816 -60.9863 126.904 -51.0742 L 119.775 -43.9453 C 118.896 -45.166 117.871 -46.4355 116.602 -47.7051 Z M 85.6934 -62.9395 L 108.398 -40.2832 C 111.328 -37.3535 111.035 -35.1562 107.91 -32.0801 L 83.9355 -8.10547 C 80.8594 -5.0293 78.6621 -4.6875 75.6836 -7.66602 L 53.0762 -30.3711 C 50.0977 -33.3496 50.3906 -35.498 53.5156 -38.5742 L 77.4902 -62.5 C 80.5664 -65.625 82.7637 -65.918 85.6934 -62.9395 Z M 80.6641 -42.6758 C 83.5938 -42.6758 85.7422 -45.0195 85.7422 -47.7051 C 85.791 -50.4883 83.5449 -52.7832 80.7129 -52.7832 C 77.9297 -52.7832 75.7324 -50.4883 75.7324 -47.6562 C 75.7324 -45.0684 78.0273 -42.6758 80.6641 -42.6758 Z M 93.0176 -30.3711 C 95.8008 -30.3711 98.0469 -32.666 97.998 -35.4492 C 97.998 -38.1348 95.8984 -40.4297 92.9688 -40.4297 C 90.2832 -40.4297 87.9883 -38.0371 87.9883 -35.498 C 87.9883 -32.666 90.2344 -30.3711 93.0176 -30.3711 Z M 67.4316 -31.3477 C 69.5312 -30.7617 71.7285 -32.1289 72.3633 -34.1309 C 72.9492 -36.377 71.6309 -38.7207 69.4824 -39.3066 C 67.2852 -39.8926 65.0391 -38.5742 64.4531 -36.377 C 63.8184 -34.2773 65.0879 -31.9336 67.4316 -31.3477 Z M 79.6387 -19.043 C 81.7871 -18.457 84.0332 -19.7754 84.668 -21.9727 C 85.2539 -24.0234 83.9355 -26.3672 81.8359 -26.9531 C 79.4922 -27.5391 77.3438 -26.2695 76.709 -24.1211 C 76.123 -21.9238 77.3926 -19.6289 79.6387 -19.043 Z M 32.3242 13.0371 C 22.7539 3.56445 24.6094 -9.66797 34.5215 -19.5801 L 41.6016 -26.709 C 42.4805 -25.4395 43.5547 -24.2188 44.7754 -22.9492 L 68.3594 0.585938 C 69.5801 1.85547 70.8496 2.88086 72.0703 3.75977 L 64.9414 10.8887 C 55.0781 20.752 41.9434 22.5098 32.3242 13.0371 Z"/>
  </g>
  <g id="Medium-L" transform="matrix(1 0 0 1 1666.55 1556)">
   <path d="M 24.1699 20.459 C 37.6953 33.9355 57.4219 33.3496 71.9727 18.7988 L 90.7227 -0.0488281 L 115.332 -24.6582 L 134.18 -43.457 C 148.73 -58.0078 149.268 -77.6367 135.791 -91.2109 C 122.314 -104.688 102.637 -104.102 88.0859 -89.5996 L 69.2871 -70.7031 L 44.6777 -46.0938 L 25.8301 -27.3438 C 11.2793 -12.793 10.7422 6.93359 24.1699 20.459 Z M 115.43 -47.1191 L 91.748 -70.8008 C 90.3809 -72.168 88.9648 -73.3398 87.5977 -74.2188 L 95.4102 -82.0801 C 105.566 -92.2363 119.043 -93.9453 128.857 -84.2285 C 138.672 -74.5117 136.865 -60.9375 126.709 -50.7812 L 118.848 -42.9199 C 117.969 -44.3359 116.797 -45.752 115.43 -47.1191 Z M 85.3516 -63.3301 L 108.008 -40.7227 C 111.328 -37.4023 110.986 -35.0098 107.471 -31.543 L 83.8379 -7.95898 C 80.3711 -4.44336 77.9785 -4.10156 74.6582 -7.42188 L 52.0508 -30.0293 C 48.7305 -33.3496 49.0723 -35.791 52.5391 -39.209 L 76.2207 -62.8418 C 79.6387 -66.3086 82.0801 -66.6504 85.3516 -63.3301 Z M 79.9805 -42.7734 C 82.9102 -42.7734 85.0586 -45.0684 85.0586 -47.8027 C 85.1562 -50.5859 82.8613 -52.8809 80.0293 -52.8809 C 77.2461 -52.8809 75 -50.5859 75 -47.7051 C 75 -45.166 77.2949 -42.7734 79.9805 -42.7734 Z M 92.334 -30.3711 C 95.166 -30.3711 97.4121 -32.7148 97.3633 -35.498 C 97.3633 -38.1836 95.2148 -40.5273 92.2852 -40.5273 C 89.6484 -40.5273 87.3047 -38.1348 87.3047 -35.5469 C 87.3047 -32.7148 89.5508 -30.3711 92.334 -30.3711 Z M 67.1387 -30.9082 C 69.5312 -30.6152 71.7773 -32.4219 72.1191 -34.668 C 72.4609 -37.207 70.752 -39.5508 68.3105 -39.8438 C 65.7715 -40.1855 63.5742 -38.4277 63.2324 -35.9863 C 62.8906 -33.5938 64.5508 -31.25 67.1387 -30.9082 Z M 31.1523 13.4766 C 21.3379 3.75977 23.1445 -9.81445 33.3496 -19.9707 L 41.1621 -27.832 C 42.041 -26.4648 43.2129 -25.0488 44.6289 -23.6328 L 68.2617 0 C 69.6777 1.41602 71.0449 2.58789 72.4609 3.4668 L 64.5996 11.3281 C 54.4922 21.4355 40.9668 23.1445 31.1523 13.4766 Z M 79.4434 -18.5547 C 81.8359 -18.2617 84.082 -19.9707 84.4238 -22.5098 C 84.7656 -24.7559 83.0566 -27.1484 80.6641 -27.4902 C 78.0762 -27.832 75.8789 -26.0742 75.5371 -23.6816 C 75.1953 -21.2402 76.9043 -18.8965 79.4434 -18.5547 Z"/>
  </g>
  <g id="Regular-L" transform="matrix(1 0 0 1 1370.74 1556)">
   <path d="M 23.9258 19.7754 C 37.0117 32.8613 55.957 32.2754 70.2148 18.0664 L 89.0137 -0.830078 L 113.77 -25.5371 L 132.617 -44.3359 C 146.875 -58.5938 147.314 -77.4902 134.277 -90.6738 C 121.143 -103.76 102.246 -103.223 87.9883 -88.9648 L 69.1895 -70.1172 L 44.4336 -45.3613 L 25.5859 -26.6113 C 11.377 -12.3535 10.8398 6.5918 23.9258 19.7754 Z M 113.867 -46.4355 L 90.0879 -70.2148 C 88.4277 -71.8262 86.8164 -73.0957 85.2539 -73.9746 L 94.0918 -82.8125 C 104.541 -93.3105 118.457 -94.9219 128.613 -84.9609 C 138.721 -75 136.914 -60.9375 126.465 -50.4395 L 117.627 -41.6016 C 116.748 -43.1641 115.479 -44.7754 113.867 -46.4355 Z M 84.9609 -63.8184 L 107.52 -41.2598 C 111.279 -37.5488 110.889 -34.7656 106.885 -30.8594 L 83.6914 -7.71484 C 79.7852 -3.71094 77.0508 -3.32031 73.2422 -7.08008 L 50.7324 -29.6387 C 46.9727 -33.3984 47.3633 -36.1816 51.3184 -40.0879 L 74.5117 -63.2324 C 78.4668 -67.1875 81.2012 -67.5781 84.9609 -63.8184 Z M 79.0527 -42.8711 C 81.9824 -42.8711 84.1309 -45.166 84.1797 -47.9004 C 84.2773 -50.7324 81.9336 -53.0273 79.1016 -53.0273 C 76.3184 -53.0273 74.0723 -50.7324 74.0723 -47.8516 C 74.0723 -45.2637 76.416 -42.8711 79.0527 -42.8711 Z M 66.7969 -30.4199 C 69.5312 -30.4199 71.8262 -32.8125 71.8262 -35.4004 C 71.8262 -38.2812 69.5312 -40.5762 66.748 -40.5762 C 63.8672 -40.5762 61.6699 -38.2812 61.6699 -35.4492 C 61.6699 -32.7148 63.8184 -30.4199 66.7969 -30.4199 Z M 91.5039 -30.4199 C 94.2871 -30.4199 96.582 -32.7637 96.5332 -35.5469 C 96.5332 -38.2812 94.3359 -40.5762 91.4551 -40.5762 C 88.7695 -40.5762 86.4258 -38.2324 86.4258 -35.6445 C 86.4258 -32.7637 88.6719 -30.4199 91.5039 -30.4199 Z M 29.6387 14.0137 C 19.5312 4.05273 21.2891 -10.0098 31.7871 -20.5078 L 40.625 -29.3457 C 41.5039 -27.7344 42.7246 -26.123 44.3848 -24.5117 L 68.1152 -0.732422 C 69.7754 0.878906 71.3867 2.14844 72.998 3.02734 L 64.1602 11.8652 C 53.6621 22.3633 39.7461 23.9746 29.6387 14.0137 Z M 79.1504 -17.9688 C 81.8848 -17.9688 84.1797 -20.3125 84.1797 -23.1934 C 84.1797 -25.7812 81.8848 -28.1738 79.1992 -28.1738 C 76.2207 -28.1738 74.0234 -25.8301 74.0234 -23.0957 C 74.0234 -20.3125 76.2207 -17.9688 79.1504 -17.9688 Z"/>
  </g>
  <g id="Light-L" transform="matrix(1 0 0 1 1075.11 1556)">
   <path d="M 23.4375 19.2383 C 36.2305 32.0312 55.2734 30.9082 69.043 17.0898 L 87.207 -1.12305 L 112.305 -26.2207 L 130.518 -44.3848 C 144.336 -58.1543 145.312 -77.1484 132.568 -89.9902 C 119.775 -102.783 100.83 -101.709 87.0117 -87.8906 L 68.8965 -69.6777 L 43.75 -44.5312 L 25.5371 -26.416 C 11.7188 -12.5977 10.6934 6.39648 23.4375 19.2383 Z M 112.402 -45.5566 L 88.2324 -69.7266 C 86.2305 -71.6797 84.3262 -73.0957 82.4219 -73.877 L 91.6992 -83.2031 C 102.686 -94.1895 117.48 -96.0449 128.223 -85.5469 C 138.916 -75.0977 136.816 -60.0586 125.83 -49.0723 L 116.553 -39.7461 C 115.723 -41.6504 114.355 -43.6035 112.402 -45.5566 Z M 84.0332 -65.0879 L 107.764 -41.3086 C 111.768 -37.3535 111.328 -34.4727 107.129 -30.2734 L 83.1055 -6.39648 C 78.9062 -2.14844 76.0742 -1.66016 72.0703 -5.71289 L 48.3398 -29.3945 C 44.3359 -33.4473 44.7266 -36.3281 48.9746 -40.5273 L 72.9492 -64.4043 C 77.1484 -68.6523 80.0293 -69.043 84.0332 -65.0879 Z M 78.0273 -43.3594 C 80.7129 -43.3594 82.7148 -45.459 82.7637 -48.0469 C 82.8613 -50.6348 80.6641 -52.7832 78.0273 -52.7832 C 75.4395 -52.7832 73.3398 -50.6348 73.3398 -47.9492 C 73.3398 -45.5566 75.5371 -43.3594 78.0273 -43.3594 Z M 65.5762 -30.6641 C 68.0664 -30.6641 70.2148 -32.9102 70.2148 -35.3027 C 70.2148 -37.9883 68.0664 -40.1855 65.5273 -40.1855 C 62.793 -40.1855 60.7422 -37.9883 60.7422 -35.4004 C 60.7422 -32.8125 62.7441 -30.6641 65.5762 -30.6641 Z M 90.5762 -30.7129 C 93.2129 -30.7129 95.3613 -32.8613 95.3125 -35.498 C 95.3125 -38.0371 93.2617 -40.1855 90.5762 -40.1855 C 88.0859 -40.1855 85.8887 -37.9395 85.8887 -35.5469 C 85.8887 -32.8613 87.9883 -30.7129 90.5762 -30.7129 Z M 27.8809 14.7461 C 17.1387 4.29688 19.2383 -10.7422 30.2246 -21.7285 L 39.5508 -31.0547 C 40.332 -29.1504 41.6992 -27.1973 43.7012 -25.1953 L 67.8711 -1.02539 C 69.8242 0.927734 71.7773 2.29492 73.6816 3.07617 L 64.3555 12.4023 C 53.3691 23.3887 38.5742 25.2441 27.8809 14.7461 Z M 78.0762 -18.0664 C 80.6152 -18.0664 82.7637 -20.2637 82.7637 -22.9004 C 82.7637 -25.293 80.6152 -27.5879 78.125 -27.5879 C 75.293 -27.5879 73.3398 -25.3906 73.3398 -22.8516 C 73.3398 -20.2637 75.3418 -18.0664 78.0762 -18.0664 Z"/>
  </g>
  <g id="Thin-L" transform="matrix(1 0 0 1 779.835 1556)">
   <path d="M 22.8516 18.5547 C 35.2051 30.957 54.2969 29.0527 67.4805 15.8203 L 84.7656 -1.5625 L 110.352 -27.1484 L 127.734 -44.4336 C 140.967 -57.6172 142.676 -76.6602 130.322 -89.0625 C 117.969 -101.465 98.9258 -99.6582 85.7422 -86.4258 L 68.457 -69.043 L 42.8711 -43.457 L 25.4883 -26.1719 C 12.2559 -12.9883 10.498 6.15234 22.8516 18.5547 Z M 110.449 -44.4336 L 85.7422 -69.1406 C 83.2031 -71.6309 80.8105 -73.0957 78.418 -73.4863 L 88.5742 -83.6914 C 100.195 -95.3613 116.162 -97.5098 127.686 -86.377 C 139.209 -75.1953 136.67 -58.8867 125.049 -47.2656 L 114.844 -37.0117 C 114.453 -39.4531 112.988 -41.8945 110.449 -44.4336 Z M 82.7637 -66.748 L 108.154 -41.3574 C 112.402 -37.1094 111.963 -34.082 107.373 -29.541 L 82.3242 -4.58984 C 77.7344 -0.0488281 74.8047 0.488281 70.459 -3.85742 L 45.166 -29.1504 C 40.8203 -33.4961 41.3086 -36.5234 45.8496 -41.0645 L 70.8984 -65.9668 C 75.4883 -70.5566 78.5156 -71.0449 82.7637 -66.748 Z M 76.6113 -43.9453 C 79.0039 -43.9453 80.8594 -45.8496 80.9082 -48.1934 C 81.0059 -50.4883 79.0039 -52.4902 76.6113 -52.4902 C 74.3164 -52.4902 72.4121 -50.4883 72.4121 -48.0957 C 72.4121 -45.9473 74.3652 -43.9453 76.6113 -43.9453 Z M 63.916 -31.0059 C 66.1621 -31.0059 68.1152 -33.0566 68.1152 -35.2051 C 68.1152 -37.5977 66.1621 -39.5996 63.8672 -39.5996 C 61.4258 -39.5996 59.5703 -37.5977 59.5703 -35.3027 C 59.5703 -32.959 61.3281 -31.0059 63.916 -31.0059 Z M 89.4043 -31.0547 C 91.7969 -31.0547 93.75 -33.0566 93.7012 -35.4004 C 93.7012 -37.6953 91.8457 -39.5996 89.4043 -39.5996 C 87.1582 -39.5996 85.2051 -37.5977 85.2051 -35.4492 C 85.2051 -33.0566 87.1094 -31.0547 89.4043 -31.0547 Z M 25.5371 15.7715 C 14.0137 4.63867 16.5527 -11.7188 28.2227 -23.3398 L 38.4277 -33.5938 C 38.7695 -31.1523 40.2344 -28.7109 42.7734 -26.1719 L 67.4805 -1.46484 C 70.0195 1.07422 72.4609 2.49023 74.8535 2.88086 L 64.6484 13.1348 C 53.0273 24.7559 37.0605 26.9531 25.5371 15.7715 Z M 76.709 -18.1641 C 78.9551 -18.1641 80.9082 -20.166 80.9082 -22.5586 C 80.9082 -24.707 78.9551 -26.8066 76.709 -26.8066 C 74.1211 -26.8066 72.4121 -24.8047 72.4121 -22.5098 C 72.4121 -20.166 74.2188 -18.1641 76.709 -18.1641 Z"/>
  </g>
  <g id="Ultralight-L" transform="matrix(1 0 0 1 483.832 1556)">
   <path d="M 22.5098 18.2129 C 34.668 30.4199 53.8086 28.125 66.6992 15.1367 L 83.5449 -1.75781 L 109.375 -27.5879 L 126.318 -44.4336 C 139.258 -57.3242 141.309 -76.416 129.15 -88.623 C 117.041 -100.83 97.9492 -98.6328 85.1074 -85.6445 L 68.2617 -68.75 L 42.3828 -42.8711 L 25.4883 -26.0254 C 12.5 -13.1836 10.4004 6.00586 22.5098 18.2129 Z M 109.473 -43.8477 L 84.4727 -68.7988 C 81.5918 -71.7285 78.8574 -73.1445 76.0742 -72.998 L 86.9629 -83.9844 C 98.9746 -95.9473 115.479 -98.291 127.441 -86.7676 C 139.355 -75.293 136.621 -58.3008 124.609 -46.3379 L 113.672 -35.3027 C 113.818 -38.1348 112.402 -40.8691 109.473 -43.8477 Z M 82.1289 -67.627 L 108.35 -41.4062 C 112.695 -37.0117 112.256 -33.9355 107.617 -29.248 L 107.471 -29.1016 L 81.9824 -3.80859 L 81.9336 -3.75977 L 81.9336 -3.71094 C 77.1484 1.02539 74.1699 1.61133 69.6777 -2.88086 L 43.5547 -29.0039 C 39.0625 -33.4961 39.502 -36.5723 44.1895 -41.2598 L 44.2871 -41.4062 L 69.7754 -66.6992 L 69.8242 -66.748 L 69.873 -66.7969 C 74.6094 -71.5332 77.7344 -72.0215 82.1289 -67.627 Z M 75.8789 -44.2871 C 78.1738 -44.2871 79.8828 -46.0449 79.9805 -48.2422 C 80.0293 -50.4395 78.1738 -52.3438 75.8789 -52.3438 C 73.7305 -52.3438 71.9238 -50.4395 71.9238 -48.1934 C 71.9238 -46.1426 73.7793 -44.2871 75.8789 -44.2871 Z M 63.0371 -31.1523 C 65.1367 -31.1523 67.041 -33.1543 67.041 -35.1562 C 67.041 -37.4512 65.1367 -39.3066 63.0371 -39.3066 C 60.6934 -39.3066 58.9844 -37.4512 58.9844 -35.2539 C 58.9844 -33.0566 60.5957 -31.1523 63.0371 -31.1523 Z M 88.8184 -31.25 C 91.1133 -31.25 92.8711 -33.1543 92.8711 -35.3027 C 92.8711 -37.5 91.0645 -39.3066 88.8184 -39.3066 C 86.7188 -39.3066 84.8145 -37.4512 84.8145 -35.4004 C 84.8145 -33.1543 86.6211 -31.25 88.8184 -31.25 Z M 24.3652 16.3086 C 12.4023 4.78516 15.1855 -12.207 27.1484 -24.1699 L 38.1836 -35.2051 C 37.9883 -32.4219 39.3555 -29.5898 42.334 -26.6602 L 67.2852 -1.66016 C 70.2148 1.2207 72.9492 2.63672 75.7324 2.49023 L 64.7949 13.4766 C 52.832 25.4883 36.2793 27.7832 24.3652 16.3086 Z M 75.9766 -18.2617 C 78.0762 -18.2617 79.9805 -20.1172 79.9805 -22.4121 C 79.9805 -24.4141 78.0762 -26.3672 75.9766 -26.3672 C 73.5352 -26.3672 71.9238 -24.5117 71.9238 -22.3145 C 71.9238 -20.1172 73.6328 -18.2617 75.9766 -18.2617 Z"/>
  </g>
  <g id="Black-M" transform="matrix(1 0 0 1 2867.21 1126)">
   <path d="M 19.9219 11.377 C 32.3242 23.8281 51.6602 22.7539 64.209 10.1562 L 78.3691 -4.05273 L 97.0215 -22.7539 L 111.182 -36.8164 C 123.779 -49.3652 124.805 -68.6523 112.451 -81.1035 C 100.049 -93.5547 80.7617 -92.4805 68.2129 -79.9316 L 54.0039 -65.6738 L 35.4004 -46.9727 L 21.1914 -32.9102 C 8.59375 -20.3613 7.56836 -1.07422 19.9219 11.377 Z M 96.9238 -47.7051 L 79.0527 -65.625 C 78.8086 -65.8691 78.5645 -66.1133 78.3203 -66.3574 L 79.834 -67.8711 C 86.1328 -74.1699 94.6777 -76.123 101.025 -69.7266 C 107.373 -63.3301 105.615 -54.9316 99.2188 -48.5352 L 97.6562 -46.9727 C 97.4121 -47.2168 97.168 -47.4609 96.9238 -47.7051 Z M 67.8711 -55.0781 L 86.4258 -36.5723 C 86.7676 -36.2305 86.7676 -36.084 86.4746 -35.791 L 65.2832 -14.5996 C 65.0391 -14.3555 64.7461 -14.3555 64.502 -14.5996 L 45.9961 -33.3008 C 45.752 -33.5938 45.752 -33.7891 45.9961 -34.0332 L 67.1387 -55.0293 L 67.1387 -55.0781 C 67.4316 -55.3223 67.627 -55.3223 67.8711 -55.0781 Z M 66.2109 -40.7715 C 68.3594 -40.7715 69.873 -42.4805 69.873 -44.4336 C 69.873 -46.3379 68.3105 -47.998 66.2598 -47.998 C 64.2578 -47.998 62.6465 -46.3867 62.6465 -44.3359 C 62.6465 -42.5293 64.2578 -40.7715 66.2109 -40.7715 Z M 75.6836 -31.3965 C 77.7344 -31.3965 79.1992 -33.0566 79.1992 -35.0586 C 79.1992 -36.9141 77.7832 -38.6719 75.5859 -38.6719 C 73.6816 -38.6719 72.0703 -36.8652 72.0703 -35.0586 C 72.0703 -33.0078 73.6816 -31.3965 75.6836 -31.3965 Z M 53.125 -34.8633 C 53.0762 -32.8613 54.5898 -31.1035 56.7383 -31.0547 C 58.7891 -30.957 60.3516 -32.7637 60.498 -34.7168 C 60.5957 -36.8164 58.9844 -38.5254 56.8848 -38.5742 C 54.7852 -38.623 53.2227 -36.9141 53.125 -34.8633 Z M 62.5 -25.5859 C 62.4512 -23.5352 63.916 -21.7285 66.0645 -21.6797 C 68.1152 -21.6309 69.7754 -23.2422 69.8242 -25.3418 C 69.873 -27.2461 68.3594 -29.1504 66.3086 -29.248 C 64.1113 -29.2969 62.5488 -27.5391 62.5 -25.5859 Z M 31.3477 -0.0488281 C 25 -6.39648 26.7578 -14.8438 33.252 -21.2891 L 34.7168 -22.7539 C 34.9609 -22.5098 35.2051 -22.2656 35.4492 -22.0215 L 53.3203 -4.15039 C 53.6133 -3.85742 53.8574 -3.61328 54.1016 -3.36914 L 52.5879 -1.85547 C 46.3379 4.49219 37.7441 6.34766 31.3477 -0.0488281 Z"/>
  </g>
  <g id="Heavy-M" transform="matrix(1 0 0 1 2571.5 1126)">
   <path d="M 19.6777 10.498 C 31.5918 22.4609 49.8047 21.582 62.0605 9.32617 L 76.416 -5.07812 L 95.1172 -23.8281 L 109.473 -38.0859 C 121.777 -50.3418 122.559 -68.5547 110.693 -80.5176 C 98.7793 -92.4805 80.5664 -91.6016 68.3105 -79.3457 L 53.9551 -64.9414 L 35.2539 -46.1914 L 20.8984 -31.9336 C 8.59375 -19.6777 7.76367 -1.46484 19.6777 10.498 Z M 95.0684 -46.9238 L 77.0996 -64.8926 C 76.709 -65.332 76.2695 -65.7227 75.8301 -66.1133 L 78.5156 -68.8477 C 85.1562 -75.4883 94.1406 -77.2461 100.781 -70.6055 C 107.373 -63.916 105.762 -55.0781 99.0234 -48.3398 L 96.2891 -45.6543 C 95.8984 -46.0938 95.5078 -46.5332 95.0684 -46.9238 Z M 67.5293 -55.4688 L 85.6934 -37.3535 C 86.5723 -36.4258 86.5234 -35.8398 85.5957 -34.9121 L 65.2832 -14.5996 C 64.4043 -13.7207 63.7207 -13.6719 62.8418 -14.502 L 44.7266 -32.7637 C 43.8965 -33.6426 43.9453 -34.2773 44.8242 -35.1562 L 65.1367 -55.3711 C 66.0156 -56.25 66.6504 -56.2988 67.5293 -55.4688 Z M 65.1855 -40.7715 C 67.3828 -40.7715 68.9453 -42.5781 68.9453 -44.5312 C 68.9453 -46.5332 67.334 -48.291 65.2344 -48.291 C 63.1836 -48.291 61.5234 -46.582 61.5234 -44.4824 C 61.5234 -42.627 63.1836 -40.7715 65.1855 -40.7715 Z M 74.6582 -31.3965 C 76.7578 -31.3965 78.3203 -33.1055 78.3203 -35.1562 C 78.3203 -37.1094 76.8066 -38.8672 74.6094 -38.8672 C 72.6074 -38.8672 70.9473 -37.0605 70.9473 -35.2051 C 70.9473 -33.0566 72.6074 -31.3965 74.6582 -31.3965 Z M 52.9785 -34.0332 C 53.4668 -32.5195 55.0293 -31.5918 56.6895 -32.0801 C 58.252 -32.5684 59.0332 -34.375 58.5938 -35.8398 C 58.1055 -37.4512 56.4453 -38.3301 54.834 -37.8418 C 53.2715 -37.3535 52.4414 -35.5957 52.9785 -34.0332 Z M 62.3535 -24.6582 C 62.8418 -23.0957 64.4043 -22.2168 66.0645 -22.7051 C 67.627 -23.1934 68.457 -24.8535 67.9688 -26.4648 C 67.4316 -27.9297 65.8691 -28.9551 64.3066 -28.4668 C 62.6465 -27.9785 61.8652 -26.1719 62.3535 -24.6582 Z M 29.5898 0.585938 C 22.998 -6.00586 24.6094 -14.9414 31.3965 -21.7285 L 34.082 -24.3652 C 34.4727 -23.9258 34.8633 -23.4863 35.3027 -23.0957 L 53.2715 -5.12695 C 53.7109 -4.6875 54.1504 -4.24805 54.541 -3.85742 L 51.9043 -1.17188 C 45.2637 5.51758 36.2793 7.22656 29.5898 0.585938 Z"/>
  </g>
  <g id="Bold-M" transform="matrix(1 0 0 1 2275.92 1126)">
   <path d="M 19.3848 9.52148 C 30.7617 20.8984 47.7051 20.3125 59.668 8.39844 L 74.2188 -6.20117 L 93.0176 -25.0488 L 107.568 -39.5508 C 119.531 -51.4648 120.068 -68.457 108.74 -79.834 C 97.3633 -91.2109 80.4199 -90.625 68.457 -78.7109 L 53.9062 -64.1113 L 35.1074 -45.2637 L 20.5566 -30.8105 C 8.59375 -18.8477 8.00781 -1.9043 19.3848 9.52148 Z M 93.0176 -46.0449 L 74.9512 -64.1113 C 74.3164 -64.7461 73.6816 -65.332 73.0469 -65.8691 L 77.0508 -69.873 C 84.082 -76.9531 93.5547 -78.4668 100.439 -71.582 C 107.373 -64.6484 105.908 -55.2734 98.7793 -48.1445 L 94.7754 -44.1406 C 94.2383 -44.7754 93.6523 -45.4102 93.0176 -46.0449 Z M 67.1387 -55.8594 L 84.8145 -38.2324 C 86.377 -36.6699 86.2305 -35.5469 84.6191 -33.9844 L 65.2344 -14.6484 C 63.6719 -13.0371 62.5 -12.8906 60.9863 -14.4043 L 43.3594 -32.1777 C 41.7969 -33.6914 41.9434 -34.8145 43.5547 -36.377 L 62.8906 -55.6641 C 64.4531 -57.2754 65.625 -57.373 67.1387 -55.8594 Z M 64.0137 -40.8203 C 66.3086 -40.8203 67.9199 -42.627 67.9688 -44.7266 C 67.9688 -46.8262 66.2598 -48.584 64.1113 -48.584 C 61.9629 -48.584 60.2539 -46.8262 60.2539 -44.6289 C 60.2539 -42.6758 61.9629 -40.8203 64.0137 -40.8203 Z M 73.5352 -31.3965 C 75.6836 -31.3965 77.3926 -33.1543 77.3438 -35.3027 C 77.3438 -37.3535 75.7812 -39.1602 73.4863 -39.1602 C 71.4355 -39.1602 69.6777 -37.2559 69.6777 -35.3027 C 69.6777 -33.1055 71.3867 -31.3965 73.5352 -31.3965 Z M 52.832 -33.1055 C 53.9062 -32.0801 55.5664 -32.1777 56.6406 -33.2031 C 57.666 -34.375 57.5195 -36.1816 56.4453 -37.1582 C 55.3711 -38.2324 53.6621 -38.1348 52.5879 -37.0117 C 51.5137 -35.9375 51.6602 -34.1309 52.832 -33.1055 Z M 62.207 -23.6816 C 63.3301 -22.6562 64.9902 -22.7051 66.0645 -23.877 C 67.0898 -24.9023 66.9922 -26.6602 65.918 -27.7344 C 64.7461 -28.6621 63.0371 -28.7109 62.0117 -27.5879 C 60.9375 -26.4648 61.084 -24.6582 62.207 -23.6816 Z M 27.6367 1.2207 C 20.752 -5.66406 22.2168 -15.0391 29.3457 -22.2168 L 33.3496 -26.1719 C 33.8867 -25.5371 34.4727 -24.9023 35.1074 -24.2676 L 53.1738 -6.20117 C 53.8086 -5.56641 54.4434 -4.98047 55.0781 -4.44336 L 51.0742 -0.439453 C 44.043 6.64062 34.6191 8.1543 27.6367 1.2207 Z"/>
  </g>
  <g id="Semibold-M" transform="matrix(1 0 0 1 1979.99 1126)">
   <path d="M 19.1406 8.83789 C 30.1758 19.8242 46.2891 19.4336 58.0078 7.76367 L 72.6562 -7.03125 L 91.5527 -25.8789 L 106.25 -40.5273 C 117.969 -52.2461 118.359 -68.3594 107.373 -79.3945 C 96.3867 -90.3809 80.2734 -89.9414 68.5547 -78.2715 L 53.8574 -63.5254 L 35.0098 -44.6289 L 20.2637 -30.0293 C 8.59375 -18.3105 8.20312 -2.19727 19.1406 8.83789 Z M 91.5527 -45.459 L 73.4863 -63.5742 C 72.6562 -64.3555 71.875 -65.0391 71.0938 -65.6738 L 76.0254 -70.6055 C 83.3496 -77.9297 93.1152 -79.3457 100.244 -72.2168 C 107.373 -65.1367 106.006 -55.4199 98.6328 -47.998 L 93.6523 -43.0664 C 93.0664 -43.8477 92.3828 -44.6777 91.5527 -45.459 Z M 66.8457 -56.1523 L 84.2285 -38.8184 C 86.1816 -36.8164 86.0352 -35.4004 83.9355 -33.3008 L 65.2344 -14.6484 C 63.1836 -12.5488 61.6699 -12.3535 59.7168 -14.3555 L 42.3828 -31.7383 C 40.3809 -33.7402 40.5762 -35.2051 42.6758 -37.2559 L 61.3281 -55.8594 C 63.3789 -57.959 64.8926 -58.1543 66.8457 -56.1523 Z M 63.2324 -40.8691 C 65.5762 -40.8691 67.2363 -42.6758 67.2363 -44.8242 C 67.2852 -46.9727 65.5273 -48.7793 63.2812 -48.7793 C 61.1328 -48.7793 59.375 -47.0215 59.375 -44.7754 C 59.375 -42.7246 61.1328 -40.8691 63.2324 -40.8691 Z M 72.7539 -31.3477 C 75 -31.3477 76.709 -33.2031 76.709 -35.3516 C 76.709 -37.5 75.0488 -39.3066 72.7051 -39.3066 C 70.6055 -39.3066 68.7988 -37.4023 68.7988 -35.4004 C 68.7988 -33.1543 70.5566 -31.3477 72.7539 -31.3477 Z M 52.6855 -32.4707 C 54.1992 -31.8359 55.9082 -32.5684 56.5918 -34.0332 C 57.2754 -35.5957 56.4941 -37.4512 54.9805 -38.0371 C 53.418 -38.7207 51.709 -37.9883 51.0254 -36.4258 C 50.3418 -34.9609 51.0742 -33.1055 52.6855 -32.4707 Z M 62.1094 -22.998 C 63.623 -22.3633 65.3809 -23.0957 66.0645 -24.6582 C 66.6992 -26.0742 65.9668 -27.9297 64.4531 -28.5645 C 62.8418 -29.1992 61.1328 -28.5156 60.498 -27.002 C 59.7656 -25.4883 60.498 -23.6328 62.1094 -22.998 Z M 26.3184 1.70898 C 19.1895 -5.37109 20.5566 -15.1367 27.9785 -22.5586 L 32.8613 -27.4902 C 33.4961 -26.6602 34.1797 -25.8789 35.0098 -25.0977 L 53.0762 -6.98242 C 53.9062 -6.20117 54.6875 -5.46875 55.4688 -4.88281 L 50.5371 0.0488281 C 43.2129 7.42188 33.4473 8.78906 26.3184 1.70898 Z"/>
  </g>
  <g id="Medium-M" transform="matrix(1 0 0 1 1683.86 1126)">
   <path d="M 18.9941 8.34961 C 29.7363 19.043 45.2148 18.75 56.7383 7.22656 L 71.5332 -7.61719 L 90.4297 -26.5137 L 105.273 -41.3086 C 116.797 -52.832 117.041 -68.3105 106.348 -79.0527 C 95.6543 -89.7461 80.1758 -89.4531 68.6523 -77.9297 L 53.8574 -63.0859 L 34.9609 -44.1895 L 20.1172 -29.3945 C 8.59375 -17.8711 8.34961 -2.39258 18.9941 8.34961 Z M 90.4785 -45.0195 L 72.3633 -63.1348 C 71.4355 -64.0625 70.5078 -64.8438 69.5801 -65.4785 L 75.2441 -71.1426 C 82.8125 -78.7109 92.8223 -79.9805 100.098 -72.7539 C 107.373 -65.5273 106.104 -55.5176 98.4863 -47.9004 L 92.8223 -42.2363 C 92.1875 -43.1641 91.4062 -44.0918 90.4785 -45.0195 Z M 66.6504 -56.3965 L 83.7402 -39.3066 C 86.084 -36.9629 85.8887 -35.2539 83.3984 -32.8125 L 65.2344 -14.6484 C 62.793 -12.207 61.084 -11.9629 58.7402 -14.3066 L 41.6504 -31.3965 C 39.3066 -33.7402 39.5508 -35.498 41.9922 -37.8906 L 60.1562 -56.0547 C 62.5977 -58.4961 64.3066 -58.7402 66.6504 -56.3965 Z M 62.6465 -40.8691 C 64.9902 -40.8691 66.6992 -42.7246 66.748 -44.873 C 66.7969 -47.1191 64.9414 -48.9746 62.6953 -48.9746 C 60.4492 -48.9746 58.6914 -47.1191 58.6914 -44.8242 C 58.6914 -42.7734 60.498 -40.8691 62.6465 -40.8691 Z M 72.168 -31.3477 C 74.4141 -31.3477 76.2207 -33.2031 76.1719 -35.4492 C 76.1719 -37.5977 74.4629 -39.4531 72.1191 -39.4531 C 69.9707 -39.4531 68.1641 -37.5488 68.1641 -35.498 C 68.1641 -33.2031 69.9219 -31.3477 72.168 -31.3477 Z M 52.6367 -31.9824 C 54.4434 -31.5918 56.2012 -32.9102 56.5918 -34.6191 C 56.9336 -36.5234 55.7129 -38.3789 53.9062 -38.7207 C 52.002 -39.1113 50.1953 -37.8906 49.8535 -36.0352 C 49.4629 -34.1797 50.6348 -32.3242 52.6367 -31.9824 Z M 62.0117 -22.4609 C 63.8672 -22.1191 65.6738 -23.3398 66.0645 -25.2441 C 66.4062 -26.9531 65.1855 -28.8574 63.3789 -29.248 C 61.4258 -29.5898 59.668 -28.3691 59.2773 -26.5625 C 58.8867 -24.707 60.1074 -22.8516 62.0117 -22.4609 Z M 25.293 2.05078 C 18.0176 -5.17578 19.2871 -15.1855 26.9043 -22.8027 L 32.5195 -28.4668 C 33.2031 -27.5391 33.9844 -26.6113 34.9121 -25.6836 L 53.0273 -7.56836 C 53.9551 -6.64062 54.8828 -5.85938 55.8105 -5.22461 L 50.1465 0.439453 C 42.5781 8.00781 32.5684 9.27734 25.293 2.05078 Z"/>
  </g>
  <g id="Regular-M" transform="matrix(1 0 0 1 1387.93 1126)">
   <path d="M 18.7988 7.66602 C 29.1504 17.9688 43.7988 17.8711 55.127 6.5918 L 70.0195 -8.39844 L 89.0137 -27.3438 L 103.955 -42.2852 C 115.283 -53.5645 115.332 -68.2129 105.029 -78.5645 C 94.6777 -88.8672 80.0293 -88.8184 68.75 -77.5391 L 53.8086 -62.5488 L 34.8633 -43.5547 L 19.873 -28.6621 C 8.59375 -17.334 8.49609 -2.68555 18.7988 7.66602 Z M 89.0625 -44.4336 L 70.8496 -62.5977 C 69.7754 -63.6719 68.7012 -64.5508 67.627 -65.2344 L 74.2676 -71.875 C 82.0801 -79.7363 92.3828 -80.8105 99.8535 -73.4375 C 107.373 -66.0156 106.201 -55.6152 98.3398 -47.8027 L 91.6992 -41.1621 C 91.0156 -42.2363 90.1367 -43.3105 89.0625 -44.4336 Z M 66.3574 -56.6895 L 83.1543 -39.8926 C 85.9375 -37.1094 85.6445 -35.0586 82.7148 -32.1777 L 65.1855 -14.6484 C 62.3047 -11.7188 60.2539 -11.4258 57.4707 -14.209 L 40.6738 -31.0059 C 37.8906 -33.7891 38.1836 -35.8887 41.1133 -38.7695 L 58.6426 -56.25 C 61.5234 -59.1797 63.5742 -59.4727 66.3574 -56.6895 Z M 61.8652 -40.918 C 64.2578 -40.918 66.0156 -42.7734 66.0156 -45.0195 C 66.1133 -47.2656 64.209 -49.1699 61.9141 -49.1699 C 59.6191 -49.1699 57.8125 -47.2656 57.8125 -44.9219 C 57.8125 -42.8223 59.7168 -40.918 61.8652 -40.918 Z M 52.4902 -31.3477 C 54.7363 -31.3477 56.543 -33.3008 56.543 -35.4004 C 56.543 -37.7441 54.7363 -39.5996 52.4414 -39.5996 C 50.0977 -39.5996 48.291 -37.7441 48.291 -35.4492 C 48.291 -33.2031 50.0977 -31.3477 52.4902 -31.3477 Z M 71.3867 -31.3477 C 73.6816 -31.3477 75.5859 -33.252 75.5371 -35.498 C 75.5371 -37.7441 73.7305 -39.5996 71.3379 -39.5996 C 69.1895 -39.5996 67.2852 -37.6953 67.2852 -35.5957 C 67.2852 -33.252 69.1406 -31.3477 71.3867 -31.3477 Z M 61.9141 -21.8262 C 64.209 -21.8262 66.0156 -23.6816 66.0156 -26.0254 C 66.0156 -28.125 64.209 -30.0781 61.9629 -30.0781 C 59.5703 -30.0781 57.7637 -28.2227 57.7637 -25.9766 C 57.7637 -23.6816 59.5703 -21.8262 61.9141 -21.8262 Z M 23.9746 2.49023 C 16.4551 -4.93164 17.627 -15.2832 25.4883 -23.1445 L 32.1289 -29.7852 C 32.8125 -28.6621 33.6914 -27.5879 34.7656 -26.5137 L 52.9785 -8.30078 C 54.0527 -7.22656 55.127 -6.34766 56.2012 -5.66406 L 49.6094 0.976562 C 41.748 8.78906 31.4453 9.91211 23.9746 2.49023 Z"/>
  </g>
  <g id="Light-M" transform="matrix(1 0 0 1 1092.2 1126)">
   <path d="M 18.3594 7.22656 C 28.418 17.2852 43.1641 16.6504 54.0527 5.76172 L 68.3594 -8.64258 L 87.6953 -27.9785 L 102.1 -42.2852 C 112.988 -53.2227 113.525 -67.8711 103.516 -77.9785 C 93.457 -87.9883 78.7598 -87.4023 67.8711 -76.5137 L 53.5156 -62.1094 L 34.2285 -42.8223 L 19.8242 -28.4668 C 8.93555 -17.5781 8.34961 -2.88086 18.3594 7.22656 Z M 87.7441 -43.6523 L 69.1895 -62.1582 C 67.8223 -63.5254 66.4551 -64.5508 65.1367 -65.2344 L 72.1191 -72.2168 C 80.4199 -80.5176 91.5039 -81.8359 99.5117 -73.9746 C 107.568 -66.0645 106.104 -54.834 97.8027 -46.582 L 90.8203 -39.5508 C 90.1367 -40.918 89.1113 -42.2363 87.7441 -43.6523 Z M 65.5273 -57.8125 L 83.3984 -39.9414 C 86.377 -36.9629 86.084 -34.7656 82.9102 -31.6406 L 64.6484 -13.4766 C 61.5234 -10.3027 59.375 -9.96094 56.3965 -12.9883 L 38.5254 -30.8105 C 35.5469 -33.8379 35.8398 -35.9863 39.0137 -39.1113 L 57.2266 -57.3242 C 60.3516 -60.498 62.5488 -60.791 65.5273 -57.8125 Z M 60.9375 -41.3086 C 63.1348 -41.3086 64.7461 -43.0176 64.7949 -45.1172 C 64.8438 -47.2168 63.0859 -48.9746 60.9375 -48.9746 C 58.8379 -48.9746 57.1777 -47.2168 57.1777 -45.0195 C 57.1777 -43.1152 58.9355 -41.3086 60.9375 -41.3086 Z M 51.3672 -31.5918 C 53.418 -31.5918 55.127 -33.3984 55.127 -35.3516 C 55.127 -37.5 53.418 -39.2578 51.3184 -39.2578 C 49.1211 -39.2578 47.4609 -37.5 47.4609 -35.4004 C 47.4609 -33.3008 49.1211 -31.5918 51.3672 -31.5918 Z M 70.6055 -31.5918 C 72.7539 -31.5918 74.4629 -33.3496 74.4141 -35.4492 C 74.4141 -37.5 72.7539 -39.2578 70.5566 -39.2578 C 68.5547 -39.2578 66.7969 -37.4512 66.7969 -35.498 C 66.7969 -33.3496 68.5059 -31.5918 70.6055 -31.5918 Z M 22.3633 3.17383 C 14.3555 -4.6875 15.8203 -15.918 24.1211 -24.2188 L 31.1035 -31.25 C 31.7871 -29.8828 32.8125 -28.5156 34.1797 -27.1484 L 52.7344 -8.59375 C 54.1016 -7.22656 55.4199 -6.20117 56.7871 -5.56641 L 49.8047 1.46484 C 41.5039 9.7168 30.4199 11.084 22.3633 3.17383 Z M 60.9863 -21.875 C 63.0371 -21.875 64.7949 -23.6328 64.7949 -25.7812 C 64.7949 -27.7344 63.0371 -29.541 61.0352 -29.541 C 58.7402 -29.541 57.1289 -27.7832 57.1289 -25.7324 C 57.1289 -23.6328 58.7891 -21.875 60.9863 -21.875 Z"/>
  </g>
  <g id="Thin-M" transform="matrix(1 0 0 1 796.754 1126)">
   <path d="M 17.8223 6.5918 C 27.4902 16.3086 42.2852 14.9902 52.6367 4.58984 L 66.2109 -9.0332 L 85.9375 -28.7598 L 99.5605 -42.334 C 109.961 -52.6855 111.133 -67.4316 101.465 -77.1484 C 91.7969 -86.8652 77.0996 -85.5957 66.6992 -75.1953 L 53.125 -61.5723 L 33.3984 -41.8457 L 19.7754 -28.2715 C 9.375 -17.9199 8.20312 -3.125 17.8223 6.5918 Z M 85.9863 -42.5781 L 66.9922 -61.6211 C 65.1367 -63.4277 63.4277 -64.5996 61.6699 -64.9902 L 69.3359 -72.7051 C 78.1738 -81.5918 90.2832 -83.2031 99.0723 -74.707 C 107.812 -66.1621 105.957 -53.8086 97.0703 -44.9219 L 89.4043 -37.2559 C 88.9648 -39.0137 87.8418 -40.7715 85.9863 -42.5781 Z M 64.4043 -59.3262 L 83.7402 -39.9902 C 86.9629 -36.7188 86.6211 -34.4238 83.1543 -30.957 L 63.9648 -11.8652 C 60.498 -8.39844 58.252 -8.00781 54.9316 -11.2793 L 35.6934 -30.5664 C 32.373 -33.8867 32.7148 -36.1816 36.2305 -39.6484 L 55.4199 -58.7402 C 58.8379 -62.207 61.1816 -62.5488 64.4043 -59.3262 Z M 59.668 -41.8457 C 61.6211 -41.8457 63.0371 -43.4082 63.0859 -45.2148 C 63.1836 -47.0703 61.5723 -48.6816 59.668 -48.6816 C 57.8125 -48.6816 56.2988 -47.0703 56.2988 -45.166 C 56.2988 -43.457 57.8613 -41.8457 59.668 -41.8457 Z M 49.8535 -31.8848 C 51.6602 -31.8848 53.2227 -33.4961 53.2227 -35.2539 C 53.2227 -37.1582 51.6602 -38.7207 49.8535 -38.7207 C 47.9004 -38.7207 46.4355 -37.1582 46.4355 -35.3027 C 46.4355 -33.4473 47.8516 -31.8848 49.8535 -31.8848 Z M 69.5312 -31.9336 C 71.4355 -31.9336 72.998 -33.4961 72.9492 -35.3516 C 72.9492 -37.207 71.4844 -38.7207 69.5312 -38.7207 C 67.7734 -38.7207 66.1621 -37.1582 66.1621 -35.4492 C 66.1621 -33.4961 67.6758 -31.9336 69.5312 -31.9336 Z M 20.3125 4.10156 C 11.5234 -4.44336 13.4277 -16.7969 22.3145 -25.6836 L 29.9805 -33.3984 C 30.3711 -31.5918 31.4941 -29.834 33.3496 -27.9785 L 52.3926 -8.98438 C 54.1992 -7.17773 55.957 -6.00586 57.7148 -5.61523 L 50.0488 2.09961 C 41.1621 10.9863 29.0527 12.5977 20.3125 4.10156 Z M 59.7168 -21.9727 C 61.5234 -21.9727 63.0859 -23.584 63.0859 -25.4883 C 63.0859 -27.1973 61.5234 -28.8574 59.7168 -28.8574 C 57.7148 -28.8574 56.2988 -27.2949 56.2988 -25.4395 C 56.2988 -23.584 57.7637 -21.9727 59.7168 -21.9727 Z"/>
  </g>
  <g id="Ultralight-M" transform="matrix(1 0 0 1 500.702 1126)">
   <path d="M 17.5293 6.29883 C 27.002 15.8203 41.8457 14.1602 51.9043 4.00391 L 65.0879 -9.22852 L 85.0586 -29.1992 L 98.291 -42.3828 C 108.447 -52.4414 109.912 -67.2363 100.439 -76.7578 C 90.9668 -86.2793 76.2207 -84.668 66.1133 -74.5117 L 52.9297 -61.2793 L 33.0078 -41.3086 L 19.7266 -28.125 C 9.61914 -18.0664 8.10547 -3.22266 17.5293 6.29883 Z M 85.1074 -42.0898 L 65.8203 -61.3281 C 63.7207 -63.4766 61.7188 -64.5996 59.668 -64.6973 L 67.8711 -72.9004 C 77.0508 -82.1289 89.6973 -83.8867 98.8281 -75.0488 C 107.959 -66.2598 105.859 -53.2715 96.6797 -44.0918 L 88.4766 -35.8398 C 88.3789 -37.8906 87.2559 -39.9414 85.1074 -42.0898 Z M 63.8184 -60.0586 L 83.8867 -39.9902 C 87.2559 -36.6211 86.9141 -34.2773 83.3008 -30.6152 L 83.252 -30.6152 L 63.623 -11.084 L 63.5742 -11.084 C 59.9609 -7.4707 57.666 -7.03125 54.1992 -10.4492 L 34.2285 -30.4688 C 30.7617 -33.8867 31.1523 -36.2793 34.7656 -39.8926 L 54.4434 -59.4238 C 58.0566 -63.0859 60.4492 -63.4277 63.8184 -60.0586 Z M 59.0332 -42.1387 C 60.8398 -42.1387 62.207 -43.5547 62.2559 -45.3125 C 62.3047 -47.0215 60.8398 -48.5352 59.0332 -48.5352 C 57.2754 -48.5352 55.8594 -47.0215 55.8594 -45.2148 C 55.8594 -43.6035 57.373 -42.1387 59.0332 -42.1387 Z M 49.1211 -32.0312 C 50.7812 -32.0312 52.2461 -33.5938 52.2461 -35.2051 C 52.2461 -37.0117 50.7812 -38.4766 49.1211 -38.4766 C 47.2656 -38.4766 45.8984 -37.0117 45.8984 -35.2539 C 45.8984 -33.5449 47.168 -32.0312 49.1211 -32.0312 Z M 68.9941 -32.0801 C 70.8008 -32.0801 72.2168 -33.5938 72.2168 -35.3027 C 72.2168 -37.0605 70.8008 -38.4766 68.9941 -38.4766 C 67.334 -38.4766 65.8203 -37.0117 65.8203 -35.4004 C 65.8203 -33.5938 67.2852 -32.0801 68.9941 -32.0801 Z M 19.2383 4.54102 C 10.1074 -4.29688 12.1582 -17.2363 21.3379 -26.416 L 29.6387 -34.7168 C 29.6875 -32.6172 30.8105 -30.5664 32.9102 -28.418 L 52.1973 -9.17969 C 54.3457 -7.03125 56.3477 -5.9082 58.3984 -5.85938 L 50.1953 2.39258 C 40.9668 11.5723 28.3691 13.3301 19.2383 4.54102 Z M 59.082 -22.0703 C 60.7422 -22.0703 62.2559 -23.5352 62.2559 -25.3418 C 62.2559 -26.9531 60.7422 -28.5156 59.082 -28.5156 C 57.1777 -28.5156 55.8594 -27.002 55.8594 -25.293 C 55.8594 -23.5352 57.2266 -22.0703 59.082 -22.0703 Z"/>
  </g>
  <g id="Black-S" transform="matrix(1 0 0 1 2881.57 696)">
   <path d="M 15.625 1.2207 C 25.293 10.9375 40.332 10.1074 50.1465 0.292969 L 61.2793 -10.8887 L 75.8789 -25.5371 L 87.0117 -36.5723 C 96.875 -46.3867 97.6562 -61.4258 87.9883 -71.1426 C 78.3203 -80.8594 63.2812 -80.0293 53.4668 -70.2148 L 42.334 -59.0332 L 27.7344 -44.3848 L 16.6016 -33.3496 C 6.73828 -23.5352 5.95703 -8.49609 15.625 1.2207 Z M 75.8301 -44.9707 L 61.8164 -58.9844 C 61.6211 -59.1797 61.4258 -59.375 61.2305 -59.5703 L 62.5 -60.8887 C 67.4316 -65.8203 74.1699 -67.334 79.1504 -62.3047 C 84.1309 -57.2754 82.7637 -50.6836 77.7344 -45.6543 L 76.4648 -44.3359 C 76.2695 -44.5801 76.0742 -44.7754 75.8301 -44.9707 Z M 53.1738 -50.7812 L 67.6758 -36.3281 C 67.9688 -36.0352 67.9688 -35.8887 67.6758 -35.5957 L 51.1719 -19.0918 C 50.9277 -18.8477 50.6836 -18.8477 50.4395 -19.0918 L 35.9863 -33.6914 C 35.7422 -33.9355 35.7422 -34.1309 35.9863 -34.375 L 52.4902 -50.7812 C 52.7344 -51.0254 52.9297 -51.0254 53.1738 -50.7812 Z M 51.8066 -39.5508 C 53.5156 -39.5508 54.6875 -40.918 54.6875 -42.4316 C 54.6875 -43.9453 53.4668 -45.2637 51.8555 -45.2637 C 50.293 -45.2637 49.0234 -43.9941 49.0234 -42.3828 C 49.0234 -40.9668 50.293 -39.5508 51.8066 -39.5508 Z M 59.2285 -32.2266 C 60.8398 -32.2266 62.0117 -33.5449 62.0117 -35.1074 C 62.0117 -36.5723 60.8887 -37.9395 59.1797 -37.9395 C 57.666 -37.9395 56.3965 -36.5234 56.3965 -35.1074 C 56.3965 -33.4961 57.666 -32.2266 59.2285 -32.2266 Z M 41.6504 -34.8633 C 41.6504 -33.3496 42.8223 -32.0312 44.4824 -32.0312 C 46.0449 -32.0312 47.2168 -33.4473 47.2656 -34.9121 C 47.3145 -36.5234 46.0449 -37.793 44.4336 -37.793 C 42.8223 -37.793 41.6504 -36.4258 41.6504 -34.8633 Z M 48.9746 -27.5879 C 48.9746 -26.0254 50.1465 -24.707 51.8066 -24.707 C 53.3691 -24.707 54.5898 -25.9766 54.5898 -27.5879 C 54.5898 -29.0527 53.3691 -30.4688 51.8066 -30.4688 C 50.1465 -30.4688 48.9746 -29.1016 48.9746 -27.5879 Z M 24.4629 -7.61719 C 19.4824 -12.5977 20.8496 -19.2383 25.9277 -24.3164 L 27.1973 -25.5859 C 27.3926 -25.3418 27.5879 -25.1465 27.7832 -24.9512 L 41.7969 -10.9375 C 42.041 -10.7422 42.2363 -10.498 42.4316 -10.3027 L 41.1621 -9.0332 C 36.2305 -4.05273 29.4922 -2.58789 24.4629 -7.61719 Z"/>
  </g>
  <g id="Heavy-S" transform="matrix(1 0 0 1 2585.54 696)">
   <path d="M 15.4785 0.585938 C 24.8047 9.96094 39.0137 9.375 48.6328 -0.244141 L 59.9609 -11.6211 L 74.6094 -26.3184 L 85.9375 -37.5488 C 95.6055 -47.168 96.1426 -61.377 86.8164 -70.752 C 77.4902 -80.127 63.2812 -79.541 53.6621 -69.873 L 42.334 -58.4961 L 27.7344 -43.8477 L 16.3574 -32.6172 C 6.68945 -22.9492 6.15234 -8.78906 15.4785 0.585938 Z M 74.5605 -44.4824 L 60.5469 -58.4961 C 60.2051 -58.7891 59.9121 -59.1309 59.5703 -59.375 L 61.7188 -61.5723 C 66.8945 -66.748 73.877 -68.0664 79.0039 -62.8906 C 84.1309 -57.7637 82.9102 -50.8789 77.6367 -45.6543 L 75.4883 -43.5059 C 75.1953 -43.7988 74.9023 -44.1406 74.5605 -44.4824 Z M 53.0273 -50.9277 L 67.041 -36.9141 C 67.7734 -36.2305 67.7246 -35.7422 66.9922 -35.0098 L 51.2207 -19.2383 C 50.5371 -18.5547 49.9512 -18.5059 49.3164 -19.1406 L 35.2539 -33.3008 C 34.6191 -33.9844 34.6191 -34.4727 35.3516 -35.2051 L 51.123 -50.8789 C 51.8066 -51.5625 52.3438 -51.6113 53.0273 -50.9277 Z M 51.123 -39.5508 C 52.9297 -39.5508 54.1504 -40.918 54.1504 -42.5293 C 54.1504 -44.1406 52.8809 -45.5078 51.1719 -45.5078 C 49.5605 -45.5078 48.2422 -44.1406 48.2422 -42.4805 C 48.2422 -40.9668 49.5605 -39.5508 51.123 -39.5508 Z M 58.5449 -32.1777 C 60.2051 -32.1777 61.4746 -33.5449 61.4746 -35.2051 C 61.4746 -36.7676 60.2539 -38.1348 58.4961 -38.1348 C 56.9336 -38.1348 55.6152 -36.7188 55.6152 -35.2051 C 55.6152 -33.5449 56.9336 -32.1777 58.5449 -32.1777 Z M 41.6504 -34.1797 C 42.0898 -33.0566 43.3594 -32.4219 44.6289 -32.8125 C 45.8008 -33.3008 46.3379 -34.7168 45.9473 -35.8398 C 45.5078 -37.0605 44.1895 -37.6953 42.9688 -37.2559 C 41.748 -36.8164 41.2109 -35.4004 41.6504 -34.1797 Z M 48.9746 -26.9043 C 49.4141 -25.6836 50.6836 -25.0488 51.9531 -25.5371 C 53.125 -25.9277 53.7109 -27.2949 53.2715 -28.5156 C 52.832 -29.6387 51.5137 -30.3223 50.3418 -29.8828 C 49.0723 -29.4434 48.5352 -28.0762 48.9746 -26.9043 Z M 23.291 -7.22656 C 18.1641 -12.3535 19.4336 -19.2383 24.707 -24.5117 L 26.8066 -26.6602 C 27.0996 -26.3184 27.3926 -26.0254 27.7344 -25.6836 L 41.748 -11.6699 C 42.0898 -11.3281 42.4316 -11.0352 42.7734 -10.7422 L 40.625 -8.59375 C 35.4492 -3.36914 28.4668 -2.05078 23.291 -7.22656 Z"/>
  </g>
  <g id="Bold-S" transform="matrix(1 0 0 1 2289.59 696)">
   <path d="M 15.2832 -0.0976562 C 24.2676 8.88672 37.5 8.54492 46.9238 -0.878906 L 58.4961 -12.4512 L 73.1445 -27.1484 L 84.7168 -38.6719 C 94.1406 -48.0957 94.4336 -61.3281 85.498 -70.3125 C 76.5625 -79.2969 63.3301 -78.9551 53.8574 -69.5312 L 42.334 -57.9102 L 27.6855 -43.2617 L 16.1133 -31.7383 C 6.64062 -22.3145 6.34766 -9.08203 15.2832 -0.0976562 Z M 73.1445 -43.8965 L 59.082 -57.9102 C 58.6426 -58.3984 58.1543 -58.7891 57.7148 -59.1797 L 60.8398 -62.3535 C 66.3086 -67.7734 73.4863 -68.8965 78.8086 -63.5742 C 84.082 -58.3008 83.0078 -51.123 77.5391 -45.6543 L 74.3652 -42.5293 C 74.0234 -42.9688 73.584 -43.4082 73.1445 -43.8965 Z M 52.7832 -51.123 L 66.3574 -37.5977 C 67.5293 -36.4258 67.4316 -35.5469 66.2109 -34.3262 L 51.2695 -19.3848 C 50.0488 -18.1641 49.1699 -18.0664 47.998 -19.2383 L 34.4727 -32.8613 C 33.3008 -34.0332 33.3984 -34.9121 34.6191 -36.084 L 49.5605 -50.9766 C 50.7324 -52.1973 51.6602 -52.2949 52.7832 -51.123 Z M 50.3906 -39.502 C 52.1973 -39.502 53.5156 -40.9668 53.5156 -42.627 C 53.5645 -44.3359 52.1484 -45.752 50.4395 -45.752 C 48.6816 -45.752 47.3145 -44.3359 47.3145 -42.5781 C 47.3145 -41.0156 48.7305 -39.502 50.3906 -39.502 Z M 57.7637 -32.1289 C 59.5215 -32.1289 60.8887 -33.5938 60.8398 -35.3027 C 60.8398 -36.9629 59.5703 -38.3789 57.7148 -38.3789 C 56.1035 -38.3789 54.6875 -36.9141 54.6875 -35.3027 C 54.6875 -33.5449 56.0547 -32.1289 57.7637 -32.1289 Z M 41.6504 -33.4473 C 42.5781 -32.7148 43.8965 -32.8613 44.7266 -33.6914 C 45.5078 -34.668 45.3613 -36.1328 44.4336 -36.8652 C 43.5059 -37.6953 42.1387 -37.5488 41.3086 -36.6211 C 40.5273 -35.6934 40.6738 -34.2285 41.6504 -33.4473 Z M 48.9746 -26.123 C 49.9023 -25.3418 51.2695 -25.4395 52.0996 -26.416 C 52.8809 -27.2949 52.7344 -28.7109 51.8066 -29.541 C 50.8301 -30.2734 49.4629 -30.1758 48.6816 -29.2969 C 47.8516 -28.3203 47.998 -26.9043 48.9746 -26.123 Z M 22.0215 -6.78711 C 16.6992 -12.1094 17.7734 -19.2871 23.291 -24.7559 L 26.416 -27.8809 C 26.8066 -27.4414 27.1973 -26.9531 27.6855 -26.5137 L 41.6992 -12.4512 C 42.1875 -12.0117 42.627 -11.5723 43.1152 -11.1816 L 39.9902 -8.05664 C 34.5215 -2.63672 27.3438 -1.51367 22.0215 -6.78711 Z"/>
  </g>
  <g id="Semibold-S" transform="matrix(1 0 0 1 1993.39 696)">
   <path d="M 15.1367 -0.537109 C 23.877 8.10547 36.4258 7.95898 45.752 -1.31836 L 57.4707 -13.0371 L 72.1191 -27.7344 L 83.8379 -39.4043 C 93.1641 -48.7305 93.2617 -61.2793 84.6191 -70.0195 C 75.8789 -78.7109 63.3301 -78.5645 54.0039 -69.2871 L 42.334 -57.5195 L 27.6367 -42.8223 L 15.918 -31.1523 C 6.5918 -21.875 6.49414 -9.27734 15.1367 -0.537109 Z M 72.1191 -43.5059 L 58.1055 -57.5195 C 57.5195 -58.1055 56.9824 -58.5938 56.4453 -59.0332 L 60.2539 -62.8418 C 65.8691 -68.457 73.2422 -69.4824 78.6621 -64.0625 C 84.082 -58.6426 83.1055 -51.3184 77.4414 -45.6543 L 73.6328 -41.8457 C 73.1934 -42.3828 72.7051 -42.9199 72.1191 -43.5059 Z M 52.6367 -51.2695 L 65.8691 -38.0859 C 67.3828 -36.5723 67.2363 -35.4492 65.6738 -33.8867 L 51.2695 -19.4824 C 49.7559 -17.9199 48.584 -17.7734 47.1191 -19.2871 L 33.8867 -32.5195 C 32.4219 -34.0332 32.5195 -35.1562 34.082 -36.7188 L 48.4863 -51.0742 C 50 -52.6367 51.1719 -52.7832 52.6367 -51.2695 Z M 49.8535 -39.502 C 51.7578 -39.502 53.0762 -40.9668 53.0762 -42.7246 C 53.125 -44.4824 51.709 -45.9473 49.9023 -45.9473 C 48.0957 -45.9473 46.6797 -44.4824 46.6797 -42.6758 C 46.6797 -41.0156 48.1445 -39.502 49.8535 -39.502 Z M 57.2754 -32.1289 C 59.0332 -32.1289 60.4492 -33.5938 60.4492 -35.3516 C 60.4492 -37.0605 59.082 -38.5742 57.2266 -38.5742 C 55.5176 -38.5742 54.0527 -37.0117 54.0527 -35.4004 C 54.0527 -33.5938 55.4688 -32.1289 57.2754 -32.1289 Z M 41.6504 -32.959 C 42.9199 -32.4707 44.2871 -33.1543 44.8242 -34.3262 C 45.3125 -35.6445 44.6777 -37.1582 43.4082 -37.5977 C 42.1387 -38.1348 40.7227 -37.4512 40.1855 -36.1816 C 39.6973 -34.9609 40.332 -33.4473 41.6504 -32.959 Z M 48.9746 -25.5859 C 50.2441 -25.0977 51.6602 -25.7324 52.1973 -27.0508 C 52.6855 -28.2227 52.0508 -29.7363 50.7812 -30.2246 C 49.4629 -30.7129 48.0469 -30.0781 47.5586 -28.8574 C 47.0215 -27.5879 47.6562 -26.0742 48.9746 -25.5859 Z M 21.0938 -6.49414 C 15.7227 -11.9141 16.6504 -19.2871 22.3145 -24.9512 L 26.123 -28.7598 C 26.5625 -28.1738 27.0508 -27.6367 27.6367 -27.0996 L 41.6992 -13.0371 C 42.2363 -12.5 42.7734 -11.9629 43.3594 -11.5234 L 39.502 -7.71484 C 33.9355 -2.09961 26.5137 -1.12305 21.0938 -6.49414 Z"/>
  </g>
  <g id="Medium-S" transform="matrix(1 0 0 1 1697.07 696)">
   <path d="M 15.0391 -0.927734 C 23.584 7.56836 35.6445 7.56836 44.873 -1.61133 L 56.6895 -13.4766 L 71.3379 -28.1738 L 83.2031 -39.9902 C 92.3828 -49.1699 92.3828 -61.2793 83.9355 -69.7754 C 75.3906 -78.2715 63.3301 -78.2715 54.1016 -69.0918 L 42.2852 -57.2266 L 27.6367 -42.5293 L 15.7715 -30.7129 C 6.5918 -21.5332 6.5918 -9.42383 15.0391 -0.927734 Z M 71.3867 -43.2129 L 57.3242 -57.2266 C 56.6895 -57.8613 56.0547 -58.4473 55.4199 -58.8867 L 59.8145 -63.2324 C 65.5273 -68.9941 73.0469 -69.9219 78.5645 -64.4043 C 84.0332 -58.9355 83.1543 -51.416 77.3926 -45.6543 L 73.0469 -41.3086 C 72.5586 -41.9434 72.0215 -42.5781 71.3867 -43.2129 Z M 52.5391 -51.3672 L 65.5273 -38.4277 C 67.2852 -36.6699 67.0898 -35.3516 65.2832 -33.5449 L 51.3184 -19.5801 C 49.5117 -17.7246 48.1934 -17.5781 46.4355 -19.3359 L 33.4961 -32.3242 C 31.7383 -34.082 31.8848 -35.4004 33.7402 -37.207 L 47.6562 -51.123 C 49.4629 -52.9297 50.7812 -53.125 52.5391 -51.3672 Z M 49.4629 -39.502 C 51.3672 -39.502 52.7832 -41.0156 52.7832 -42.7734 C 52.832 -44.5801 51.3184 -46.0938 49.5117 -46.0938 C 47.6562 -46.0938 46.2402 -44.5801 46.2402 -42.7246 C 46.2402 -41.0645 47.7051 -39.502 49.4629 -39.502 Z M 56.8359 -32.0801 C 58.6914 -32.0801 60.1562 -33.5938 60.1074 -35.4004 C 60.1074 -37.207 58.7402 -38.6719 56.7871 -38.6719 C 55.0781 -38.6719 53.5645 -37.1582 53.5645 -35.4492 C 53.5645 -33.5938 55.0293 -32.0801 56.8359 -32.0801 Z M 41.6504 -32.5684 C 43.1641 -32.2754 44.6289 -33.3496 44.9219 -34.7656 C 45.166 -36.377 44.1895 -37.8906 42.627 -38.1348 C 41.0645 -38.4277 39.5996 -37.4023 39.3555 -35.8398 C 39.0625 -34.375 40.0391 -32.8613 41.6504 -32.5684 Z M 48.9746 -25.1953 C 50.5371 -24.9023 51.9531 -25.9277 52.2461 -27.5391 C 52.5391 -28.9551 51.5137 -30.4688 50.0488 -30.7617 C 48.3887 -31.0059 46.9727 -30.0293 46.6797 -28.5156 C 46.3867 -27.002 47.4121 -25.4883 48.9746 -25.1953 Z M 20.4102 -6.29883 C 14.9414 -11.7676 15.8203 -19.2871 21.582 -25.0488 L 25.9277 -29.3945 C 26.416 -28.7598 26.9531 -28.125 27.5879 -27.5391 L 41.6504 -13.4766 C 42.2852 -12.8418 42.9199 -12.2559 43.5547 -11.8164 L 39.209 -7.4707 C 33.4473 -1.70898 25.9277 -0.78125 20.4102 -6.29883 Z"/>
  </g>
  <g id="Regular-S" transform="matrix(1 0 0 1 1400.87 696)">
   <path d="M 14.9414 -1.36719 C 23.1934 6.83594 34.6191 6.98242 43.7012 -2.05078 L 55.6641 -14.0625 L 70.3613 -28.7598 L 82.373 -40.7227 C 91.4062 -49.8047 91.2109 -61.2305 83.0078 -69.4824 C 74.7559 -77.6855 63.3301 -77.8809 54.248 -68.8477 L 42.2852 -56.8359 L 27.5879 -42.1387 L 15.5762 -30.127 C 6.54297 -21.0938 6.73828 -9.66797 14.9414 -1.36719 Z M 70.4102 -42.8223 L 56.3477 -56.8848 C 55.6152 -57.6172 54.8828 -58.2031 54.1504 -58.7402 L 59.1797 -63.7695 C 65.1367 -69.7266 72.8027 -70.459 78.418 -64.8926 C 84.0332 -59.2773 83.252 -51.6113 77.2949 -45.6543 L 72.2656 -40.625 C 71.7285 -41.3574 71.1426 -42.041 70.4102 -42.8223 Z M 52.3926 -51.5137 L 65.0391 -38.8672 C 67.0898 -36.7676 66.8945 -35.2051 64.7461 -33.0566 L 51.3184 -19.6777 C 49.2188 -17.4805 47.6074 -17.2852 45.5566 -19.3848 L 32.9102 -31.9824 C 30.8594 -34.082 31.0547 -35.6445 33.2031 -37.793 L 46.6309 -51.1719 C 48.7305 -53.3691 50.3418 -53.5645 52.3926 -51.5137 Z M 48.9258 -39.4531 C 50.8789 -39.4531 52.3438 -41.0156 52.3438 -42.8223 C 52.3926 -44.7266 50.8301 -46.2402 48.9746 -46.2402 C 47.1191 -46.2402 45.6055 -44.7266 45.6055 -42.7734 C 45.6055 -41.0645 47.168 -39.4531 48.9258 -39.4531 Z M 41.6504 -32.0801 C 43.5059 -32.0801 45.0195 -33.6426 45.0195 -35.4004 C 45.0195 -37.3047 43.5059 -38.8672 41.6504 -38.8672 C 39.6973 -38.8672 38.2324 -37.3047 38.2324 -35.4492 C 38.2324 -33.5938 39.6973 -32.0801 41.6504 -32.0801 Z M 56.3477 -32.0801 C 58.2031 -32.0801 59.7656 -33.5938 59.7168 -35.498 C 59.7168 -37.3047 58.252 -38.8672 56.2988 -38.8672 C 54.4922 -38.8672 52.9785 -37.2559 52.9785 -35.5469 C 52.9785 -33.5938 54.4434 -32.0801 56.3477 -32.0801 Z M 48.9746 -24.6582 C 50.8301 -24.6582 52.3438 -26.2207 52.3438 -28.125 C 52.3438 -29.8828 50.8301 -31.4453 49.0234 -31.4453 C 47.0703 -31.4453 45.5566 -29.9316 45.5566 -28.0762 C 45.5566 -26.2207 47.0703 -24.6582 48.9746 -24.6582 Z M 19.5312 -6.00586 C 13.916 -11.5723 14.6973 -19.2871 20.6543 -25.1953 L 25.6836 -30.2734 C 26.2207 -29.541 26.8066 -28.8086 27.5391 -28.0762 L 41.6016 -14.0137 C 42.334 -13.2812 43.0664 -12.6465 43.7988 -12.1582 L 38.7695 -7.08008 C 32.8125 -1.17188 25.1465 -0.390625 19.5312 -6.00586 Z"/>
  </g>
  <g id="Light-S" transform="matrix(1 0 0 1 1105.01 696)">
   <path d="M 14.5508 -1.80664 C 22.5586 6.15234 34.0332 5.9082 42.7246 -2.7832 L 54.1992 -14.3066 L 69.1895 -29.2969 L 80.7129 -40.7715 C 89.4043 -49.4629 89.5996 -60.9375 81.6406 -68.9453 C 73.6816 -76.9043 62.207 -76.6602 53.5156 -67.9688 L 42.041 -56.4453 L 27.0508 -41.4551 L 15.5273 -29.9805 C 6.83594 -21.2891 6.5918 -9.81445 14.5508 -1.80664 Z M 69.2383 -42.0898 L 54.834 -56.4941 C 53.9062 -57.4707 52.9297 -58.2031 52.002 -58.7402 L 57.3242 -64.0625 C 63.623 -70.4102 72.0215 -71.3867 78.125 -65.3809 C 84.1797 -59.375 83.1543 -50.8789 76.8066 -44.5801 L 71.4844 -39.2578 C 70.9473 -40.1855 70.2148 -41.1621 69.2383 -42.0898 Z M 51.6602 -52.4902 L 65.2344 -38.916 C 67.4805 -36.6211 67.2852 -34.9609 64.8926 -32.6172 L 50.8789 -18.6523 C 48.4863 -16.2598 46.875 -16.0156 44.5801 -18.2617 L 31.0059 -31.8359 C 28.7109 -34.1309 28.9551 -35.791 31.3477 -38.1348 L 45.3613 -52.1484 C 47.7539 -54.541 49.4141 -54.7363 51.6602 -52.4902 Z M 48.0957 -39.8438 C 49.9023 -39.8438 51.2207 -41.2598 51.2207 -42.9199 C 51.2695 -44.6289 49.8535 -46.0449 48.0957 -46.0449 C 46.3867 -46.0449 45.0195 -44.6289 45.0195 -42.8711 C 45.0195 -41.3086 46.4355 -39.8438 48.0957 -39.8438 Z M 40.6738 -32.2754 C 42.334 -32.2754 43.75 -33.7402 43.75 -35.3516 C 43.75 -37.1094 42.334 -38.5254 40.625 -38.5254 C 38.8672 -38.5254 37.5 -37.1094 37.5 -35.4004 C 37.5 -33.6914 38.8184 -32.2754 40.6738 -32.2754 Z M 55.6152 -32.2754 C 57.3242 -32.2754 58.7402 -33.6914 58.7402 -35.4492 C 58.7402 -37.1094 57.373 -38.5254 55.5664 -38.5254 C 53.9551 -38.5254 52.5391 -37.0605 52.5391 -35.498 C 52.5391 -33.6914 53.9062 -32.2754 55.6152 -32.2754 Z M 18.1152 -5.41992 C 12.0605 -11.377 13.0859 -19.873 19.4336 -26.1719 L 24.7559 -31.543 C 25.293 -30.5664 26.0254 -29.6387 27.002 -28.6621 L 41.4062 -14.2578 C 42.334 -13.2812 43.3105 -12.5488 44.2383 -12.0117 L 38.916 -6.68945 C 32.6172 -0.341797 24.2188 0.585938 18.1152 -5.41992 Z M 48.1445 -24.7559 C 49.8535 -24.7559 51.2207 -26.1719 51.2207 -27.9297 C 51.2207 -29.541 49.8535 -31.0059 48.1445 -31.0059 C 46.3379 -31.0059 45.0195 -29.5898 45.0195 -27.8809 C 45.0195 -26.1719 46.3379 -24.7559 48.1445 -24.7559 Z"/>
  </g>
  <g id="Thin-S" transform="matrix(1 0 0 1 809.45 696)">
   <path d="M 14.0625 -2.34375 C 21.7285 5.32227 33.3008 4.44336 41.5039 -3.80859 L 52.2949 -14.6484 L 67.6758 -30.0293 L 78.4668 -40.7715 C 86.7188 -49.0234 87.5 -60.5469 79.8828 -68.2129 C 72.2168 -75.8789 60.6934 -75.0488 52.4902 -66.7969 L 41.6992 -55.957 L 26.3184 -40.5762 L 15.4785 -29.834 C 7.27539 -21.582 6.44531 -10.0098 14.0625 -2.34375 Z M 67.7246 -41.2109 L 52.8809 -56.0059 C 51.5625 -57.3242 50.2441 -58.2031 48.9746 -58.6426 L 54.834 -64.502 C 61.6699 -71.3379 70.9473 -72.5586 77.6855 -66.0156 C 84.4238 -59.4727 83.0078 -50 76.1719 -43.1641 L 70.3125 -37.2559 C 69.9219 -38.5742 69.043 -39.8438 67.7246 -41.2109 Z M 50.6836 -53.8086 L 65.5273 -38.916 C 68.0176 -36.4746 67.7734 -34.668 65.0879 -32.0312 L 50.2441 -17.2363 C 47.6074 -14.5996 45.8496 -14.2578 43.3105 -16.7969 L 28.4668 -31.6406 C 25.9766 -34.1309 26.2207 -35.9375 28.9062 -38.5742 L 43.75 -53.3691 C 46.3867 -56.0059 48.1934 -56.2988 50.6836 -53.8086 Z M 46.9727 -40.332 C 48.5352 -40.332 49.707 -41.5527 49.7559 -43.0176 C 49.8047 -44.5312 48.5352 -45.8008 46.9727 -45.8008 C 45.5078 -45.8008 44.2871 -44.5312 44.2871 -42.9688 C 44.2871 -41.6016 45.5566 -40.332 46.9727 -40.332 Z M 39.3555 -32.5195 C 40.8203 -32.5195 42.041 -33.8379 42.041 -35.2539 C 42.041 -36.8164 40.8203 -38.0859 39.3555 -38.0859 C 37.7441 -38.0859 36.5723 -36.8164 36.5723 -35.3027 C 36.5723 -33.7891 37.6953 -32.5195 39.3555 -32.5195 Z M 54.6875 -32.5684 C 56.2012 -32.5684 57.4707 -33.8379 57.4219 -35.3516 C 57.4219 -36.8652 56.25 -38.0859 54.6875 -38.0859 C 53.2227 -38.0859 51.9531 -36.8164 51.9531 -35.4004 C 51.9531 -33.8379 53.1738 -32.5684 54.6875 -32.5684 Z M 16.3086 -4.58984 C 9.57031 -11.1328 10.9375 -20.6055 17.8223 -27.4414 L 23.6816 -33.3496 C 24.0723 -32.0312 24.9512 -30.7617 26.2695 -29.3945 L 41.1133 -14.5996 C 42.4316 -13.2812 43.7012 -12.4023 45.0195 -12.0117 L 39.1602 -6.10352 C 32.3242 0.732422 22.998 1.95312 16.3086 -4.58984 Z M 47.0215 -24.8535 C 48.4863 -24.8535 49.7559 -26.123 49.7559 -27.6855 C 49.7559 -29.0527 48.4863 -30.3711 47.0215 -30.3711 C 45.4102 -30.3711 44.2383 -29.1016 44.2383 -27.6367 C 44.2383 -26.123 45.459 -24.8535 47.0215 -24.8535 Z"/>
  </g>
  <g id="Ultralight-S" transform="matrix(1 0 0 1 513.324 696)">
   <path d="M 13.8184 -2.63672 C 21.2891 4.88281 32.9102 3.71094 40.8691 -4.3457 L 51.2695 -14.7949 L 66.8457 -30.3711 L 77.3438 -40.8203 C 85.3516 -48.7793 86.4258 -60.3516 78.9551 -67.8711 C 71.4844 -75.3418 59.9121 -74.2188 51.9531 -66.2109 L 41.5039 -55.7129 L 25.9277 -40.1367 L 15.4785 -29.6875 C 7.4707 -21.7285 6.34766 -10.1074 13.8184 -2.63672 Z M 66.8945 -40.7227 L 51.8555 -55.7617 C 50.293 -57.3242 48.7793 -58.252 47.3145 -58.3984 L 53.5645 -64.6973 C 60.6445 -71.8262 70.4102 -73.1445 77.4902 -66.3086 C 84.5215 -59.5215 82.959 -49.5117 75.8301 -42.3828 L 69.5801 -36.084 C 69.3848 -37.6465 68.5059 -39.1602 66.8945 -40.7227 Z M 50.1465 -54.4922 L 65.6738 -38.9648 C 68.2617 -36.3281 68.0176 -34.5215 65.1855 -31.6895 L 49.9023 -16.5039 C 47.1191 -13.7207 45.3125 -13.3789 42.6758 -16.0645 L 27.1973 -31.543 C 24.5117 -34.1797 24.8047 -36.0352 27.6367 -38.8184 L 42.9199 -54.0039 C 45.7031 -56.7871 47.5586 -57.0801 50.1465 -54.4922 Z M 46.3867 -40.5762 C 47.8516 -40.5762 48.9258 -41.6992 48.9746 -43.1152 C 49.0234 -44.4824 47.8516 -45.7031 46.3867 -45.7031 C 45.0195 -45.7031 43.8965 -44.4824 43.8965 -43.0664 C 43.8965 -41.748 45.0684 -40.5762 46.3867 -40.5762 Z M 38.6719 -32.666 C 39.9902 -32.666 41.2109 -33.9355 41.2109 -35.2051 C 41.2109 -36.6699 39.9902 -37.8418 38.6719 -37.8418 C 37.1582 -37.8418 36.084 -36.6699 36.084 -35.2539 C 36.084 -33.8867 37.1094 -32.666 38.6719 -32.666 Z M 54.1992 -32.7148 C 55.6152 -32.7148 56.7871 -33.9355 56.7871 -35.3027 C 56.7871 -36.7188 55.6152 -37.8418 54.1992 -37.8418 C 52.832 -37.8418 51.6602 -36.6699 51.6602 -35.3516 C 51.6602 -33.9355 52.7832 -32.7148 54.1992 -32.7148 Z M 15.332 -4.19922 C 8.30078 -11.0352 9.86328 -20.9961 16.9922 -28.125 L 23.291 -34.4238 C 23.4375 -32.9102 24.3164 -31.3965 25.8789 -29.7852 L 40.918 -14.7461 C 42.5293 -13.1836 44.043 -12.3047 45.5566 -12.1094 L 39.2578 -5.81055 C 32.1289 1.26953 22.4121 2.63672 15.332 -4.19922 Z M 46.4355 -24.9023 C 47.8027 -24.9023 48.9746 -26.0742 48.9746 -27.5391 C 48.9746 -28.8086 47.8027 -30.0293 46.4355 -30.0293 C 44.9219 -30.0293 43.8477 -28.8574 43.8477 -27.4902 C 43.8477 -26.0742 44.9707 -24.9023 46.4355 -24.9023 Z"/>
  </g>
 </g>
</svg>
