<?xml version="1.0" encoding="UTF-8"?>
<!--Generator: Apple Native CoreSVG 123-->
<!DOCTYPE svg
PUBLIC "-//W3C//DTD SVG 1.1//EN"
       "http://www.w3.org/Graphics/SVG/1.1/DTD/svg11.dtd">
<svg version="1.1" xmlns="http://www.w3.org/2000/svg" xmlns:xlink="http://www.w3.org/1999/xlink" width="3300" height="2200">
 <!--glyph: "uni10039A.medium", point size: 100.000000, font version: "Version 15.0d7e11", template writer version: "5"-->
 <g id="Notes">
  <rect height="2200" id="artboard" style="fill:white;opacity:1" width="3300" x="0" y="0"/>
  <line id="" style="fill:none;stroke:black;opacity:1;stroke-width:0.5;" x1="263" x2="3036" y1="292" y2="292"/>
  <text style="stroke:none;fill:black;font-family:-apple-system,&quot;SF Pro Display&quot;,&quot;SF Pro Text&quot;,Helvetica,sans-serif;font-weight:bold;" transform="matrix(1 0 0 1 263 322)">Weight/Scale Variations</text>
  <text style="stroke:none;fill:black;font-family:-apple-system,&quot;SF Pro Display&quot;,&quot;SF Pro Text&quot;,Helvetica,sans-serif;text-anchor:middle;" transform="matrix(1 0 0 1 559.711 322)">Ultralight</text>
  <text style="stroke:none;fill:black;font-family:-apple-system,&quot;SF Pro Display&quot;,&quot;SF Pro Text&quot;,Helvetica,sans-serif;text-anchor:middle;" transform="matrix(1 0 0 1 856.422 322)">Thin</text>
  <text style="stroke:none;fill:black;font-family:-apple-system,&quot;SF Pro Display&quot;,&quot;SF Pro Text&quot;,Helvetica,sans-serif;text-anchor:middle;" transform="matrix(1 0 0 1 1153.13 322)">Light</text>
  <text style="stroke:none;fill:black;font-family:-apple-system,&quot;SF Pro Display&quot;,&quot;SF Pro Text&quot;,Helvetica,sans-serif;text-anchor:middle;" transform="matrix(1 0 0 1 1449.84 322)">Regular</text>
  <text style="stroke:none;fill:black;font-family:-apple-system,&quot;SF Pro Display&quot;,&quot;SF Pro Text&quot;,Helvetica,sans-serif;text-anchor:middle;" transform="matrix(1 0 0 1 1746.56 322)">Medium</text>
  <text style="stroke:none;fill:black;font-family:-apple-system,&quot;SF Pro Display&quot;,&quot;SF Pro Text&quot;,Helvetica,sans-serif;text-anchor:middle;" transform="matrix(1 0 0 1 2043.27 322)">Semibold</text>
  <text style="stroke:none;fill:black;font-family:-apple-system,&quot;SF Pro Display&quot;,&quot;SF Pro Text&quot;,Helvetica,sans-serif;text-anchor:middle;" transform="matrix(1 0 0 1 2339.98 322)">Bold</text>
  <text style="stroke:none;fill:black;font-family:-apple-system,&quot;SF Pro Display&quot;,&quot;SF Pro Text&quot;,Helvetica,sans-serif;text-anchor:middle;" transform="matrix(1 0 0 1 2636.69 322)">Heavy</text>
  <text style="stroke:none;fill:black;font-family:-apple-system,&quot;SF Pro Display&quot;,&quot;SF Pro Text&quot;,Helvetica,sans-serif;text-anchor:middle;" transform="matrix(1 0 0 1 2933.4 322)">Black</text>
  <line id="" style="fill:none;stroke:black;opacity:1;stroke-width:0.5;" x1="263" x2="3036" y1="1903" y2="1903"/>
  <g id="" transform="matrix(1 0 0 1 263 1933)">
   <path d="M 9.24805 0.830078 C 13.5547 0.830078 17.1387 -2.74414 17.1387 -7.05078 C 17.1387 -11.3574 13.5449 -14.9316 9.23828 -14.9316 C 4.94141 -14.9316 1.36719 -11.3574 1.36719 -7.05078 C 1.36719 -2.74414 4.95117 0.830078 9.24805 0.830078 Z M 9.24805 -0.654297 C 5.70312 -0.654297 2.87109 -3.49609 2.87109 -7.05078 C 2.87109 -10.6055 5.69336 -13.4473 9.23828 -13.4473 C 12.793 -13.4473 15.6348 -10.6055 15.6445 -7.05078 C 15.6543 -3.49609 12.8027 -0.654297 9.24805 -0.654297 Z M 9.22852 -3.42773 C 9.69727 -3.42773 9.9707 -3.74023 9.9707 -4.25781 L 9.9707 -6.31836 L 12.1973 -6.31836 C 12.6953 -6.31836 13.0371 -6.57227 13.0371 -7.04102 C 13.0371 -7.51953 12.7148 -7.7832 12.1973 -7.7832 L 9.9707 -7.7832 L 9.9707 -10.0098 C 9.9707 -10.5273 9.69727 -10.8496 9.22852 -10.8496 C 8.75977 -10.8496 8.50586 -10.5078 8.50586 -10.0098 L 8.50586 -7.7832 L 6.29883 -7.7832 C 5.78125 -7.7832 5.44922 -7.51953 5.44922 -7.04102 C 5.44922 -6.57227 5.80078 -6.31836 6.29883 -6.31836 L 8.50586 -6.31836 L 8.50586 -4.25781 C 8.50586 -3.75977 8.75977 -3.42773 9.22852 -3.42773 Z"/>
  </g>
  <g id="" transform="matrix(1 0 0 1 281.506 1933)">
   <path d="M 11.709 2.91016 C 17.1582 2.91016 21.6699 -1.60156 21.6699 -7.05078 C 21.6699 -12.4902 17.1484 -17.0117 11.6992 -17.0117 C 6.25977 -17.0117 1.74805 -12.4902 1.74805 -7.05078 C 1.74805 -1.60156 6.26953 2.91016 11.709 2.91016 Z M 11.709 1.25 C 7.09961 1.25 3.41797 -2.44141 3.41797 -7.05078 C 3.41797 -11.6504 7.08984 -15.3516 11.6992 -15.3516 C 16.3086 -15.3516 20 -11.6504 20.0098 -7.05078 C 20.0195 -2.44141 16.3184 1.25 11.709 1.25 Z M 11.6895 -2.41211 C 12.207 -2.41211 12.5195 -2.77344 12.5195 -3.33984 L 12.5195 -6.23047 L 15.5762 -6.23047 C 16.123 -6.23047 16.5039 -6.51367 16.5039 -7.03125 C 16.5039 -7.55859 16.1426 -7.86133 15.5762 -7.86133 L 12.5195 -7.86133 L 12.5195 -10.9277 C 12.5195 -11.5039 12.207 -11.8555 11.6895 -11.8555 C 11.1719 -11.8555 10.8789 -11.4844 10.8789 -10.9277 L 10.8789 -7.86133 L 7.83203 -7.86133 C 7.26562 -7.86133 6.89453 -7.55859 6.89453 -7.03125 C 6.89453 -6.51367 7.28516 -6.23047 7.83203 -6.23047 L 10.8789 -6.23047 L 10.8789 -3.33984 C 10.8789 -2.79297 11.1719 -2.41211 11.6895 -2.41211 Z"/>
  </g>
  <g id="" transform="matrix(1 0 0 1 304.924 1933)">
   <path d="M 14.9707 5.67383 C 21.9336 5.67383 27.6953 -0.078125 27.6953 -7.04102 C 27.6953 -14.0039 21.9238 -19.7559 14.9609 -19.7559 C 8.00781 -19.7559 2.25586 -14.0039 2.25586 -7.04102 C 2.25586 -0.078125 8.01758 5.67383 14.9707 5.67383 Z M 14.9707 3.85742 C 8.93555 3.85742 4.08203 -1.00586 4.08203 -7.04102 C 4.08203 -13.0762 8.92578 -17.9395 14.9609 -17.9395 C 21.0059 -17.9395 25.8594 -13.0762 25.8691 -7.04102 C 25.8789 -1.00586 21.0156 3.85742 14.9707 3.85742 Z M 14.9512 -1.06445 C 15.5176 -1.06445 15.8691 -1.45508 15.8691 -2.06055 L 15.8691 -6.13281 L 20.1074 -6.13281 C 20.6934 -6.13281 21.1133 -6.46484 21.1133 -7.02148 C 21.1133 -7.59766 20.7227 -7.93945 20.1074 -7.93945 L 15.8691 -7.93945 L 15.8691 -12.1875 C 15.8691 -12.8027 15.5176 -13.1934 14.9512 -13.1934 C 14.3848 -13.1934 14.0625 -12.7832 14.0625 -12.1875 L 14.0625 -7.93945 L 9.83398 -7.93945 C 9.21875 -7.93945 8.80859 -7.59766 8.80859 -7.02148 C 8.80859 -6.46484 9.23828 -6.13281 9.83398 -6.13281 L 14.0625 -6.13281 L 14.0625 -2.06055 C 14.0625 -1.47461 14.3848 -1.06445 14.9512 -1.06445 Z"/>
  </g>
  <text style="stroke:none;fill:black;font-family:-apple-system,&quot;SF Pro Display&quot;,&quot;SF Pro Text&quot;,Helvetica,sans-serif;font-weight:bold;" transform="matrix(1 0 0 1 263 1953)">Design Variations</text>
  <text style="stroke:none;fill:black;font-family:-apple-system,&quot;SF Pro Display&quot;,&quot;SF Pro Text&quot;,Helvetica,sans-serif;" transform="matrix(1 0 0 1 263 1971)">Symbols are supported in up to nine weights and three scales.</text>
  <text style="stroke:none;fill:black;font-family:-apple-system,&quot;SF Pro Display&quot;,&quot;SF Pro Text&quot;,Helvetica,sans-serif;" transform="matrix(1 0 0 1 263 1989)">For optimal layout with text and other symbols, vertically align</text>
  <text style="stroke:none;fill:black;font-family:-apple-system,&quot;SF Pro Display&quot;,&quot;SF Pro Text&quot;,Helvetica,sans-serif;" transform="matrix(1 0 0 1 263 2007)">symbols with the adjacent text.</text>
  <rect height="14" id="" style="fill:#00AEEF;stroke:none;opacity:0.4;" width="3" x="776" y="1919"/>
  <g id="" transform="matrix(1 0 0 1 779 1933)">
   <path d="M 10.5273 0 L 12.373 0 L 7.17773 -14.0918 L 5.43945 -14.0918 L 0.244141 0 L 2.08984 0 L 3.50586 -4.0332 L 9.11133 -4.0332 Z M 6.2793 -11.9531 L 6.33789 -11.9531 L 8.59375 -5.52734 L 4.02344 -5.52734 Z"/>
  </g>
  <rect height="14" id="" style="fill:#00AEEF;stroke:none;opacity:0.4;" width="3" x="791.617" y="1919"/>
  <text style="stroke:none;fill:black;font-family:-apple-system,&quot;SF Pro Display&quot;,&quot;SF Pro Text&quot;,Helvetica,sans-serif;font-weight:bold;" transform="matrix(1 0 0 1 776 1953)">Margins</text>
  <text style="stroke:none;fill:black;font-family:-apple-system,&quot;SF Pro Display&quot;,&quot;SF Pro Text&quot;,Helvetica,sans-serif;" transform="matrix(1 0 0 1 776 1971)">Leading and trailing margins on the left and right side of each symbol</text>
  <text style="stroke:none;fill:black;font-family:-apple-system,&quot;SF Pro Display&quot;,&quot;SF Pro Text&quot;,Helvetica,sans-serif;" transform="matrix(1 0 0 1 776 1989)">can be adjusted by modifying the width of the blue rectangles.</text>
  <text style="stroke:none;fill:black;font-family:-apple-system,&quot;SF Pro Display&quot;,&quot;SF Pro Text&quot;,Helvetica,sans-serif;" transform="matrix(1 0 0 1 776 2007)">Modifications are automatically applied proportionally to all</text>
  <text style="stroke:none;fill:black;font-family:-apple-system,&quot;SF Pro Display&quot;,&quot;SF Pro Text&quot;,Helvetica,sans-serif;" transform="matrix(1 0 0 1 776 2025)">scales and weights.</text>
  <g id="" transform="matrix(1 0 0 1 1289 1933)">
   <path d="M 2.83203 3.11523 L 4.375 4.6582 C 5.22461 5.48828 6.19141 5.41992 7.06055 4.46289 L 17.2754 -6.66016 C 17.7051 -6.36719 18.0957 -6.37695 18.5645 -6.47461 L 19.6094 -6.68945 L 20.3027 -5.99609 L 20.2539 -5.47852 C 20.1855 -4.95117 20.3516 -4.53125 20.8496 -4.0332 L 21.6602 -3.22266 C 22.168 -2.71484 22.8223 -2.68555 23.3008 -3.16406 L 26.5527 -6.41602 C 27.0312 -6.89453 27.0117 -7.54883 26.5039 -8.05664 L 25.6836 -8.87695 C 25.1855 -9.375 24.7754 -9.55078 24.2383 -9.47266 L 23.7109 -9.41406 L 23.0566 -10.0781 L 23.3398 -11.2207 C 23.4863 -11.7871 23.3398 -12.2559 22.7148 -12.8613 L 20.3027 -15.2539 C 16.7578 -18.7793 12.2266 -18.6719 9.11133 -15.5371 C 8.69141 -15.1074 8.64258 -14.5215 8.91602 -14.0918 C 9.15039 -13.7207 9.62891 -13.4961 10.2734 -13.6621 C 11.7871 -14.043 13.3008 -13.9258 14.7852 -12.9199 L 14.1602 -11.3379 C 13.9258 -10.752 13.9453 -10.2734 14.1797 -9.83398 L 3.01758 0.439453 C 2.08008 1.30859 1.97266 2.25586 2.83203 3.11523 Z M 10.6738 -15.1465 C 13.3398 -17.1387 16.6504 -16.8262 19.0527 -14.4141 L 21.6797 -11.8066 C 21.9141 -11.5723 21.9434 -11.3867 21.8848 -11.0938 L 21.5039 -9.53125 L 23.0762 -7.95898 L 24.043 -8.04688 C 24.3262 -8.07617 24.4141 -8.05664 24.6387 -7.83203 L 25.2637 -7.20703 L 22.5098 -4.46289 L 21.8848 -5.07812 C 21.6602 -5.30273 21.6406 -5.40039 21.6699 -5.68359 L 21.7578 -6.64062 L 20.1953 -8.20312 L 18.5742 -7.89062 C 18.291 -7.83203 18.1445 -7.83203 17.9102 -8.07617 L 15.7324 -10.2539 C 15.5078 -10.4883 15.4785 -10.625 15.6055 -10.9473 L 16.5527 -13.2227 C 14.9512 -14.7559 12.8418 -15.6055 10.8008 -14.9512 C 10.7129 -14.9219 10.6445 -14.9414 10.6152 -14.9805 C 10.5859 -15.0293 10.5859 -15.0781 10.6738 -15.1465 Z M 4.10156 2.41211 C 3.61328 1.91406 3.78906 1.61133 4.12109 1.30859 L 15.0781 -8.80859 L 16.3086 -7.57812 L 6.15234 3.34961 C 5.84961 3.68164 5.46875 3.7793 5.06836 3.37891 Z"/>
  </g>
  <text style="stroke:none;fill:black;font-family:-apple-system,&quot;SF Pro Display&quot;,&quot;SF Pro Text&quot;,Helvetica,sans-serif;font-weight:bold;" transform="matrix(1 0 0 1 1289 1953)">Exporting</text>
  <text style="stroke:none;fill:black;font-family:-apple-system,&quot;SF Pro Display&quot;,&quot;SF Pro Text&quot;,Helvetica,sans-serif;" transform="matrix(1 0 0 1 1289 1971)">Symbols should be outlined when exporting to ensure the</text>
  <text style="stroke:none;fill:black;font-family:-apple-system,&quot;SF Pro Display&quot;,&quot;SF Pro Text&quot;,Helvetica,sans-serif;" transform="matrix(1 0 0 1 1289 1989)">design is preserved when submitting to Xcode.</text>
  <text id="template-version" style="stroke:none;fill:black;font-family:-apple-system,&quot;SF Pro Display&quot;,&quot;SF Pro Text&quot;,Helvetica,sans-serif;text-anchor:end;" transform="matrix(1 0 0 1 3036 1933)">Template v.1.0</text>
  <text style="stroke:none;fill:black;font-family:-apple-system,&quot;SF Pro Display&quot;,&quot;SF Pro Text&quot;,Helvetica,sans-serif;text-anchor:end;" transform="matrix(1 0 0 1 3036 1951)">Generated from printer</text>
  <text style="stroke:none;fill:black;font-family:-apple-system,&quot;SF Pro Display&quot;,&quot;SF Pro Text&quot;,Helvetica,sans-serif;text-anchor:end;" transform="matrix(1 0 0 1 3036 1969)">Typeset at 100 points</text>
  <text style="stroke:none;fill:black;font-family:-apple-system,&quot;SF Pro Display&quot;,&quot;SF Pro Text&quot;,Helvetica,sans-serif;" transform="matrix(1 0 0 1 263 726)">Small</text>
  <text style="stroke:none;fill:black;font-family:-apple-system,&quot;SF Pro Display&quot;,&quot;SF Pro Text&quot;,Helvetica,sans-serif;" transform="matrix(1 0 0 1 263 1156)">Medium</text>
  <text style="stroke:none;fill:black;font-family:-apple-system,&quot;SF Pro Display&quot;,&quot;SF Pro Text&quot;,Helvetica,sans-serif;" transform="matrix(1 0 0 1 263 1586)">Large</text>
 </g>
 <g id="Guides">
  <g id="H-reference" style="fill:#27AAE1;stroke:none;" transform="matrix(1 0 0 1 339 696)">
   <path d="M 54.9316 0 L 57.666 0 L 30.5664 -70.459 L 28.0762 -70.459 L 0.976562 0 L 3.66211 0 L 12.9395 -24.4629 L 45.7031 -24.4629 Z M 29.1992 -67.0898 L 29.4434 -67.0898 L 44.8242 -26.709 L 13.8184 -26.709 Z"/>
  </g>
  <line id="Baseline-S" style="fill:none;stroke:#27AAE1;opacity:1;stroke-width:0.577;" x1="263" x2="3036" y1="696" y2="696"/>
  <line id="Capline-S" style="fill:none;stroke:#27AAE1;opacity:1;stroke-width:0.577;" x1="263" x2="3036" y1="625.541" y2="625.541"/>
  <g id="H-reference" style="fill:#27AAE1;stroke:none;" transform="matrix(1 0 0 1 339 1126)">
   <path d="M 54.9316 0 L 57.666 0 L 30.5664 -70.459 L 28.0762 -70.459 L 0.976562 0 L 3.66211 0 L 12.9395 -24.4629 L 45.7031 -24.4629 Z M 29.1992 -67.0898 L 29.4434 -67.0898 L 44.8242 -26.709 L 13.8184 -26.709 Z"/>
  </g>
  <line id="Baseline-M" style="fill:none;stroke:#27AAE1;opacity:1;stroke-width:0.577;" x1="263" x2="3036" y1="1126" y2="1126"/>
  <line id="Capline-M" style="fill:none;stroke:#27AAE1;opacity:1;stroke-width:0.577;" x1="263" x2="3036" y1="1055.54" y2="1055.54"/>
  <g id="H-reference" style="fill:#27AAE1;stroke:none;" transform="matrix(1 0 0 1 339 1556)">
   <path d="M 54.9316 0 L 57.666 0 L 30.5664 -70.459 L 28.0762 -70.459 L 0.976562 0 L 3.66211 0 L 12.9395 -24.4629 L 45.7031 -24.4629 Z M 29.1992 -67.0898 L 29.4434 -67.0898 L 44.8242 -26.709 L 13.8184 -26.709 Z"/>
  </g>
  <line id="Baseline-L" style="fill:none;stroke:#27AAE1;opacity:1;stroke-width:0.577;" x1="263" x2="3036" y1="1556" y2="1556"/>
  <line id="Capline-L" style="fill:none;stroke:#27AAE1;opacity:1;stroke-width:0.577;" x1="263" x2="3036" y1="1485.54" y2="1485.54"/>
  <rect height="119.336" id="left-margin" style="fill:#00AEEF;stroke:none;opacity:0.4;" width="12.4512" x="1382.24" y="1030.79"/>
  <rect height="119.336" id="right-margin" style="fill:#00AEEF;stroke:none;opacity:0.4;" width="12.4512" x="1505" y="1030.79"/>
 </g>
 <g id="Symbols">
  <g id="Black-L" transform="matrix(1 0 0 1 2842.26 1556)">
   <path d="M 39.4531 15.7715 L 45.3613 15.7715 L 45.3613 19.4336 C 45.3613 31.5918 51.0742 37.207 63.0859 37.207 L 119.141 37.207 C 131.201 37.207 136.914 31.5918 136.914 19.4336 L 136.914 15.7715 L 142.773 15.7715 C 157.715 15.7715 166.211 7.37305 166.211 -7.51953 L 166.211 -62.1094 C 166.211 -77.002 157.715 -85.4004 142.773 -85.4004 L 138.623 -85.4004 L 138.623 -88.6719 C 138.623 -103.369 131.299 -110.449 116.846 -110.449 L 65.4297 -110.449 C 51.1719 -110.449 43.6523 -103.369 43.6523 -88.6719 L 43.6523 -85.4004 L 39.4531 -85.4004 C 24.7559 -85.4004 16.0645 -77.002 16.0645 -62.1094 L 16.0645 -7.51953 C 16.0645 7.37305 24.5605 15.7715 39.4531 15.7715 Z M 61.4258 -90.2344 C 61.4258 -93.0664 63.0859 -94.6289 65.8203 -94.6289 L 116.455 -94.6289 C 119.189 -94.6289 120.85 -93.0664 120.85 -90.2344 L 120.85 -85.4004 L 61.4258 -85.4004 Z M 39.8438 -1.31836 C 36.084 -1.31836 33.9844 -3.41797 33.9844 -7.17773 L 33.9844 -62.4023 C 33.9844 -66.1621 36.084 -68.3105 39.8438 -68.3105 L 142.432 -68.3105 C 146.191 -68.3105 148.291 -66.1621 148.291 -62.4023 L 148.291 -7.17773 C 148.291 -3.41797 146.191 -1.31836 142.432 -1.31836 L 136.914 -1.31836 L 136.914 -30.0293 C 136.914 -42.1875 131.201 -47.8027 119.141 -47.8027 L 63.0859 -47.8027 C 51.2207 -47.8027 45.3613 -42.1875 45.3613 -30.0293 L 45.3613 -1.31836 Z M 64.209 21.3379 C 62.5488 21.3379 61.5234 20.3613 61.5234 18.6523 L 61.5234 -29.1992 C 61.5234 -30.9082 62.5488 -31.8359 64.209 -31.8359 L 118.066 -31.8359 C 119.727 -31.8359 120.752 -30.9082 120.752 -29.1992 L 120.752 18.6523 C 120.752 20.3613 119.727 21.3379 118.066 21.3379 Z M 74.0234 -11.1328 L 108.35 -11.1328 C 110.938 -11.1328 112.891 -13.1348 112.891 -15.7227 C 112.891 -18.2129 110.938 -20.166 108.35 -20.166 L 74.0234 -20.166 C 71.3867 -20.166 69.4824 -18.2129 69.4824 -15.7227 C 69.4824 -13.1348 71.3867 -11.1328 74.0234 -11.1328 Z M 74.0234 9.57031 L 108.35 9.57031 C 110.938 9.57031 112.891 7.61719 112.891 5.12695 C 112.891 2.58789 110.938 0.537109 108.35 0.537109 L 74.0234 0.537109 C 71.3867 0.537109 69.4824 2.58789 69.4824 5.12695 C 69.4824 7.61719 71.3867 9.57031 74.0234 9.57031 Z"/>
  </g>
  <g id="Heavy-L" transform="matrix(1 0 0 1 2546.7 1556)">
   <path d="M 38.1836 15.332 L 44.3848 15.332 L 44.3848 19.8242 C 44.3848 31.1523 49.707 36.2793 60.8398 36.2793 L 119.141 36.2793 C 130.273 36.2793 135.596 31.1523 135.596 19.8242 L 135.596 15.332 L 141.797 15.332 C 155.957 15.332 163.916 7.51953 163.916 -6.64062 L 163.916 -62.2559 C 163.916 -76.4648 155.957 -84.2773 141.797 -84.2773 L 137.012 -84.2773 L 137.012 -87.793 C 137.012 -101.758 130.078 -108.398 116.357 -108.398 L 63.623 -108.398 C 50.1953 -108.398 42.9688 -101.758 42.9688 -87.793 L 42.9688 -84.2773 L 38.1836 -84.2773 C 24.3164 -84.2773 16.0645 -76.4648 16.0645 -62.2559 L 16.0645 -6.64062 C 16.0645 7.51953 24.0234 15.332 38.1836 15.332 Z M 58.4961 -89.0625 C 58.4961 -92.5781 60.4004 -94.4336 63.8672 -94.4336 L 116.113 -94.4336 C 119.531 -94.4336 121.436 -92.5781 121.436 -89.0625 L 121.436 -84.2773 L 58.4961 -84.2773 Z M 38.4277 0.341797 C 34.082 0.341797 31.7871 -1.95312 31.7871 -6.29883 L 31.7871 -62.5977 C 31.7871 -66.8945 34.082 -69.2871 38.4277 -69.2871 L 141.553 -69.2871 C 145.85 -69.2871 148.193 -66.8945 148.193 -62.5977 L 148.193 -6.29883 C 148.193 -1.95312 145.85 0.341797 141.553 0.341797 L 135.596 0.341797 L 135.596 -30.5176 C 135.596 -41.8457 130.273 -46.9727 119.141 -46.9727 L 60.8398 -46.9727 C 49.8535 -46.9727 44.3848 -41.8457 44.3848 -30.5176 L 44.3848 0.341797 Z M 62.2559 22.2168 C 59.9609 22.2168 58.7402 21.0938 58.7402 18.75 L 58.7402 -29.3945 C 58.7402 -31.7383 59.9609 -32.9102 62.2559 -32.9102 L 117.725 -32.9102 C 120.02 -32.9102 121.191 -31.7383 121.191 -29.3945 L 121.191 18.75 C 121.191 21.0938 120.02 22.2168 117.725 22.2168 Z M 71.5332 -11.5723 L 108.545 -11.5723 C 110.986 -11.5723 112.793 -13.4766 112.793 -15.8691 C 112.793 -18.2129 110.986 -20.0195 108.545 -20.0195 L 71.5332 -20.0195 C 69.043 -20.0195 67.2363 -18.2129 67.2363 -15.8691 C 67.2363 -13.4766 69.043 -11.5723 71.5332 -11.5723 Z M 71.5332 9.47266 L 108.545 9.47266 C 110.986 9.47266 112.793 7.66602 112.793 5.27344 C 112.793 2.88086 110.986 0.976562 108.545 0.976562 L 71.5332 0.976562 C 69.043 0.976562 67.2363 2.88086 67.2363 5.27344 C 67.2363 7.66602 69.043 9.47266 71.5332 9.47266 Z"/>
  </g>
  <g id="Bold-L" transform="matrix(1 0 0 1 2251.28 1556)">
   <path d="M 36.7188 14.8438 L 43.2617 14.8438 L 43.2617 20.2637 C 43.2617 30.6152 48.1934 35.2539 58.3008 35.2539 L 119.092 35.2539 C 129.248 35.2539 134.131 30.6152 134.131 20.2637 L 134.131 14.8438 L 140.674 14.8438 C 154.004 14.8438 161.328 7.66602 161.328 -5.66406 L 161.328 -62.5 C 161.328 -75.8301 154.004 -82.959 140.674 -82.959 L 135.156 -82.959 L 135.156 -86.7676 C 135.156 -99.9023 128.662 -106.055 115.82 -106.055 L 61.5723 -106.055 C 49.1211 -106.055 42.2363 -99.9023 42.2363 -86.7676 L 42.2363 -82.959 L 36.7188 -82.959 C 23.7305 -82.959 16.0645 -75.8301 16.0645 -62.5 L 16.0645 -5.66406 C 16.0645 7.66602 23.3887 14.8438 36.7188 14.8438 Z M 55.2734 -87.793 C 55.2734 -92.0898 57.4707 -94.1895 61.7188 -94.1895 L 115.723 -94.1895 C 119.922 -94.1895 122.119 -92.0898 122.119 -87.793 L 122.119 -82.959 L 55.2734 -82.959 Z M 36.8652 2.24609 C 31.9336 2.24609 29.3457 -0.341797 29.3457 -5.32227 L 29.3457 -62.8418 C 29.3457 -67.7734 31.9336 -70.3613 36.8652 -70.3613 L 140.527 -70.3613 C 145.508 -70.3613 148.047 -67.7734 148.047 -62.8418 L 148.047 -5.32227 C 148.047 -0.341797 145.508 2.24609 140.527 2.24609 L 134.131 2.24609 L 134.131 -31.0547 C 134.131 -41.4062 129.248 -46.0449 119.092 -46.0449 L 58.3008 -46.0449 C 48.3887 -46.0449 43.2617 -41.4062 43.2617 -31.0547 L 43.2617 2.24609 Z M 60.0586 23.2422 C 57.1289 23.2422 55.6641 21.875 55.6641 18.8477 L 55.6641 -29.6387 C 55.6641 -32.6172 57.1289 -34.0332 60.0586 -34.0332 L 117.334 -34.0332 C 120.312 -34.0332 121.729 -32.6172 121.729 -29.6387 L 121.729 18.8477 C 121.729 21.875 120.312 23.2422 117.334 23.2422 Z M 68.75 -12.0117 L 108.789 -12.0117 C 111.035 -12.0117 112.744 -13.7695 112.744 -16.0156 C 112.744 -18.2129 111.035 -19.9219 108.789 -19.9219 L 68.75 -19.9219 C 66.4062 -19.9219 64.7461 -18.2129 64.7461 -16.0156 C 64.7461 -13.7695 66.4062 -12.0117 68.75 -12.0117 Z M 68.75 9.375 L 108.789 9.375 C 111.035 9.375 112.744 7.66602 112.744 5.46875 C 112.744 3.22266 111.035 1.46484 108.789 1.46484 L 68.75 1.46484 C 66.4062 1.46484 64.7461 3.22266 64.7461 5.46875 C 64.7461 7.66602 66.4062 9.375 68.75 9.375 Z"/>
  </g>
  <g id="Semibold-L" transform="matrix(1 0 0 1 1955.45 1556)">
   <path d="M 35.7422 14.502 L 42.5293 14.502 L 42.5293 20.5078 C 42.5293 30.2246 47.1191 34.5215 56.543 34.5215 L 119.092 34.5215 C 128.516 34.5215 133.105 30.2246 133.105 20.5078 L 133.105 14.502 L 139.893 14.502 C 152.637 14.502 159.57 7.76367 159.57 -4.98047 L 159.57 -62.5977 C 159.57 -75.3906 152.637 -82.0801 139.893 -82.0801 L 133.887 -82.0801 L 133.887 -86.084 C 133.887 -98.6816 127.686 -104.443 115.479 -104.443 L 60.1562 -104.443 C 48.3398 -104.443 41.6992 -98.6816 41.6992 -86.084 L 41.6992 -82.0801 L 35.7422 -82.0801 C 23.3887 -82.0801 16.0645 -75.3906 16.0645 -62.5977 L 16.0645 -4.98047 C 16.0645 7.76367 22.998 14.502 35.7422 14.502 Z M 53.0762 -86.9141 C 53.0762 -91.748 55.4199 -94.043 60.2051 -94.043 L 115.43 -94.043 C 120.215 -94.043 122.559 -91.748 122.559 -86.9141 L 122.559 -82.0801 L 53.0762 -82.0801 Z M 35.791 3.51562 C 30.4199 3.51562 27.6367 0.78125 27.6367 -4.63867 L 27.6367 -62.9883 C 27.6367 -68.3594 30.4199 -71.1426 35.791 -71.1426 L 139.844 -71.1426 C 145.215 -71.1426 147.998 -68.3594 147.998 -62.9883 L 147.998 -4.63867 C 147.998 0.78125 145.215 3.51562 139.844 3.51562 L 133.105 3.51562 L 133.105 -31.3965 C 133.105 -41.1133 128.516 -45.4102 119.092 -45.4102 L 56.543 -45.4102 C 47.3633 -45.4102 42.5293 -41.1133 42.5293 -31.3965 L 42.5293 3.51562 Z M 58.5938 23.9746 C 55.1758 23.9746 53.5645 22.4121 53.5645 18.8965 L 53.5645 -29.834 C 53.5645 -33.252 55.1758 -34.8633 58.5938 -34.8633 L 117.09 -34.8633 C 120.508 -34.8633 122.07 -33.252 122.07 -29.834 L 122.07 18.8965 C 122.07 22.4121 120.508 23.9746 117.09 23.9746 Z M 66.7969 -12.3535 L 108.936 -12.3535 C 111.084 -12.3535 112.695 -14.0137 112.695 -16.1621 C 112.695 -18.2129 111.084 -19.8242 108.936 -19.8242 L 66.7969 -19.8242 C 64.5996 -19.8242 62.9883 -18.2129 62.9883 -16.1621 C 62.9883 -14.0137 64.5996 -12.3535 66.7969 -12.3535 Z M 66.7969 9.27734 L 108.936 9.27734 C 111.084 9.27734 112.695 7.66602 112.695 5.61523 C 112.695 3.4668 111.084 1.80664 108.936 1.80664 L 66.7969 1.80664 C 64.5996 1.80664 62.9883 3.4668 62.9883 5.61523 C 62.9883 7.66602 64.5996 9.27734 66.7969 9.27734 Z"/>
  </g>
  <g id="Medium-L" transform="matrix(1 0 0 1 1659.42 1556)">
   <path d="M 34.9609 14.209 L 41.9434 14.209 L 41.9434 20.752 C 41.9434 29.9316 46.2891 33.9844 55.2246 33.9844 L 119.092 33.9844 C 127.979 33.9844 132.373 29.9316 132.373 20.752 L 132.373 14.209 L 139.307 14.209 C 151.66 14.209 158.203 7.86133 158.203 -4.49219 L 158.203 -62.7441 C 158.203 -75.0488 151.66 -81.4453 139.307 -81.4453 L 132.959 -81.4453 L 132.959 -85.5469 C 132.959 -97.7051 126.953 -103.223 115.186 -103.223 L 59.082 -103.223 C 47.8027 -103.223 41.3574 -97.7051 41.3574 -85.5469 L 41.3574 -81.4453 L 34.9609 -81.4453 C 23.0957 -81.4453 16.0645 -75.0488 16.0645 -62.7441 L 16.0645 -4.49219 C 16.0645 7.86133 22.6562 14.209 34.9609 14.209 Z M 51.3672 -86.2305 C 51.3672 -91.4551 53.9062 -93.9453 59.082 -93.9453 L 115.234 -93.9453 C 120.41 -93.9453 122.9 -91.4551 122.9 -86.2305 L 122.9 -81.4453 L 51.3672 -81.4453 Z M 34.9609 4.49219 C 29.248 4.49219 26.3672 1.61133 26.3672 -4.10156 L 26.3672 -63.0859 C 26.3672 -68.7988 29.248 -71.7285 34.9609 -71.7285 L 139.355 -71.7285 C 145.02 -71.7285 147.9 -68.7988 147.9 -63.0859 L 147.9 -4.10156 C 147.9 1.61133 145.02 4.49219 139.355 4.49219 L 132.373 4.49219 L 132.373 -31.6895 C 132.373 -40.918 127.979 -44.9707 119.092 -44.9707 L 55.2246 -44.9707 C 46.582 -44.9707 41.9434 -40.918 41.9434 -31.6895 L 41.9434 4.49219 Z M 57.4219 24.5117 C 53.6621 24.5117 51.9531 22.8027 51.9531 18.9941 L 51.9531 -29.9805 C 51.9531 -33.7402 53.6621 -35.4492 57.4219 -35.4492 L 116.895 -35.4492 C 120.654 -35.4492 122.363 -33.7402 122.363 -29.9805 L 122.363 18.9941 C 122.363 22.8027 120.654 24.5117 116.895 24.5117 Z M 65.3809 -12.5977 L 109.033 -12.5977 C 111.084 -12.5977 112.646 -14.209 112.646 -16.2598 C 112.646 -18.2129 111.084 -19.7754 109.033 -19.7754 L 65.3809 -19.7754 C 63.2324 -19.7754 61.6699 -18.2129 61.6699 -16.2598 C 61.6699 -14.209 63.2324 -12.5977 65.3809 -12.5977 Z M 65.3809 9.22852 L 109.033 9.22852 C 111.084 9.22852 112.646 7.66602 112.646 5.71289 C 112.646 3.66211 111.084 2.05078 109.033 2.05078 L 65.3809 2.05078 C 63.2324 2.05078 61.6699 3.66211 61.6699 5.71289 C 61.6699 7.66602 63.2324 9.22852 65.3809 9.22852 Z"/>
  </g>
  <g id="Regular-L" transform="matrix(1 0 0 1 1363.57 1556)">
   <path d="M 33.9844 13.8672 L 41.1621 13.8672 L 41.1621 21.0449 C 41.1621 29.5898 45.2637 33.3008 53.4668 33.3008 L 119.043 33.3008 C 127.295 33.3008 131.348 29.5898 131.348 21.0449 L 131.348 13.8672 L 138.574 13.8672 C 150.293 13.8672 156.494 7.95898 156.494 -3.80859 L 156.494 -62.8906 C 156.494 -74.6582 150.293 -80.5664 138.574 -80.5664 L 131.689 -80.5664 L 131.689 -84.8633 C 131.689 -96.4844 125.977 -101.611 114.844 -101.611 L 57.666 -101.611 C 47.0215 -101.611 40.8203 -96.4844 40.8203 -84.8633 L 40.8203 -80.5664 L 33.9844 -80.5664 C 22.7539 -80.5664 16.0645 -74.6582 16.0645 -62.8906 L 16.0645 -3.80859 C 16.0645 7.95898 22.2168 13.8672 33.9844 13.8672 Z M 49.1699 -85.4004 C 49.1699 -91.1133 51.8555 -93.75 57.5684 -93.75 L 114.941 -93.75 C 120.654 -93.75 123.34 -91.1133 123.34 -85.4004 L 123.34 -80.5664 L 49.1699 -80.5664 Z M 33.8867 5.76172 C 27.7832 5.76172 24.707 2.68555 24.707 -3.41797 L 24.707 -63.2812 C 24.707 -69.3848 27.7832 -72.4609 33.8867 -72.4609 L 138.672 -72.4609 C 144.775 -72.4609 147.803 -69.3848 147.803 -63.2812 L 147.803 -3.41797 C 147.803 2.68555 144.775 5.76172 138.672 5.76172 L 131.348 5.76172 L 131.348 -32.0801 C 131.348 -40.625 127.295 -44.3359 119.043 -44.3359 L 53.4668 -44.3359 C 45.5566 -44.3359 41.1621 -40.625 41.1621 -32.0801 L 41.1621 5.76172 Z M 55.957 25.1953 C 51.709 25.1953 49.8535 23.3398 49.8535 19.043 L 49.8535 -30.127 C 49.8535 -34.375 51.709 -36.2305 55.957 -36.2305 L 116.65 -36.2305 C 120.85 -36.2305 122.705 -34.375 122.705 -30.127 L 122.705 19.043 C 122.705 23.3398 120.85 25.1953 116.65 25.1953 Z M 63.4277 -12.8906 L 109.18 -12.8906 C 111.133 -12.8906 112.598 -14.4043 112.598 -16.3574 C 112.598 -18.2129 111.133 -19.6777 109.18 -19.6777 L 63.4277 -19.6777 C 61.4258 -19.6777 59.9609 -18.2129 59.9609 -16.3574 C 59.9609 -14.4043 61.4258 -12.8906 63.4277 -12.8906 Z M 63.4277 9.13086 L 109.18 9.13086 C 111.133 9.13086 112.598 7.66602 112.598 5.81055 C 112.598 3.90625 111.133 2.39258 109.18 2.39258 L 63.4277 2.39258 C 61.4258 2.39258 59.9609 3.90625 59.9609 5.81055 C 59.9609 7.66602 61.4258 9.13086 63.4277 9.13086 Z"/>
  </g>
  <g id="Light-L" transform="matrix(1 0 0 1 1068.15 1556)">
   <path d="M 32.8613 12.4023 L 40.8203 12.4023 L 40.8203 19.7266 C 40.8203 28.5645 44.9219 32.373 53.5156 32.373 L 116.455 32.373 C 125.049 32.373 129.15 28.5645 129.15 19.7266 L 129.15 12.4023 L 137.061 12.4023 C 148.145 12.4023 153.906 6.88477 153.906 -4.24805 L 153.906 -63.4277 C 153.906 -74.5605 148.145 -80.0293 137.061 -80.0293 L 129.346 -80.0293 L 129.346 -85.5957 C 129.346 -96.3379 124.219 -101.025 113.818 -101.025 L 56.1523 -101.025 C 46.0449 -101.025 40.5762 -96.3379 40.5762 -85.5957 L 40.5762 -80.0293 L 32.8613 -80.0293 C 22.1191 -80.0293 16.0645 -74.5605 16.0645 -63.4277 L 16.0645 -4.24805 C 16.0645 6.88477 21.7773 12.4023 32.8613 12.4023 Z M 47.0215 -85.9375 C 47.0215 -92.2852 49.707 -94.9707 56.0547 -94.9707 L 113.867 -94.9707 C 120.215 -94.9707 122.949 -92.2852 122.949 -85.9375 L 122.949 -80.0293 L 47.0215 -80.0293 Z M 32.8125 6.20117 C 25.9277 6.20117 22.7051 2.92969 22.7051 -4.00391 L 22.7051 -63.6719 C 22.7051 -70.5566 25.9277 -73.8281 32.8125 -73.8281 L 137.158 -73.8281 C 144.043 -73.8281 147.266 -70.5566 147.266 -63.6719 L 147.266 -4.00391 C 147.266 2.92969 144.043 6.20117 137.158 6.20117 L 129.15 6.20117 L 129.15 -31.7383 C 129.15 -40.5273 125.049 -44.3848 116.455 -44.3848 L 53.5156 -44.3848 C 45.1172 -44.3848 40.8203 -40.5273 40.8203 -31.7383 L 40.8203 6.20117 Z M 55.0781 26.1719 C 49.6582 26.1719 47.4121 23.9258 47.4121 18.5059 L 47.4121 -30.5176 C 47.4121 -35.9375 49.6582 -38.1836 55.0781 -38.1836 L 114.941 -38.1836 C 120.361 -38.1836 122.51 -35.9375 122.51 -30.5176 L 122.51 18.5059 C 122.51 23.9258 120.361 26.1719 114.941 26.1719 Z M 60.8398 -13.9648 L 109.18 -13.9648 C 110.791 -13.9648 111.963 -15.1855 111.963 -16.6992 C 111.963 -18.2129 110.791 -19.3848 109.18 -19.3848 L 60.8398 -19.3848 C 59.2285 -19.3848 58.0078 -18.2129 58.0078 -16.6992 C 58.0078 -15.1855 59.2285 -13.9648 60.8398 -13.9648 Z M 60.8398 8.20312 L 109.18 8.20312 C 110.791 8.20312 111.963 7.03125 111.963 5.51758 C 111.963 4.00391 110.791 2.7832 109.18 2.7832 L 60.8398 2.7832 C 59.2285 2.7832 58.0078 4.00391 58.0078 5.51758 C 58.0078 7.03125 59.2285 8.20312 60.8398 8.20312 Z"/>
  </g>
  <g id="Thin-L" transform="matrix(1 0 0 1 773.146 1556)">
   <path d="M 31.3965 10.4492 L 40.332 10.4492 L 40.332 18.0176 C 40.332 27.1973 44.4824 31.1523 53.5156 31.1523 L 112.988 31.1523 C 122.021 31.1523 126.221 27.1973 126.221 18.0176 L 126.221 10.4492 L 135.107 10.4492 C 145.312 10.4492 150.488 5.46875 150.488 -4.78516 L 150.488 -64.1113 C 150.488 -74.4141 145.312 -79.3457 135.107 -79.3457 L 126.27 -79.3457 L 126.27 -86.5723 C 126.27 -96.1426 121.875 -100.293 112.451 -100.293 L 54.1016 -100.293 C 44.7266 -100.293 40.2832 -96.1426 40.2832 -86.5723 L 40.2832 -79.3457 L 31.3965 -79.3457 C 21.2891 -79.3457 16.0645 -74.4141 16.0645 -64.1113 L 16.0645 -4.78516 C 16.0645 5.46875 21.1914 10.4492 31.3965 10.4492 Z M 44.1406 -86.6211 C 44.1406 -93.7988 46.875 -96.582 54.0527 -96.582 L 112.451 -96.582 C 119.629 -96.582 122.363 -93.7988 122.363 -86.6211 L 122.363 -79.3457 L 44.1406 -79.3457 Z M 31.3965 6.73828 C 23.4863 6.73828 19.9707 3.17383 19.9707 -4.73633 L 19.9707 -64.1602 C 19.9707 -72.1191 23.4863 -75.6348 31.3965 -75.6348 L 135.156 -75.6348 C 143.066 -75.6348 146.533 -72.1191 146.533 -64.1602 L 146.533 -4.73633 C 146.533 3.17383 143.066 6.73828 135.156 6.73828 L 126.221 6.73828 L 126.221 -31.2988 C 126.221 -40.4297 122.021 -44.4336 112.988 -44.4336 L 53.5156 -44.4336 C 44.5312 -44.4336 40.332 -40.4297 40.332 -31.2988 L 40.332 6.73828 Z M 53.8574 27.4414 C 46.875 27.4414 44.2383 24.7559 44.2383 17.7734 L 44.2383 -31.0547 C 44.2383 -38.0371 46.875 -40.7227 53.8574 -40.7227 L 112.695 -40.7227 C 119.678 -40.7227 122.266 -38.0371 122.266 -31.0547 L 122.266 17.7734 C 122.266 24.7559 119.678 27.4414 112.695 27.4414 Z M 57.373 -15.3809 L 109.18 -15.3809 C 110.303 -15.3809 111.084 -16.1621 111.084 -17.1875 C 111.084 -18.2129 110.303 -19.043 109.18 -19.043 L 57.373 -19.043 C 56.25 -19.043 55.4199 -18.2129 55.4199 -17.1875 C 55.4199 -16.1621 56.25 -15.3809 57.373 -15.3809 Z M 57.373 6.98242 L 109.18 6.98242 C 110.303 6.98242 111.084 6.15234 111.084 5.12695 C 111.084 4.10156 110.303 3.27148 109.18 3.27148 L 57.373 3.27148 C 56.25 3.27148 55.4199 4.10156 55.4199 5.12695 C 55.4199 6.15234 56.25 6.98242 57.373 6.98242 Z"/>
  </g>
  <g id="Ultralight-L" transform="matrix(1 0 0 1 477.314 1556)">
   <path d="M 30.6641 9.42383 L 40.0879 9.42383 L 40.0879 17.1387 C 40.0879 26.4648 44.2871 30.5176 53.5645 30.5176 L 111.23 30.5176 C 120.508 30.5176 124.707 26.4648 124.707 17.1387 L 124.707 9.42383 L 134.131 9.42383 C 143.896 9.42383 148.73 4.73633 148.73 -5.07812 L 148.73 -64.4531 C 148.73 -74.3164 143.896 -79.0039 134.131 -79.0039 L 124.658 -79.0039 L 124.658 -87.0605 C 124.658 -95.9961 120.654 -99.9023 111.768 -99.9023 L 53.0273 -99.9023 C 44.043 -99.9023 40.0879 -95.9961 40.0879 -87.0605 L 40.0879 -79.0039 L 30.6641 -79.0039 C 20.8496 -79.0039 16.0645 -74.3164 16.0645 -64.4531 L 16.0645 -5.07812 C 16.0645 4.73633 20.8984 9.42383 30.6641 9.42383 Z M 42.6758 -87.0117 C 42.6758 -94.5801 45.459 -97.4121 53.0273 -97.4121 L 111.719 -97.4121 C 119.336 -97.4121 122.07 -94.5801 122.07 -87.0117 L 122.07 -79.0039 L 42.6758 -79.0039 Z M 30.6641 6.98242 C 22.2168 6.98242 18.6035 3.32031 18.6035 -5.12695 L 18.6035 -64.4043 C 18.6035 -72.9004 22.2168 -76.5625 30.6641 -76.5625 L 134.131 -76.5625 C 142.578 -76.5625 146.143 -72.9004 146.143 -64.4043 L 146.143 -5.12695 C 146.143 3.32031 142.578 6.98242 134.131 6.98242 L 124.707 6.98242 L 124.707 -31.0547 C 124.707 -40.3809 120.508 -44.4336 111.23 -44.4336 L 53.5645 -44.4336 C 44.2383 -44.4336 40.0879 -40.3809 40.0879 -31.0547 L 40.0879 6.98242 Z M 53.2227 28.0762 C 45.459 28.0762 42.627 25.1465 42.627 17.3828 L 42.627 -31.2988 C 42.627 -39.0625 45.459 -41.9922 53.2227 -41.9922 L 111.523 -41.9922 C 119.336 -41.9922 122.168 -39.0625 122.168 -31.2988 L 122.168 17.3828 C 122.168 25.1465 119.336 28.0762 111.523 28.0762 Z M 55.5664 -16.0645 L 109.18 -16.0645 C 110.059 -16.0645 110.645 -16.6992 110.645 -17.4805 C 110.645 -18.2129 110.059 -18.8477 109.18 -18.8477 L 55.5664 -18.8477 C 54.7363 -18.8477 54.1016 -18.2129 54.1016 -17.4805 C 54.1016 -16.6992 54.7363 -16.0645 55.5664 -16.0645 Z M 55.5664 6.29883 L 109.18 6.29883 C 110.059 6.29883 110.645 5.66406 110.645 4.93164 C 110.645 4.15039 110.059 3.51562 109.18 3.51562 L 55.5664 3.51562 C 54.7363 3.51562 54.1016 4.15039 54.1016 4.93164 C 54.1016 5.66406 54.7363 6.29883 55.5664 6.29883 Z"/>
  </g>
  <g id="Black-M" transform="matrix(1 0 0 1 2861.92 1126)">
   <path d="M 31.7383 4.10156 L 36.2793 4.10156 L 36.2793 5.95703 C 36.2793 16.6504 41.2598 21.6309 51.9531 21.6309 L 91.0156 21.6309 C 101.709 21.6309 106.689 16.6504 106.689 5.95703 L 106.689 4.10156 L 111.23 4.10156 C 123.438 4.10156 130.518 -2.97852 130.518 -15.1855 L 130.518 -56.1035 C 130.518 -68.3105 123.438 -75.3906 111.23 -75.3906 L 108.398 -75.3906 L 108.398 -78.2715 C 108.398 -90.1367 102.49 -96.0449 90.625 -96.0449 L 52.3438 -96.0449 C 40.4297 -96.0449 34.5703 -90.1367 34.5703 -78.2715 L 34.5703 -75.3906 L 31.7383 -75.3906 C 19.5312 -75.3906 12.4512 -68.3105 12.4512 -56.1035 L 12.4512 -15.1855 C 12.4512 -2.97852 19.5312 4.10156 31.7383 4.10156 Z M 50.3418 -79.6387 C 50.3418 -81.2988 51.2695 -82.2266 52.7832 -82.2266 L 90.1855 -82.2266 C 91.6504 -82.2266 92.627 -81.2988 92.627 -79.6387 L 92.627 -75.3906 L 50.3418 -75.3906 Z M 32.1777 -10.9863 C 29.5898 -10.9863 28.1738 -12.4023 28.1738 -14.9902 L 28.1738 -56.2012 C 28.1738 -58.7891 29.5898 -60.2539 32.1777 -60.2539 L 110.791 -60.2539 C 113.379 -60.2539 114.795 -58.7891 114.795 -56.2012 L 114.795 -14.9902 C 114.795 -12.4023 113.379 -10.9863 110.791 -10.9863 L 106.689 -10.9863 L 106.689 -30.3711 C 106.689 -41.1133 101.709 -46.0938 91.0156 -46.0938 L 51.9531 -46.0938 C 41.2598 -46.0938 36.2793 -41.1133 36.2793 -30.3711 L 36.2793 -10.9863 Z M 51.9043 7.86133 C 50.7812 7.86133 50.0977 7.27539 50.0977 6.10352 L 50.0977 -30.4688 C 50.0977 -31.6406 50.7812 -32.2266 51.9043 -32.2266 L 91.0645 -32.2266 C 92.1875 -32.2266 92.8711 -31.6406 92.8711 -30.4688 L 92.8711 6.10352 C 92.8711 7.27539 92.1875 7.86133 91.0645 7.86133 Z M 59.375 -16.5527 L 83.7402 -16.5527 C 85.7422 -16.5527 87.207 -18.1152 87.207 -20.1172 C 87.207 -22.0703 85.7422 -23.5352 83.7402 -23.5352 L 59.375 -23.5352 C 57.2754 -23.5352 55.8105 -22.0703 55.8105 -20.1172 C 55.8105 -18.1152 57.2754 -16.5527 59.375 -16.5527 Z M 59.375 -0.878906 L 83.7402 -0.878906 C 85.7422 -0.878906 87.207 -2.39258 87.207 -4.29688 C 87.207 -6.29883 85.7422 -7.86133 83.7402 -7.86133 L 59.375 -7.86133 C 57.2754 -7.86133 55.8105 -6.29883 55.8105 -4.29688 C 55.8105 -2.39258 57.2754 -0.878906 59.375 -0.878906 Z"/>
  </g>
  <g id="Heavy-M" transform="matrix(1 0 0 1 2566.13 1126)">
   <path d="M 30.6152 4.00391 L 35.3027 4.00391 L 35.3027 6.68945 C 35.3027 16.4062 39.8438 20.8984 49.4629 20.8984 L 91.6504 20.8984 C 101.27 20.8984 105.811 16.4062 105.811 6.68945 L 105.811 4.00391 L 110.498 4.00391 C 122.07 4.00391 128.662 -2.53906 128.662 -14.1113 L 128.662 -56.1523 C 128.662 -67.7246 122.07 -74.2676 110.498 -74.2676 L 107.227 -74.2676 L 107.227 -77.0996 C 107.227 -88.4277 101.611 -93.8965 90.3809 -93.8965 L 50.7324 -93.8965 C 39.6484 -93.8965 33.9355 -88.4277 33.9355 -77.0996 L 33.9355 -74.2676 L 30.6152 -74.2676 C 19.1406 -74.2676 12.4512 -67.7246 12.4512 -56.1523 L 12.4512 -14.1113 C 12.4512 -2.53906 19.043 4.00391 30.6152 4.00391 Z M 47.7539 -78.2715 C 47.7539 -80.4688 48.9746 -81.6406 51.0742 -81.6406 L 90.0391 -81.6406 C 92.1875 -81.6406 93.4082 -80.4688 93.4082 -78.2715 L 93.4082 -74.2676 L 47.7539 -74.2676 Z M 30.957 -9.27734 C 27.9297 -9.27734 26.3184 -10.8887 26.3184 -13.8672 L 26.3184 -56.2988 C 26.3184 -59.3262 27.9297 -60.9863 30.957 -60.9863 L 110.205 -60.9863 C 113.184 -60.9863 114.795 -59.3262 114.795 -56.2988 L 114.795 -13.8672 C 114.795 -10.8887 113.184 -9.27734 110.205 -9.27734 L 105.811 -9.27734 L 105.811 -31.0059 C 105.811 -40.7227 101.27 -45.166 91.6504 -45.166 L 49.4629 -45.166 C 39.8926 -45.166 35.3027 -40.7227 35.3027 -31.0059 L 35.3027 -9.27734 Z M 50 8.64258 C 48.5352 8.64258 47.7051 7.86133 47.7051 6.34766 L 47.7051 -30.6152 C 47.7051 -32.1289 48.5352 -32.8613 50 -32.8613 L 91.1133 -32.8613 C 92.5781 -32.8613 93.4082 -32.1289 93.4082 -30.6152 L 93.4082 6.34766 C 93.4082 7.86133 92.5781 8.64258 91.1133 8.64258 Z M 57.3242 -16.748 L 83.9355 -16.748 C 85.8887 -16.748 87.3047 -18.2617 87.3047 -20.166 C 87.3047 -22.0703 85.8887 -23.4863 83.9355 -23.4863 L 57.3242 -23.4863 C 55.3223 -23.4863 53.8574 -22.0703 53.8574 -20.166 C 53.8574 -18.2617 55.3223 -16.748 57.3242 -16.748 Z M 57.3242 -0.732422 L 83.9355 -0.732422 C 85.8887 -0.732422 87.3047 -2.19727 87.3047 -4.05273 C 87.3047 -6.00586 85.8887 -7.51953 83.9355 -7.51953 L 57.3242 -7.51953 C 55.3223 -7.51953 53.8574 -6.00586 53.8574 -4.05273 C 53.8574 -2.19727 55.3223 -0.732422 57.3242 -0.732422 Z"/>
  </g>
  <g id="Bold-M" transform="matrix(1 0 0 1 2270.45 1126)">
   <path d="M 29.3457 3.90625 L 34.2285 3.90625 L 34.2285 7.51953 C 34.2285 16.1133 38.2812 20.0195 46.7285 20.0195 L 92.3828 20.0195 C 100.83 20.0195 104.883 16.1133 104.883 7.51953 L 104.883 3.90625 L 109.717 3.90625 C 120.557 3.90625 126.611 -2.05078 126.611 -12.8906 L 126.611 -56.2012 C 126.611 -67.041 120.557 -72.998 109.717 -72.998 L 105.908 -72.998 L 105.908 -75.7812 C 105.908 -86.4746 100.586 -91.5039 90.0879 -91.5039 L 48.9746 -91.5039 C 38.7207 -91.5039 33.2031 -86.4746 33.2031 -75.7812 L 33.2031 -72.998 L 29.3457 -72.998 C 18.75 -72.998 12.4512 -67.041 12.4512 -56.2012 L 12.4512 -12.8906 C 12.4512 -2.05078 18.5059 3.90625 29.3457 3.90625 Z M 44.8242 -76.709 C 44.8242 -79.5898 46.3379 -81.0547 49.1699 -81.0547 L 89.9414 -81.0547 C 92.7246 -81.0547 94.2383 -79.5898 94.2383 -76.709 L 94.2383 -72.998 L 44.8242 -72.998 Z M 29.541 -7.32422 C 26.0742 -7.32422 24.2676 -9.17969 24.2676 -12.6465 L 24.2676 -56.4453 C 24.2676 -59.9121 26.0742 -61.7676 29.541 -61.7676 L 109.521 -61.7676 C 112.988 -61.7676 114.844 -59.9121 114.844 -56.4453 L 114.844 -12.6465 C 114.844 -9.17969 112.988 -7.32422 109.521 -7.32422 L 104.883 -7.32422 L 104.883 -31.6895 C 104.883 -40.2832 100.83 -44.1895 92.3828 -44.1895 L 46.7285 -44.1895 C 38.4277 -44.1895 34.2285 -40.2832 34.2285 -31.6895 L 34.2285 -7.32422 Z M 47.9004 9.47266 C 46.0449 9.47266 45.0684 8.54492 45.0684 6.64062 L 45.0684 -30.7617 C 45.0684 -32.666 46.0449 -33.5938 47.9004 -33.5938 L 91.2109 -33.5938 C 93.0664 -33.5938 94.043 -32.666 94.043 -30.7617 L 94.043 6.64062 C 94.043 8.54492 93.0664 9.47266 91.2109 9.47266 Z M 55.0293 -16.9434 L 84.1797 -16.9434 C 86.0352 -16.9434 87.4512 -18.4082 87.4512 -20.2637 C 87.4512 -22.0703 86.0352 -23.4375 84.1797 -23.4375 L 55.0293 -23.4375 C 53.0762 -23.4375 51.709 -22.0703 51.709 -20.2637 C 51.709 -18.4082 53.0762 -16.9434 55.0293 -16.9434 Z M 55.0293 -0.585938 L 84.1797 -0.585938 C 86.0352 -0.585938 87.4512 -2.00195 87.4512 -3.80859 C 87.4512 -5.61523 86.0352 -7.08008 84.1797 -7.08008 L 55.0293 -7.08008 C 53.0762 -7.08008 51.709 -5.61523 51.709 -3.80859 C 51.709 -2.00195 53.0762 -0.585938 55.0293 -0.585938 Z"/>
  </g>
  <g id="Semibold-M" transform="matrix(1 0 0 1 1974.44 1126)">
   <path d="M 28.4668 3.80859 L 33.4473 3.80859 L 33.4473 8.10547 C 33.4473 15.918 37.1582 19.4336 44.7754 19.4336 L 92.8711 19.4336 C 100.488 19.4336 104.199 15.918 104.199 8.10547 L 104.199 3.80859 L 109.18 3.80859 C 119.531 3.80859 125.195 -1.70898 125.195 -12.1094 L 125.195 -56.25 C 125.195 -66.6016 119.531 -72.168 109.18 -72.168 L 104.98 -72.168 L 104.98 -74.8535 C 104.98 -85.1074 99.9023 -89.8926 89.9414 -89.8926 L 47.7539 -89.8926 C 38.0859 -89.8926 32.666 -85.1074 32.666 -74.8535 L 32.666 -72.168 L 28.4668 -72.168 C 18.457 -72.168 12.4512 -66.6016 12.4512 -56.25 L 12.4512 -12.1094 C 12.4512 -1.70898 18.1152 3.80859 28.4668 3.80859 Z M 42.8223 -75.6836 C 42.8223 -78.9551 44.5801 -80.6152 47.8027 -80.6152 L 89.8438 -80.6152 C 93.1152 -80.6152 94.8242 -78.9551 94.8242 -75.6836 L 94.8242 -72.168 L 42.8223 -72.168 Z M 28.5645 -6.00586 C 24.8047 -6.00586 22.8027 -8.00781 22.8027 -11.7676 L 22.8027 -56.543 C 22.8027 -60.3027 24.8047 -62.3535 28.5645 -62.3535 L 109.082 -62.3535 C 112.842 -62.3535 114.844 -60.3027 114.844 -56.543 L 114.844 -11.7676 C 114.844 -8.00781 112.842 -6.00586 109.082 -6.00586 L 104.199 -6.00586 L 104.199 -32.1289 C 104.199 -39.9902 100.488 -43.457 92.8711 -43.457 L 44.7754 -43.457 C 37.3535 -43.457 33.4473 -39.9902 33.4473 -32.1289 L 33.4473 -6.00586 Z M 46.4355 10.0586 C 44.2871 10.0586 43.2129 8.98438 43.2129 6.83594 L 43.2129 -30.8594 C 43.2129 -33.0078 44.2871 -34.082 46.4355 -34.082 L 91.2598 -34.082 C 93.4082 -34.082 94.4824 -33.0078 94.4824 -30.8594 L 94.4824 6.83594 C 94.4824 8.98438 93.4082 10.0586 91.2598 10.0586 Z M 53.418 -17.0898 L 84.3262 -17.0898 C 86.1328 -17.0898 87.5 -18.5059 87.5 -20.3125 C 87.5 -22.0703 86.1328 -23.3887 84.3262 -23.3887 L 53.418 -23.3887 C 51.5625 -23.3887 50.1953 -22.0703 50.1953 -20.3125 C 50.1953 -18.5059 51.5625 -17.0898 53.418 -17.0898 Z M 53.418 -0.488281 L 84.3262 -0.488281 C 86.1328 -0.488281 87.5 -1.85547 87.5 -3.61328 C 87.5 -5.37109 86.1328 -6.78711 84.3262 -6.78711 L 53.418 -6.78711 C 51.5625 -6.78711 50.1953 -5.37109 50.1953 -3.61328 C 50.1953 -1.85547 51.5625 -0.488281 53.418 -0.488281 Z"/>
  </g>
  <g id="Medium-M" transform="matrix(1 0 0 1 1678.27 1126)">
   <path d="M 27.832 3.75977 L 32.8613 3.75977 L 32.8613 8.54492 C 32.8613 15.7715 36.3281 18.9941 43.3594 18.9941 L 93.2617 18.9941 C 100.244 18.9941 103.711 15.7715 103.711 8.54492 L 103.711 3.75977 L 108.74 3.75977 C 118.75 3.75977 124.121 -1.46484 124.121 -11.4746 L 124.121 -56.2988 C 124.121 -66.2598 118.75 -71.4844 108.74 -71.4844 L 104.297 -71.4844 L 104.297 -74.1699 C 104.297 -84.082 99.3652 -88.623 89.7949 -88.623 L 46.8262 -88.623 C 37.6465 -88.623 32.2754 -84.082 32.2754 -74.1699 L 32.2754 -71.4844 L 27.832 -71.4844 C 18.2617 -71.4844 12.4512 -66.2598 12.4512 -56.2988 L 12.4512 -11.4746 C 12.4512 -1.46484 17.8711 3.75977 27.832 3.75977 Z M 41.3086 -74.8535 C 41.3086 -78.4668 43.2129 -80.3223 46.8262 -80.3223 L 89.7949 -80.3223 C 93.4082 -80.3223 95.2637 -78.4668 95.2637 -74.8535 L 95.2637 -71.4844 L 41.3086 -71.4844 Z M 27.832 -4.98047 C 23.8281 -4.98047 21.7285 -7.12891 21.7285 -11.084 L 21.7285 -56.6406 C 21.7285 -60.6445 23.8281 -62.7441 27.832 -62.7441 L 108.74 -62.7441 C 112.744 -62.7441 114.844 -60.6445 114.844 -56.6406 L 114.844 -11.084 C 114.844 -7.12891 112.744 -4.98047 108.74 -4.98047 L 103.711 -4.98047 L 103.711 -32.5195 C 103.711 -39.7461 100.244 -42.9688 93.2617 -42.9688 L 43.3594 -42.9688 C 36.5723 -42.9688 32.8613 -39.7461 32.8613 -32.5195 L 32.8613 -4.98047 Z M 45.3125 10.498 C 42.9688 10.498 41.7969 9.32617 41.7969 6.98242 L 41.7969 -30.957 C 41.7969 -33.3008 42.9688 -34.4238 45.3125 -34.4238 L 91.3086 -34.4238 C 93.6523 -34.4238 94.7754 -33.3008 94.7754 -30.957 L 94.7754 6.98242 C 94.7754 9.32617 93.6523 10.498 91.3086 10.498 Z M 52.2461 -17.1875 L 84.4727 -17.1875 C 86.2305 -17.1875 87.5488 -18.5547 87.5488 -20.3613 C 87.5488 -22.0703 86.2305 -23.3887 84.4727 -23.3887 L 52.2461 -23.3887 C 50.3906 -23.3887 49.0723 -22.0703 49.0723 -20.3613 C 49.0723 -18.5547 50.3906 -17.1875 52.2461 -17.1875 Z M 52.2461 -0.390625 L 84.4727 -0.390625 C 86.2305 -0.390625 87.5488 -1.75781 87.5488 -3.4668 C 87.5488 -5.22461 86.2305 -6.5918 84.4727 -6.5918 L 52.2461 -6.5918 C 50.3906 -6.5918 49.0723 -5.22461 49.0723 -3.4668 C 49.0723 -1.75781 50.3906 -0.390625 52.2461 -0.390625 Z"/>
  </g>
  <g id="Regular-M" transform="matrix(1 0 0 1 1382.24 1126)">
   <path d="M 26.9531 3.66211 L 32.1289 3.66211 L 32.1289 9.08203 C 32.1289 15.5762 35.2539 18.4082 41.4551 18.4082 L 93.75 18.4082 C 99.9023 18.4082 103.076 15.5762 103.076 9.08203 L 103.076 3.66211 L 108.203 3.66211 C 117.725 3.66211 122.754 -1.12305 122.754 -10.6445 L 122.754 -56.3477 C 122.754 -65.8203 117.725 -70.6543 108.203 -70.6543 L 103.418 -70.6543 L 103.418 -73.2422 C 103.418 -82.7637 98.6328 -87.0117 89.5996 -87.0117 L 45.6055 -87.0117 C 37.0117 -87.0117 31.7871 -82.7637 31.7871 -73.2422 L 31.7871 -70.6543 L 26.9531 -70.6543 C 17.9688 -70.6543 12.4512 -65.8203 12.4512 -56.3477 L 12.4512 -10.6445 C 12.4512 -1.12305 17.4805 3.66211 26.9531 3.66211 Z M 39.3555 -73.7793 C 39.3555 -77.8809 41.4062 -79.8828 45.5078 -79.8828 L 89.6973 -79.8828 C 93.75 -79.8828 95.8496 -77.8809 95.8496 -73.7793 L 95.8496 -70.6543 L 39.3555 -70.6543 Z M 26.8555 -3.66211 C 22.5586 -3.66211 20.3125 -5.95703 20.3125 -10.2539 L 20.3125 -56.7383 C 20.3125 -61.0352 22.5586 -63.3301 26.8555 -63.3301 L 108.301 -63.3301 C 112.646 -63.3301 114.893 -61.0352 114.893 -56.7383 L 114.893 -10.2539 C 114.893 -5.95703 112.646 -3.66211 108.301 -3.66211 L 103.076 -3.66211 L 103.076 -32.959 C 103.076 -39.4531 99.9023 -42.2852 93.75 -42.2852 L 41.4551 -42.2852 C 35.5469 -42.2852 32.1289 -39.4531 32.1289 -32.959 L 32.1289 -3.66211 Z M 43.8965 11.084 C 41.2598 11.084 39.9902 9.81445 39.9902 7.12891 L 39.9902 -31.0547 C 39.9902 -33.6914 41.2598 -34.9121 43.8965 -34.9121 L 91.3574 -34.9121 C 93.9453 -34.9121 95.2148 -33.6914 95.2148 -31.0547 L 95.2148 7.12891 C 95.2148 9.81445 93.9453 11.084 91.3574 11.084 Z M 50.6836 -17.334 L 84.6191 -17.334 C 86.3281 -17.334 87.6465 -18.6523 87.6465 -20.4102 C 87.6465 -22.0703 86.3281 -23.3398 84.6191 -23.3398 L 50.6836 -23.3398 C 48.877 -23.3398 47.6074 -22.0703 47.6074 -20.4102 C 47.6074 -18.6523 48.877 -17.334 50.6836 -17.334 Z M 50.6836 -0.292969 L 84.6191 -0.292969 C 86.3281 -0.292969 87.6465 -1.61133 87.6465 -3.27148 C 87.6465 -4.98047 86.3281 -6.29883 84.6191 -6.29883 L 50.6836 -6.29883 C 48.877 -6.29883 47.6074 -4.98047 47.6074 -3.27148 C 47.6074 -1.61133 48.877 -0.292969 50.6836 -0.292969 Z"/>
  </g>
  <g id="Light-M" transform="matrix(1 0 0 1 1086.7 1126)">
   <path d="M 25.9766 2.34375 L 31.7871 2.34375 L 31.7871 7.95898 C 31.7871 14.6484 34.9609 17.5781 41.4551 17.5781 L 91.4062 17.5781 C 97.9004 17.5781 101.074 14.6484 101.074 7.95898 L 101.074 2.34375 L 106.885 2.34375 C 115.771 2.34375 120.41 -2.09961 120.41 -11.0352 L 120.41 -56.8359 C 120.41 -65.7227 115.771 -70.2148 106.885 -70.2148 L 101.318 -70.2148 L 101.318 -73.9258 C 101.318 -82.6172 97.0703 -86.4746 88.6719 -86.4746 L 44.1895 -86.4746 C 36.1328 -86.4746 31.5918 -82.6172 31.5918 -73.9258 L 31.5918 -70.2148 L 25.9766 -70.2148 C 17.4316 -70.2148 12.4512 -65.7227 12.4512 -56.8359 L 12.4512 -11.0352 C 12.4512 -2.09961 17.0898 2.34375 25.9766 2.34375 Z M 37.4023 -74.2676 C 37.4023 -78.9062 39.502 -81.0059 44.1406 -81.0059 L 88.7207 -81.0059 C 93.3594 -81.0059 95.459 -78.9062 95.459 -74.2676 L 95.459 -70.2148 L 37.4023 -70.2148 Z M 25.9277 -3.32031 C 20.8984 -3.32031 18.5059 -5.76172 18.5059 -10.7422 L 18.5059 -57.0801 C 18.5059 -62.1094 20.8984 -64.5508 25.9277 -64.5508 L 106.982 -64.5508 C 111.963 -64.5508 114.404 -62.1094 114.404 -57.0801 L 114.404 -10.7422 C 114.404 -5.76172 111.963 -3.32031 106.982 -3.32031 L 101.074 -3.32031 L 101.074 -32.666 C 101.074 -39.3555 97.9004 -42.2852 91.4062 -42.2852 L 41.4551 -42.2852 C 35.1562 -42.2852 31.7871 -39.3555 31.7871 -32.666 L 31.7871 -3.32031 Z M 43.0664 11.9141 C 39.4043 11.9141 37.8418 10.3516 37.8418 6.64062 L 37.8418 -31.3965 C 37.8418 -35.0586 39.4043 -36.6699 43.0664 -36.6699 L 89.8438 -36.6699 C 93.5059 -36.6699 95.0195 -35.0586 95.0195 -31.3965 L 95.0195 6.64062 C 95.0195 10.3516 93.5059 11.9141 89.8438 11.9141 Z M 48.291 -18.2617 L 84.6191 -18.2617 C 86.0352 -18.2617 87.0605 -19.3359 87.0605 -20.7031 C 87.0605 -22.0703 86.0352 -23.0957 84.6191 -23.0957 L 48.291 -23.0957 C 46.875 -23.0957 45.8496 -22.0703 45.8496 -20.7031 C 45.8496 -19.3359 46.875 -18.2617 48.291 -18.2617 Z M 48.291 -1.12305 L 84.6191 -1.12305 C 86.0352 -1.12305 87.0605 -2.19727 87.0605 -3.51562 C 87.0605 -4.88281 86.0352 -5.95703 84.6191 -5.95703 L 48.291 -5.95703 C 46.875 -5.95703 45.8496 -4.88281 45.8496 -3.51562 C 45.8496 -2.19727 46.875 -1.12305 48.291 -1.12305 Z"/>
  </g>
  <g id="Thin-M" transform="matrix(1 0 0 1 791.53 1126)">
   <path d="M 24.6582 0.585938 L 31.3477 0.585938 L 31.3477 6.39648 C 31.3477 13.4277 34.5703 16.5039 41.5039 16.5039 L 88.3301 16.5039 C 95.2148 16.5039 98.4375 13.4277 98.4375 6.39648 L 98.4375 0.585938 L 105.127 0.585938 C 113.232 0.585938 117.334 -3.36914 117.334 -11.5234 L 117.334 -57.4707 C 117.334 -65.625 113.232 -69.5801 105.127 -69.5801 L 98.5352 -69.5801 L 98.5352 -74.8047 C 98.5352 -82.4707 94.9707 -85.791 87.4512 -85.791 L 42.3828 -85.791 C 34.9609 -85.791 31.2988 -82.4707 31.2988 -74.8047 L 31.2988 -69.5801 L 24.6582 -69.5801 C 16.6504 -69.5801 12.4512 -65.625 12.4512 -57.4707 L 12.4512 -11.5234 C 12.4512 -3.36914 16.5527 0.585938 24.6582 0.585938 Z M 34.8633 -74.9023 C 34.8633 -80.2734 36.9629 -82.4219 42.334 -82.4219 L 87.4512 -82.4219 C 92.8711 -82.4219 94.9707 -80.2734 94.9707 -74.9023 L 94.9707 -69.5801 L 34.8633 -69.5801 Z M 24.6582 -2.83203 C 18.7012 -2.83203 16.0645 -5.51758 16.0645 -11.4258 L 16.0645 -57.5195 C 16.0645 -63.4766 18.7012 -66.1621 24.6582 -66.1621 L 105.176 -66.1621 C 111.084 -66.1621 113.721 -63.4766 113.721 -57.5195 L 113.721 -11.4258 C 113.721 -5.51758 111.084 -2.83203 105.176 -2.83203 L 98.4375 -2.83203 L 98.4375 -32.2754 C 98.4375 -39.3066 95.2148 -42.334 88.3301 -42.334 L 41.5039 -42.334 C 34.6191 -42.334 31.3477 -39.3066 31.3477 -32.2754 L 31.3477 -2.83203 Z M 41.9922 13.0859 C 36.9141 13.0859 34.9609 11.084 34.9609 6.00586 L 34.9609 -31.8848 C 34.9609 -36.9629 36.9141 -38.916 41.9922 -38.916 L 87.793 -38.916 C 92.8711 -38.916 94.8242 -36.9629 94.8242 -31.8848 L 94.8242 6.00586 C 94.8242 11.084 92.8711 13.0859 87.793 13.0859 Z M 45.2148 -19.5312 L 84.6191 -19.5312 C 85.5957 -19.5312 86.2793 -20.2637 86.2793 -21.1426 C 86.2793 -22.0703 85.5957 -22.7539 84.6191 -22.7539 L 45.2148 -22.7539 C 44.2383 -22.7539 43.5059 -22.0703 43.5059 -21.1426 C 43.5059 -20.2637 44.2383 -19.5312 45.2148 -19.5312 Z M 45.2148 -2.24609 L 84.6191 -2.24609 C 85.5957 -2.24609 86.2793 -2.97852 86.2793 -3.85742 C 86.2793 -4.78516 85.5957 -5.51758 84.6191 -5.51758 L 45.2148 -5.51758 C 44.2383 -5.51758 43.5059 -4.78516 43.5059 -3.85742 C 43.5059 -2.97852 44.2383 -2.24609 45.2148 -2.24609 Z"/>
  </g>
  <g id="Ultralight-M" transform="matrix(1 0 0 1 495.6 1126)">
   <path d="M 23.9746 -0.292969 L 31.1523 -0.292969 L 31.1523 5.61523 C 31.1523 12.793 34.375 15.918 41.5039 15.918 L 86.7188 15.918 C 93.8477 15.918 97.1191 12.793 97.1191 5.61523 L 97.1191 -0.292969 L 104.248 -0.292969 C 111.963 -0.292969 115.771 -4.00391 115.771 -11.7676 L 115.771 -57.7637 C 115.771 -65.5273 111.963 -69.2871 104.248 -69.2871 L 97.1191 -69.2871 L 97.1191 -75.2441 C 97.1191 -82.373 93.8965 -85.4492 86.8164 -85.4492 L 41.4062 -85.4492 C 34.3262 -85.4492 31.1523 -82.373 31.1523 -75.2441 L 31.1523 -69.2871 L 23.9746 -69.2871 C 16.3086 -69.2871 12.4512 -65.5273 12.4512 -57.7637 L 12.4512 -11.7676 C 12.4512 -4.00391 16.3086 -0.292969 23.9746 -0.292969 Z M 33.5449 -75.2441 C 33.5449 -81.0059 35.6445 -83.2031 41.4062 -83.2031 L 86.8164 -83.2031 C 92.5781 -83.2031 94.6777 -81.0059 94.6777 -75.2441 L 94.6777 -69.2871 L 33.5449 -69.2871 Z M 23.9746 -2.58789 C 17.5781 -2.58789 14.8438 -5.41992 14.8438 -11.8164 L 14.8438 -57.7637 C 14.8438 -64.1602 17.5781 -66.9922 23.9746 -66.9922 L 104.248 -66.9922 C 110.645 -66.9922 113.379 -64.1602 113.379 -57.7637 L 113.379 -11.8164 C 113.379 -5.41992 110.645 -2.58789 104.248 -2.58789 L 97.1191 -2.58789 L 97.1191 -32.0801 C 97.1191 -39.2578 93.8477 -42.3828 86.7188 -42.3828 L 41.5039 -42.3828 C 34.375 -42.3828 31.1523 -39.2578 31.1523 -32.0801 L 31.1523 -2.58789 Z M 41.4551 13.6719 C 35.6445 13.6719 33.5449 11.4746 33.5449 5.66406 L 33.5449 -32.0801 C 33.5449 -37.8906 35.6445 -40.0879 41.4551 -40.0879 L 86.7676 -40.0879 C 92.5781 -40.0879 94.7266 -37.8906 94.7266 -32.0801 L 94.7266 5.66406 C 94.7266 11.4746 92.5781 13.6719 86.7676 13.6719 Z M 43.6035 -20.166 L 84.6191 -20.166 C 85.3516 -20.166 85.8887 -20.7031 85.8887 -21.3867 C 85.8887 -22.0703 85.3516 -22.6074 84.6191 -22.6074 L 43.6035 -22.6074 C 42.8711 -22.6074 42.334 -22.0703 42.334 -21.3867 C 42.334 -20.7031 42.8711 -20.166 43.6035 -20.166 Z M 43.6035 -2.83203 L 84.6191 -2.83203 C 85.3516 -2.83203 85.8887 -3.36914 85.8887 -4.05273 C 85.8887 -4.73633 85.3516 -5.27344 84.6191 -5.27344 L 43.6035 -5.27344 C 42.8711 -5.27344 42.334 -4.73633 42.334 -4.05273 C 42.334 -3.36914 42.8711 -2.83203 43.6035 -2.83203 Z"/>
  </g>
  <g id="Black-S" transform="matrix(1 0 0 1 2877.44 696)">
   <path d="M 24.8047 -4.39453 L 28.3691 -4.39453 L 28.3691 -2.88086 C 28.3691 5.41992 32.2266 9.27734 40.5273 9.27734 L 71.3867 9.27734 C 79.6875 9.27734 83.5449 5.41992 83.5449 -2.88086 L 83.5449 -4.39453 L 87.1094 -4.39453 C 96.6309 -4.39453 102.148 -9.91211 102.148 -19.4336 L 102.148 -51.5625 C 102.148 -61.084 96.6309 -66.6016 87.1094 -66.6016 L 84.8633 -66.6016 L 84.8633 -68.8477 C 84.8633 -78.125 80.2734 -82.7148 70.9961 -82.7148 L 40.918 -82.7148 C 31.6406 -82.7148 27.0508 -78.125 27.0508 -68.8477 L 27.0508 -66.6016 L 24.8047 -66.6016 C 15.2832 -66.6016 9.76562 -61.084 9.76562 -51.5625 L 9.76562 -19.4336 C 9.76562 -9.91211 15.2832 -4.39453 24.8047 -4.39453 Z M 39.2578 -69.9219 C 39.2578 -71.2402 40.0391 -71.9727 41.2598 -71.9727 L 70.6543 -71.9727 C 71.875 -71.9727 72.6562 -71.2402 72.6562 -69.9219 L 72.6562 -66.6016 L 39.2578 -66.6016 Z M 25.1465 -16.1133 C 23.0957 -16.1133 21.9727 -17.2363 21.9727 -19.2871 L 21.9727 -51.6602 C 21.9727 -53.7109 23.0957 -54.8828 25.1465 -54.8828 L 86.7676 -54.8828 C 88.8184 -54.8828 89.9414 -53.7109 89.9414 -51.6602 L 89.9414 -19.2871 C 89.9414 -17.2363 88.8184 -16.1133 86.7676 -16.1133 L 83.5449 -16.1133 L 83.5449 -31.4941 C 83.5449 -39.7949 79.6875 -43.6523 71.3867 -43.6523 L 40.5273 -43.6523 C 32.2266 -43.6523 28.3691 -39.7949 28.3691 -31.4941 L 28.3691 -16.1133 Z M 40.5273 -1.41602 C 39.6484 -1.41602 39.1113 -1.9043 39.1113 -2.83203 L 39.1113 -31.4941 C 39.1113 -32.4219 39.6484 -32.9102 40.5273 -32.9102 L 71.3867 -32.9102 C 72.2656 -32.9102 72.8027 -32.4219 72.8027 -31.4941 L 72.8027 -2.83203 C 72.8027 -1.9043 72.2656 -1.41602 71.3867 -1.41602 Z M 46.3867 -20.6055 L 65.625 -20.6055 C 67.1875 -20.6055 68.3594 -21.8262 68.3594 -23.3887 C 68.3594 -24.9023 67.1875 -26.0742 65.625 -26.0742 L 46.3867 -26.0742 C 44.7754 -26.0742 43.6035 -24.9023 43.6035 -23.3887 C 43.6035 -21.8262 44.7754 -20.6055 46.3867 -20.6055 Z M 46.3867 -8.30078 L 65.625 -8.30078 C 67.1875 -8.30078 68.3594 -9.47266 68.3594 -10.9863 C 68.3594 -12.5488 67.1875 -13.7695 65.625 -13.7695 L 46.3867 -13.7695 C 44.7754 -13.7695 43.6035 -12.5488 43.6035 -10.9863 C 43.6035 -9.47266 44.7754 -8.30078 46.3867 -8.30078 Z"/>
  </g>
  <g id="Heavy-S" transform="matrix(1 0 0 1 2581.29 696)">
   <path d="M 24.0723 -4.3457 L 27.6367 -4.3457 L 27.6367 -2.19727 C 27.6367 5.32227 31.2012 8.78906 38.623 8.78906 L 72.1191 8.78906 C 79.5898 8.78906 83.1055 5.32227 83.1055 -2.19727 L 83.1055 -4.3457 L 86.7188 -4.3457 C 95.8008 -4.3457 101.025 -9.47266 101.025 -18.5547 L 101.025 -51.5625 C 101.025 -60.6445 95.8008 -65.8203 86.7188 -65.8203 L 84.1797 -65.8203 L 84.1797 -67.8711 C 84.1797 -76.8066 79.7363 -81.1523 70.8984 -81.1523 L 39.8438 -81.1523 C 31.1035 -81.1523 26.5625 -76.8066 26.5625 -67.8711 L 26.5625 -65.8203 L 24.0723 -65.8203 C 15.0879 -65.8203 9.76562 -60.6445 9.76562 -51.5625 L 9.76562 -18.5547 C 9.76562 -9.47266 14.9414 -4.3457 24.0723 -4.3457 Z M 37.5 -68.7988 C 37.5 -70.5078 38.4766 -71.4355 40.0879 -71.4355 L 70.6543 -71.4355 C 72.3145 -71.4355 73.291 -70.5078 73.291 -68.7988 L 73.291 -65.8203 L 37.5 -65.8203 Z M 24.3164 -14.8438 C 22.0215 -14.8438 20.752 -16.0645 20.752 -18.3594 L 20.752 -51.709 C 20.752 -54.0039 22.0215 -55.2734 24.3164 -55.2734 L 86.4746 -55.2734 C 88.7695 -55.2734 90.0391 -54.0039 90.0391 -51.709 L 90.0391 -18.3594 C 90.0391 -16.0645 88.7695 -14.8438 86.4746 -14.8438 L 83.1055 -14.8438 L 83.1055 -31.9824 C 83.1055 -39.502 79.5898 -42.9688 72.1191 -42.9688 L 38.623 -42.9688 C 31.25 -42.9688 27.6367 -39.502 27.6367 -31.9824 L 27.6367 -14.8438 Z M 39.1602 -0.927734 C 38.1348 -0.927734 37.5 -1.51367 37.5 -2.58789 L 37.5 -31.543 C 37.5 -32.6172 38.1348 -33.2031 39.1602 -33.2031 L 71.6309 -33.2031 C 72.6562 -33.2031 73.2422 -32.6172 73.2422 -31.543 L 73.2422 -2.58789 C 73.2422 -1.51367 72.6562 -0.927734 71.6309 -0.927734 Z M 45.0684 -20.6543 L 65.7715 -20.6543 C 67.334 -20.6543 68.5059 -21.875 68.5059 -23.3887 C 68.5059 -24.9023 67.334 -26.0742 65.7715 -26.0742 L 45.0684 -26.0742 C 43.457 -26.0742 42.334 -24.9023 42.334 -23.3887 C 42.334 -21.875 43.457 -20.6543 45.0684 -20.6543 Z M 45.0684 -8.10547 L 65.7715 -8.10547 C 67.334 -8.10547 68.5059 -9.27734 68.5059 -10.7422 C 68.5059 -12.3047 67.334 -13.5254 65.7715 -13.5254 L 45.0684 -13.5254 C 43.457 -13.5254 42.334 -12.3047 42.334 -10.7422 C 42.334 -9.27734 43.457 -8.10547 45.0684 -8.10547 Z"/>
  </g>
  <g id="Bold-S" transform="matrix(1 0 0 1 2285.24 696)">
   <path d="M 23.1934 -4.24805 L 26.8555 -4.24805 L 26.8555 -1.41602 C 26.8555 5.22461 30.0293 8.25195 36.5234 8.25195 L 72.998 8.25195 C 79.4922 8.25195 82.6172 5.22461 82.6172 -1.41602 L 82.6172 -4.24805 L 86.2793 -4.24805 C 94.873 -4.24805 99.707 -8.98438 99.707 -17.627 L 99.707 -51.5625 C 99.707 -60.1562 94.873 -64.8926 86.2793 -64.8926 L 83.4473 -64.8926 L 83.4473 -66.7969 C 83.4473 -75.3418 79.1504 -79.3945 70.8496 -79.3945 L 38.6719 -79.3945 C 30.5664 -79.3945 26.0254 -75.3418 26.0254 -66.7969 L 26.0254 -64.8926 L 23.1934 -64.8926 C 14.8438 -64.8926 9.76562 -60.1562 9.76562 -51.5625 L 9.76562 -17.627 C 9.76562 -8.98438 14.5996 -4.24805 23.1934 -4.24805 Z M 35.498 -67.5781 C 35.498 -69.6777 36.7188 -70.8496 38.7695 -70.8496 L 70.7031 -70.8496 C 72.7539 -70.8496 73.9746 -69.6777 73.9746 -67.5781 L 73.9746 -64.8926 L 35.498 -64.8926 Z M 23.3398 -13.3789 C 20.8008 -13.3789 19.3848 -14.7949 19.3848 -17.334 L 19.3848 -51.8066 C 19.3848 -54.3457 20.8008 -55.7617 23.3398 -55.7617 L 86.1328 -55.7617 C 88.6719 -55.7617 90.0879 -54.3457 90.0879 -51.8066 L 90.0879 -17.334 C 90.0879 -14.7949 88.6719 -13.3789 86.1328 -13.3789 L 82.6172 -13.3789 L 82.6172 -32.5684 C 82.6172 -39.1602 79.4922 -42.1875 72.998 -42.1875 L 36.5234 -42.1875 C 30.127 -42.1875 26.8555 -39.1602 26.8555 -32.5684 L 26.8555 -13.3789 Z M 37.6465 -0.390625 C 36.4746 -0.390625 35.7422 -1.07422 35.7422 -2.29492 L 35.7422 -31.6406 C 35.7422 -32.8613 36.4746 -33.5449 37.6465 -33.5449 L 71.875 -33.5449 C 73.0469 -33.5449 73.7305 -32.8613 73.7305 -31.6406 L 73.7305 -2.29492 C 73.7305 -1.07422 73.0469 -0.390625 71.875 -0.390625 Z M 43.6035 -20.7031 L 65.9668 -20.7031 C 67.4805 -20.7031 68.6523 -21.875 68.6523 -23.4375 C 68.6523 -24.9023 67.4805 -26.0742 65.9668 -26.0742 L 43.6035 -26.0742 C 42.041 -26.0742 40.8691 -24.9023 40.8691 -23.4375 C 40.8691 -21.875 42.041 -20.7031 43.6035 -20.7031 Z M 43.6035 -7.86133 L 65.9668 -7.86133 C 67.4805 -7.86133 68.6523 -9.0332 68.6523 -10.498 C 68.6523 -12.0605 67.4805 -13.2324 65.9668 -13.2324 L 43.6035 -13.2324 C 42.041 -13.2324 40.8691 -12.0605 40.8691 -10.498 C 40.8691 -9.0332 42.041 -7.86133 43.6035 -7.86133 Z"/>
  </g>
  <g id="Semibold-S" transform="matrix(1 0 0 1 1988.97 696)">
   <path d="M 22.6562 -4.19922 L 26.3184 -4.19922 L 26.3184 -0.878906 C 26.3184 5.17578 29.1992 7.86133 35.0586 7.86133 L 73.584 7.86133 C 79.3945 7.86133 82.3242 5.17578 82.3242 -0.878906 L 82.3242 -4.19922 L 85.9863 -4.19922 C 94.2871 -4.19922 98.8281 -8.64258 98.8281 -16.9434 L 98.8281 -51.5625 C 98.8281 -59.8633 94.2871 -64.3066 85.9863 -64.3066 L 82.959 -64.3066 L 82.959 -66.0156 C 82.959 -74.3164 78.7598 -78.1738 70.752 -78.1738 L 37.8418 -78.1738 C 30.127 -78.1738 25.6836 -74.3164 25.6836 -66.0156 L 25.6836 -64.3066 L 22.6562 -64.3066 C 14.6484 -64.3066 9.76562 -59.8633 9.76562 -51.5625 L 9.76562 -16.9434 C 9.76562 -8.64258 14.3555 -4.19922 22.6562 -4.19922 Z M 34.1797 -66.6992 C 34.1797 -69.1406 35.498 -70.4102 37.8906 -70.4102 L 70.7031 -70.4102 C 73.0957 -70.4102 74.4629 -69.1406 74.4629 -66.6992 L 74.4629 -64.3066 L 34.1797 -64.3066 Z M 22.6562 -12.4023 C 19.9707 -12.4023 18.457 -13.916 18.457 -16.6504 L 18.457 -51.8066 C 18.457 -54.541 19.9707 -56.0547 22.6562 -56.0547 L 85.9375 -56.0547 C 88.6719 -56.0547 90.1367 -54.541 90.1367 -51.8066 L 90.1367 -16.6504 C 90.1367 -13.916 88.6719 -12.4023 85.9375 -12.4023 L 82.3242 -12.4023 L 82.3242 -32.9102 C 82.3242 -38.9648 79.3945 -41.6504 73.584 -41.6504 L 35.0586 -41.6504 C 29.3945 -41.6504 26.3184 -38.9648 26.3184 -32.9102 L 26.3184 -12.4023 Z M 36.6211 -0.0488281 C 35.3027 -0.0488281 34.5215 -0.732422 34.5215 -2.09961 L 34.5215 -31.6895 C 34.5215 -33.0566 35.3027 -33.7402 36.6211 -33.7402 L 72.0215 -33.7402 C 73.3398 -33.7402 74.0723 -33.0566 74.0723 -31.6895 L 74.0723 -2.09961 C 74.0723 -0.732422 73.3398 -0.0488281 72.0215 -0.0488281 Z M 42.627 -20.7031 L 66.1133 -20.7031 C 67.627 -20.7031 68.75 -21.875 68.75 -23.4375 C 68.75 -24.9023 67.627 -26.0254 66.1133 -26.0254 L 42.627 -26.0254 C 41.0156 -26.0254 39.8926 -24.9023 39.8926 -23.4375 C 39.8926 -21.875 41.0156 -20.7031 42.627 -20.7031 Z M 42.627 -7.71484 L 66.1133 -7.71484 C 67.627 -7.71484 68.75 -8.88672 68.75 -10.3516 C 68.75 -11.8652 67.627 -13.0859 66.1133 -13.0859 L 42.627 -13.0859 C 41.0156 -13.0859 39.8926 -11.8652 39.8926 -10.3516 C 39.8926 -8.88672 41.0156 -7.71484 42.627 -7.71484 Z"/>
  </g>
  <g id="Medium-S" transform="matrix(1 0 0 1 1692.58 696)">
   <path d="M 22.2168 -4.15039 L 25.8789 -4.15039 L 25.8789 -0.488281 C 25.8789 5.07812 28.5645 7.56836 33.9355 7.56836 L 74.0234 7.56836 C 79.3457 7.56836 82.0312 5.07812 82.0312 -0.488281 L 82.0312 -4.15039 L 85.7422 -4.15039 C 93.7988 -4.15039 98.1934 -8.39844 98.1934 -16.4551 L 98.1934 -51.5625 C 98.1934 -59.5703 93.7988 -63.8184 85.7422 -63.8184 L 82.5684 -63.8184 L 82.5684 -65.4297 C 82.5684 -73.5352 78.4668 -77.2461 70.7031 -77.2461 L 37.207 -77.2461 C 29.834 -77.2461 25.3906 -73.5352 25.3906 -65.4297 L 25.3906 -63.8184 L 22.2168 -63.8184 C 14.5508 -63.8184 9.76562 -59.5703 9.76562 -51.5625 L 9.76562 -16.4551 C 9.76562 -8.39844 14.1602 -4.15039 22.2168 -4.15039 Z M 33.1055 -66.0645 C 33.1055 -68.7012 34.5703 -70.1172 37.207 -70.1172 L 70.752 -70.1172 C 73.3398 -70.1172 74.8047 -68.7012 74.8047 -66.0645 L 74.8047 -63.8184 L 33.1055 -63.8184 Z M 22.168 -11.6699 C 19.3359 -11.6699 17.7246 -13.2324 17.7246 -16.1133 L 17.7246 -51.8555 C 17.7246 -54.7363 19.3359 -56.2988 22.168 -56.2988 L 85.7422 -56.2988 C 88.623 -56.2988 90.1855 -54.7363 90.1855 -51.8555 L 90.1855 -16.1133 C 90.1855 -13.2324 88.623 -11.6699 85.7422 -11.6699 L 82.0312 -11.6699 L 82.0312 -33.2031 C 82.0312 -38.7695 79.3457 -41.2598 74.0234 -41.2598 L 33.9355 -41.2598 C 28.8086 -41.2598 25.8789 -38.7695 25.8789 -33.2031 L 25.8789 -11.6699 Z M 35.8398 0.244141 C 34.4238 0.244141 33.5938 -0.537109 33.5938 -1.95312 L 33.5938 -31.7383 C 33.5938 -33.1543 34.4238 -33.9355 35.8398 -33.9355 L 72.168 -33.9355 C 73.584 -33.9355 74.3652 -33.1543 74.3652 -31.7383 L 74.3652 -1.95312 C 74.3652 -0.537109 73.584 0.244141 72.168 0.244141 Z M 41.8457 -20.7031 L 66.1621 -20.7031 C 67.7246 -20.7031 68.8477 -21.9238 68.8477 -23.4375 C 68.8477 -24.9023 67.7246 -26.0254 66.1621 -26.0254 L 41.8457 -26.0254 C 40.2832 -26.0254 39.1602 -24.9023 39.1602 -23.4375 C 39.1602 -21.9238 40.2832 -20.7031 41.8457 -20.7031 Z M 41.8457 -7.61719 L 66.1621 -7.61719 C 67.7246 -7.61719 68.8477 -8.74023 68.8477 -10.2051 C 68.8477 -11.7188 67.7246 -12.9395 66.1621 -12.9395 L 41.8457 -12.9395 C 40.2832 -12.9395 39.1602 -11.7188 39.1602 -10.2051 C 39.1602 -8.74023 40.2832 -7.61719 41.8457 -7.61719 Z"/>
  </g>
  <g id="Regular-S" transform="matrix(1 0 0 1 1396.3 696)">
   <path d="M 21.6309 -4.10156 L 25.3418 -4.10156 L 25.3418 0.0488281 C 25.3418 5.0293 27.7832 7.17773 32.4707 7.17773 L 74.6094 7.17773 C 79.2969 7.17773 81.7383 5.0293 81.7383 0.0488281 L 81.7383 -4.10156 L 85.4492 -4.10156 C 93.1641 -4.10156 97.3145 -8.05664 97.3145 -15.7715 L 97.3145 -51.5625 C 97.3145 -59.2773 93.1641 -63.2324 85.4492 -63.2324 L 82.0312 -63.2324 L 82.0312 -64.6973 C 82.0312 -72.5586 78.0762 -76.0254 70.6543 -76.0254 L 36.4258 -76.0254 C 29.4434 -76.0254 25 -72.5586 25 -64.6973 L 25 -63.2324 L 21.6309 -63.2324 C 14.3555 -63.2324 9.76562 -59.2773 9.76562 -51.5625 L 9.76562 -15.7715 C 9.76562 -8.05664 13.916 -4.10156 21.6309 -4.10156 Z M 31.7871 -65.2344 C 31.7871 -68.1152 33.3984 -69.6777 36.3281 -69.6777 L 70.752 -69.6777 C 73.6816 -69.6777 75.293 -68.1152 75.293 -65.2344 L 75.293 -63.2324 L 31.7871 -63.2324 Z M 21.5332 -10.6934 C 18.5059 -10.6934 16.7969 -12.3535 16.7969 -15.4297 L 16.7969 -51.9043 C 16.7969 -54.9316 18.5059 -56.6406 21.5332 -56.6406 L 85.5469 -56.6406 C 88.5742 -56.6406 90.2344 -54.9316 90.2344 -51.9043 L 90.2344 -15.4297 C 90.2344 -12.3535 88.5742 -10.6934 85.5469 -10.6934 L 81.7383 -10.6934 L 81.7383 -33.5938 C 81.7383 -38.5742 79.2969 -40.7227 74.6094 -40.7227 L 32.4707 -40.7227 C 28.0762 -40.7227 25.3418 -38.5742 25.3418 -33.5938 L 25.3418 -10.6934 Z M 34.7656 0.634766 C 33.252 0.634766 32.373 -0.195312 32.373 -1.80664 L 32.373 -31.7871 C 32.373 -33.3008 33.252 -34.1309 34.7656 -34.1309 L 72.3145 -34.1309 C 73.877 -34.1309 74.6582 -33.3008 74.6582 -31.7871 L 74.6582 -1.80664 C 74.6582 -0.195312 73.877 0.634766 72.3145 0.634766 Z M 40.8691 -20.752 L 66.3086 -20.752 C 67.8223 -20.752 68.9453 -21.9238 68.9453 -23.4375 C 68.9453 -24.9023 67.8223 -26.0254 66.3086 -26.0254 L 40.8691 -26.0254 C 39.3066 -26.0254 38.1348 -24.9023 38.1348 -23.4375 C 38.1348 -21.9238 39.3066 -20.752 40.8691 -20.752 Z M 40.8691 -7.4707 L 66.3086 -7.4707 C 67.8223 -7.4707 68.9453 -8.59375 68.9453 -10.0586 C 68.9453 -11.5723 67.8223 -12.7441 66.3086 -12.7441 L 40.8691 -12.7441 C 39.3066 -12.7441 38.1348 -11.5723 38.1348 -10.0586 C 38.1348 -8.59375 39.3066 -7.4707 40.8691 -7.4707 Z"/>
  </g>
  <g id="Light-S" transform="matrix(1 0 0 1 1100.62 696)">
   <path d="M 20.752 -5.27344 L 25.0488 -5.27344 L 25.0488 -0.976562 C 25.0488 4.19922 27.5391 6.44531 32.4707 6.44531 L 72.5098 6.44531 C 77.4902 6.44531 79.9805 4.19922 79.9805 -0.976562 L 79.9805 -5.27344 L 84.2773 -5.27344 C 91.4551 -5.27344 95.2637 -8.88672 95.2637 -16.1133 L 95.2637 -51.9531 C 95.2637 -59.1797 91.4551 -62.793 84.2773 -62.793 L 80.1758 -62.793 L 80.1758 -65.2832 C 80.1758 -72.4121 76.6602 -75.5859 69.8242 -75.5859 L 35.1562 -75.5859 C 28.6621 -75.5859 24.8047 -72.4121 24.8047 -65.2832 L 24.8047 -62.793 L 20.752 -62.793 C 13.8672 -62.793 9.76562 -59.1797 9.76562 -51.9531 L 9.76562 -16.1133 C 9.76562 -8.88672 13.5742 -5.27344 20.752 -5.27344 Z M 30.0781 -65.625 C 30.0781 -69.043 31.6895 -70.6543 35.1074 -70.6543 L 69.9219 -70.6543 C 73.3398 -70.6543 74.9512 -69.043 74.9512 -65.625 L 74.9512 -62.793 L 30.0781 -62.793 Z M 20.7031 -10.3516 C 17.041 -10.3516 15.1855 -12.207 15.1855 -15.8691 L 15.1855 -52.1973 C 15.1855 -55.8594 17.041 -57.7148 20.7031 -57.7148 L 84.3262 -57.7148 C 87.9883 -57.7148 89.7949 -55.8594 89.7949 -52.1973 L 89.7949 -15.8691 C 89.7949 -12.207 87.9883 -10.3516 84.3262 -10.3516 L 79.9805 -10.3516 L 79.9805 -33.3496 C 79.9805 -38.5254 77.4902 -40.7715 72.5098 -40.7715 L 32.4707 -40.7715 C 27.7344 -40.7715 25.0488 -38.5254 25.0488 -33.3496 L 25.0488 -10.3516 Z M 34.082 1.36719 C 31.5918 1.36719 30.4688 0.292969 30.4688 -2.24609 L 30.4688 -32.0801 C 30.4688 -34.5703 31.5918 -35.6934 34.082 -35.6934 L 70.9961 -35.6934 C 73.4375 -35.6934 74.5117 -34.5703 74.5117 -32.0801 L 74.5117 -2.24609 C 74.5117 0.292969 73.4375 1.36719 70.9961 1.36719 Z M 38.7695 -21.582 L 66.3086 -21.582 C 67.5293 -21.582 68.457 -22.5098 68.457 -23.7305 C 68.457 -24.9023 67.5293 -25.8301 66.3086 -25.8301 L 38.7695 -25.8301 C 37.5 -25.8301 36.6211 -24.9023 36.6211 -23.7305 C 36.6211 -22.5098 37.5 -21.582 38.7695 -21.582 Z M 38.7695 -8.20312 L 66.3086 -8.20312 C 67.5293 -8.20312 68.457 -9.13086 68.457 -10.3027 C 68.457 -11.4746 67.5293 -12.4512 66.3086 -12.4512 L 38.7695 -12.4512 C 37.5 -12.4512 36.6211 -11.4746 36.6211 -10.3027 C 36.6211 -9.13086 37.5 -8.20312 38.7695 -8.20312 Z"/>
  </g>
  <g id="Thin-S" transform="matrix(1 0 0 1 805.275 696)">
   <path d="M 19.5801 -6.83594 L 24.6582 -6.83594 L 24.6582 -2.29492 C 24.6582 3.125 27.1973 5.51758 32.5195 5.51758 L 69.7754 5.51758 C 75.1465 5.51758 77.6367 3.125 77.6367 -2.29492 L 77.6367 -6.83594 L 82.7148 -6.83594 C 89.209 -6.83594 92.5293 -10.0098 92.5293 -16.5527 L 92.5293 -52.5391 C 92.5293 -59.082 89.209 -62.2559 82.7148 -62.2559 L 77.7344 -62.2559 L 77.7344 -66.0645 C 77.7344 -72.2656 74.8047 -75 68.75 -75 L 33.5449 -75 C 27.6367 -75 24.5605 -72.2656 24.5605 -66.0645 L 24.5605 -62.2559 L 19.5801 -62.2559 C 13.2324 -62.2559 9.76562 -59.082 9.76562 -52.5391 L 9.76562 -16.5527 C 9.76562 -10.0098 13.0859 -6.83594 19.5801 -6.83594 Z M 27.7832 -66.2109 C 27.7832 -70.2637 29.4434 -71.9238 33.5449 -71.9238 L 68.7988 -71.9238 C 72.8516 -71.9238 74.5117 -70.2637 74.5117 -66.2109 L 74.5117 -62.2559 L 27.7832 -62.2559 Z M 19.5801 -9.96094 C 15.0879 -9.96094 13.0859 -12.0117 13.0859 -16.4551 L 13.0859 -52.6367 C 13.0859 -57.0801 15.0879 -59.1309 19.5801 -59.1309 L 82.7637 -59.1309 C 87.207 -59.1309 89.2578 -57.0801 89.2578 -52.6367 L 89.2578 -16.4551 C 89.2578 -12.0117 87.207 -9.96094 82.7637 -9.96094 L 77.6367 -9.96094 L 77.6367 -33.0078 C 77.6367 -38.4277 75.1465 -40.7715 69.7754 -40.7715 L 32.5195 -40.7715 C 27.2461 -40.7715 24.6582 -38.4277 24.6582 -33.0078 L 24.6582 -9.96094 Z M 33.1055 2.39258 C 29.3945 2.39258 27.9785 0.927734 27.9785 -2.7832 L 27.9785 -32.5195 C 27.9785 -36.2305 29.3945 -37.6953 33.1055 -37.6953 L 69.1895 -37.6953 C 72.9004 -37.6953 74.3652 -36.2305 74.3652 -32.5195 L 74.3652 -2.7832 C 74.3652 0.927734 72.9004 2.39258 69.1895 2.39258 Z M 36.0352 -22.7051 L 66.3086 -22.7051 C 67.1387 -22.7051 67.7734 -23.3398 67.7734 -24.1211 C 67.7734 -24.9023 67.1387 -25.5371 66.3086 -25.5371 L 36.0352 -25.5371 C 35.1562 -25.5371 34.5703 -24.9023 34.5703 -24.1211 C 34.5703 -23.3398 35.1562 -22.7051 36.0352 -22.7051 Z M 36.0352 -9.17969 L 66.3086 -9.17969 C 67.1387 -9.17969 67.7734 -9.81445 67.7734 -10.5957 C 67.7734 -11.377 67.1387 -12.0117 66.3086 -12.0117 L 36.0352 -12.0117 C 35.1562 -12.0117 34.5703 -11.377 34.5703 -10.5957 C 34.5703 -9.81445 35.1562 -9.17969 36.0352 -9.17969 Z"/>
  </g>
  <g id="Ultralight-S" transform="matrix(1 0 0 1 509.247 696)">
   <path d="M 18.9941 -7.61719 L 24.4629 -7.61719 L 24.4629 -3.02734 C 24.4629 2.58789 27.002 4.98047 32.5195 4.98047 L 68.4082 4.98047 C 73.9258 4.98047 76.4648 2.58789 76.4648 -3.02734 L 76.4648 -7.61719 L 81.9336 -7.61719 C 88.0371 -7.61719 91.1621 -10.5957 91.1621 -16.7969 L 91.1621 -52.832 C 91.1621 -58.9844 88.0371 -61.9629 81.9336 -61.9629 L 76.4648 -61.9629 L 76.4648 -66.4551 C 76.4648 -72.168 73.8281 -74.6582 68.2129 -74.6582 L 32.7148 -74.6582 C 27.0996 -74.6582 24.4629 -72.168 24.4629 -66.4551 L 24.4629 -61.9629 L 18.9941 -61.9629 C 12.8906 -61.9629 9.76562 -58.9844 9.76562 -52.832 L 9.76562 -16.7969 C 9.76562 -10.5957 12.8418 -7.61719 18.9941 -7.61719 Z M 26.6113 -66.5039 C 26.6113 -70.8984 28.2715 -72.6074 32.7148 -72.6074 L 68.2129 -72.6074 C 72.6074 -72.6074 74.2676 -70.8984 74.2676 -66.5039 L 74.2676 -61.9629 L 26.6113 -61.9629 Z M 18.9941 -9.7168 C 14.1113 -9.7168 11.9629 -11.9141 11.9629 -16.7969 L 11.9629 -52.832 C 11.9629 -57.7148 14.1113 -59.9121 18.9941 -59.9121 L 81.9336 -59.9121 C 86.8164 -59.9121 88.916 -57.7148 88.916 -52.832 L 88.916 -16.7969 C 88.916 -11.9141 86.8164 -9.7168 81.9336 -9.7168 L 76.4648 -9.7168 L 76.4648 -32.8125 C 76.4648 -38.3789 73.9258 -40.8203 68.4082 -40.8203 L 32.5195 -40.8203 C 27.002 -40.8203 24.4629 -38.3789 24.4629 -32.8125 L 24.4629 -9.7168 Z M 32.6172 2.92969 C 28.2715 2.92969 26.6602 1.2207 26.6602 -3.125 L 26.6602 -32.7148 C 26.6602 -37.0605 28.2715 -38.7207 32.6172 -38.7207 L 68.2617 -38.7207 C 72.6074 -38.7207 74.2188 -37.0605 74.2188 -32.7148 L 74.2188 -3.125 C 74.2188 1.2207 72.6074 2.92969 68.2617 2.92969 Z M 34.6191 -23.2422 L 66.3086 -23.2422 C 66.9434 -23.2422 67.4316 -23.7305 67.4316 -24.3164 C 67.4316 -24.9023 66.9434 -25.3906 66.3086 -25.3906 L 34.6191 -25.3906 C 33.9844 -25.3906 33.4961 -24.9023 33.4961 -24.3164 C 33.4961 -23.7305 33.9844 -23.2422 34.6191 -23.2422 Z M 34.6191 -9.7168 L 66.3086 -9.7168 C 66.9434 -9.7168 67.4316 -10.1562 67.4316 -10.7422 C 67.4316 -11.3281 66.9434 -11.8164 66.3086 -11.8164 L 34.6191 -11.8164 C 33.9844 -11.8164 33.4961 -11.3281 33.4961 -10.7422 C 33.4961 -10.1562 33.9844 -9.7168 34.6191 -9.7168 Z"/>
  </g>
 </g>
</svg>
