<?xml version="1.0" encoding="UTF-8"?>
<!--Generator: Apple Native CoreSVG 123-->
<!DOCTYPE svg
PUBLIC "-//W3C//DTD SVG 1.1//EN"
       "http://www.w3.org/Graphics/SVG/1.1/DTD/svg11.dtd">
<svg version="1.1" xmlns="http://www.w3.org/2000/svg" xmlns:xlink="http://www.w3.org/1999/xlink" width="3300" height="2200">
 <!--glyph: "uni100485.medium", point size: 100.000000, font version: "Version 15.0d7e11", template writer version: "5"-->
 <g id="Notes">
  <rect height="2200" id="artboard" style="fill:white;opacity:1" width="3300" x="0" y="0"/>
  <line id="" style="fill:none;stroke:black;opacity:1;stroke-width:0.5;" x1="263" x2="3036" y1="292" y2="292"/>
  <text style="stroke:none;fill:black;font-family:-apple-system,&quot;SF Pro Display&quot;,&quot;SF Pro Text&quot;,Helvetica,sans-serif;font-weight:bold;" transform="matrix(1 0 0 1 263 322)">Weight/Scale Variations</text>
  <text style="stroke:none;fill:black;font-family:-apple-system,&quot;SF Pro Display&quot;,&quot;SF Pro Text&quot;,Helvetica,sans-serif;text-anchor:middle;" transform="matrix(1 0 0 1 559.711 322)">Ultralight</text>
  <text style="stroke:none;fill:black;font-family:-apple-system,&quot;SF Pro Display&quot;,&quot;SF Pro Text&quot;,Helvetica,sans-serif;text-anchor:middle;" transform="matrix(1 0 0 1 856.422 322)">Thin</text>
  <text style="stroke:none;fill:black;font-family:-apple-system,&quot;SF Pro Display&quot;,&quot;SF Pro Text&quot;,Helvetica,sans-serif;text-anchor:middle;" transform="matrix(1 0 0 1 1153.13 322)">Light</text>
  <text style="stroke:none;fill:black;font-family:-apple-system,&quot;SF Pro Display&quot;,&quot;SF Pro Text&quot;,Helvetica,sans-serif;text-anchor:middle;" transform="matrix(1 0 0 1 1449.84 322)">Regular</text>
  <text style="stroke:none;fill:black;font-family:-apple-system,&quot;SF Pro Display&quot;,&quot;SF Pro Text&quot;,Helvetica,sans-serif;text-anchor:middle;" transform="matrix(1 0 0 1 1746.56 322)">Medium</text>
  <text style="stroke:none;fill:black;font-family:-apple-system,&quot;SF Pro Display&quot;,&quot;SF Pro Text&quot;,Helvetica,sans-serif;text-anchor:middle;" transform="matrix(1 0 0 1 2043.27 322)">Semibold</text>
  <text style="stroke:none;fill:black;font-family:-apple-system,&quot;SF Pro Display&quot;,&quot;SF Pro Text&quot;,Helvetica,sans-serif;text-anchor:middle;" transform="matrix(1 0 0 1 2339.98 322)">Bold</text>
  <text style="stroke:none;fill:black;font-family:-apple-system,&quot;SF Pro Display&quot;,&quot;SF Pro Text&quot;,Helvetica,sans-serif;text-anchor:middle;" transform="matrix(1 0 0 1 2636.69 322)">Heavy</text>
  <text style="stroke:none;fill:black;font-family:-apple-system,&quot;SF Pro Display&quot;,&quot;SF Pro Text&quot;,Helvetica,sans-serif;text-anchor:middle;" transform="matrix(1 0 0 1 2933.4 322)">Black</text>
  <line id="" style="fill:none;stroke:black;opacity:1;stroke-width:0.5;" x1="263" x2="3036" y1="1903" y2="1903"/>
  <g id="" transform="matrix(1 0 0 1 263 1933)">
   <path d="M 9.24805 0.830078 C 13.5547 0.830078 17.1387 -2.74414 17.1387 -7.05078 C 17.1387 -11.3574 13.5449 -14.9316 9.23828 -14.9316 C 4.94141 -14.9316 1.36719 -11.3574 1.36719 -7.05078 C 1.36719 -2.74414 4.95117 0.830078 9.24805 0.830078 Z M 9.24805 -0.654297 C 5.70312 -0.654297 2.87109 -3.49609 2.87109 -7.05078 C 2.87109 -10.6055 5.69336 -13.4473 9.23828 -13.4473 C 12.793 -13.4473 15.6348 -10.6055 15.6445 -7.05078 C 15.6543 -3.49609 12.8027 -0.654297 9.24805 -0.654297 Z M 9.22852 -3.42773 C 9.69727 -3.42773 9.9707 -3.74023 9.9707 -4.25781 L 9.9707 -6.31836 L 12.1973 -6.31836 C 12.6953 -6.31836 13.0371 -6.57227 13.0371 -7.04102 C 13.0371 -7.51953 12.7148 -7.7832 12.1973 -7.7832 L 9.9707 -7.7832 L 9.9707 -10.0098 C 9.9707 -10.5273 9.69727 -10.8496 9.22852 -10.8496 C 8.75977 -10.8496 8.50586 -10.5078 8.50586 -10.0098 L 8.50586 -7.7832 L 6.29883 -7.7832 C 5.78125 -7.7832 5.44922 -7.51953 5.44922 -7.04102 C 5.44922 -6.57227 5.80078 -6.31836 6.29883 -6.31836 L 8.50586 -6.31836 L 8.50586 -4.25781 C 8.50586 -3.75977 8.75977 -3.42773 9.22852 -3.42773 Z"/>
  </g>
  <g id="" transform="matrix(1 0 0 1 281.506 1933)">
   <path d="M 11.709 2.91016 C 17.1582 2.91016 21.6699 -1.60156 21.6699 -7.05078 C 21.6699 -12.4902 17.1484 -17.0117 11.6992 -17.0117 C 6.25977 -17.0117 1.74805 -12.4902 1.74805 -7.05078 C 1.74805 -1.60156 6.26953 2.91016 11.709 2.91016 Z M 11.709 1.25 C 7.09961 1.25 3.41797 -2.44141 3.41797 -7.05078 C 3.41797 -11.6504 7.08984 -15.3516 11.6992 -15.3516 C 16.3086 -15.3516 20 -11.6504 20.0098 -7.05078 C 20.0195 -2.44141 16.3184 1.25 11.709 1.25 Z M 11.6895 -2.41211 C 12.207 -2.41211 12.5195 -2.77344 12.5195 -3.33984 L 12.5195 -6.23047 L 15.5762 -6.23047 C 16.123 -6.23047 16.5039 -6.51367 16.5039 -7.03125 C 16.5039 -7.55859 16.1426 -7.86133 15.5762 -7.86133 L 12.5195 -7.86133 L 12.5195 -10.9277 C 12.5195 -11.5039 12.207 -11.8555 11.6895 -11.8555 C 11.1719 -11.8555 10.8789 -11.4844 10.8789 -10.9277 L 10.8789 -7.86133 L 7.83203 -7.86133 C 7.26562 -7.86133 6.89453 -7.55859 6.89453 -7.03125 C 6.89453 -6.51367 7.28516 -6.23047 7.83203 -6.23047 L 10.8789 -6.23047 L 10.8789 -3.33984 C 10.8789 -2.79297 11.1719 -2.41211 11.6895 -2.41211 Z"/>
  </g>
  <g id="" transform="matrix(1 0 0 1 304.924 1933)">
   <path d="M 14.9707 5.67383 C 21.9336 5.67383 27.6953 -0.078125 27.6953 -7.04102 C 27.6953 -14.0039 21.9238 -19.7559 14.9609 -19.7559 C 8.00781 -19.7559 2.25586 -14.0039 2.25586 -7.04102 C 2.25586 -0.078125 8.01758 5.67383 14.9707 5.67383 Z M 14.9707 3.85742 C 8.93555 3.85742 4.08203 -1.00586 4.08203 -7.04102 C 4.08203 -13.0762 8.92578 -17.9395 14.9609 -17.9395 C 21.0059 -17.9395 25.8594 -13.0762 25.8691 -7.04102 C 25.8789 -1.00586 21.0156 3.85742 14.9707 3.85742 Z M 14.9512 -1.06445 C 15.5176 -1.06445 15.8691 -1.45508 15.8691 -2.06055 L 15.8691 -6.13281 L 20.1074 -6.13281 C 20.6934 -6.13281 21.1133 -6.46484 21.1133 -7.02148 C 21.1133 -7.59766 20.7227 -7.93945 20.1074 -7.93945 L 15.8691 -7.93945 L 15.8691 -12.1875 C 15.8691 -12.8027 15.5176 -13.1934 14.9512 -13.1934 C 14.3848 -13.1934 14.0625 -12.7832 14.0625 -12.1875 L 14.0625 -7.93945 L 9.83398 -7.93945 C 9.21875 -7.93945 8.80859 -7.59766 8.80859 -7.02148 C 8.80859 -6.46484 9.23828 -6.13281 9.83398 -6.13281 L 14.0625 -6.13281 L 14.0625 -2.06055 C 14.0625 -1.47461 14.3848 -1.06445 14.9512 -1.06445 Z"/>
  </g>
  <text style="stroke:none;fill:black;font-family:-apple-system,&quot;SF Pro Display&quot;,&quot;SF Pro Text&quot;,Helvetica,sans-serif;font-weight:bold;" transform="matrix(1 0 0 1 263 1953)">Design Variations</text>
  <text style="stroke:none;fill:black;font-family:-apple-system,&quot;SF Pro Display&quot;,&quot;SF Pro Text&quot;,Helvetica,sans-serif;" transform="matrix(1 0 0 1 263 1971)">Symbols are supported in up to nine weights and three scales.</text>
  <text style="stroke:none;fill:black;font-family:-apple-system,&quot;SF Pro Display&quot;,&quot;SF Pro Text&quot;,Helvetica,sans-serif;" transform="matrix(1 0 0 1 263 1989)">For optimal layout with text and other symbols, vertically align</text>
  <text style="stroke:none;fill:black;font-family:-apple-system,&quot;SF Pro Display&quot;,&quot;SF Pro Text&quot;,Helvetica,sans-serif;" transform="matrix(1 0 0 1 263 2007)">symbols with the adjacent text.</text>
  <rect height="14" id="" style="fill:#00AEEF;stroke:none;opacity:0.4;" width="3" x="776" y="1919"/>
  <g id="" transform="matrix(1 0 0 1 779 1933)">
   <path d="M 10.5273 0 L 12.373 0 L 7.17773 -14.0918 L 5.43945 -14.0918 L 0.244141 0 L 2.08984 0 L 3.50586 -4.0332 L 9.11133 -4.0332 Z M 6.2793 -11.9531 L 6.33789 -11.9531 L 8.59375 -5.52734 L 4.02344 -5.52734 Z"/>
  </g>
  <rect height="14" id="" style="fill:#00AEEF;stroke:none;opacity:0.4;" width="3" x="791.617" y="1919"/>
  <text style="stroke:none;fill:black;font-family:-apple-system,&quot;SF Pro Display&quot;,&quot;SF Pro Text&quot;,Helvetica,sans-serif;font-weight:bold;" transform="matrix(1 0 0 1 776 1953)">Margins</text>
  <text style="stroke:none;fill:black;font-family:-apple-system,&quot;SF Pro Display&quot;,&quot;SF Pro Text&quot;,Helvetica,sans-serif;" transform="matrix(1 0 0 1 776 1971)">Leading and trailing margins on the left and right side of each symbol</text>
  <text style="stroke:none;fill:black;font-family:-apple-system,&quot;SF Pro Display&quot;,&quot;SF Pro Text&quot;,Helvetica,sans-serif;" transform="matrix(1 0 0 1 776 1989)">can be adjusted by modifying the width of the blue rectangles.</text>
  <text style="stroke:none;fill:black;font-family:-apple-system,&quot;SF Pro Display&quot;,&quot;SF Pro Text&quot;,Helvetica,sans-serif;" transform="matrix(1 0 0 1 776 2007)">Modifications are automatically applied proportionally to all</text>
  <text style="stroke:none;fill:black;font-family:-apple-system,&quot;SF Pro Display&quot;,&quot;SF Pro Text&quot;,Helvetica,sans-serif;" transform="matrix(1 0 0 1 776 2025)">scales and weights.</text>
  <g id="" transform="matrix(1 0 0 1 1289 1933)">
   <path d="M 2.83203 3.11523 L 4.375 4.6582 C 5.22461 5.48828 6.19141 5.41992 7.06055 4.46289 L 17.2754 -6.66016 C 17.7051 -6.36719 18.0957 -6.37695 18.5645 -6.47461 L 19.6094 -6.68945 L 20.3027 -5.99609 L 20.2539 -5.47852 C 20.1855 -4.95117 20.3516 -4.53125 20.8496 -4.0332 L 21.6602 -3.22266 C 22.168 -2.71484 22.8223 -2.68555 23.3008 -3.16406 L 26.5527 -6.41602 C 27.0312 -6.89453 27.0117 -7.54883 26.5039 -8.05664 L 25.6836 -8.87695 C 25.1855 -9.375 24.7754 -9.55078 24.2383 -9.47266 L 23.7109 -9.41406 L 23.0566 -10.0781 L 23.3398 -11.2207 C 23.4863 -11.7871 23.3398 -12.2559 22.7148 -12.8613 L 20.3027 -15.2539 C 16.7578 -18.7793 12.2266 -18.6719 9.11133 -15.5371 C 8.69141 -15.1074 8.64258 -14.5215 8.91602 -14.0918 C 9.15039 -13.7207 9.62891 -13.4961 10.2734 -13.6621 C 11.7871 -14.043 13.3008 -13.9258 14.7852 -12.9199 L 14.1602 -11.3379 C 13.9258 -10.752 13.9453 -10.2734 14.1797 -9.83398 L 3.01758 0.439453 C 2.08008 1.30859 1.97266 2.25586 2.83203 3.11523 Z M 10.6738 -15.1465 C 13.3398 -17.1387 16.6504 -16.8262 19.0527 -14.4141 L 21.6797 -11.8066 C 21.9141 -11.5723 21.9434 -11.3867 21.8848 -11.0938 L 21.5039 -9.53125 L 23.0762 -7.95898 L 24.043 -8.04688 C 24.3262 -8.07617 24.4141 -8.05664 24.6387 -7.83203 L 25.2637 -7.20703 L 22.5098 -4.46289 L 21.8848 -5.07812 C 21.6602 -5.30273 21.6406 -5.40039 21.6699 -5.68359 L 21.7578 -6.64062 L 20.1953 -8.20312 L 18.5742 -7.89062 C 18.291 -7.83203 18.1445 -7.83203 17.9102 -8.07617 L 15.7324 -10.2539 C 15.5078 -10.4883 15.4785 -10.625 15.6055 -10.9473 L 16.5527 -13.2227 C 14.9512 -14.7559 12.8418 -15.6055 10.8008 -14.9512 C 10.7129 -14.9219 10.6445 -14.9414 10.6152 -14.9805 C 10.5859 -15.0293 10.5859 -15.0781 10.6738 -15.1465 Z M 4.10156 2.41211 C 3.61328 1.91406 3.78906 1.61133 4.12109 1.30859 L 15.0781 -8.80859 L 16.3086 -7.57812 L 6.15234 3.34961 C 5.84961 3.68164 5.46875 3.7793 5.06836 3.37891 Z"/>
  </g>
  <text style="stroke:none;fill:black;font-family:-apple-system,&quot;SF Pro Display&quot;,&quot;SF Pro Text&quot;,Helvetica,sans-serif;font-weight:bold;" transform="matrix(1 0 0 1 1289 1953)">Exporting</text>
  <text style="stroke:none;fill:black;font-family:-apple-system,&quot;SF Pro Display&quot;,&quot;SF Pro Text&quot;,Helvetica,sans-serif;" transform="matrix(1 0 0 1 1289 1971)">Symbols should be outlined when exporting to ensure the</text>
  <text style="stroke:none;fill:black;font-family:-apple-system,&quot;SF Pro Display&quot;,&quot;SF Pro Text&quot;,Helvetica,sans-serif;" transform="matrix(1 0 0 1 1289 1989)">design is preserved when submitting to Xcode.</text>
  <text id="template-version" style="stroke:none;fill:black;font-family:-apple-system,&quot;SF Pro Display&quot;,&quot;SF Pro Text&quot;,Helvetica,sans-serif;text-anchor:end;" transform="matrix(1 0 0 1 3036 1933)">Template v.1.0</text>
  <text style="stroke:none;fill:black;font-family:-apple-system,&quot;SF Pro Display&quot;,&quot;SF Pro Text&quot;,Helvetica,sans-serif;text-anchor:end;" transform="matrix(1 0 0 1 3036 1951)">Generated from suit.spade</text>
  <text style="stroke:none;fill:black;font-family:-apple-system,&quot;SF Pro Display&quot;,&quot;SF Pro Text&quot;,Helvetica,sans-serif;text-anchor:end;" transform="matrix(1 0 0 1 3036 1969)">Typeset at 100 points</text>
  <text style="stroke:none;fill:black;font-family:-apple-system,&quot;SF Pro Display&quot;,&quot;SF Pro Text&quot;,Helvetica,sans-serif;" transform="matrix(1 0 0 1 263 726)">Small</text>
  <text style="stroke:none;fill:black;font-family:-apple-system,&quot;SF Pro Display&quot;,&quot;SF Pro Text&quot;,Helvetica,sans-serif;" transform="matrix(1 0 0 1 263 1156)">Medium</text>
  <text style="stroke:none;fill:black;font-family:-apple-system,&quot;SF Pro Display&quot;,&quot;SF Pro Text&quot;,Helvetica,sans-serif;" transform="matrix(1 0 0 1 263 1586)">Large</text>
 </g>
 <g id="Guides">
  <g id="H-reference" style="fill:#27AAE1;stroke:none;" transform="matrix(1 0 0 1 339 696)">
   <path d="M 54.9316 0 L 57.666 0 L 30.5664 -70.459 L 28.0762 -70.459 L 0.976562 0 L 3.66211 0 L 12.9395 -24.4629 L 45.7031 -24.4629 Z M 29.1992 -67.0898 L 29.4434 -67.0898 L 44.8242 -26.709 L 13.8184 -26.709 Z"/>
  </g>
  <line id="Baseline-S" style="fill:none;stroke:#27AAE1;opacity:1;stroke-width:0.577;" x1="263" x2="3036" y1="696" y2="696"/>
  <line id="Capline-S" style="fill:none;stroke:#27AAE1;opacity:1;stroke-width:0.577;" x1="263" x2="3036" y1="625.541" y2="625.541"/>
  <g id="H-reference" style="fill:#27AAE1;stroke:none;" transform="matrix(1 0 0 1 339 1126)">
   <path d="M 54.9316 0 L 57.666 0 L 30.5664 -70.459 L 28.0762 -70.459 L 0.976562 0 L 3.66211 0 L 12.9395 -24.4629 L 45.7031 -24.4629 Z M 29.1992 -67.0898 L 29.4434 -67.0898 L 44.8242 -26.709 L 13.8184 -26.709 Z"/>
  </g>
  <line id="Baseline-M" style="fill:none;stroke:#27AAE1;opacity:1;stroke-width:0.577;" x1="263" x2="3036" y1="1126" y2="1126"/>
  <line id="Capline-M" style="fill:none;stroke:#27AAE1;opacity:1;stroke-width:0.577;" x1="263" x2="3036" y1="1055.54" y2="1055.54"/>
  <g id="H-reference" style="fill:#27AAE1;stroke:none;" transform="matrix(1 0 0 1 339 1556)">
   <path d="M 54.9316 0 L 57.666 0 L 30.5664 -70.459 L 28.0762 -70.459 L 0.976562 0 L 3.66211 0 L 12.9395 -24.4629 L 45.7031 -24.4629 Z M 29.1992 -67.0898 L 29.4434 -67.0898 L 44.8242 -26.709 L 13.8184 -26.709 Z"/>
  </g>
  <line id="Baseline-L" style="fill:none;stroke:#27AAE1;opacity:1;stroke-width:0.577;" x1="263" x2="3036" y1="1556" y2="1556"/>
  <line id="Capline-L" style="fill:none;stroke:#27AAE1;opacity:1;stroke-width:0.577;" x1="263" x2="3036" y1="1485.54" y2="1485.54"/>
  <rect height="119.336" id="left-margin" style="fill:#00AEEF;stroke:none;opacity:0.4;" width="8.74023" x="1395.28" y="1030.79"/>
  <rect height="119.336" id="right-margin" style="fill:#00AEEF;stroke:none;opacity:0.4;" width="8.74023" x="1495.67" y="1030.79"/>
 </g>
 <g id="Symbols">
  <g id="Black-L" transform="matrix(1 0 0 1 2856.96 1556)">
   <path d="M 11.2793 -23.4375 C 11.2793 -5.0293 24.7559 6.54297 39.3555 6.54297 C 45.3613 6.54297 50.5371 5.41992 55.127 3.125 C 52.7832 6.98242 50 9.81445 47.3145 12.9883 C 41.3574 20.1172 44.043 31.25 55.0781 31.25 L 97.8027 31.25 C 108.838 31.25 111.523 20.1172 105.566 12.9883 C 103.223 10.2051 100.928 7.08008 99.0723 3.61328 C 103.516 5.66406 108.35 6.64062 113.428 6.5918 C 128.125 6.49414 141.602 -4.88281 141.602 -23.4375 C 141.602 -53.2715 102.588 -67.8711 87.5488 -96.4844 C 85.0586 -101.416 81.7871 -104.199 76.4648 -104.199 C 71.0938 -104.199 67.9199 -101.416 65.332 -96.4844 C 50.2441 -67.9199 11.2793 -53.2715 11.2793 -23.4375 Z M 33.3008 -25.1465 C 33.3008 -40.1367 59.375 -46.9238 76.4648 -79.7852 C 93.5547 -46.9238 119.58 -40.1367 119.58 -25.1465 C 119.58 -18.4082 115.234 -13.4277 107.275 -13.4277 C 101.416 -13.4277 97.6562 -15.0879 93.0664 -17.4805 C 87.8418 -20.2148 79.7363 -17.627 79.7363 -8.20312 C 79.7363 -2.53906 82.7148 4.54102 85.5469 8.88672 C 86.1816 9.81445 85.5957 10.498 84.9121 10.498 L 67.9688 10.498 C 67.334 10.498 66.748 9.91211 67.3828 8.88672 C 70.4102 3.85742 73.1934 -2.83203 73.1934 -8.20312 C 73.1934 -17.627 65.0391 -20.2148 59.8145 -17.4805 C 55.2734 -15.0879 51.5137 -13.4277 45.6055 -13.4277 C 37.6953 -13.4277 33.3008 -18.4082 33.3008 -25.1465 Z"/>
  </g>
  <g id="Heavy-L" transform="matrix(1 0 0 1 2561.81 1556)">
   <path d="M 11.2793 -23.584 C 11.2793 -5.76172 24.0723 5.56641 39.0137 5.56641 C 45.2637 5.56641 50.7324 4.19922 55.4199 1.51367 C 52.9297 6.10352 49.7559 9.42383 46.9238 12.7441 C 41.4062 19.2871 43.8965 29.248 53.8574 29.248 L 95.8984 29.248 C 105.859 29.248 108.35 19.2871 102.832 12.7441 C 100.293 9.7168 97.5586 6.10352 95.459 2.05078 C 100.049 4.39453 105.225 5.61523 110.693 5.61523 C 125.684 5.51758 138.477 -5.66406 138.477 -23.584 C 138.477 -52.6367 99.707 -66.7969 84.668 -95.6055 C 82.4219 -99.9512 79.6875 -102.539 74.9023 -102.539 C 70.1172 -102.539 67.3828 -99.9512 65.0879 -95.6055 C 50.0488 -66.8457 11.2793 -52.6367 11.2793 -23.584 Z M 29.9805 -24.9512 C 29.9805 -41.5527 58.3496 -49.1699 74.9023 -81.7871 C 91.4062 -49.1699 119.775 -41.5527 119.775 -24.9512 C 119.775 -17.0898 114.648 -11.5234 105.859 -11.5234 C 99.6094 -11.5234 95.2637 -13.5254 90.8203 -16.3574 C 85.9863 -19.1895 78.5645 -16.7969 78.7109 -8.34961 C 78.9551 -2.34375 82.2754 5.22461 85.5957 9.81445 C 86.377 10.8398 85.7422 11.6211 85.0098 11.6211 L 64.7461 11.6211 C 64.0137 11.6211 63.4277 10.8887 64.1602 9.81445 C 67.627 4.73633 70.8008 -2.53906 71.0938 -8.34961 C 71.1914 -16.7969 63.7695 -19.1895 58.9355 -16.3574 C 54.4922 -13.5254 50.1465 -11.5234 43.8965 -11.5234 C 35.1074 -11.5234 29.9805 -17.0898 29.9805 -24.9512 Z"/>
  </g>
  <g id="Bold-L" transform="matrix(1 0 0 1 2266.86 1556)">
   <path d="M 11.2793 -23.7793 C 11.2793 -6.64062 23.3398 4.44336 38.5742 4.44336 C 45.166 4.44336 50.9766 2.73438 55.7129 -0.390625 C 53.125 5.0293 49.4629 8.98438 46.4355 12.4512 C 41.4551 18.3594 43.7012 27.002 52.4902 27.002 L 93.75 27.002 C 102.539 27.002 104.785 18.3594 99.8047 12.4512 C 96.9727 9.22852 93.7012 5.0293 91.3574 0.0488281 C 96.0449 2.92969 101.66 4.49219 107.617 4.49219 C 122.9 4.44336 134.961 -6.54297 134.961 -23.7793 C 134.961 -51.9043 96.4355 -65.5762 81.3965 -94.6777 C 79.541 -98.3398 77.2949 -100.635 73.1445 -100.635 C 68.9453 -100.635 66.748 -98.3398 64.8438 -94.6777 C 49.8047 -65.625 11.2793 -51.9043 11.2793 -23.7793 Z M 26.2695 -24.6582 C 26.2695 -43.0664 57.1777 -51.7578 73.1445 -84.0332 C 89.0625 -51.7578 119.971 -43.0664 119.971 -24.6582 C 119.971 -15.5762 114.014 -9.32617 104.297 -9.32617 C 97.5586 -9.32617 92.627 -11.8164 88.2812 -15.0391 C 83.8867 -18.0176 77.2949 -15.8691 77.5391 -8.49609 C 78.125 -2.09961 81.8359 6.00586 85.6934 10.9375 C 86.5234 11.9629 85.9863 12.8418 85.0586 12.8418 L 61.1816 12.8418 C 60.2539 12.8418 59.7656 12.0117 60.5469 10.9375 C 64.5508 5.66406 68.1152 -2.24609 68.7012 -8.49609 C 68.9453 -15.8691 62.3535 -18.0176 58.0078 -15.0391 C 53.6133 -11.8164 48.6816 -9.32617 41.9434 -9.32617 C 32.2754 -9.32617 26.2695 -15.5762 26.2695 -24.6582 Z"/>
  </g>
  <g id="Semibold-L" transform="matrix(1 0 0 1 1971.34 1556)">
   <path d="M 11.2793 -23.877 C 11.2793 -7.17773 22.8027 3.71094 38.2812 3.71094 C 45.1172 3.71094 51.1719 1.66016 55.8594 -1.75781 C 53.2715 4.24805 49.2188 8.74023 46.0938 12.2559 C 41.5039 17.7246 43.6035 25.4395 51.5625 25.4395 L 92.2852 25.4395 C 100.244 25.4395 102.295 17.7246 97.7539 12.2559 C 94.7266 8.88672 90.9668 4.19922 88.4766 -1.41602 C 93.1641 1.80664 99.1699 3.71094 105.518 3.71094 C 121.045 3.66211 132.568 -7.17773 132.568 -23.877 C 132.568 -51.416 94.1895 -64.7461 79.1504 -94.043 C 77.5391 -97.2168 75.6348 -99.3164 71.9238 -99.3164 C 68.1641 -99.3164 66.3086 -97.2168 64.6484 -94.043 C 49.6094 -64.7949 11.2793 -51.416 11.2793 -23.877 Z M 23.7305 -24.5117 C 23.7305 -44.1406 56.3965 -53.5156 71.9238 -85.5957 C 87.4023 -53.5156 120.117 -44.1406 120.117 -24.5117 C 120.117 -14.5508 113.525 -7.8125 103.223 -7.8125 C 96.1914 -7.8125 90.8203 -10.5957 86.5234 -14.1602 C 82.4707 -17.2363 76.416 -15.2344 76.709 -8.64258 C 77.5391 -1.95312 81.4941 6.54297 85.7422 11.6699 C 86.6699 12.7441 86.1328 13.7207 85.1074 13.7207 L 58.7402 13.7207 C 57.7148 13.7207 57.1777 12.793 58.1055 11.6699 C 62.4023 6.29883 66.2598 -2.05078 67.0898 -8.64258 C 67.4316 -15.2344 61.377 -17.2363 57.3242 -14.1602 C 52.9785 -10.5957 47.6562 -7.8125 40.5762 -7.8125 C 30.2734 -7.8125 23.7305 -14.5508 23.7305 -24.5117 Z"/>
  </g>
  <g id="Medium-L" transform="matrix(1 0 0 1 1675.56 1556)">
   <path d="M 11.2793 -23.9746 C 11.2793 -7.61719 22.4121 3.125 38.0371 3.125 C 45.0684 3.125 51.3672 0.830078 56.0059 -2.88086 C 53.3691 3.61328 49.0723 8.54492 45.8496 12.1094 C 41.5527 17.2363 43.5059 24.2676 50.8301 24.2676 L 91.1621 24.2676 C 98.4863 24.2676 100.439 17.2363 96.1426 12.1094 C 93.0176 8.59375 88.8672 3.56445 86.3281 -2.63672 C 90.918 0.927734 97.2168 3.125 103.906 3.125 C 119.58 3.125 130.713 -7.61719 130.713 -23.9746 C 130.713 -51.0254 92.4805 -64.1602 77.4902 -93.5059 C 76.0254 -96.3379 74.4141 -98.3398 70.9961 -98.3398 C 67.5781 -98.3398 65.9668 -96.3379 64.502 -93.5059 C 49.5117 -64.1602 11.2793 -51.0254 11.2793 -23.9746 Z M 21.7773 -24.3652 C 21.7773 -44.9219 55.8105 -54.834 70.9961 -86.7676 C 86.1816 -54.834 120.215 -44.9219 120.215 -24.3652 C 120.215 -13.7695 113.184 -6.68945 102.393 -6.68945 C 95.1172 -6.68945 89.4531 -9.7168 85.1562 -13.4766 C 81.3477 -16.6016 75.7324 -14.7949 76.123 -8.74023 C 77.0996 -1.80664 81.25 6.93359 85.791 12.207 C 86.7676 13.3301 86.2305 14.3555 85.1074 14.3555 L 56.8848 14.3555 C 55.7617 14.3555 55.2734 13.3789 56.2012 12.207 C 60.7422 6.83594 64.8926 -1.9043 65.8691 -8.74023 C 66.2598 -14.7949 60.5957 -16.6504 56.7871 -13.4766 C 52.5391 -9.7168 46.875 -6.68945 39.5996 -6.68945 C 28.7598 -6.68945 21.7773 -13.7695 21.7773 -24.3652 Z"/>
  </g>
  <g id="Regular-L" transform="matrix(1 0 0 1 1380.04 1556)">
   <path d="M 11.2793 -24.0723 C 11.2793 -8.20312 21.875 2.34375 37.7441 2.34375 C 45.0684 2.34375 51.7578 -0.390625 56.1523 -4.3457 C 53.6133 2.73438 48.8281 8.30078 45.5078 11.9141 C 41.6016 16.5527 43.4082 22.7539 49.9023 22.7539 L 89.6973 22.7539 C 96.1914 22.7539 97.998 16.5527 94.0918 11.9141 C 90.7715 8.30078 85.9863 2.73438 83.4473 -4.3457 C 87.8418 -0.390625 94.5312 2.34375 101.855 2.34375 C 117.725 2.34375 128.32 -8.20312 128.32 -24.0723 C 128.32 -50.5371 90.2832 -63.3301 75.2441 -92.8711 C 74.0234 -95.2637 72.7539 -97.0703 69.7754 -97.0703 C 66.7969 -97.0703 65.5273 -95.2637 64.3555 -92.8711 C 49.3164 -63.3301 11.2793 -50.5371 11.2793 -24.0723 Z M 19.2383 -24.1699 C 19.2383 -45.9961 55.0293 -56.5918 69.7754 -88.2812 C 84.5703 -56.5918 120.361 -45.9961 120.361 -24.1699 C 120.361 -12.7441 112.744 -5.22461 101.318 -5.22461 C 93.75 -5.22461 87.6465 -8.49609 83.4473 -12.6465 C 79.9316 -15.8203 74.8535 -14.1602 75.3418 -8.83789 C 76.5625 -1.66016 80.957 7.4707 85.8398 12.9395 C 86.8652 14.1113 86.377 15.2344 85.1562 15.2344 L 54.4434 15.2344 C 53.2227 15.2344 52.7344 14.1113 53.7598 12.9395 C 58.6426 7.4707 63.0371 -1.66016 64.2578 -8.83789 C 64.7461 -14.1602 59.668 -15.8691 56.1523 -12.6465 C 51.9531 -8.49609 45.8496 -5.22461 38.2324 -5.22461 C 26.8555 -5.22461 19.2383 -12.7441 19.2383 -24.1699 Z"/>
  </g>
  <g id="Light-L" transform="matrix(1 0 0 1 1084.16 1556)">
   <path d="M 11.2793 -24.9023 C 11.2793 -9.22852 21.7285 1.17188 37.4023 1.17188 C 45.2148 1.17188 52.1484 -2.14844 56.3477 -6.5918 C 53.7598 0.830078 48.877 7.08008 44.6289 11.4746 C 40.7227 15.7227 42.4316 21.5332 48.5352 21.5332 L 89.3555 21.5332 C 95.459 21.5332 97.2168 15.7227 93.3105 11.4746 C 89.0625 7.08008 84.1797 0.830078 81.543 -6.5918 C 85.791 -2.14844 92.7246 1.17188 100.537 1.17188 C 116.211 1.17188 126.66 -9.22852 126.66 -24.9023 C 126.66 -51.2207 88.0371 -63.6719 73.4863 -93.1641 C 72.4121 -95.2148 71.3867 -96.6797 68.9453 -96.6797 C 66.5527 -96.6797 65.4785 -95.2148 64.4531 -93.1641 C 49.8535 -63.6719 11.2793 -51.2207 11.2793 -24.9023 Z M 17.4805 -24.9512 C 17.4805 -47.5586 54.2969 -58.4473 68.9453 -89.9414 C 83.6426 -58.4473 120.459 -47.5586 120.459 -24.9512 C 120.459 -12.8418 112.354 -4.78516 100.244 -4.78516 C 92.627 -4.78516 86.6699 -8.1543 82.4219 -12.6465 C 79.2969 -15.7227 74.7559 -13.916 75.4883 -9.17969 C 77.4414 -1.07422 81.9336 7.32422 87.3535 12.9883 C 88.5742 14.2578 88.1348 15.625 86.5723 15.625 L 51.3672 15.625 C 49.8047 15.625 49.3652 14.2578 50.5859 12.9883 C 56.0059 7.32422 60.498 -1.07422 62.4512 -9.17969 C 63.1836 -13.916 58.5938 -15.7715 55.5176 -12.6465 C 51.2695 -8.1543 45.3125 -4.78516 37.6953 -4.78516 C 25.5371 -4.78516 17.4805 -12.8418 17.4805 -24.9512 Z"/>
  </g>
  <g id="Thin-L" transform="matrix(1 0 0 1 788.551 1556)">
   <path d="M 11.2793 -25.9766 C 11.2793 -10.6445 21.5332 -0.439453 36.9141 -0.439453 C 45.6055 -0.439453 52.9785 -4.6875 56.7871 -9.96094 C 54.0527 -2.00195 49.1211 5.37109 43.457 10.8398 C 39.5508 14.6484 41.2109 19.9707 46.7285 19.9707 L 88.9648 19.9707 C 94.5312 19.9707 96.1426 14.6484 92.2852 10.8398 C 86.6211 5.37109 81.6406 -2.00195 78.9551 -9.96094 C 82.7637 -4.6875 90.1367 -0.439453 98.8281 -0.439453 C 114.209 -0.439453 124.463 -10.6445 124.463 -25.9766 C 124.463 -52.0996 85.1562 -64.1113 71.0938 -93.5059 C 70.3125 -95.1172 69.5312 -96.1914 67.8711 -96.1914 C 66.2109 -96.1914 65.4297 -95.1172 64.6484 -93.5059 C 50.5859 -64.1113 11.2793 -52.0996 11.2793 -25.9766 Z M 15.1367 -25.9766 C 15.1367 -49.6582 53.2715 -60.8887 67.8711 -92.1875 C 82.4707 -60.8887 120.605 -49.6582 120.605 -25.9766 C 120.605 -12.8906 111.865 -4.19922 98.7793 -4.19922 C 91.2109 -4.19922 85.3516 -7.66602 81.0547 -12.6465 C 78.4668 -15.5273 74.6094 -13.623 75.7324 -9.66797 C 78.6133 -0.244141 83.252 7.17773 89.4043 13.0371 C 90.8691 14.4531 90.4297 16.2109 88.4766 16.2109 L 47.2656 16.2109 C 45.3125 16.2109 44.873 14.4531 46.3379 13.0371 C 52.4902 7.17773 57.1289 -0.244141 60.0098 -9.66797 C 61.1328 -13.623 57.2266 -15.625 54.6875 -12.6465 C 50.3418 -7.66602 44.5312 -4.19922 36.9629 -4.19922 C 23.877 -4.19922 15.1367 -12.8906 15.1367 -25.9766 Z"/>
  </g>
  <g id="Ultralight-L" transform="matrix(1 0 0 1 492.402 1556)">
   <path d="M 11.2793 -26.5137 C 11.2793 -11.3281 21.4355 -1.2207 36.6699 -1.2207 C 45.9961 -1.2207 53.7598 -6.29883 57.1777 -12.1582 C 54.3945 -3.80859 49.4141 4.29688 42.8223 10.498 C 38.9648 14.0625 40.5762 19.1895 45.8008 19.1895 L 88.7695 19.1895 C 94.043 19.1895 95.6055 14.0625 91.748 10.498 C 85.2051 4.29688 80.2246 -3.80859 77.4414 -12.1582 C 80.8594 -6.29883 88.5742 -1.2207 97.9492 -1.2207 C 113.135 -1.2207 123.34 -11.3281 123.34 -26.5137 C 123.34 -52.5391 83.6426 -64.3066 69.873 -93.6523 C 69.2383 -95.0684 68.5547 -95.9473 67.2852 -95.9473 C 66.0645 -95.9473 65.3809 -95.0684 64.6973 -93.6523 C 50.9277 -64.3066 11.2793 -52.5391 11.2793 -26.5137 Z M 13.916 -26.5137 C 13.916 -50.7324 52.7832 -62.1582 67.2852 -93.3105 C 81.8359 -62.1582 120.703 -50.7324 120.703 -26.5137 C 120.703 -12.9395 111.621 -3.90625 97.998 -3.90625 C 90.4785 -3.90625 84.7168 -7.42188 80.3223 -12.6953 C 78.0762 -15.4297 74.5117 -13.4766 75.8301 -9.91211 C 79.1992 0.146484 83.8867 7.08008 90.4297 13.0859 C 92.041 14.5508 91.6504 16.5039 89.4531 16.5039 L 45.166 16.5039 C 42.9688 16.5039 42.5781 14.5508 44.1895 13.0859 C 50.6836 7.08008 55.4199 0.146484 58.7891 -9.91211 C 60.0586 -13.4766 56.543 -15.5273 54.248 -12.6953 C 49.9023 -7.42188 44.1406 -3.90625 36.5723 -3.90625 C 22.998 -3.90625 13.916 -12.9395 13.916 -26.5137 Z"/>
  </g>
  <g id="Black-M" transform="matrix(1 0 0 1 2872.49 1126)">
   <path d="M 8.74023 -26.3184 C 8.74023 -11.3281 20.0195 -2.14844 30.8105 -2.14844 C 35.1074 -2.14844 38.8672 -2.83203 42.1875 -4.19922 C 40.625 -2.00195 38.8184 -0.146484 36.8164 2.19727 C 31.4941 8.34961 33.8379 18.4082 43.6035 18.4082 L 78.2227 18.4082 C 87.9883 18.4082 90.332 8.34961 85.0586 2.19727 C 83.3496 0.244141 81.8848 -1.80664 80.7129 -3.90625 C 83.8867 -2.68555 87.3535 -2.09961 90.8691 -2.09961 C 101.807 -2.24609 113.086 -11.2305 113.086 -26.3184 C 113.086 -50.4395 82.2754 -62.1094 70.8008 -83.9844 C 68.5547 -88.4766 65.5273 -90.7715 60.9375 -90.7715 C 56.3477 -90.7715 53.3691 -88.4766 51.0254 -83.9844 C 39.502 -62.207 8.74023 -50.4395 8.74023 -26.3184 Z M 29.3457 -28.1738 C 29.3457 -38.0371 46.9727 -42.1875 60.9375 -67.9688 C 74.8535 -42.1875 92.4805 -38.0371 92.4805 -28.1738 C 92.4805 -24.0234 89.8926 -20.752 84.4238 -20.752 C 80.4199 -20.752 78.3203 -21.5332 74.6582 -23.0469 C 70.2637 -24.9023 63.2812 -22.5586 63.2812 -14.2578 C 63.2812 -9.81445 65.1855 -5.41992 66.9922 -2.34375 C 67.5293 -1.5625 66.9922 -1.07422 66.5039 -1.07422 L 55.3223 -1.07422 C 54.834 -1.07422 54.3945 -1.51367 54.834 -2.34375 C 56.9336 -6.15234 58.5449 -10.1562 58.5449 -14.2578 C 58.5449 -22.5586 51.6113 -24.9023 47.2168 -23.0469 C 43.5059 -21.5332 41.4062 -20.752 37.4023 -20.752 C 31.9824 -20.752 29.3457 -24.0234 29.3457 -28.1738 Z"/>
  </g>
  <g id="Heavy-M" transform="matrix(1 0 0 1 2577.27 1126)">
   <path d="M 8.74023 -26.2695 C 8.74023 -11.9141 19.3359 -2.92969 30.5176 -2.92969 C 35.1074 -2.92969 39.1113 -3.75977 42.627 -5.51758 C 40.8203 -2.63672 38.7207 -0.439453 36.5723 2.05078 C 31.7871 7.66602 33.8867 16.5039 42.627 16.5039 L 76.2207 16.5039 C 84.9121 16.5039 87.0605 7.66602 82.2754 2.05078 C 80.4199 -0.0976562 78.6621 -2.53906 77.2461 -5.12695 C 80.6641 -3.61328 84.375 -2.88086 88.2324 -2.88086 C 99.5117 -2.97852 110.107 -11.8164 110.107 -26.2695 C 110.107 -49.5605 79.6387 -60.8887 68.1152 -83.0078 C 66.1133 -86.8652 63.5254 -89.0137 59.4238 -89.0137 C 55.2734 -89.0137 52.7832 -86.8652 50.7324 -83.0078 C 39.1602 -60.9375 8.74023 -49.5605 8.74023 -26.2695 Z M 26.1719 -27.6855 C 26.1719 -39.1113 46.0449 -44.1895 59.4238 -69.7266 C 72.8027 -44.1895 92.6758 -39.1113 92.6758 -27.6855 C 92.6758 -22.5586 89.3555 -18.75 83.2031 -18.75 C 78.7598 -18.75 76.0254 -19.9219 72.4121 -21.7773 C 68.3594 -23.8281 62.0605 -21.7285 62.1094 -14.3555 C 62.207 -9.76562 64.4531 -4.63867 66.6992 -1.26953 C 67.2363 -0.537109 66.748 0.0488281 66.2109 0.0488281 L 52.6367 0.0488281 C 52.0996 0.0488281 51.6602 -0.488281 52.1484 -1.26953 C 54.5898 -5.17578 56.6406 -10.0098 56.7383 -14.3555 C 56.7871 -21.7285 50.4395 -23.8281 46.4355 -21.7773 C 42.8223 -19.9219 40.0879 -18.75 35.6445 -18.75 C 29.4922 -18.75 26.1719 -22.5586 26.1719 -27.6855 Z"/>
  </g>
  <g id="Bold-M" transform="matrix(1 0 0 1 2282.24 1126)">
   <path d="M 8.74023 -26.2207 C 8.74023 -12.5488 18.5547 -3.80859 30.127 -3.80859 C 35.0586 -3.80859 39.3555 -4.88281 42.9688 -7.03125 C 41.0645 -3.36914 38.5254 -0.683594 36.2793 1.9043 C 32.1289 6.88477 33.9844 14.3555 41.5039 14.3555 L 73.9746 14.3555 C 81.4941 14.3555 83.3496 6.88477 79.1992 1.9043 C 77.1484 -0.488281 74.9512 -3.36914 73.291 -6.64062 C 76.8555 -4.73633 80.957 -3.75977 85.2539 -3.75977 C 96.9238 -3.80859 106.738 -12.4512 106.738 -26.2207 C 106.738 -48.584 76.709 -59.4727 65.0879 -81.8848 C 63.4277 -85.1074 61.3281 -87.0605 57.7637 -87.0605 C 54.1504 -87.0605 52.0996 -85.1074 50.3906 -81.8848 C 38.7207 -59.5215 8.74023 -48.584 8.74023 -26.2207 Z M 22.6562 -27.1973 C 22.6562 -40.332 45.0195 -46.4355 57.7637 -71.6797 C 70.459 -46.4355 92.8711 -40.332 92.8711 -27.1973 C 92.8711 -20.8984 88.7207 -16.4551 81.7871 -16.4551 C 76.8555 -16.4551 73.3887 -18.1152 69.9707 -20.3613 C 66.2598 -22.6074 60.6934 -20.8008 60.791 -14.4043 C 61.0352 -9.7168 63.6719 -3.75977 66.3086 -0.0976562 C 66.9434 0.683594 66.4551 1.26953 65.8691 1.26953 L 49.6094 1.26953 C 49.0234 1.26953 48.584 0.683594 49.1699 -0.0976562 C 51.9531 -4.10156 54.4434 -9.86328 54.6875 -14.4043 C 54.7852 -20.8008 49.2188 -22.6074 45.5566 -20.3613 C 42.0898 -18.1152 38.623 -16.4551 33.6914 -16.4551 C 26.7578 -16.4551 22.6562 -20.8984 22.6562 -27.1973 Z"/>
  </g>
  <g id="Semibold-M" transform="matrix(1 0 0 1 1986.67 1126)">
   <path d="M 8.74023 -26.1719 C 8.74023 -12.9395 18.0176 -4.39453 29.8828 -4.39453 C 35.0098 -4.39453 39.5508 -5.71289 43.2129 -8.1543 C 41.2109 -3.85742 38.3301 -0.78125 36.084 1.80664 C 32.3242 6.34766 34.082 12.9395 40.7715 12.9395 L 72.4121 12.9395 C 79.1016 12.9395 80.8105 6.34766 77.0996 1.80664 C 75 -0.634766 72.3633 -3.90625 70.5566 -7.8125 C 74.1699 -5.56641 78.6133 -4.3457 83.2031 -4.3457 C 95.166 -4.39453 104.443 -12.9395 104.443 -26.1719 C 104.443 -47.9004 74.707 -58.4961 62.9883 -81.1035 C 61.5723 -83.8867 59.8633 -85.6934 56.5918 -85.6934 C 53.3203 -85.6934 51.6113 -83.8867 50.1953 -81.1035 C 38.4277 -58.5449 8.74023 -47.9004 8.74023 -26.1719 Z M 20.166 -26.8555 C 20.166 -41.2109 44.3359 -47.998 56.5918 -72.998 C 68.8477 -47.998 92.9688 -41.2109 92.9688 -26.8555 C 92.9688 -19.7754 88.3301 -14.9414 80.8594 -14.9414 C 75.5371 -14.9414 71.6309 -16.8945 68.2617 -19.3848 C 64.8438 -21.7285 59.7168 -20.166 59.8633 -14.4531 C 60.2539 -9.66797 63.1348 -3.125 66.0645 0.683594 C 66.6992 1.51367 66.2598 2.14844 65.625 2.14844 L 47.5586 2.14844 C 46.875 2.14844 46.4844 1.51367 47.0703 0.683594 C 50.0977 -3.36914 52.9297 -9.76562 53.3203 -14.4531 C 53.418 -20.166 48.3398 -21.7285 44.9219 -19.3848 C 41.5527 -16.8945 37.6465 -14.9414 32.3242 -14.9414 C 24.8535 -14.9414 20.166 -19.7754 20.166 -26.8555 Z"/>
  </g>
  <g id="Medium-M" transform="matrix(1 0 0 1 1690.84 1126)">
   <path d="M 8.74023 -26.1719 C 8.74023 -13.2812 17.5781 -4.83398 29.7363 -4.83398 C 34.9609 -4.83398 39.6973 -6.34766 43.3105 -8.98438 C 41.3086 -4.24805 38.1348 -0.830078 35.9375 1.70898 C 32.5195 5.9082 34.082 11.8164 40.1855 11.8164 L 71.1914 11.8164 C 77.2949 11.8164 78.9062 5.9082 75.4883 1.70898 C 73.3398 -0.78125 70.3613 -4.29688 68.457 -8.78906 C 72.0703 -6.25 76.7578 -4.83398 81.6895 -4.83398 C 93.8477 -4.83398 102.686 -13.2812 102.686 -26.1719 C 102.686 -47.3633 73.1934 -57.7637 61.4258 -80.5176 C 60.1562 -82.959 58.6914 -84.668 55.7129 -84.668 C 52.7344 -84.668 51.2695 -82.959 50 -80.5176 C 38.2324 -57.7637 8.74023 -47.3633 8.74023 -26.1719 Z M 18.3594 -26.5625 C 18.3594 -41.8457 43.7988 -49.1699 55.7129 -74.0234 C 67.627 -49.1699 93.0664 -41.8457 93.0664 -26.5625 C 93.0664 -18.8965 88.0371 -13.7207 80.127 -13.7207 C 74.5605 -13.7207 70.2637 -15.9668 66.9434 -18.6523 C 63.7207 -21.0938 59.0332 -19.6777 59.1797 -14.502 C 59.6191 -9.61914 62.7441 -2.68555 65.8691 1.31836 C 66.5527 2.09961 66.1133 2.7832 65.4297 2.7832 L 45.9961 2.7832 C 45.3125 2.7832 44.873 2.14844 45.5078 1.31836 C 48.7305 -2.7832 51.8066 -9.66797 52.2461 -14.502 C 52.3926 -19.6777 47.6562 -21.0938 44.4824 -18.6523 C 41.1621 -15.9668 36.8652 -13.7207 31.2988 -13.7207 C 23.3887 -13.7207 18.3594 -18.8965 18.3594 -26.5625 Z"/>
  </g>
  <g id="Regular-M" transform="matrix(1 0 0 1 1395.28 1126)">
   <path d="M 8.74023 -26.123 C 8.74023 -13.7207 17.041 -5.41992 29.4922 -5.41992 C 34.8633 -5.41992 39.9414 -7.27539 43.457 -10.1074 C 41.4551 -4.83398 37.8418 -0.830078 35.7422 1.61133 C 32.7148 5.37109 34.1797 10.3516 39.4531 10.3516 L 69.6777 10.3516 C 74.9512 10.3516 76.416 5.37109 73.3398 1.61133 C 71.2891 -0.830078 67.627 -4.83398 65.6738 -10.1074 C 69.1895 -7.27539 74.2676 -5.41992 79.6387 -5.41992 C 92.0898 -5.41992 100.391 -13.7207 100.391 -26.123 C 100.391 -46.7285 71.1914 -56.8359 59.3262 -79.7852 C 58.3008 -81.7871 57.1777 -83.3496 54.541 -83.3496 C 51.9043 -83.3496 50.8301 -81.7871 49.8047 -79.7852 C 37.9395 -56.8359 8.74023 -46.7285 8.74023 -26.123 Z M 15.918 -26.2207 C 15.918 -42.6758 43.0664 -50.7324 54.541 -75.3906 C 66.0156 -50.7324 93.2129 -42.6758 93.2129 -26.2207 C 93.2129 -17.7734 87.5977 -12.207 79.1504 -12.207 C 73.2422 -12.207 68.457 -14.7461 65.2832 -17.6758 C 62.3047 -20.2637 58.1055 -19.043 58.3008 -14.5996 C 58.7891 -9.57031 62.207 -2.05078 65.625 2.09961 C 66.3574 2.92969 65.918 3.61328 65.1855 3.61328 L 43.9453 3.61328 C 43.2129 3.61328 42.7734 2.92969 43.5059 2.09961 C 46.9238 -2.05078 50.293 -9.57031 50.8301 -14.5996 C 51.0254 -19.043 46.8262 -20.2637 43.8477 -17.6758 C 40.625 -14.7461 35.8887 -12.207 29.9805 -12.207 C 21.5332 -12.207 15.918 -17.7734 15.918 -26.2207 Z"/>
  </g>
  <g id="Light-M" transform="matrix(1 0 0 1 1099.32 1126)">
   <path d="M 8.74023 -26.8555 C 8.74023 -14.6484 16.8945 -6.49414 29.1504 -6.49414 C 34.9609 -6.49414 40.2344 -8.78906 43.6035 -12.0117 C 41.5527 -6.44531 37.8418 -1.9043 34.9609 1.17188 C 31.9336 4.63867 33.3008 9.32617 38.2324 9.32617 L 69.3848 9.32617 C 74.3164 9.32617 75.6836 4.63867 72.6562 1.17188 C 69.7754 -1.9043 66.0645 -6.44531 64.0625 -12.0117 C 67.4316 -8.78906 72.7051 -6.49414 78.5156 -6.49414 C 90.7227 -6.49414 98.877 -14.6484 98.877 -26.8555 C 98.877 -47.3145 69.2383 -57.1289 57.7148 -79.9805 C 56.8359 -81.7383 55.957 -83.0078 53.8086 -83.0078 C 51.709 -83.0078 50.7812 -81.7383 49.9023 -79.9805 C 38.4277 -57.1289 8.74023 -47.3145 8.74023 -26.8555 Z M 14.3066 -26.9043 C 14.3066 -44.0918 42.4316 -52.3926 53.8086 -76.9043 C 65.2344 -52.3926 93.3105 -44.0918 93.3105 -26.9043 C 93.3105 -17.8223 87.2559 -11.8164 78.1738 -11.8164 C 72.2656 -11.8164 67.5781 -14.4043 64.3066 -17.7246 C 61.7676 -20.166 57.959 -18.7988 58.4473 -14.8926 C 59.6191 -9.0332 63.0859 -2.19727 67.041 2.14844 C 67.8711 3.07617 67.4805 4.00391 66.4551 4.00391 L 41.1621 4.00391 C 40.1367 4.00391 39.7461 3.07617 40.625 2.14844 C 44.5801 -2.19727 48.0469 -9.0332 49.2188 -14.8926 C 49.6582 -18.7988 45.8984 -20.166 43.3105 -17.7246 C 40.0391 -14.4043 35.3516 -11.8164 29.4434 -11.8164 C 20.3613 -11.8164 14.3066 -17.8223 14.3066 -26.9043 Z"/>
  </g>
  <g id="Thin-M" transform="matrix(1 0 0 1 803.59 1126)">
   <path d="M 8.74023 -27.832 C 8.74023 -15.8691 16.748 -7.91016 28.7109 -7.91016 C 35.2051 -7.91016 40.8203 -10.9863 43.8965 -14.8926 C 41.7969 -8.83789 37.9883 -3.36914 33.9355 0.585938 C 30.9082 3.66211 32.1777 7.91016 36.6211 7.91016 L 69.043 7.91016 C 73.4375 7.91016 74.7559 3.66211 71.7285 0.585938 C 67.6758 -3.36914 63.8672 -8.83789 61.7676 -14.8926 C 64.8438 -10.9863 70.459 -7.91016 76.9531 -7.91016 C 88.916 -7.91016 96.9238 -15.8691 96.9238 -27.832 C 96.9238 -48.0957 66.6016 -57.5195 55.6152 -80.3223 C 54.9316 -81.6406 54.2969 -82.5684 52.832 -82.5684 C 51.3672 -82.5684 50.7324 -81.6406 50.0488 -80.3223 C 39.0625 -57.5195 8.74023 -48.0957 8.74023 -27.832 Z M 12.207 -27.832 C 12.207 -45.9473 41.5039 -54.5898 52.832 -78.9062 C 64.1602 -54.5898 93.457 -45.9473 93.457 -27.832 C 93.457 -17.9199 86.8164 -11.3281 76.8555 -11.3281 C 70.9961 -11.3281 66.4551 -13.9648 63.0859 -17.7246 C 60.9863 -20.0195 57.8613 -18.5547 58.6426 -15.332 C 60.6445 -8.30078 64.209 -2.34375 68.8477 2.19727 C 69.9219 3.22266 69.5801 4.49219 68.1641 4.49219 L 37.5 4.49219 C 36.084 4.49219 35.7422 3.22266 36.8164 2.19727 C 41.4551 -2.34375 45.0195 -8.30078 47.0215 -15.332 C 47.8027 -18.5547 44.6777 -20.0684 42.5781 -17.7246 C 39.209 -13.9648 34.668 -11.3281 28.8086 -11.3281 C 18.8477 -11.3281 12.207 -17.9199 12.207 -27.832 Z"/>
  </g>
  <g id="Ultralight-M" transform="matrix(1 0 0 1 507.392 1126)">
   <path d="M 8.74023 -28.3203 C 8.74023 -16.5039 16.6504 -8.64258 28.4668 -8.64258 C 35.498 -8.64258 41.3574 -12.3047 44.1895 -16.6504 C 42.041 -10.3027 38.1836 -4.24805 33.3984 0.292969 C 30.3711 3.17383 31.6406 7.17773 35.791 7.17773 L 68.8477 7.17773 C 73.0469 7.17773 74.2676 3.17383 71.2891 0.292969 C 66.4551 -4.24805 62.5977 -10.3027 60.498 -16.6504 C 63.2812 -12.3047 69.1406 -8.64258 76.1719 -8.64258 C 87.9883 -8.64258 95.8984 -16.5039 95.8984 -28.3203 C 95.8984 -48.4863 65.2832 -57.7148 54.541 -80.4688 C 53.9551 -81.6406 53.418 -82.373 52.3438 -82.373 C 51.2207 -82.373 50.6836 -81.6406 50.1465 -80.4688 C 39.3555 -57.7148 8.74023 -48.4863 8.74023 -28.3203 Z M 11.1328 -28.3203 C 11.1328 -46.9238 41.0645 -55.7129 52.3438 -79.8828 C 63.623 -55.7129 93.5059 -46.9238 93.5059 -28.3203 C 93.5059 -17.9199 86.5723 -11.0352 76.1719 -11.0352 C 70.3125 -11.0352 65.8203 -13.7207 62.4512 -17.7246 C 60.6445 -19.9219 57.7637 -18.4082 58.7402 -15.5273 C 61.1816 -7.91016 64.7949 -2.44141 69.7754 2.19727 C 70.9473 3.32031 70.6543 4.78516 68.9941 4.78516 L 35.6445 4.78516 C 33.9844 4.78516 33.6914 3.32031 34.8633 2.19727 C 39.8438 -2.44141 43.457 -7.91016 45.8984 -15.5273 C 46.875 -18.4082 44.043 -19.9707 42.1875 -17.7246 C 38.8184 -13.7207 34.3262 -11.0352 28.4668 -11.0352 C 18.0664 -11.0352 11.1328 -17.9199 11.1328 -28.3203 Z"/>
  </g>
  <g id="Black-S" transform="matrix(1 0 0 1 2885.79 696)">
   <path d="M 6.83594 -28.2227 C 6.83594 -16.5527 15.625 -9.375 24.1211 -9.375 C 27.4902 -9.375 30.4688 -9.91211 33.0566 -11.0352 C 31.8359 -9.22852 30.4199 -7.76367 28.8086 -5.9082 C 24.707 -1.12305 26.5137 6.64062 34.082 6.64062 L 61.1328 6.64062 C 68.7012 6.64062 70.5078 -1.12305 66.4062 -5.9082 C 65.0879 -7.4707 63.916 -9.08203 62.9883 -10.7422 C 65.4785 -9.76562 68.2129 -9.32617 70.9961 -9.32617 C 79.5898 -9.42383 88.3789 -16.4551 88.3789 -28.2227 C 88.3789 -47.0703 64.2578 -56.2012 55.2734 -73.3398 C 53.5156 -76.8066 51.1719 -78.6133 47.6074 -78.6133 C 44.043 -78.6133 41.748 -76.8066 39.9414 -73.3398 C 30.9082 -56.25 6.83594 -47.0703 6.83594 -28.2227 Z M 22.7539 -29.6387 C 22.7539 -37.5 36.7188 -40.8203 47.6074 -60.9863 C 58.4961 -40.8203 72.4609 -37.5 72.4609 -29.6387 C 72.4609 -26.3184 70.3613 -23.7305 66.0645 -23.7305 C 62.8906 -23.7305 61.1816 -24.3652 58.3008 -25.5859 C 54.8828 -27.0508 49.4629 -25.2441 49.4629 -18.7988 C 49.4629 -15.332 50.9766 -11.8164 52.4414 -9.375 C 52.832 -8.78906 52.4414 -8.39844 52.0508 -8.39844 L 43.1641 -8.39844 C 42.7734 -8.39844 42.4316 -8.74023 42.7734 -9.375 C 44.4336 -12.3535 45.752 -15.5762 45.752 -18.7988 C 45.752 -25.2441 40.332 -27.0508 36.9141 -25.5859 C 34.0332 -24.3652 32.3242 -23.7305 29.1504 -23.7305 C 24.8535 -23.7305 22.7539 -26.3184 22.7539 -29.6387 Z"/>
  </g>
  <g id="Heavy-S" transform="matrix(1 0 0 1 2590.16 696)">
   <path d="M 6.83594 -28.125 C 6.83594 -16.8945 15.0879 -9.86328 23.9258 -9.86328 C 27.4902 -9.86328 30.6641 -10.498 33.3984 -11.8652 C 32.0312 -9.57031 30.3711 -7.91016 28.7109 -5.95703 C 25 -1.5625 26.6602 5.32227 33.4961 5.32227 L 59.6191 5.32227 C 66.4062 5.32227 68.0664 -1.5625 64.3555 -5.95703 C 62.9395 -7.66602 61.5723 -9.52148 60.498 -11.5723 C 63.1348 -10.3516 66.0645 -9.76562 69.0918 -9.81445 C 77.9785 -9.86328 86.2305 -16.7969 86.2305 -28.125 C 86.2305 -46.3379 62.5 -55.2246 53.3691 -72.5586 C 51.8066 -75.5859 49.8047 -77.2949 46.5332 -77.2949 C 43.2617 -77.2949 41.3086 -75.5859 39.6973 -72.5586 C 30.5664 -55.2246 6.83594 -46.3379 6.83594 -28.125 Z M 20.5078 -29.1992 C 20.5078 -38.1836 36.084 -42.1875 46.5332 -62.1582 C 56.9824 -42.1875 72.5586 -38.1836 72.5586 -29.1992 C 72.5586 -25.1953 69.9707 -22.2168 65.2344 -22.2168 C 61.7188 -22.2168 59.5215 -23.1934 56.6895 -24.6094 C 53.5156 -26.2207 48.5352 -24.6094 48.5352 -18.7988 C 48.584 -15.332 50.3418 -11.1816 52.0508 -8.59375 C 52.4414 -8.00781 52.0508 -7.56836 51.6602 -7.56836 L 41.4062 -7.56836 C 41.0156 -7.56836 40.6738 -7.95898 41.0645 -8.59375 C 42.8711 -11.6211 44.5312 -15.5273 44.5312 -18.7988 C 44.5312 -24.6094 39.5508 -26.2207 36.377 -24.6094 C 33.5938 -23.1934 31.3965 -22.2168 27.8809 -22.2168 C 23.0957 -22.2168 20.5078 -25.1953 20.5078 -29.1992 Z"/>
  </g>
  <g id="Bold-S" transform="matrix(1 0 0 1 2294.62 696)">
   <path d="M 6.83594 -27.9785 C 6.83594 -17.2363 14.502 -10.3516 23.6816 -10.3516 C 27.4902 -10.3516 30.8594 -11.1816 33.6914 -12.8418 C 32.1777 -9.96094 30.1758 -7.95898 28.6133 -6.05469 C 25.3418 -2.09961 26.8555 3.80859 32.8125 3.80859 L 57.9102 3.80859 C 63.8672 3.80859 65.332 -2.09961 62.1094 -6.05469 C 60.6445 -7.8125 58.9355 -9.96094 57.666 -12.5488 C 60.4492 -11.084 63.6719 -10.3027 66.9922 -10.3516 C 76.1719 -10.4004 83.8867 -17.1875 83.8867 -27.9785 C 83.8867 -45.5078 60.498 -54.1016 51.2695 -71.6797 C 49.9512 -74.2676 48.291 -75.8301 45.3613 -75.8301 C 42.4316 -75.8301 40.7715 -74.2676 39.4531 -71.6797 C 30.1758 -54.1016 6.83594 -45.5078 6.83594 -27.9785 Z M 17.9688 -28.7598 C 17.9688 -38.916 35.4004 -43.7012 45.3613 -63.4766 C 55.3223 -43.7012 72.7051 -38.916 72.7051 -28.7598 C 72.7051 -23.9258 69.5801 -20.5566 64.2578 -20.5566 C 60.3516 -20.5566 57.6172 -21.8262 54.9316 -23.5352 C 52.002 -25.293 47.5098 -23.9258 47.5098 -18.8477 C 47.5586 -15.3809 49.6094 -10.498 51.6113 -7.66602 C 52.002 -7.08008 51.6602 -6.68945 51.2695 -6.68945 L 39.4531 -6.68945 C 39.0625 -6.68945 38.7207 -7.08008 39.1113 -7.66602 C 41.1621 -10.791 43.1152 -15.4785 43.1641 -18.8477 C 43.2129 -23.9258 38.7207 -25.293 35.791 -23.5352 C 33.1055 -21.8262 30.3223 -20.5566 26.416 -20.5566 C 21.1426 -20.5566 17.9688 -23.9258 17.9688 -28.7598 Z"/>
  </g>
  <g id="Semibold-S" transform="matrix(1 0 0 1 1998.74 696)">
   <path d="M 6.83594 -27.8809 C 6.83594 -17.4805 14.1113 -10.7422 23.5352 -10.7422 C 27.4414 -10.7422 30.957 -11.6699 33.8379 -13.5254 C 32.2754 -10.2051 30.0293 -7.95898 28.5156 -6.10352 C 25.5859 -2.44141 26.9531 2.7832 32.3242 2.7832 L 56.7383 2.7832 C 62.1094 2.7832 63.4766 -2.44141 60.5469 -6.10352 C 59.082 -7.86133 57.0801 -10.2539 55.6641 -13.2812 C 58.5449 -11.5723 61.9629 -10.6934 65.5273 -10.6934 C 74.9512 -10.7422 82.2266 -17.4316 82.2266 -27.8809 C 82.2266 -44.9219 59.1309 -53.3203 49.8047 -71.0449 C 48.6328 -73.3398 47.2656 -74.8535 44.5312 -74.8535 C 41.7969 -74.8535 40.4297 -73.3398 39.2578 -71.0449 C 29.9316 -53.3691 6.83594 -44.9219 6.83594 -27.8809 Z M 16.2598 -28.418 C 16.2598 -39.4531 34.9121 -44.7266 44.5312 -64.3555 C 54.1504 -44.7266 72.8027 -39.4531 72.8027 -28.418 C 72.8027 -23.0469 69.2871 -19.3848 63.623 -19.3848 C 59.4727 -19.3848 56.3477 -20.9473 53.7109 -22.8027 C 50.9277 -24.6582 46.7773 -23.4375 46.8262 -18.8477 C 46.875 -15.3809 49.1211 -10.0098 51.2695 -7.08008 C 51.709 -6.49414 51.3672 -6.05469 50.9766 -6.05469 L 38.0859 -6.05469 C 37.6953 -6.05469 37.3535 -6.44531 37.793 -7.08008 C 39.9902 -10.2051 42.1875 -15.4297 42.2363 -18.8477 C 42.2852 -23.4375 38.1348 -24.6582 35.3516 -22.8027 C 32.7148 -20.9473 29.5898 -19.3848 25.4395 -19.3848 C 19.7754 -19.3848 16.2598 -23.0469 16.2598 -28.418 Z"/>
  </g>
  <g id="Medium-S" transform="matrix(1 0 0 1 1702.63 696)">
   <path d="M 6.83594 -27.832 C 6.83594 -17.6758 13.8184 -10.9863 23.3887 -10.9863 C 27.3926 -10.9863 31.0059 -12.0605 33.8867 -14.0137 C 32.373 -10.4004 29.8828 -7.91016 28.4668 -6.10352 C 25.7812 -2.68555 27.0508 2.00195 31.9824 2.00195 L 55.8594 2.00195 C 60.791 2.00195 62.0605 -2.68555 59.375 -6.10352 C 57.959 -7.86133 55.6641 -10.4492 54.1504 -13.8672 C 57.0312 -12.0117 60.6445 -10.9863 64.4043 -10.9863 C 74.0234 -10.9863 81.0059 -17.6758 81.0059 -27.832 C 81.0059 -44.4824 58.1055 -52.7344 48.6816 -70.6055 C 47.6562 -72.6562 46.4355 -74.0723 43.8965 -74.0723 C 41.3574 -74.0723 40.1855 -72.6562 39.1113 -70.6055 C 29.7363 -52.7832 6.83594 -44.4824 6.83594 -27.832 Z M 14.9414 -28.1738 C 14.9414 -39.8438 34.5703 -45.5078 43.8965 -65.0391 C 53.2715 -45.5078 72.8516 -39.8438 72.8516 -28.1738 C 72.8516 -22.4121 69.0918 -18.5059 63.1348 -18.5059 C 58.7402 -18.5059 55.3223 -20.2148 52.7832 -22.2168 C 50.1465 -24.1699 46.2402 -23.0957 46.2891 -18.8965 C 46.3379 -15.3809 48.7793 -9.66797 51.0742 -6.5918 C 51.5137 -6.00586 51.1719 -5.56641 50.7324 -5.56641 L 37.1094 -5.56641 C 36.6699 -5.56641 36.3281 -6.00586 36.7676 -6.5918 C 39.1113 -9.76562 41.4551 -15.4297 41.5527 -18.8965 C 41.5527 -23.0957 37.6953 -24.2188 35.0586 -22.2168 C 32.4707 -20.2148 29.0527 -18.5059 24.707 -18.5059 C 18.75 -18.5059 14.9414 -22.4121 14.9414 -28.1738 Z"/>
  </g>
  <g id="Regular-S" transform="matrix(1 0 0 1 1406.75 696)">
   <path d="M 6.83594 -27.7344 C 6.83594 -17.9199 13.4277 -11.3281 23.2422 -11.3281 C 27.2949 -11.3281 31.1523 -12.5977 33.9844 -14.6484 C 32.4707 -10.6445 29.6875 -7.8125 28.3691 -6.15234 C 26.0254 -3.02734 27.1484 1.02539 31.4941 1.02539 L 54.6875 1.02539 C 59.0332 1.02539 60.2051 -3.02734 57.8125 -6.15234 C 56.543 -7.8125 53.7598 -10.6445 52.2461 -14.6484 C 55.0293 -12.5977 58.9355 -11.3281 62.9395 -11.3281 C 72.8027 -11.3281 79.3457 -17.9199 79.3457 -27.7344 C 79.3457 -43.9453 56.7383 -52.002 47.2656 -70.0195 C 46.3379 -71.7285 45.4102 -73.0957 43.1152 -73.0957 C 40.7715 -73.0957 39.8438 -71.7285 38.916 -70.0195 C 29.4922 -52.002 6.83594 -43.9453 6.83594 -27.7344 Z M 13.2324 -27.832 C 13.2324 -40.3809 34.082 -46.5332 43.1152 -65.9668 C 52.0996 -46.5332 72.9492 -40.3809 72.9492 -27.832 C 72.9492 -21.5332 68.7988 -17.3828 62.5 -17.3828 C 57.8613 -17.3828 54.0527 -19.3359 51.5625 -21.4844 C 49.0723 -23.584 45.5566 -22.6074 45.5566 -18.8965 C 45.7031 -15.3809 48.291 -9.17969 50.7324 -6.00586 C 51.2207 -5.41992 50.8789 -4.98047 50.4395 -4.98047 L 35.7422 -4.98047 C 35.3027 -4.98047 34.9609 -5.41992 35.4492 -6.00586 C 37.8906 -9.17969 40.5273 -15.3809 40.625 -18.8965 C 40.6738 -22.6074 37.1094 -23.584 34.6191 -21.4844 C 32.1289 -19.3359 28.3203 -17.3828 23.6816 -17.3828 C 17.3828 -17.3828 13.2324 -21.5332 13.2324 -27.832 Z"/>
  </g>
  <g id="Light-S" transform="matrix(1 0 0 1 1110.7 696)">
   <path d="M 6.83594 -28.418 C 6.83594 -18.75 13.2812 -12.3047 22.9492 -12.3047 C 27.3438 -12.3047 31.3965 -13.916 34.082 -16.3086 C 32.5195 -12.0605 29.6387 -8.69141 27.6855 -6.54297 C 25.293 -3.71094 26.416 0.0488281 30.4199 0.0488281 L 54.4434 0.0488281 C 58.4473 0.0488281 59.5703 -3.71094 57.1777 -6.54297 C 55.2246 -8.69141 52.3438 -12.0605 50.7812 -16.3086 C 53.5156 -13.916 57.5195 -12.3047 61.9141 -12.3047 C 71.582 -12.3047 78.0273 -18.75 78.0273 -28.418 C 78.0273 -44.4824 54.9805 -52.2461 45.8496 -70.2148 C 45.0684 -71.6797 44.2871 -72.8027 42.4316 -72.8027 C 40.5762 -72.8027 39.7949 -71.6797 39.0137 -70.2148 C 29.8828 -52.2461 6.83594 -44.4824 6.83594 -28.418 Z M 11.8164 -28.4668 C 11.8164 -41.6016 33.4961 -48.0469 42.4316 -67.2852 C 51.416 -48.0469 73.0469 -41.6016 73.0469 -28.4668 C 73.0469 -21.582 68.5059 -17.041 61.6211 -17.041 C 56.9824 -17.041 53.2715 -19.043 50.7324 -21.4844 C 48.584 -23.4863 45.459 -22.4609 45.7031 -19.1895 C 46.3867 -14.8926 49.0723 -9.27734 51.9531 -5.95703 C 52.5879 -5.27344 52.2949 -4.63867 51.5625 -4.63867 L 33.3008 -4.63867 C 32.6172 -4.63867 32.2754 -5.27344 32.9102 -5.95703 C 35.8398 -9.27734 38.4766 -14.8926 39.1602 -19.1895 C 39.4043 -22.4609 36.2793 -23.4863 34.1309 -21.4844 C 31.5918 -19.043 27.8809 -17.041 23.2422 -17.041 C 16.4062 -17.041 11.8164 -21.582 11.8164 -28.4668 Z"/>
  </g>
  <g id="Thin-S" transform="matrix(1 0 0 1 814.845 696)">
   <path d="M 6.83594 -29.248 C 6.83594 -19.8242 13.1348 -13.5742 22.5586 -13.5742 C 27.4902 -13.5742 31.8359 -15.7715 34.3262 -18.7012 C 32.666 -14.0625 29.6875 -9.96094 26.7578 -7.03125 C 24.4141 -4.58984 25.4395 -1.17188 29.0039 -1.17188 L 54.1504 -1.17188 C 57.7148 -1.17188 58.7402 -4.58984 56.3965 -7.03125 C 53.418 -9.96094 50.4395 -14.0625 48.8281 -18.7012 C 51.3184 -15.7715 55.6152 -13.5742 60.5957 -13.5742 C 70.0195 -13.5742 76.3184 -19.8242 76.3184 -29.248 C 76.3184 -45.166 52.6855 -52.5879 43.9453 -70.459 C 43.4082 -71.6309 42.8223 -72.4121 41.5527 -72.4121 C 40.332 -72.4121 39.7461 -71.6309 39.1602 -70.459 C 30.4688 -52.5879 6.83594 -45.166 6.83594 -29.248 Z M 9.96094 -29.248 C 9.96094 -43.2617 32.666 -50 41.5527 -69.043 C 50.4395 -50 73.1445 -43.2617 73.1445 -29.248 C 73.1445 -21.6309 68.0664 -16.6016 60.4492 -16.6016 C 55.8594 -16.6016 52.2461 -18.6523 49.6582 -21.5332 C 47.9492 -23.3398 45.3613 -22.2168 45.8984 -19.5312 C 47.3145 -14.2578 50.0977 -9.42383 53.5645 -5.95703 C 54.3945 -5.12695 54.1016 -4.19922 53.0762 -4.19922 L 30.0781 -4.19922 C 29.0039 -4.19922 28.7598 -5.12695 29.541 -5.95703 C 33.0566 -9.42383 35.8398 -14.2578 37.2559 -19.5312 C 37.793 -22.2168 35.2051 -23.3887 33.4961 -21.5332 C 30.8594 -18.6523 27.2949 -16.6016 22.7051 -16.6016 C 15.0391 -16.6016 9.96094 -21.6309 9.96094 -29.248 Z"/>
  </g>
  <g id="Ultralight-S" transform="matrix(1 0 0 1 518.598 696)">
   <path d="M 6.83594 -29.6875 C 6.83594 -20.3613 13.0371 -14.209 22.3633 -14.209 C 27.6855 -14.209 32.2266 -16.8945 34.5215 -20.166 C 32.8613 -15.2832 29.834 -10.7422 26.2695 -7.32422 C 23.9258 -5.0293 24.9023 -1.80664 28.2227 -1.80664 L 54.0039 -1.80664 C 57.3242 -1.80664 58.3008 -5.0293 55.957 -7.32422 C 52.3926 -10.7422 49.3652 -15.2832 47.7539 -20.166 C 50 -16.8945 54.541 -14.209 59.8633 -14.209 C 69.1895 -14.209 75.3906 -20.3613 75.3906 -29.6875 C 75.3906 -45.5078 51.5137 -52.7832 43.0176 -70.6055 C 42.5293 -71.582 42.0898 -72.2168 41.1133 -72.2168 C 40.1855 -72.2168 39.6973 -71.582 39.2578 -70.6055 C 30.7617 -52.7832 6.83594 -45.5078 6.83594 -29.6875 Z M 8.98438 -29.6875 C 8.98438 -44.1406 32.2754 -50.9766 41.1133 -69.9707 C 49.9512 -50.9766 73.2422 -44.1406 73.2422 -29.6875 C 73.2422 -21.6797 67.8711 -16.3574 59.8633 -16.3574 C 55.2734 -16.3574 51.709 -18.457 49.1211 -21.5332 C 47.6074 -23.2422 45.2637 -22.1191 45.9961 -19.7266 C 47.8027 -13.9648 50.6348 -9.52148 54.3945 -5.9082 C 55.3223 -5.0293 55.0781 -3.95508 53.8086 -3.95508 L 28.418 -3.95508 C 27.1973 -3.95508 26.9531 -5.0293 27.832 -5.9082 C 31.6406 -9.52148 34.4238 -13.9648 36.2793 -19.7266 C 36.9629 -22.1191 34.668 -23.291 33.1543 -21.5332 C 30.5176 -18.457 26.9531 -16.3574 22.3633 -16.3574 C 14.3555 -16.3574 8.98438 -21.6797 8.98438 -29.6875 Z"/>
  </g>
 </g>
</svg>
